%TF.GenerationSoftware,KiCad,Pcbnew,7.0.7*%
%TF.CreationDate,2023-12-05T11:36:27+01:00*%
%TF.ProjectId,PF,50462e6b-6963-4616-945f-706362585858,rev?*%
%TF.SameCoordinates,Original*%
%TF.FileFunction,Copper,L2,Bot*%
%TF.FilePolarity,Positive*%
%FSLAX46Y46*%
G04 Gerber Fmt 4.6, Leading zero omitted, Abs format (unit mm)*
G04 Created by KiCad (PCBNEW 7.0.7) date 2023-12-05 11:36:27*
%MOMM*%
%LPD*%
G01*
G04 APERTURE LIST*
%TA.AperFunction,ComponentPad*%
%ADD10R,1.700000X1.700000*%
%TD*%
%TA.AperFunction,ComponentPad*%
%ADD11O,1.700000X1.700000*%
%TD*%
%TA.AperFunction,ComponentPad*%
%ADD12C,1.000000*%
%TD*%
%TA.AperFunction,ComponentPad*%
%ADD13C,1.500000*%
%TD*%
%TA.AperFunction,ComponentPad*%
%ADD14C,1.700000*%
%TD*%
%TA.AperFunction,ComponentPad*%
%ADD15C,3.500000*%
%TD*%
%TA.AperFunction,ViaPad*%
%ADD16C,0.600000*%
%TD*%
%TA.AperFunction,Conductor*%
%ADD17C,0.300000*%
%TD*%
%TA.AperFunction,Conductor*%
%ADD18C,0.500000*%
%TD*%
G04 APERTURE END LIST*
D10*
%TO.P,CON1,1,VPP*%
%TO.N,/~{MCLR}*%
X112395000Y-99695000D03*
D11*
%TO.P,CON1,2,VDD*%
%TO.N,+3V3*%
X112395000Y-102235000D03*
%TO.P,CON1,3,GND*%
%TO.N,GND*%
X112395000Y-104775000D03*
%TO.P,CON1,4,PGD*%
%TO.N,/PGD*%
X112395000Y-107315000D03*
%TO.P,CON1,5,PGC*%
%TO.N,/PGC*%
X112395000Y-109855000D03*
%TD*%
D12*
%TO.P,Q2,1,1*%
%TO.N,/SOSCI*%
X151715000Y-85405000D03*
%TO.P,Q2,2,2*%
%TO.N,/SOSCO*%
X151715000Y-83505000D03*
%TD*%
D10*
%TO.P,J3,1,Pin_1*%
%TO.N,/ANT_1*%
X146050000Y-109220000D03*
D11*
%TO.P,J3,2,Pin_2*%
%TO.N,/ANT_2*%
X146050000Y-106680000D03*
%TD*%
D13*
%TO.P,Q1,1,1*%
%TO.N,/OSCI*%
X154305000Y-97700000D03*
%TO.P,Q1,2,2*%
%TO.N,/OSCO*%
X154305000Y-92820000D03*
%TD*%
D10*
%TO.P,J6,1,Pin_1*%
%TO.N,Net-(J6-Pin_1)*%
X121285000Y-95250000D03*
D11*
%TO.P,J6,2,Pin_2*%
%TO.N,unconnected-(J6-Pin_2-Pad2)*%
X121285000Y-92710000D03*
%TO.P,J6,3,Pin_3*%
%TO.N,GND*%
X121285000Y-90170000D03*
%TD*%
D10*
%TO.P,J4,1,Pin_1*%
%TO.N,/RX*%
X128270000Y-74295000D03*
D11*
%TO.P,J4,2,Pin_2*%
%TO.N,/TX*%
X128270000Y-76835000D03*
%TO.P,J4,3,Pin_3*%
%TO.N,unconnected-(J4-Pin_3-Pad3)*%
X128270000Y-79375000D03*
%TO.P,J4,4,Pin_4*%
%TO.N,unconnected-(J4-Pin_4-Pad4)*%
X128270000Y-81915000D03*
%TO.P,J4,5,Pin_5*%
%TO.N,unconnected-(J4-Pin_5-Pad5)*%
X128270000Y-84455000D03*
%TD*%
D10*
%TO.P,J2,1,VBUS*%
%TO.N,+5V*%
X123417500Y-79990000D03*
D14*
%TO.P,J2,2,D-*%
%TO.N,/D-*%
X123417500Y-77490000D03*
%TO.P,J2,3,D+*%
%TO.N,/D+*%
X121417500Y-77490000D03*
%TO.P,J2,4,GND*%
%TO.N,GND*%
X121417500Y-79990000D03*
D15*
%TO.P,J2,5,Shield*%
X118707500Y-84760000D03*
X118707500Y-72720000D03*
%TD*%
D10*
%TO.P,J5,1,Pin_1*%
%TO.N,/ANT_1*%
X157480000Y-109220000D03*
D11*
%TO.P,J5,2,Pin_2*%
%TO.N,/ANT_2*%
X157480000Y-106680000D03*
%TD*%
D10*
%TO.P,J1,1,Pin_1*%
%TO.N,unconnected-(J1-Pin_1-Pad1)*%
X146050000Y-74295000D03*
D11*
%TO.P,J1,2,Pin_2*%
%TO.N,+3V3*%
X146050000Y-76835000D03*
%TO.P,J1,3,Pin_3*%
%TO.N,GND*%
X146050000Y-79375000D03*
%TD*%
D16*
%TO.N,Net-(IC1-VBUS)*%
X142875000Y-73025000D03*
X147773664Y-96505901D03*
%TO.N,+3V3*%
X148135500Y-99060000D03*
X125125000Y-94010000D03*
X113665000Y-102235000D03*
X151130000Y-93775500D03*
X150495000Y-97332819D03*
X144145000Y-81915000D03*
%TO.N,GND*%
X130038984Y-93843984D03*
X138430000Y-100965000D03*
X142875000Y-80010000D03*
%TO.N,/PGC*%
X132715000Y-102235000D03*
%TO.N,/PGD*%
X134620000Y-101600000D03*
%TO.N,/~{MCLR}*%
X127000000Y-103505000D03*
X127000000Y-92075000D03*
%TO.N,/RX*%
X143510000Y-83185000D03*
%TO.N,/TX*%
X142723489Y-83328545D03*
%TO.N,/D-*%
X149678502Y-97608502D03*
%TO.N,/D+*%
X149845500Y-96520000D03*
%TD*%
D17*
%TO.N,Net-(IC1-VBUS)*%
X142225000Y-73675000D02*
X142875000Y-73025000D01*
X147773664Y-86529425D02*
X142225000Y-80980761D01*
X142225000Y-80980761D02*
X142225000Y-73675000D01*
X147773664Y-96505901D02*
X147773664Y-86529425D01*
%TO.N,/D+*%
X120217500Y-80487057D02*
X120217500Y-78690000D01*
X136885443Y-97155000D02*
X120217500Y-80487057D01*
X149210500Y-97155000D02*
X136885443Y-97155000D01*
X149845500Y-96520000D02*
X149210500Y-97155000D01*
X120217500Y-78690000D02*
X121417500Y-77490000D01*
%TO.N,+3V3*%
X148135500Y-99060000D02*
X149146243Y-99060000D01*
X150495000Y-97711243D02*
X150495000Y-97332819D01*
X149146243Y-99060000D02*
X150495000Y-97711243D01*
%TO.N,/D-*%
X122217500Y-76290000D02*
X123417500Y-77490000D01*
X120920443Y-76290000D02*
X122217500Y-76290000D01*
X119717500Y-77492943D02*
X120920443Y-76290000D01*
X119717500Y-80694164D02*
X119717500Y-77492943D01*
X136827837Y-97804500D02*
X119717500Y-80694164D01*
X149482504Y-97804500D02*
X136827837Y-97804500D01*
X149678502Y-97608502D02*
X149482504Y-97804500D01*
%TO.N,+3V3*%
X151130000Y-96697819D02*
X151130000Y-93775500D01*
X150495000Y-97332819D02*
X151130000Y-96697819D01*
D18*
X144145000Y-81915000D02*
X151130000Y-88900000D01*
X116900000Y-102235000D02*
X113665000Y-102235000D01*
X125125000Y-94010000D02*
X116900000Y-102235000D01*
X151130000Y-88900000D02*
X151130000Y-93775500D01*
%TO.N,GND*%
X146050000Y-79375000D02*
X143510000Y-79375000D01*
D17*
X138430000Y-100965000D02*
X137795000Y-101600000D01*
D18*
X143510000Y-79375000D02*
X142875000Y-80010000D01*
D17*
X130038984Y-93843984D02*
X130673984Y-93843984D01*
X130673984Y-93843984D02*
X130810000Y-93980000D01*
%TO.N,/PGC*%
X125095000Y-109855000D02*
X132715000Y-102235000D01*
X125095000Y-109855000D02*
X112395000Y-109855000D01*
%TO.N,/PGD*%
X132445761Y-101585000D02*
X134605000Y-101585000D01*
X112395000Y-107315000D02*
X126715761Y-107315000D01*
X134605000Y-101585000D02*
X134620000Y-101600000D01*
X126715761Y-107315000D02*
X132445761Y-101585000D01*
%TO.N,/~{MCLR}*%
X127000000Y-92075000D02*
X127000000Y-103505000D01*
%TO.N,/RX*%
X143510000Y-83185000D02*
X134620000Y-74295000D01*
X134620000Y-74295000D02*
X128270000Y-74295000D01*
%TO.N,/TX*%
X142723489Y-83328545D02*
X136229944Y-76835000D01*
X136229944Y-76835000D02*
X128270000Y-76835000D01*
%TD*%
%TA.AperFunction,Conductor*%
%TO.N,GND*%
G36*
X117687689Y-70504685D02*
G01*
X117733444Y-70557489D01*
X117743388Y-70626647D01*
X117714363Y-70690203D01*
X117675494Y-70720212D01*
X117580093Y-70767258D01*
X117580080Y-70767265D01*
X117334850Y-70931123D01*
X117301458Y-70960406D01*
X117976418Y-71635365D01*
X118009903Y-71696688D01*
X118004919Y-71766379D01*
X117963466Y-71821999D01*
X117919278Y-71855368D01*
X117801726Y-71984318D01*
X117742015Y-72020600D01*
X117672167Y-72018839D01*
X117622408Y-71988461D01*
X116947906Y-71313958D01*
X116918623Y-71347350D01*
X116754765Y-71592580D01*
X116754758Y-71592593D01*
X116624312Y-71857111D01*
X116529505Y-72136400D01*
X116529501Y-72136415D01*
X116471964Y-72425675D01*
X116471962Y-72425687D01*
X116452672Y-72720000D01*
X116471962Y-73014312D01*
X116471964Y-73014324D01*
X116529501Y-73303584D01*
X116529505Y-73303599D01*
X116624312Y-73582888D01*
X116754758Y-73847406D01*
X116754765Y-73847419D01*
X116918622Y-74092648D01*
X116947906Y-74126039D01*
X117622408Y-73451537D01*
X117683731Y-73418052D01*
X117753422Y-73423036D01*
X117801722Y-73455676D01*
X117919282Y-73584634D01*
X117963464Y-73617998D01*
X118005099Y-73674106D01*
X118009792Y-73743817D01*
X117976418Y-73804633D01*
X117301459Y-74479592D01*
X117301459Y-74479593D01*
X117334844Y-74508872D01*
X117334848Y-74508875D01*
X117580080Y-74672734D01*
X117580093Y-74672741D01*
X117844611Y-74803187D01*
X118123900Y-74897994D01*
X118123915Y-74897998D01*
X118413175Y-74955535D01*
X118413187Y-74955537D01*
X118707499Y-74974827D01*
X119001812Y-74955537D01*
X119001824Y-74955535D01*
X119291084Y-74897998D01*
X119291099Y-74897994D01*
X119570388Y-74803187D01*
X119834906Y-74672741D01*
X119834919Y-74672734D01*
X120080150Y-74508877D01*
X120113539Y-74479593D01*
X120113540Y-74479592D01*
X119438581Y-73804633D01*
X119405096Y-73743310D01*
X119410080Y-73673618D01*
X119451533Y-73618000D01*
X119495718Y-73584634D01*
X119613276Y-73455678D01*
X119672983Y-73419400D01*
X119742831Y-73421160D01*
X119792591Y-73451538D01*
X120467092Y-74126040D01*
X120467093Y-74126039D01*
X120496377Y-74092650D01*
X120660234Y-73847419D01*
X120660241Y-73847406D01*
X120790687Y-73582888D01*
X120885494Y-73303599D01*
X120885498Y-73303584D01*
X120943035Y-73014324D01*
X120943037Y-73014312D01*
X120962327Y-72720000D01*
X120943037Y-72425687D01*
X120943035Y-72425675D01*
X120885498Y-72136415D01*
X120885494Y-72136400D01*
X120790687Y-71857111D01*
X120660241Y-71592593D01*
X120660234Y-71592580D01*
X120496375Y-71347348D01*
X120496372Y-71347344D01*
X120467093Y-71313959D01*
X120467092Y-71313959D01*
X119792590Y-71988461D01*
X119731267Y-72021946D01*
X119661575Y-72016962D01*
X119613276Y-71984321D01*
X119495718Y-71855366D01*
X119451533Y-71821999D01*
X119409898Y-71765890D01*
X119405207Y-71696178D01*
X119438580Y-71635365D01*
X120113539Y-70960406D01*
X120080148Y-70931122D01*
X119834919Y-70767265D01*
X119834906Y-70767258D01*
X119739506Y-70720212D01*
X119688087Y-70672907D01*
X119670405Y-70605312D01*
X119692075Y-70538887D01*
X119746216Y-70494723D01*
X119794350Y-70485000D01*
X159261000Y-70485000D01*
X159328039Y-70504685D01*
X159373794Y-70557489D01*
X159385000Y-70609000D01*
X159385000Y-111001000D01*
X159365315Y-111068039D01*
X159312511Y-111113794D01*
X159261000Y-111125000D01*
X113329056Y-111125000D01*
X113262017Y-111105315D01*
X113216262Y-111052511D01*
X113206318Y-110983353D01*
X113235343Y-110919797D01*
X113257931Y-110899426D01*
X113259429Y-110898376D01*
X113266401Y-110893495D01*
X113433495Y-110726401D01*
X113551146Y-110558377D01*
X113605724Y-110514752D01*
X113652722Y-110505500D01*
X125009495Y-110505500D01*
X125025505Y-110507267D01*
X125025528Y-110507026D01*
X125033289Y-110507758D01*
X125033296Y-110507760D01*
X125105203Y-110505500D01*
X125135925Y-110505500D01*
X125143190Y-110504581D01*
X125149016Y-110504122D01*
X125197569Y-110502597D01*
X125217956Y-110496673D01*
X125236996Y-110492731D01*
X125258058Y-110490071D01*
X125303235Y-110472183D01*
X125308735Y-110470300D01*
X125355398Y-110456744D01*
X125373665Y-110445939D01*
X125391136Y-110437380D01*
X125410871Y-110429568D01*
X125450177Y-110401010D01*
X125455043Y-110397813D01*
X125496865Y-110373081D01*
X125511870Y-110358075D01*
X125526668Y-110345436D01*
X125543837Y-110332963D01*
X125574809Y-110295522D01*
X125578723Y-110291221D01*
X129189944Y-106680000D01*
X144694341Y-106680000D01*
X144714936Y-106915403D01*
X144714938Y-106915413D01*
X144776094Y-107143655D01*
X144776096Y-107143659D01*
X144776097Y-107143663D01*
X144855993Y-107314999D01*
X144875965Y-107357830D01*
X144875967Y-107357834D01*
X144984281Y-107512521D01*
X145011501Y-107551396D01*
X145011506Y-107551402D01*
X145133430Y-107673326D01*
X145166915Y-107734649D01*
X145161931Y-107804341D01*
X145120059Y-107860274D01*
X145089083Y-107877189D01*
X144957669Y-107926203D01*
X144957664Y-107926206D01*
X144842455Y-108012452D01*
X144842452Y-108012455D01*
X144756206Y-108127664D01*
X144756202Y-108127671D01*
X144705908Y-108262517D01*
X144699501Y-108322116D01*
X144699501Y-108322123D01*
X144699500Y-108322135D01*
X144699500Y-110117870D01*
X144699501Y-110117876D01*
X144705908Y-110177483D01*
X144756202Y-110312328D01*
X144756206Y-110312335D01*
X144842452Y-110427544D01*
X144842455Y-110427547D01*
X144957664Y-110513793D01*
X144957671Y-110513797D01*
X145092517Y-110564091D01*
X145092516Y-110564091D01*
X145099444Y-110564835D01*
X145152127Y-110570500D01*
X146947872Y-110570499D01*
X147007483Y-110564091D01*
X147142331Y-110513796D01*
X147257546Y-110427546D01*
X147343796Y-110312331D01*
X147394091Y-110177483D01*
X147400500Y-110117873D01*
X147400499Y-108322128D01*
X147394091Y-108262517D01*
X147365699Y-108186395D01*
X147343797Y-108127671D01*
X147343793Y-108127664D01*
X147257547Y-108012455D01*
X147257544Y-108012452D01*
X147142335Y-107926206D01*
X147142328Y-107926202D01*
X147010917Y-107877189D01*
X146954983Y-107835318D01*
X146930566Y-107769853D01*
X146945418Y-107701580D01*
X146966563Y-107673332D01*
X147088495Y-107551401D01*
X147224035Y-107357830D01*
X147323903Y-107143663D01*
X147385063Y-106915408D01*
X147405659Y-106680000D01*
X156124341Y-106680000D01*
X156144936Y-106915403D01*
X156144938Y-106915413D01*
X156206094Y-107143655D01*
X156206096Y-107143659D01*
X156206097Y-107143663D01*
X156285993Y-107314999D01*
X156305965Y-107357830D01*
X156305967Y-107357834D01*
X156414281Y-107512521D01*
X156441501Y-107551396D01*
X156441506Y-107551402D01*
X156563430Y-107673326D01*
X156596915Y-107734649D01*
X156591931Y-107804341D01*
X156550059Y-107860274D01*
X156519083Y-107877189D01*
X156387669Y-107926203D01*
X156387664Y-107926206D01*
X156272455Y-108012452D01*
X156272452Y-108012455D01*
X156186206Y-108127664D01*
X156186202Y-108127671D01*
X156135908Y-108262517D01*
X156129501Y-108322116D01*
X156129501Y-108322123D01*
X156129500Y-108322135D01*
X156129500Y-110117870D01*
X156129501Y-110117876D01*
X156135908Y-110177483D01*
X156186202Y-110312328D01*
X156186206Y-110312335D01*
X156272452Y-110427544D01*
X156272455Y-110427547D01*
X156387664Y-110513793D01*
X156387671Y-110513797D01*
X156522517Y-110564091D01*
X156522516Y-110564091D01*
X156529444Y-110564835D01*
X156582127Y-110570500D01*
X158377872Y-110570499D01*
X158437483Y-110564091D01*
X158572331Y-110513796D01*
X158687546Y-110427546D01*
X158773796Y-110312331D01*
X158824091Y-110177483D01*
X158830500Y-110117873D01*
X158830499Y-108322128D01*
X158824091Y-108262517D01*
X158795699Y-108186395D01*
X158773797Y-108127671D01*
X158773793Y-108127664D01*
X158687547Y-108012455D01*
X158687544Y-108012452D01*
X158572335Y-107926206D01*
X158572328Y-107926202D01*
X158440917Y-107877189D01*
X158384983Y-107835318D01*
X158360566Y-107769853D01*
X158375418Y-107701580D01*
X158396563Y-107673332D01*
X158518495Y-107551401D01*
X158654035Y-107357830D01*
X158753903Y-107143663D01*
X158815063Y-106915408D01*
X158835659Y-106680000D01*
X158815063Y-106444592D01*
X158753903Y-106216337D01*
X158654035Y-106002171D01*
X158624046Y-105959341D01*
X158518494Y-105808597D01*
X158351402Y-105641506D01*
X158351395Y-105641501D01*
X158157834Y-105505967D01*
X158157830Y-105505965D01*
X158157830Y-105505964D01*
X157943663Y-105406097D01*
X157943659Y-105406096D01*
X157943655Y-105406094D01*
X157715413Y-105344938D01*
X157715403Y-105344936D01*
X157480001Y-105324341D01*
X157479999Y-105324341D01*
X157244596Y-105344936D01*
X157244586Y-105344938D01*
X157016344Y-105406094D01*
X157016335Y-105406098D01*
X156802171Y-105505964D01*
X156802169Y-105505965D01*
X156608597Y-105641505D01*
X156441505Y-105808597D01*
X156305965Y-106002169D01*
X156305964Y-106002171D01*
X156206098Y-106216335D01*
X156206094Y-106216344D01*
X156144938Y-106444586D01*
X156144936Y-106444596D01*
X156124341Y-106679999D01*
X156124341Y-106680000D01*
X147405659Y-106680000D01*
X147385063Y-106444592D01*
X147323903Y-106216337D01*
X147224035Y-106002171D01*
X147194046Y-105959341D01*
X147088494Y-105808597D01*
X146921402Y-105641506D01*
X146921395Y-105641501D01*
X146727834Y-105505967D01*
X146727830Y-105505965D01*
X146727828Y-105505964D01*
X146513663Y-105406097D01*
X146513659Y-105406096D01*
X146513655Y-105406094D01*
X146285413Y-105344938D01*
X146285403Y-105344936D01*
X146050001Y-105324341D01*
X146049999Y-105324341D01*
X145814596Y-105344936D01*
X145814586Y-105344938D01*
X145586344Y-105406094D01*
X145586335Y-105406098D01*
X145372171Y-105505964D01*
X145372169Y-105505965D01*
X145178597Y-105641505D01*
X145011505Y-105808597D01*
X144875965Y-106002169D01*
X144875964Y-106002171D01*
X144776098Y-106216335D01*
X144776094Y-106216344D01*
X144714938Y-106444586D01*
X144714936Y-106444596D01*
X144694341Y-106679999D01*
X144694341Y-106680000D01*
X129189944Y-106680000D01*
X132240610Y-103629334D01*
X154709500Y-103629334D01*
X154750429Y-103874616D01*
X154831169Y-104109802D01*
X154831172Y-104109811D01*
X154939815Y-104310565D01*
X154949526Y-104328509D01*
X155102262Y-104524744D01*
X155256410Y-104666647D01*
X155285217Y-104693166D01*
X155493393Y-104829173D01*
X155721118Y-104929063D01*
X155941392Y-104984844D01*
X155962179Y-104990108D01*
X155962181Y-104990108D01*
X155962186Y-104990109D01*
X156095376Y-105001145D01*
X156147933Y-105005500D01*
X156147935Y-105005500D01*
X156272065Y-105005500D01*
X156272067Y-105005500D01*
X156333284Y-105000427D01*
X156457813Y-104990109D01*
X156457816Y-104990108D01*
X156457821Y-104990108D01*
X156698881Y-104929063D01*
X156926607Y-104829173D01*
X157134785Y-104693164D01*
X157317738Y-104524744D01*
X157470474Y-104328509D01*
X157588828Y-104109810D01*
X157669571Y-103874614D01*
X157710500Y-103629335D01*
X157710500Y-103380665D01*
X157669571Y-103135386D01*
X157588828Y-102900190D01*
X157470474Y-102681491D01*
X157317738Y-102485256D01*
X157144511Y-102325789D01*
X157134782Y-102316833D01*
X156926606Y-102180826D01*
X156698881Y-102080936D01*
X156457824Y-102019892D01*
X156457813Y-102019890D01*
X156292548Y-102006197D01*
X156272067Y-102004500D01*
X156147933Y-102004500D01*
X156128521Y-102006108D01*
X155962186Y-102019890D01*
X155962175Y-102019892D01*
X155721118Y-102080936D01*
X155493393Y-102180826D01*
X155285217Y-102316833D01*
X155102261Y-102485257D01*
X154949524Y-102681493D01*
X154831172Y-102900188D01*
X154831169Y-102900197D01*
X154750429Y-103135383D01*
X154709500Y-103380665D01*
X154709500Y-103629334D01*
X132240610Y-103629334D01*
X132813224Y-103056720D01*
X132874545Y-103023237D01*
X132887019Y-103021183D01*
X132894255Y-103020368D01*
X133064522Y-102960789D01*
X133217262Y-102864816D01*
X133344816Y-102737262D01*
X133440789Y-102584522D01*
X133500368Y-102414255D01*
X133508101Y-102345617D01*
X133535168Y-102281203D01*
X133592763Y-102241648D01*
X133631322Y-102235500D01*
X134091060Y-102235500D01*
X134157032Y-102254506D01*
X134256224Y-102316833D01*
X134270478Y-102325789D01*
X134440744Y-102385368D01*
X134440745Y-102385368D01*
X134440750Y-102385369D01*
X134619996Y-102405565D01*
X134620000Y-102405565D01*
X134620004Y-102405565D01*
X134799249Y-102385369D01*
X134799252Y-102385368D01*
X134799255Y-102385368D01*
X134969522Y-102325789D01*
X135122262Y-102229816D01*
X135249816Y-102102262D01*
X135345789Y-101949522D01*
X135405368Y-101779255D01*
X135405369Y-101779249D01*
X135425565Y-101600003D01*
X135425565Y-101599996D01*
X135405369Y-101420750D01*
X135405368Y-101420745D01*
X135345788Y-101250476D01*
X135281895Y-101148791D01*
X135249816Y-101097738D01*
X135122262Y-100970184D01*
X135118481Y-100967808D01*
X134969523Y-100874211D01*
X134799254Y-100814631D01*
X134799249Y-100814630D01*
X134620004Y-100794435D01*
X134619996Y-100794435D01*
X134440750Y-100814630D01*
X134440745Y-100814631D01*
X134270475Y-100874211D01*
X134204778Y-100915493D01*
X134138805Y-100934500D01*
X132531267Y-100934500D01*
X132515256Y-100932732D01*
X132515234Y-100932974D01*
X132507467Y-100932239D01*
X132435544Y-100934500D01*
X132404836Y-100934500D01*
X132404832Y-100934500D01*
X132404821Y-100934501D01*
X132397565Y-100935417D01*
X132391747Y-100935875D01*
X132343194Y-100937401D01*
X132328634Y-100941630D01*
X132322801Y-100943325D01*
X132303757Y-100947269D01*
X132282703Y-100949929D01*
X132282701Y-100949929D01*
X132237542Y-100967808D01*
X132232016Y-100969700D01*
X132185362Y-100983254D01*
X132167086Y-100994063D01*
X132149621Y-101002619D01*
X132129885Y-101010433D01*
X132090585Y-101038986D01*
X132085703Y-101042193D01*
X132043897Y-101066917D01*
X132028885Y-101081929D01*
X132014097Y-101094558D01*
X131996928Y-101107032D01*
X131996926Y-101107034D01*
X131965955Y-101144470D01*
X131962022Y-101148791D01*
X129206889Y-103903926D01*
X126482634Y-106628181D01*
X126421311Y-106661666D01*
X126394953Y-106664500D01*
X113652721Y-106664500D01*
X113585682Y-106644815D01*
X113551146Y-106611623D01*
X113433494Y-106443597D01*
X113266402Y-106276506D01*
X113266401Y-106276505D01*
X113080405Y-106146269D01*
X113036781Y-106091692D01*
X113029588Y-106022193D01*
X113061110Y-105959839D01*
X113080405Y-105943119D01*
X113266082Y-105813105D01*
X113433105Y-105646082D01*
X113568600Y-105452578D01*
X113668429Y-105238492D01*
X113668432Y-105238486D01*
X113725636Y-105025000D01*
X113008347Y-105025000D01*
X112941308Y-105005315D01*
X112895553Y-104952511D01*
X112885609Y-104883353D01*
X112889369Y-104866067D01*
X112895000Y-104846888D01*
X112895000Y-104703111D01*
X112889369Y-104683933D01*
X112889370Y-104614064D01*
X112927145Y-104555286D01*
X112990701Y-104526262D01*
X113008347Y-104525000D01*
X113725636Y-104525000D01*
X113725635Y-104524999D01*
X113668432Y-104311513D01*
X113668429Y-104311507D01*
X113568600Y-104097422D01*
X113568599Y-104097420D01*
X113433113Y-103903926D01*
X113433108Y-103903920D01*
X113266078Y-103736890D01*
X113080405Y-103606879D01*
X113036780Y-103552302D01*
X113031885Y-103505003D01*
X126194435Y-103505003D01*
X126214630Y-103684249D01*
X126214631Y-103684254D01*
X126274211Y-103854523D01*
X126370183Y-104007261D01*
X126370184Y-104007262D01*
X126497738Y-104134816D01*
X126650478Y-104230789D01*
X126776826Y-104275000D01*
X126820745Y-104290368D01*
X126820750Y-104290369D01*
X126999996Y-104310565D01*
X127000000Y-104310565D01*
X127000004Y-104310565D01*
X127179249Y-104290369D01*
X127179252Y-104290368D01*
X127179255Y-104290368D01*
X127349522Y-104230789D01*
X127502262Y-104134816D01*
X127629816Y-104007262D01*
X127725789Y-103854522D01*
X127785368Y-103684255D01*
X127795970Y-103590160D01*
X127805565Y-103505003D01*
X127805565Y-103504996D01*
X127785369Y-103325750D01*
X127785366Y-103325737D01*
X127725790Y-103155481D01*
X127725789Y-103155478D01*
X127679337Y-103081550D01*
X127669506Y-103065903D01*
X127650500Y-102999931D01*
X127650500Y-92580067D01*
X127669507Y-92514094D01*
X127725788Y-92424524D01*
X127785368Y-92254254D01*
X127785369Y-92254249D01*
X127805565Y-92075003D01*
X127805565Y-92074996D01*
X127785369Y-91895750D01*
X127785368Y-91895745D01*
X127725788Y-91725476D01*
X127629815Y-91572737D01*
X127502262Y-91445184D01*
X127349523Y-91349211D01*
X127179254Y-91289631D01*
X127179249Y-91289630D01*
X127000004Y-91269435D01*
X126999996Y-91269435D01*
X126820750Y-91289630D01*
X126820745Y-91289631D01*
X126650476Y-91349211D01*
X126497737Y-91445184D01*
X126370184Y-91572737D01*
X126274211Y-91725476D01*
X126214631Y-91895745D01*
X126214630Y-91895750D01*
X126194435Y-92074996D01*
X126194435Y-92075003D01*
X126214630Y-92254249D01*
X126214631Y-92254254D01*
X126274211Y-92424524D01*
X126330493Y-92514094D01*
X126349500Y-92580067D01*
X126349500Y-102999931D01*
X126330494Y-103065903D01*
X126274211Y-103155477D01*
X126274209Y-103155481D01*
X126214633Y-103325737D01*
X126214630Y-103325750D01*
X126194435Y-103504996D01*
X126194435Y-103505003D01*
X113031885Y-103505003D01*
X113029588Y-103482804D01*
X113061110Y-103420449D01*
X113080406Y-103403730D01*
X113266401Y-103273495D01*
X113433495Y-103106401D01*
X113450896Y-103081548D01*
X113505470Y-103037923D01*
X113566355Y-103029450D01*
X113641552Y-103037923D01*
X113664999Y-103040565D01*
X113665000Y-103040565D01*
X113665004Y-103040565D01*
X113844249Y-103020369D01*
X113844252Y-103020368D01*
X113844255Y-103020368D01*
X113924017Y-102992457D01*
X113964972Y-102985500D01*
X116836295Y-102985500D01*
X116854265Y-102986809D01*
X116878023Y-102990289D01*
X116930068Y-102985735D01*
X116935470Y-102985500D01*
X116943704Y-102985500D01*
X116943709Y-102985500D01*
X116955327Y-102984141D01*
X116976276Y-102981693D01*
X116989028Y-102980577D01*
X117052797Y-102974999D01*
X117052805Y-102974996D01*
X117059866Y-102973539D01*
X117059878Y-102973598D01*
X117067243Y-102971965D01*
X117067229Y-102971906D01*
X117074246Y-102970241D01*
X117074255Y-102970241D01*
X117146423Y-102943974D01*
X117219334Y-102919814D01*
X117219343Y-102919807D01*
X117225882Y-102916760D01*
X117225908Y-102916816D01*
X117232690Y-102913532D01*
X117232663Y-102913478D01*
X117239106Y-102910240D01*
X117239117Y-102910237D01*
X117303283Y-102868034D01*
X117368656Y-102827712D01*
X117368662Y-102827705D01*
X117374325Y-102823229D01*
X117374362Y-102823277D01*
X117380204Y-102818518D01*
X117380164Y-102818471D01*
X117385691Y-102813832D01*
X117385696Y-102813830D01*
X117438386Y-102757981D01*
X125433059Y-94763306D01*
X125469132Y-94740657D01*
X125468244Y-94738813D01*
X125474515Y-94735792D01*
X125474516Y-94735790D01*
X125474522Y-94735789D01*
X125627262Y-94639816D01*
X125754816Y-94512262D01*
X125850789Y-94359522D01*
X125910368Y-94189255D01*
X125913927Y-94157669D01*
X125930565Y-94010003D01*
X125930565Y-94009996D01*
X125910369Y-93830750D01*
X125910368Y-93830745D01*
X125891037Y-93775500D01*
X125850789Y-93660478D01*
X125754816Y-93507738D01*
X125627262Y-93380184D01*
X125474523Y-93284211D01*
X125304254Y-93224631D01*
X125304249Y-93224630D01*
X125125004Y-93204435D01*
X125124996Y-93204435D01*
X124945750Y-93224630D01*
X124945745Y-93224631D01*
X124775476Y-93284211D01*
X124622737Y-93380184D01*
X124495184Y-93507737D01*
X124399208Y-93660483D01*
X124396186Y-93666758D01*
X124394361Y-93665878D01*
X124371692Y-93701939D01*
X122847180Y-95226452D01*
X122785857Y-95259937D01*
X122716165Y-95254953D01*
X122660232Y-95213081D01*
X122635815Y-95147617D01*
X122635499Y-95138771D01*
X122635499Y-94352129D01*
X122635498Y-94352123D01*
X122635497Y-94352116D01*
X122629091Y-94292517D01*
X122590576Y-94189254D01*
X122578797Y-94157671D01*
X122578793Y-94157664D01*
X122492547Y-94042455D01*
X122492544Y-94042452D01*
X122377335Y-93956206D01*
X122377328Y-93956202D01*
X122245917Y-93907189D01*
X122189983Y-93865318D01*
X122165566Y-93799853D01*
X122180418Y-93731580D01*
X122201563Y-93703332D01*
X122323495Y-93581401D01*
X122459035Y-93387830D01*
X122558903Y-93173663D01*
X122620063Y-92945408D01*
X122640659Y-92710000D01*
X122620063Y-92474592D01*
X122558903Y-92246337D01*
X122459035Y-92032171D01*
X122445699Y-92013124D01*
X122323494Y-91838597D01*
X122156402Y-91671506D01*
X122156401Y-91671505D01*
X121970405Y-91541269D01*
X121926781Y-91486692D01*
X121919588Y-91417193D01*
X121951110Y-91354839D01*
X121970405Y-91338119D01*
X122156082Y-91208105D01*
X122323105Y-91041082D01*
X122458600Y-90847578D01*
X122558429Y-90633492D01*
X122558432Y-90633486D01*
X122615636Y-90420000D01*
X121898347Y-90420000D01*
X121831308Y-90400315D01*
X121785553Y-90347511D01*
X121775609Y-90278353D01*
X121779369Y-90261067D01*
X121785000Y-90241888D01*
X121785000Y-90098111D01*
X121779369Y-90078933D01*
X121779370Y-90009064D01*
X121817145Y-89950286D01*
X121880701Y-89921262D01*
X121898347Y-89920000D01*
X122615636Y-89920000D01*
X122615635Y-89919999D01*
X122558432Y-89706513D01*
X122558429Y-89706507D01*
X122458600Y-89492422D01*
X122458599Y-89492420D01*
X122323113Y-89298926D01*
X122323108Y-89298920D01*
X122156082Y-89131894D01*
X121962578Y-88996399D01*
X121748492Y-88896570D01*
X121748486Y-88896567D01*
X121535000Y-88839364D01*
X121535000Y-89557698D01*
X121515315Y-89624737D01*
X121462511Y-89670492D01*
X121393355Y-89680436D01*
X121320766Y-89670000D01*
X121320763Y-89670000D01*
X121249237Y-89670000D01*
X121249233Y-89670000D01*
X121176644Y-89680436D01*
X121107486Y-89670492D01*
X121054683Y-89624736D01*
X121034999Y-89557698D01*
X121034999Y-88839364D01*
X121034998Y-88839364D01*
X120821505Y-88896570D01*
X120607422Y-88996399D01*
X120607420Y-88996400D01*
X120413926Y-89131886D01*
X120413920Y-89131891D01*
X120246891Y-89298920D01*
X120246886Y-89298926D01*
X120111400Y-89492420D01*
X120111399Y-89492422D01*
X120011570Y-89706507D01*
X120011567Y-89706513D01*
X119954364Y-89919999D01*
X119954364Y-89920000D01*
X120671653Y-89920000D01*
X120738692Y-89939685D01*
X120784447Y-89992489D01*
X120794391Y-90061647D01*
X120790631Y-90078933D01*
X120785000Y-90098111D01*
X120785000Y-90241888D01*
X120790631Y-90261067D01*
X120790630Y-90330936D01*
X120752855Y-90389714D01*
X120689299Y-90418738D01*
X120671653Y-90420000D01*
X119954364Y-90420000D01*
X120011567Y-90633486D01*
X120011570Y-90633492D01*
X120111399Y-90847578D01*
X120246894Y-91041082D01*
X120413917Y-91208105D01*
X120599595Y-91338119D01*
X120643219Y-91392696D01*
X120650412Y-91462195D01*
X120618890Y-91524549D01*
X120599595Y-91541269D01*
X120413594Y-91671508D01*
X120246505Y-91838597D01*
X120110965Y-92032169D01*
X120110964Y-92032171D01*
X120011098Y-92246335D01*
X120011094Y-92246344D01*
X119949938Y-92474586D01*
X119949936Y-92474596D01*
X119929341Y-92709999D01*
X119929341Y-92710000D01*
X119949936Y-92945403D01*
X119949938Y-92945413D01*
X120011094Y-93173655D01*
X120011096Y-93173659D01*
X120011097Y-93173663D01*
X120046382Y-93249331D01*
X120110965Y-93387830D01*
X120110967Y-93387834D01*
X120201048Y-93516482D01*
X120246501Y-93581396D01*
X120246506Y-93581402D01*
X120368430Y-93703326D01*
X120401915Y-93764649D01*
X120396931Y-93834341D01*
X120355059Y-93890274D01*
X120324083Y-93907189D01*
X120192669Y-93956203D01*
X120192664Y-93956206D01*
X120077455Y-94042452D01*
X120077452Y-94042455D01*
X119991206Y-94157664D01*
X119991202Y-94157671D01*
X119940908Y-94292517D01*
X119934501Y-94352116D01*
X119934501Y-94352123D01*
X119934500Y-94352135D01*
X119934500Y-96147870D01*
X119934501Y-96147876D01*
X119940908Y-96207483D01*
X119991202Y-96342328D01*
X119991206Y-96342335D01*
X120077452Y-96457544D01*
X120077455Y-96457547D01*
X120192664Y-96543793D01*
X120192671Y-96543797D01*
X120327517Y-96594091D01*
X120327516Y-96594091D01*
X120334444Y-96594835D01*
X120387127Y-96600500D01*
X121173770Y-96600499D01*
X121240809Y-96620183D01*
X121286564Y-96672987D01*
X121296508Y-96742146D01*
X121267483Y-96805702D01*
X121261451Y-96812180D01*
X116625451Y-101448181D01*
X116564128Y-101481666D01*
X116537770Y-101484500D01*
X113964972Y-101484500D01*
X113924017Y-101477542D01*
X113844254Y-101449631D01*
X113844249Y-101449630D01*
X113665004Y-101429435D01*
X113664997Y-101429435D01*
X113566355Y-101440549D01*
X113497533Y-101428494D01*
X113450896Y-101388451D01*
X113433495Y-101363599D01*
X113311567Y-101241671D01*
X113278084Y-101180351D01*
X113283068Y-101110659D01*
X113324939Y-101054725D01*
X113355915Y-101037810D01*
X113487331Y-100988796D01*
X113602546Y-100902546D01*
X113688796Y-100787331D01*
X113739091Y-100652483D01*
X113745500Y-100592873D01*
X113745499Y-98797128D01*
X113739091Y-98737517D01*
X113729005Y-98710476D01*
X113688797Y-98602671D01*
X113688793Y-98602664D01*
X113602547Y-98487455D01*
X113602544Y-98487452D01*
X113487335Y-98401206D01*
X113487328Y-98401202D01*
X113352482Y-98350908D01*
X113352483Y-98350908D01*
X113292883Y-98344501D01*
X113292881Y-98344500D01*
X113292873Y-98344500D01*
X113292864Y-98344500D01*
X111497129Y-98344500D01*
X111497123Y-98344501D01*
X111437516Y-98350908D01*
X111302671Y-98401202D01*
X111302664Y-98401206D01*
X111187455Y-98487452D01*
X111187452Y-98487455D01*
X111101206Y-98602664D01*
X111101202Y-98602671D01*
X111050908Y-98737517D01*
X111045578Y-98787102D01*
X111044501Y-98797123D01*
X111044500Y-98797135D01*
X111044500Y-100592870D01*
X111044501Y-100592876D01*
X111050908Y-100652483D01*
X111101202Y-100787328D01*
X111101206Y-100787335D01*
X111187452Y-100902544D01*
X111187455Y-100902547D01*
X111302664Y-100988793D01*
X111302671Y-100988797D01*
X111434081Y-101037810D01*
X111490015Y-101079681D01*
X111514432Y-101145145D01*
X111499580Y-101213418D01*
X111478430Y-101241673D01*
X111356503Y-101363600D01*
X111220965Y-101557169D01*
X111220964Y-101557171D01*
X111121098Y-101771335D01*
X111121094Y-101771344D01*
X111059938Y-101999586D01*
X111059936Y-101999596D01*
X111039341Y-102234999D01*
X111039341Y-102235000D01*
X111059936Y-102470403D01*
X111059938Y-102470413D01*
X111121094Y-102698655D01*
X111121096Y-102698659D01*
X111121097Y-102698663D01*
X111177630Y-102819898D01*
X111220965Y-102912830D01*
X111220967Y-102912834D01*
X111296834Y-103021182D01*
X111356505Y-103106401D01*
X111523599Y-103273495D01*
X111676653Y-103380665D01*
X111709594Y-103403730D01*
X111753219Y-103458307D01*
X111760413Y-103527805D01*
X111728890Y-103590160D01*
X111709595Y-103606880D01*
X111523922Y-103736890D01*
X111523920Y-103736891D01*
X111356891Y-103903920D01*
X111356886Y-103903926D01*
X111221400Y-104097420D01*
X111221399Y-104097422D01*
X111121570Y-104311507D01*
X111121567Y-104311513D01*
X111064364Y-104524999D01*
X111064364Y-104525000D01*
X111781653Y-104525000D01*
X111848692Y-104544685D01*
X111894447Y-104597489D01*
X111904391Y-104666647D01*
X111900631Y-104683933D01*
X111895000Y-104703111D01*
X111895000Y-104846888D01*
X111900631Y-104866067D01*
X111900630Y-104935936D01*
X111862855Y-104994714D01*
X111799299Y-105023738D01*
X111781653Y-105025000D01*
X111064364Y-105025000D01*
X111121567Y-105238486D01*
X111121570Y-105238492D01*
X111221399Y-105452578D01*
X111356894Y-105646082D01*
X111523917Y-105813105D01*
X111709595Y-105943119D01*
X111753219Y-105997696D01*
X111760412Y-106067195D01*
X111728890Y-106129549D01*
X111709595Y-106146269D01*
X111523594Y-106276508D01*
X111356505Y-106443597D01*
X111220965Y-106637169D01*
X111220964Y-106637171D01*
X111121098Y-106851335D01*
X111121094Y-106851344D01*
X111059938Y-107079586D01*
X111059936Y-107079596D01*
X111039341Y-107314999D01*
X111039341Y-107315000D01*
X111059936Y-107550403D01*
X111059938Y-107550413D01*
X111121094Y-107778655D01*
X111121096Y-107778659D01*
X111121097Y-107778663D01*
X111133071Y-107804341D01*
X111220965Y-107992830D01*
X111220967Y-107992834D01*
X111315377Y-108127664D01*
X111356501Y-108186396D01*
X111356506Y-108186402D01*
X111523597Y-108353493D01*
X111523603Y-108353498D01*
X111709158Y-108483425D01*
X111752783Y-108538002D01*
X111759977Y-108607500D01*
X111728454Y-108669855D01*
X111709158Y-108686575D01*
X111523597Y-108816505D01*
X111356505Y-108983597D01*
X111220965Y-109177169D01*
X111220964Y-109177171D01*
X111121098Y-109391335D01*
X111121094Y-109391344D01*
X111059938Y-109619586D01*
X111059936Y-109619596D01*
X111039341Y-109854999D01*
X111039341Y-109855000D01*
X111059936Y-110090403D01*
X111059938Y-110090413D01*
X111121094Y-110318655D01*
X111121096Y-110318659D01*
X111121097Y-110318663D01*
X111192185Y-110471111D01*
X111220965Y-110532830D01*
X111220967Y-110532834D01*
X111329281Y-110687521D01*
X111356505Y-110726401D01*
X111523599Y-110893495D01*
X111528923Y-110897223D01*
X111532069Y-110899426D01*
X111575693Y-110954003D01*
X111582885Y-111023502D01*
X111551362Y-111085856D01*
X111491132Y-111121269D01*
X111460944Y-111125000D01*
X109344000Y-111125000D01*
X109276961Y-111105315D01*
X109231206Y-111052511D01*
X109220000Y-111001000D01*
X109220000Y-89659335D01*
X111529500Y-89659335D01*
X111543142Y-89741094D01*
X111570429Y-89904616D01*
X111651169Y-90139802D01*
X111651172Y-90139811D01*
X111754604Y-90330936D01*
X111769526Y-90358509D01*
X111922262Y-90554744D01*
X112081744Y-90701557D01*
X112105217Y-90723166D01*
X112313393Y-90859173D01*
X112541118Y-90959063D01*
X112782175Y-91020107D01*
X112782179Y-91020108D01*
X112782181Y-91020108D01*
X112782186Y-91020109D01*
X112915376Y-91031145D01*
X112967933Y-91035500D01*
X112967935Y-91035500D01*
X113092065Y-91035500D01*
X113092067Y-91035500D01*
X113153284Y-91030427D01*
X113277813Y-91020109D01*
X113277816Y-91020108D01*
X113277821Y-91020108D01*
X113518881Y-90959063D01*
X113746607Y-90859173D01*
X113954785Y-90723164D01*
X114137738Y-90554744D01*
X114290474Y-90358509D01*
X114408828Y-90139810D01*
X114489571Y-89904614D01*
X114530500Y-89659335D01*
X114530500Y-89410665D01*
X114489571Y-89165386D01*
X114408828Y-88930190D01*
X114373293Y-88864528D01*
X114290475Y-88711493D01*
X114290474Y-88711491D01*
X114137738Y-88515256D01*
X113954785Y-88346836D01*
X113954782Y-88346833D01*
X113746606Y-88210826D01*
X113518881Y-88110936D01*
X113277824Y-88049892D01*
X113277813Y-88049890D01*
X113112548Y-88036197D01*
X113092067Y-88034500D01*
X112967933Y-88034500D01*
X112948521Y-88036108D01*
X112782186Y-88049890D01*
X112782175Y-88049892D01*
X112541118Y-88110936D01*
X112313393Y-88210826D01*
X112105217Y-88346833D01*
X111922261Y-88515257D01*
X111769524Y-88711493D01*
X111651172Y-88930188D01*
X111651169Y-88930197D01*
X111570429Y-89165383D01*
X111529500Y-89410664D01*
X111529500Y-89410665D01*
X111529500Y-89659335D01*
X109220000Y-89659335D01*
X109220000Y-84760000D01*
X116452672Y-84760000D01*
X116471962Y-85054312D01*
X116471964Y-85054324D01*
X116529501Y-85343584D01*
X116529505Y-85343599D01*
X116624312Y-85622888D01*
X116754758Y-85887406D01*
X116754765Y-85887419D01*
X116918622Y-86132648D01*
X116947906Y-86166039D01*
X117622408Y-85491537D01*
X117683731Y-85458052D01*
X117753422Y-85463036D01*
X117801722Y-85495676D01*
X117919282Y-85624634D01*
X117963464Y-85657998D01*
X118005099Y-85714106D01*
X118009792Y-85783817D01*
X117976418Y-85844633D01*
X117301459Y-86519592D01*
X117301459Y-86519593D01*
X117334844Y-86548872D01*
X117334848Y-86548875D01*
X117580080Y-86712734D01*
X117580093Y-86712741D01*
X117844611Y-86843187D01*
X118123900Y-86937994D01*
X118123915Y-86937998D01*
X118413175Y-86995535D01*
X118413187Y-86995537D01*
X118707499Y-87014827D01*
X119001812Y-86995537D01*
X119001824Y-86995535D01*
X119291084Y-86937998D01*
X119291099Y-86937994D01*
X119570388Y-86843187D01*
X119834906Y-86712741D01*
X119834919Y-86712734D01*
X120080150Y-86548877D01*
X120113539Y-86519593D01*
X120113540Y-86519592D01*
X119438581Y-85844633D01*
X119405096Y-85783310D01*
X119410080Y-85713618D01*
X119451533Y-85658000D01*
X119495718Y-85624634D01*
X119613276Y-85495678D01*
X119672983Y-85459400D01*
X119742831Y-85461160D01*
X119792591Y-85491538D01*
X120467092Y-86166040D01*
X120467093Y-86166039D01*
X120496377Y-86132650D01*
X120660234Y-85887419D01*
X120660241Y-85887406D01*
X120790687Y-85622888D01*
X120885494Y-85343599D01*
X120885498Y-85343584D01*
X120943035Y-85054324D01*
X120943037Y-85054312D01*
X120962327Y-84760000D01*
X120943037Y-84465687D01*
X120943035Y-84465675D01*
X120885498Y-84176415D01*
X120885494Y-84176400D01*
X120790687Y-83897111D01*
X120660241Y-83632593D01*
X120660234Y-83632580D01*
X120496375Y-83387348D01*
X120496372Y-83387344D01*
X120467093Y-83353959D01*
X120467092Y-83353959D01*
X119792590Y-84028461D01*
X119731267Y-84061946D01*
X119661575Y-84056962D01*
X119613276Y-84024321D01*
X119495718Y-83895366D01*
X119451533Y-83861999D01*
X119409898Y-83805890D01*
X119405207Y-83736178D01*
X119438580Y-83675365D01*
X120113539Y-83000406D01*
X120080148Y-82971122D01*
X119834919Y-82807265D01*
X119834906Y-82807258D01*
X119570388Y-82676812D01*
X119291099Y-82582005D01*
X119291084Y-82582001D01*
X119001824Y-82524464D01*
X119001812Y-82524462D01*
X118707499Y-82505172D01*
X118413187Y-82524462D01*
X118413175Y-82524464D01*
X118123915Y-82582001D01*
X118123900Y-82582005D01*
X117844611Y-82676812D01*
X117580093Y-82807258D01*
X117580080Y-82807265D01*
X117334850Y-82971123D01*
X117301458Y-83000406D01*
X117976418Y-83675365D01*
X118009903Y-83736688D01*
X118004919Y-83806379D01*
X117963466Y-83861999D01*
X117919278Y-83895368D01*
X117801726Y-84024318D01*
X117742015Y-84060600D01*
X117672167Y-84058839D01*
X117622408Y-84028461D01*
X116947906Y-83353958D01*
X116918623Y-83387350D01*
X116754765Y-83632580D01*
X116754758Y-83632593D01*
X116624312Y-83897111D01*
X116529505Y-84176400D01*
X116529501Y-84176415D01*
X116471964Y-84465675D01*
X116471962Y-84465687D01*
X116452672Y-84760000D01*
X109220000Y-84760000D01*
X109220000Y-77472346D01*
X119062153Y-77472346D01*
X119066725Y-77520710D01*
X119067000Y-77526549D01*
X119067000Y-80608658D01*
X119065232Y-80624669D01*
X119065474Y-80624692D01*
X119064740Y-80632458D01*
X119067000Y-80704367D01*
X119067000Y-80735084D01*
X119067001Y-80735104D01*
X119067918Y-80742370D01*
X119068376Y-80748188D01*
X119069902Y-80796731D01*
X119069903Y-80796734D01*
X119075823Y-80817112D01*
X119079768Y-80836160D01*
X119082428Y-80857218D01*
X119082431Y-80857228D01*
X119100313Y-80902394D01*
X119102205Y-80907922D01*
X119115754Y-80954559D01*
X119115755Y-80954561D01*
X119126560Y-80972830D01*
X119135117Y-80990298D01*
X119140726Y-81004464D01*
X119142932Y-81010036D01*
X119171483Y-81049334D01*
X119174688Y-81054213D01*
X119199419Y-81096029D01*
X119199423Y-81096033D01*
X119214425Y-81111035D01*
X119227063Y-81125833D01*
X119239533Y-81142997D01*
X119239536Y-81143000D01*
X119239537Y-81143001D01*
X119276976Y-81173973D01*
X119281276Y-81177886D01*
X127809898Y-89706507D01*
X136307401Y-98204010D01*
X136317472Y-98216580D01*
X136317659Y-98216426D01*
X136322633Y-98222437D01*
X136322635Y-98222440D01*
X136332474Y-98231679D01*
X136375080Y-98271690D01*
X136396804Y-98293413D01*
X136402594Y-98297905D01*
X136407034Y-98301697D01*
X136434660Y-98327638D01*
X136442444Y-98334948D01*
X136442447Y-98334950D01*
X136442449Y-98334951D01*
X136461044Y-98345174D01*
X136477305Y-98355856D01*
X136494069Y-98368859D01*
X136494073Y-98368862D01*
X136538650Y-98388152D01*
X136543897Y-98390722D01*
X136586469Y-98414127D01*
X136607030Y-98419406D01*
X136625431Y-98425706D01*
X136644911Y-98434136D01*
X136690878Y-98441416D01*
X136692892Y-98441735D01*
X136698601Y-98442917D01*
X136745660Y-98455000D01*
X136766882Y-98455000D01*
X136786279Y-98456526D01*
X136807242Y-98459847D01*
X136851941Y-98455621D01*
X136855607Y-98455275D01*
X136861445Y-98455000D01*
X147345877Y-98455000D01*
X147412916Y-98474685D01*
X147458671Y-98527489D01*
X147468615Y-98596647D01*
X147450871Y-98644972D01*
X147409711Y-98710476D01*
X147350131Y-98880745D01*
X147350130Y-98880750D01*
X147329935Y-99059996D01*
X147329935Y-99060003D01*
X147350130Y-99239249D01*
X147350131Y-99239254D01*
X147409711Y-99409523D01*
X147466897Y-99500533D01*
X147505684Y-99562262D01*
X147633238Y-99689816D01*
X147785978Y-99785789D01*
X147956239Y-99845366D01*
X147956245Y-99845368D01*
X147956250Y-99845369D01*
X148135496Y-99865565D01*
X148135500Y-99865565D01*
X148135504Y-99865565D01*
X148314749Y-99845369D01*
X148314751Y-99845368D01*
X148314755Y-99845368D01*
X148314758Y-99845366D01*
X148314762Y-99845366D01*
X148404877Y-99813832D01*
X148485022Y-99785789D01*
X148574596Y-99729505D01*
X148640568Y-99710500D01*
X149060738Y-99710500D01*
X149076748Y-99712267D01*
X149076771Y-99712026D01*
X149084532Y-99712758D01*
X149084539Y-99712760D01*
X149156446Y-99710500D01*
X149187168Y-99710500D01*
X149194433Y-99709581D01*
X149200259Y-99709122D01*
X149248812Y-99707597D01*
X149269199Y-99701673D01*
X149288239Y-99697731D01*
X149309301Y-99695071D01*
X149354478Y-99677183D01*
X149359978Y-99675300D01*
X149406641Y-99661744D01*
X149424908Y-99650939D01*
X149442379Y-99642380D01*
X149462114Y-99634568D01*
X149501420Y-99606010D01*
X149506286Y-99602813D01*
X149548108Y-99578081D01*
X149563113Y-99563075D01*
X149577911Y-99550436D01*
X149595080Y-99537963D01*
X149626052Y-99500522D01*
X149629966Y-99496221D01*
X150894513Y-98231674D01*
X150907079Y-98221608D01*
X150906925Y-98221421D01*
X150912937Y-98216447D01*
X150912937Y-98216446D01*
X150912940Y-98216445D01*
X150962190Y-98163998D01*
X150983911Y-98142278D01*
X150988401Y-98136488D01*
X150992183Y-98132058D01*
X151025448Y-98096636D01*
X151035674Y-98078033D01*
X151046353Y-98061776D01*
X151059362Y-98045007D01*
X151078656Y-98000418D01*
X151081212Y-97995199D01*
X151104627Y-97952611D01*
X151109905Y-97932049D01*
X151116207Y-97913642D01*
X151124635Y-97894170D01*
X151132233Y-97846196D01*
X151133418Y-97840472D01*
X151136890Y-97826950D01*
X151152001Y-97791815D01*
X151209692Y-97700002D01*
X153049723Y-97700002D01*
X153068793Y-97917975D01*
X153068793Y-97917979D01*
X153125422Y-98129322D01*
X153125424Y-98129326D01*
X153125425Y-98129330D01*
X153131463Y-98142278D01*
X153217897Y-98327638D01*
X153223016Y-98334948D01*
X153343402Y-98506877D01*
X153498123Y-98661598D01*
X153677361Y-98787102D01*
X153875670Y-98879575D01*
X154087023Y-98936207D01*
X154269926Y-98952208D01*
X154304998Y-98955277D01*
X154305000Y-98955277D01*
X154305002Y-98955277D01*
X154333254Y-98952805D01*
X154522977Y-98936207D01*
X154734330Y-98879575D01*
X154932639Y-98787102D01*
X155111877Y-98661598D01*
X155266598Y-98506877D01*
X155392102Y-98327639D01*
X155484575Y-98129330D01*
X155541207Y-97917977D01*
X155560277Y-97700000D01*
X155541207Y-97482023D01*
X155484575Y-97270670D01*
X155392102Y-97072362D01*
X155392100Y-97072359D01*
X155392099Y-97072357D01*
X155266599Y-96893124D01*
X155200514Y-96827039D01*
X155111877Y-96738402D01*
X154932639Y-96612898D01*
X154932640Y-96612898D01*
X154932638Y-96612897D01*
X154784449Y-96543796D01*
X154734330Y-96520425D01*
X154734326Y-96520424D01*
X154734322Y-96520422D01*
X154522977Y-96463793D01*
X154305002Y-96444723D01*
X154304998Y-96444723D01*
X154159681Y-96457436D01*
X154087023Y-96463793D01*
X154087020Y-96463793D01*
X153875677Y-96520422D01*
X153875668Y-96520426D01*
X153677361Y-96612898D01*
X153677357Y-96612900D01*
X153498121Y-96738402D01*
X153343402Y-96893121D01*
X153217900Y-97072357D01*
X153217898Y-97072361D01*
X153125426Y-97270668D01*
X153125422Y-97270677D01*
X153068793Y-97482020D01*
X153068793Y-97482024D01*
X153049723Y-97699997D01*
X153049723Y-97700002D01*
X151209692Y-97700002D01*
X151220788Y-97682343D01*
X151280368Y-97512073D01*
X151281182Y-97504846D01*
X151308245Y-97440430D01*
X151316712Y-97431051D01*
X151529513Y-97218250D01*
X151542079Y-97208184D01*
X151541925Y-97207997D01*
X151547937Y-97203023D01*
X151547937Y-97203022D01*
X151547940Y-97203021D01*
X151597190Y-97150574D01*
X151618912Y-97128853D01*
X151623402Y-97123063D01*
X151627184Y-97118633D01*
X151660448Y-97083212D01*
X151670674Y-97064608D01*
X151681347Y-97048360D01*
X151694363Y-97031582D01*
X151713651Y-96987006D01*
X151716224Y-96981755D01*
X151716561Y-96981140D01*
X151739627Y-96939187D01*
X151744904Y-96918627D01*
X151751206Y-96900222D01*
X151759636Y-96880745D01*
X151767235Y-96832764D01*
X151768417Y-96827053D01*
X151780500Y-96779996D01*
X151780500Y-96758773D01*
X151782027Y-96739374D01*
X151782181Y-96738402D01*
X151785347Y-96718414D01*
X151780775Y-96670046D01*
X151780500Y-96664208D01*
X151780500Y-94280567D01*
X151799507Y-94214594D01*
X151855788Y-94125024D01*
X151855789Y-94125022D01*
X151915368Y-93954755D01*
X151915369Y-93954749D01*
X151935565Y-93775503D01*
X151935565Y-93775496D01*
X151915368Y-93596247D01*
X151915368Y-93596245D01*
X151887458Y-93516482D01*
X151880500Y-93475528D01*
X151880500Y-92820000D01*
X153049723Y-92820000D01*
X153060694Y-92945408D01*
X153068793Y-93037975D01*
X153068793Y-93037979D01*
X153125422Y-93249322D01*
X153125424Y-93249326D01*
X153125425Y-93249330D01*
X153171661Y-93348484D01*
X153217897Y-93447638D01*
X153217898Y-93447639D01*
X153343402Y-93626877D01*
X153498123Y-93781598D01*
X153677361Y-93907102D01*
X153875670Y-93999575D01*
X154087023Y-94056207D01*
X154269926Y-94072208D01*
X154304998Y-94075277D01*
X154305000Y-94075277D01*
X154305002Y-94075277D01*
X154333254Y-94072805D01*
X154522977Y-94056207D01*
X154734330Y-93999575D01*
X154932639Y-93907102D01*
X155111877Y-93781598D01*
X155266598Y-93626877D01*
X155392102Y-93447639D01*
X155484575Y-93249330D01*
X155541207Y-93037977D01*
X155560277Y-92820000D01*
X155541207Y-92602023D01*
X155484575Y-92390670D01*
X155392102Y-92192362D01*
X155392100Y-92192359D01*
X155392099Y-92192357D01*
X155266599Y-92013124D01*
X155266596Y-92013121D01*
X155111877Y-91858402D01*
X154932639Y-91732898D01*
X154932640Y-91732898D01*
X154932638Y-91732897D01*
X154833484Y-91686661D01*
X154734330Y-91640425D01*
X154734326Y-91640424D01*
X154734322Y-91640422D01*
X154522977Y-91583793D01*
X154305002Y-91564723D01*
X154304998Y-91564723D01*
X154159682Y-91577436D01*
X154087023Y-91583793D01*
X154087020Y-91583793D01*
X153875677Y-91640422D01*
X153875668Y-91640426D01*
X153677361Y-91732898D01*
X153677357Y-91732900D01*
X153498121Y-91858402D01*
X153343402Y-92013121D01*
X153217900Y-92192357D01*
X153217898Y-92192361D01*
X153125426Y-92390668D01*
X153125422Y-92390677D01*
X153068793Y-92602020D01*
X153068793Y-92602024D01*
X153059347Y-92709999D01*
X153049723Y-92820000D01*
X151880500Y-92820000D01*
X151880500Y-88963705D01*
X151881809Y-88945735D01*
X151884086Y-88930188D01*
X151885289Y-88921977D01*
X151880735Y-88869931D01*
X151880500Y-88864528D01*
X151880500Y-88856297D01*
X151880500Y-88856291D01*
X151876693Y-88823724D01*
X151869999Y-88747203D01*
X151869999Y-88747201D01*
X151868539Y-88740129D01*
X151868597Y-88740116D01*
X151866965Y-88732757D01*
X151866906Y-88732772D01*
X151865242Y-88725753D01*
X151865241Y-88725745D01*
X151838974Y-88653576D01*
X151814814Y-88580666D01*
X151814809Y-88580659D01*
X151811760Y-88574118D01*
X151811815Y-88574091D01*
X151808533Y-88567313D01*
X151808480Y-88567340D01*
X151805235Y-88560880D01*
X151763028Y-88496708D01*
X151722710Y-88431342D01*
X151718234Y-88425682D01*
X151718281Y-88425644D01*
X151713519Y-88419799D01*
X151713474Y-88419838D01*
X151708834Y-88414308D01*
X151652964Y-88361596D01*
X148696368Y-85405000D01*
X150709659Y-85405000D01*
X150728975Y-85601129D01*
X150728976Y-85601132D01*
X150784239Y-85783310D01*
X150786188Y-85789733D01*
X150879086Y-85963532D01*
X150879090Y-85963539D01*
X151004116Y-86115883D01*
X151156460Y-86240909D01*
X151156467Y-86240913D01*
X151330266Y-86333811D01*
X151330269Y-86333811D01*
X151330273Y-86333814D01*
X151518868Y-86391024D01*
X151715000Y-86410341D01*
X151911132Y-86391024D01*
X152099727Y-86333814D01*
X152273538Y-86240910D01*
X152425883Y-86115883D01*
X152550910Y-85963538D01*
X152632626Y-85810659D01*
X152643811Y-85789733D01*
X152643811Y-85789732D01*
X152643814Y-85789727D01*
X152701024Y-85601132D01*
X152720341Y-85405000D01*
X152701024Y-85208868D01*
X152643814Y-85020273D01*
X152643811Y-85020269D01*
X152643811Y-85020266D01*
X152550913Y-84846467D01*
X152550909Y-84846460D01*
X152425883Y-84694116D01*
X152273539Y-84569091D01*
X152273538Y-84569090D01*
X152264687Y-84564359D01*
X152214843Y-84515398D01*
X152199381Y-84447261D01*
X152223211Y-84381581D01*
X152264686Y-84345641D01*
X152273538Y-84340910D01*
X152425883Y-84215883D01*
X152550910Y-84063538D01*
X152643814Y-83889727D01*
X152701024Y-83701132D01*
X152720341Y-83505000D01*
X152701024Y-83308868D01*
X152643814Y-83120273D01*
X152643811Y-83120269D01*
X152643811Y-83120266D01*
X152550913Y-82946467D01*
X152550909Y-82946460D01*
X152425883Y-82794116D01*
X152273539Y-82669090D01*
X152273532Y-82669086D01*
X152099733Y-82576188D01*
X152099727Y-82576186D01*
X151973996Y-82538045D01*
X151911129Y-82518975D01*
X151715000Y-82499659D01*
X151518870Y-82518975D01*
X151330266Y-82576188D01*
X151156467Y-82669086D01*
X151156460Y-82669090D01*
X151004116Y-82794116D01*
X150879090Y-82946460D01*
X150879086Y-82946467D01*
X150786188Y-83120266D01*
X150728975Y-83308870D01*
X150709659Y-83505000D01*
X150728975Y-83701129D01*
X150786188Y-83889733D01*
X150879086Y-84063532D01*
X150879090Y-84063539D01*
X151004116Y-84215883D01*
X151156460Y-84340909D01*
X151156464Y-84340911D01*
X151165314Y-84345642D01*
X151215158Y-84394605D01*
X151230618Y-84462743D01*
X151206786Y-84528422D01*
X151165314Y-84564358D01*
X151156464Y-84569088D01*
X151156460Y-84569090D01*
X151004116Y-84694116D01*
X150879090Y-84846460D01*
X150879086Y-84846467D01*
X150786188Y-85020266D01*
X150728975Y-85208870D01*
X150709659Y-85405000D01*
X148696368Y-85405000D01*
X144898307Y-81606940D01*
X144875651Y-81570867D01*
X144873811Y-81571754D01*
X144870789Y-81565478D01*
X144774815Y-81412737D01*
X144647262Y-81285184D01*
X144494523Y-81189211D01*
X144324254Y-81129631D01*
X144324249Y-81129630D01*
X144145004Y-81109435D01*
X144144996Y-81109435D01*
X143965750Y-81129630D01*
X143965745Y-81129631D01*
X143795476Y-81189211D01*
X143642735Y-81285185D01*
X143633727Y-81294193D01*
X143572401Y-81327673D01*
X143502710Y-81322684D01*
X143458371Y-81294186D01*
X142911819Y-80747634D01*
X142878334Y-80686311D01*
X142875500Y-80659953D01*
X142875500Y-76835000D01*
X144694341Y-76835000D01*
X144714936Y-77070403D01*
X144714938Y-77070413D01*
X144776094Y-77298655D01*
X144776096Y-77298659D01*
X144776097Y-77298663D01*
X144828372Y-77410766D01*
X144875965Y-77512830D01*
X144875967Y-77512834D01*
X144893853Y-77538377D01*
X145011501Y-77706396D01*
X145011506Y-77706402D01*
X145178597Y-77873493D01*
X145178603Y-77873498D01*
X145364594Y-78003730D01*
X145408219Y-78058307D01*
X145415413Y-78127805D01*
X145383890Y-78190160D01*
X145364595Y-78206880D01*
X145178922Y-78336890D01*
X145178920Y-78336891D01*
X145011891Y-78503920D01*
X145011886Y-78503926D01*
X144876400Y-78697420D01*
X144876399Y-78697422D01*
X144776570Y-78911507D01*
X144776567Y-78911513D01*
X144719364Y-79124999D01*
X144719364Y-79125000D01*
X145436653Y-79125000D01*
X145503692Y-79144685D01*
X145549447Y-79197489D01*
X145559391Y-79266647D01*
X145555631Y-79283933D01*
X145550000Y-79303111D01*
X145550000Y-79446888D01*
X145555631Y-79466067D01*
X145555630Y-79535936D01*
X145517855Y-79594714D01*
X145454299Y-79623738D01*
X145436653Y-79625000D01*
X144719364Y-79625000D01*
X144776567Y-79838486D01*
X144776570Y-79838492D01*
X144876399Y-80052578D01*
X145011894Y-80246082D01*
X145178917Y-80413105D01*
X145372421Y-80548600D01*
X145586507Y-80648429D01*
X145586516Y-80648433D01*
X145800000Y-80705634D01*
X145800000Y-79987301D01*
X145819685Y-79920262D01*
X145872489Y-79874507D01*
X145941647Y-79864563D01*
X146014237Y-79875000D01*
X146014238Y-79875000D01*
X146085762Y-79875000D01*
X146085763Y-79875000D01*
X146158353Y-79864563D01*
X146227512Y-79874507D01*
X146280315Y-79920262D01*
X146300000Y-79987301D01*
X146300000Y-80705633D01*
X146513483Y-80648433D01*
X146513492Y-80648429D01*
X146727578Y-80548600D01*
X146921082Y-80413105D01*
X147088105Y-80246082D01*
X147223600Y-80052578D01*
X147323429Y-79838492D01*
X147323432Y-79838486D01*
X147380636Y-79625000D01*
X146663347Y-79625000D01*
X146596308Y-79605315D01*
X146550553Y-79552511D01*
X146540609Y-79483353D01*
X146544369Y-79466067D01*
X146550000Y-79446888D01*
X146550000Y-79303111D01*
X146544369Y-79283933D01*
X146544370Y-79214064D01*
X146582145Y-79155286D01*
X146645701Y-79126262D01*
X146663347Y-79125000D01*
X147380636Y-79125000D01*
X147380635Y-79124999D01*
X147323432Y-78911513D01*
X147323429Y-78911507D01*
X147223600Y-78697422D01*
X147223599Y-78697420D01*
X147088113Y-78503926D01*
X147088108Y-78503920D01*
X146921078Y-78336890D01*
X146735405Y-78206879D01*
X146691780Y-78152302D01*
X146684588Y-78082804D01*
X146716110Y-78020449D01*
X146735406Y-78003730D01*
X146735842Y-78003425D01*
X146921401Y-77873495D01*
X147088495Y-77706401D01*
X147224035Y-77512830D01*
X147323903Y-77298663D01*
X147385063Y-77070408D01*
X147405659Y-76835000D01*
X147385063Y-76599592D01*
X147323903Y-76371337D01*
X147224035Y-76157171D01*
X147222471Y-76154938D01*
X147088496Y-75963600D01*
X147059510Y-75934614D01*
X146966567Y-75841671D01*
X146933084Y-75780351D01*
X146938068Y-75710659D01*
X146954031Y-75689335D01*
X154709500Y-75689335D01*
X154719153Y-75747184D01*
X154750429Y-75934616D01*
X154831169Y-76169802D01*
X154831172Y-76169811D01*
X154949524Y-76388506D01*
X154949526Y-76388509D01*
X155102262Y-76584744D01*
X155261744Y-76731557D01*
X155285217Y-76753166D01*
X155493393Y-76889173D01*
X155721118Y-76989063D01*
X155923002Y-77040187D01*
X155962179Y-77050108D01*
X155962181Y-77050108D01*
X155962186Y-77050109D01*
X156095376Y-77061145D01*
X156147933Y-77065500D01*
X156147935Y-77065500D01*
X156272065Y-77065500D01*
X156272067Y-77065500D01*
X156333284Y-77060427D01*
X156457813Y-77050109D01*
X156457816Y-77050108D01*
X156457821Y-77050108D01*
X156698881Y-76989063D01*
X156926607Y-76889173D01*
X157134785Y-76753164D01*
X157317738Y-76584744D01*
X157470474Y-76388509D01*
X157588828Y-76169810D01*
X157669571Y-75934614D01*
X157710500Y-75689335D01*
X157710500Y-75440665D01*
X157669571Y-75195386D01*
X157588828Y-74960190D01*
X157470474Y-74741491D01*
X157317738Y-74545256D01*
X157134785Y-74376836D01*
X157134782Y-74376833D01*
X156926606Y-74240826D01*
X156698881Y-74140936D01*
X156457824Y-74079892D01*
X156457813Y-74079890D01*
X156292548Y-74066197D01*
X156272067Y-74064500D01*
X156147933Y-74064500D01*
X156128521Y-74066108D01*
X155962186Y-74079890D01*
X155962175Y-74079892D01*
X155721118Y-74140936D01*
X155493393Y-74240826D01*
X155285217Y-74376833D01*
X155102261Y-74545257D01*
X154949524Y-74741493D01*
X154831172Y-74960188D01*
X154831169Y-74960197D01*
X154750429Y-75195383D01*
X154740901Y-75252483D01*
X154709500Y-75440665D01*
X154709500Y-75689335D01*
X146954031Y-75689335D01*
X146979939Y-75654725D01*
X147010915Y-75637810D01*
X147142331Y-75588796D01*
X147257546Y-75502546D01*
X147343796Y-75387331D01*
X147394091Y-75252483D01*
X147400500Y-75192873D01*
X147400499Y-73397128D01*
X147394091Y-73337517D01*
X147383161Y-73308213D01*
X147343797Y-73202671D01*
X147343793Y-73202664D01*
X147257547Y-73087455D01*
X147257544Y-73087452D01*
X147142335Y-73001206D01*
X147142328Y-73001202D01*
X147007482Y-72950908D01*
X147007483Y-72950908D01*
X146947883Y-72944501D01*
X146947881Y-72944500D01*
X146947873Y-72944500D01*
X146947864Y-72944500D01*
X145152129Y-72944500D01*
X145152123Y-72944501D01*
X145092516Y-72950908D01*
X144957671Y-73001202D01*
X144957664Y-73001206D01*
X144842455Y-73087452D01*
X144842452Y-73087455D01*
X144756206Y-73202664D01*
X144756202Y-73202671D01*
X144705908Y-73337517D01*
X144699501Y-73397116D01*
X144699501Y-73397123D01*
X144699500Y-73397135D01*
X144699500Y-75192870D01*
X144699501Y-75192876D01*
X144705908Y-75252483D01*
X144756202Y-75387328D01*
X144756206Y-75387335D01*
X144842452Y-75502544D01*
X144842455Y-75502547D01*
X144957664Y-75588793D01*
X144957671Y-75588797D01*
X145089081Y-75637810D01*
X145145015Y-75679681D01*
X145169432Y-75745145D01*
X145154580Y-75813418D01*
X145133430Y-75841673D01*
X145011503Y-75963600D01*
X144875965Y-76157169D01*
X144875964Y-76157171D01*
X144776098Y-76371335D01*
X144776094Y-76371344D01*
X144714938Y-76599586D01*
X144714936Y-76599596D01*
X144694341Y-76834999D01*
X144694341Y-76835000D01*
X142875500Y-76835000D01*
X142875500Y-73995807D01*
X142895185Y-73928768D01*
X142911813Y-73908131D01*
X142973225Y-73846719D01*
X143034544Y-73813237D01*
X143047019Y-73811183D01*
X143054255Y-73810368D01*
X143224522Y-73750789D01*
X143377262Y-73654816D01*
X143504816Y-73527262D01*
X143600789Y-73374522D01*
X143660368Y-73204255D01*
X143660369Y-73204249D01*
X143680565Y-73025003D01*
X143680565Y-73024996D01*
X143660369Y-72845750D01*
X143660368Y-72845745D01*
X143600788Y-72675476D01*
X143504815Y-72522737D01*
X143377262Y-72395184D01*
X143224523Y-72299211D01*
X143054254Y-72239631D01*
X143054249Y-72239630D01*
X142875004Y-72219435D01*
X142874996Y-72219435D01*
X142695750Y-72239630D01*
X142695745Y-72239631D01*
X142525476Y-72299211D01*
X142372737Y-72395184D01*
X142245184Y-72522737D01*
X142149210Y-72675478D01*
X142089632Y-72845744D01*
X142089630Y-72845752D01*
X142088815Y-72852988D01*
X142061743Y-72917400D01*
X142053277Y-72926775D01*
X141825483Y-73154569D01*
X141812910Y-73164643D01*
X141813065Y-73164830D01*
X141807059Y-73169798D01*
X141782434Y-73196021D01*
X141757809Y-73222244D01*
X141746949Y-73233104D01*
X141736088Y-73243965D01*
X141736078Y-73243977D01*
X141731587Y-73249765D01*
X141727801Y-73254197D01*
X141694552Y-73289606D01*
X141684322Y-73308213D01*
X141673646Y-73324464D01*
X141660640Y-73341232D01*
X141660636Y-73341238D01*
X141641348Y-73385811D01*
X141638777Y-73391058D01*
X141615372Y-73433630D01*
X141615372Y-73433631D01*
X141610091Y-73454199D01*
X141603791Y-73472601D01*
X141595364Y-73492073D01*
X141587766Y-73540047D01*
X141586581Y-73545770D01*
X141574500Y-73592818D01*
X141574500Y-73614044D01*
X141572973Y-73633444D01*
X141571990Y-73639653D01*
X141569653Y-73654405D01*
X141572581Y-73685373D01*
X141574225Y-73702767D01*
X141574500Y-73708606D01*
X141574500Y-80030192D01*
X141554815Y-80097231D01*
X141502011Y-80142986D01*
X141432853Y-80152930D01*
X141369297Y-80123905D01*
X141362819Y-80117873D01*
X135140434Y-73895488D01*
X135130361Y-73882914D01*
X135130174Y-73883070D01*
X135125201Y-73877059D01*
X135072756Y-73827810D01*
X135051035Y-73806089D01*
X135045240Y-73801594D01*
X135040798Y-73797799D01*
X135005396Y-73764554D01*
X135005388Y-73764548D01*
X134986792Y-73754325D01*
X134970531Y-73743644D01*
X134970100Y-73743310D01*
X134953764Y-73730638D01*
X134953763Y-73730637D01*
X134917040Y-73714746D01*
X134909178Y-73711343D01*
X134903956Y-73708786D01*
X134861368Y-73685373D01*
X134861365Y-73685372D01*
X134840801Y-73680092D01*
X134822396Y-73673790D01*
X134802927Y-73665365D01*
X134802921Y-73665363D01*
X134754951Y-73657766D01*
X134749236Y-73656582D01*
X134732772Y-73652355D01*
X134702180Y-73644500D01*
X134702177Y-73644500D01*
X134680955Y-73644500D01*
X134661555Y-73642973D01*
X134640596Y-73639653D01*
X134640595Y-73639653D01*
X134616786Y-73641903D01*
X134592230Y-73644225D01*
X134586392Y-73644500D01*
X129744499Y-73644500D01*
X129677460Y-73624815D01*
X129631705Y-73572011D01*
X129620499Y-73520500D01*
X129620499Y-73397129D01*
X129620498Y-73397123D01*
X129620497Y-73397116D01*
X129614091Y-73337517D01*
X129603161Y-73308213D01*
X129563797Y-73202671D01*
X129563793Y-73202664D01*
X129477547Y-73087455D01*
X129477544Y-73087452D01*
X129362335Y-73001206D01*
X129362328Y-73001202D01*
X129227482Y-72950908D01*
X129227483Y-72950908D01*
X129167883Y-72944501D01*
X129167881Y-72944500D01*
X129167873Y-72944500D01*
X129167864Y-72944500D01*
X127372129Y-72944500D01*
X127372123Y-72944501D01*
X127312516Y-72950908D01*
X127177671Y-73001202D01*
X127177664Y-73001206D01*
X127062455Y-73087452D01*
X127062452Y-73087455D01*
X126976206Y-73202664D01*
X126976202Y-73202671D01*
X126925908Y-73337517D01*
X126919501Y-73397116D01*
X126919501Y-73397123D01*
X126919500Y-73397135D01*
X126919500Y-75192870D01*
X126919501Y-75192876D01*
X126925908Y-75252483D01*
X126976202Y-75387328D01*
X126976206Y-75387335D01*
X127062452Y-75502544D01*
X127062455Y-75502547D01*
X127177664Y-75588793D01*
X127177671Y-75588797D01*
X127309081Y-75637810D01*
X127365015Y-75679681D01*
X127389432Y-75745145D01*
X127374580Y-75813418D01*
X127353430Y-75841673D01*
X127231503Y-75963600D01*
X127095965Y-76157169D01*
X127095964Y-76157171D01*
X126996098Y-76371335D01*
X126996094Y-76371344D01*
X126934938Y-76599586D01*
X126934936Y-76599596D01*
X126914341Y-76834999D01*
X126914341Y-76835000D01*
X126934936Y-77070403D01*
X126934938Y-77070413D01*
X126996094Y-77298655D01*
X126996096Y-77298659D01*
X126996097Y-77298663D01*
X127048372Y-77410766D01*
X127095965Y-77512830D01*
X127095967Y-77512834D01*
X127113853Y-77538377D01*
X127231501Y-77706396D01*
X127231506Y-77706402D01*
X127398597Y-77873493D01*
X127398603Y-77873498D01*
X127584158Y-78003425D01*
X127627783Y-78058002D01*
X127634977Y-78127500D01*
X127603454Y-78189855D01*
X127584158Y-78206575D01*
X127398597Y-78336505D01*
X127231505Y-78503597D01*
X127095965Y-78697169D01*
X127095964Y-78697171D01*
X126996098Y-78911335D01*
X126996094Y-78911344D01*
X126934938Y-79139586D01*
X126934936Y-79139596D01*
X126914341Y-79374999D01*
X126914341Y-79375000D01*
X126934936Y-79610403D01*
X126934938Y-79610413D01*
X126996094Y-79838655D01*
X126996096Y-79838659D01*
X126996097Y-79838663D01*
X127050456Y-79955236D01*
X127095965Y-80052830D01*
X127095967Y-80052834D01*
X127231501Y-80246395D01*
X127231506Y-80246402D01*
X127398597Y-80413493D01*
X127398603Y-80413498D01*
X127584158Y-80543425D01*
X127627783Y-80598002D01*
X127634977Y-80667500D01*
X127603454Y-80729855D01*
X127584158Y-80746575D01*
X127398597Y-80876505D01*
X127231505Y-81043597D01*
X127095965Y-81237169D01*
X127095964Y-81237171D01*
X126996098Y-81451335D01*
X126996094Y-81451344D01*
X126934938Y-81679586D01*
X126934936Y-81679596D01*
X126914341Y-81914999D01*
X126914341Y-81915000D01*
X126934936Y-82150403D01*
X126934938Y-82150413D01*
X126996094Y-82378655D01*
X126996096Y-82378659D01*
X126996097Y-82378663D01*
X127064085Y-82524464D01*
X127095965Y-82592830D01*
X127095967Y-82592834D01*
X127231501Y-82786395D01*
X127231506Y-82786402D01*
X127398597Y-82953493D01*
X127398603Y-82953498D01*
X127584158Y-83083425D01*
X127627783Y-83138002D01*
X127634977Y-83207500D01*
X127603454Y-83269855D01*
X127584158Y-83286575D01*
X127398597Y-83416505D01*
X127231505Y-83583597D01*
X127095965Y-83777169D01*
X127095964Y-83777171D01*
X126996098Y-83991335D01*
X126996094Y-83991344D01*
X126934938Y-84219586D01*
X126934936Y-84219596D01*
X126914341Y-84454999D01*
X126914341Y-84455000D01*
X126934936Y-84690403D01*
X126934938Y-84690413D01*
X126996094Y-84918655D01*
X126996096Y-84918659D01*
X126996097Y-84918663D01*
X127059357Y-85054324D01*
X127095965Y-85132830D01*
X127095967Y-85132834D01*
X127200072Y-85281510D01*
X127231505Y-85326401D01*
X127398599Y-85493495D01*
X127495384Y-85561265D01*
X127592165Y-85629032D01*
X127592167Y-85629033D01*
X127592170Y-85629035D01*
X127806337Y-85728903D01*
X128034592Y-85790063D01*
X128222918Y-85806539D01*
X128269999Y-85810659D01*
X128270000Y-85810659D01*
X128270001Y-85810659D01*
X128309234Y-85807226D01*
X128505408Y-85790063D01*
X128733663Y-85728903D01*
X128947830Y-85629035D01*
X129141401Y-85493495D01*
X129308495Y-85326401D01*
X129444035Y-85132830D01*
X129543903Y-84918663D01*
X129605063Y-84690408D01*
X129625659Y-84455000D01*
X129605063Y-84219592D01*
X129543903Y-83991337D01*
X129444035Y-83777171D01*
X129425985Y-83751392D01*
X129308494Y-83583597D01*
X129141402Y-83416506D01*
X129141396Y-83416501D01*
X128955842Y-83286575D01*
X128912217Y-83231998D01*
X128905023Y-83162500D01*
X128936546Y-83100145D01*
X128955842Y-83083425D01*
X129074405Y-83000406D01*
X129141401Y-82953495D01*
X129308495Y-82786401D01*
X129444035Y-82592830D01*
X129543903Y-82378663D01*
X129605063Y-82150408D01*
X129625659Y-81915000D01*
X129605063Y-81679592D01*
X129543903Y-81451337D01*
X129444035Y-81237171D01*
X129416290Y-81197546D01*
X129308494Y-81043597D01*
X129141402Y-80876506D01*
X129141401Y-80876505D01*
X128958146Y-80748188D01*
X128955841Y-80746574D01*
X128912216Y-80691997D01*
X128905024Y-80622498D01*
X128936546Y-80560144D01*
X128955836Y-80543428D01*
X129141401Y-80413495D01*
X129308495Y-80246401D01*
X129444035Y-80052830D01*
X129543903Y-79838663D01*
X129605063Y-79610408D01*
X129625659Y-79375000D01*
X129605063Y-79139592D01*
X129543903Y-78911337D01*
X129444035Y-78697171D01*
X129443360Y-78696206D01*
X129308494Y-78503597D01*
X129141402Y-78336506D01*
X129141396Y-78336501D01*
X128955842Y-78206575D01*
X128912217Y-78151998D01*
X128905023Y-78082500D01*
X128936546Y-78020145D01*
X128955842Y-78003425D01*
X129026921Y-77953655D01*
X129141401Y-77873495D01*
X129308495Y-77706401D01*
X129426146Y-77538377D01*
X129480724Y-77494752D01*
X129527722Y-77485500D01*
X135909136Y-77485500D01*
X135976175Y-77505185D01*
X135996817Y-77521819D01*
X141901766Y-83426768D01*
X141935251Y-83488091D01*
X141937304Y-83500557D01*
X141938119Y-83507791D01*
X141938121Y-83507800D01*
X141997699Y-83678066D01*
X142034534Y-83736688D01*
X142093673Y-83830807D01*
X142221227Y-83958361D01*
X142373967Y-84054334D01*
X142544233Y-84113913D01*
X142544234Y-84113913D01*
X142544239Y-84113914D01*
X142723485Y-84134110D01*
X142723489Y-84134110D01*
X142723493Y-84134110D01*
X142902738Y-84113914D01*
X142902741Y-84113913D01*
X142902744Y-84113913D01*
X143073011Y-84054334D01*
X143200471Y-83974245D01*
X143267706Y-83955245D01*
X143307397Y-83962198D01*
X143330748Y-83970369D01*
X143509996Y-83990565D01*
X143510000Y-83990565D01*
X143510004Y-83990565D01*
X143689249Y-83970369D01*
X143689252Y-83970368D01*
X143689255Y-83970368D01*
X143859522Y-83910789D01*
X144006432Y-83818478D01*
X144073668Y-83799479D01*
X144140504Y-83819847D01*
X144160085Y-83835792D01*
X147086845Y-86762551D01*
X147120330Y-86823874D01*
X147123164Y-86850232D01*
X147123164Y-96000832D01*
X147104158Y-96066804D01*
X147047875Y-96156378D01*
X147047873Y-96156382D01*
X146988297Y-96326638D01*
X146988294Y-96326651D01*
X146980664Y-96394382D01*
X146953598Y-96458797D01*
X146896004Y-96498352D01*
X146857444Y-96504500D01*
X137206251Y-96504500D01*
X137139212Y-96484815D01*
X137118570Y-96468181D01*
X122028601Y-81378212D01*
X121995116Y-81316889D01*
X122000100Y-81247197D01*
X122041972Y-81191264D01*
X122063871Y-81178152D01*
X122071573Y-81174560D01*
X122140650Y-81164064D01*
X122204436Y-81192581D01*
X122209210Y-81196989D01*
X122325164Y-81283793D01*
X122325171Y-81283797D01*
X122460017Y-81334091D01*
X122460016Y-81334091D01*
X122466944Y-81334835D01*
X122519627Y-81340500D01*
X124315372Y-81340499D01*
X124374983Y-81334091D01*
X124509831Y-81283796D01*
X124625046Y-81197546D01*
X124711296Y-81082331D01*
X124761591Y-80947483D01*
X124768000Y-80887873D01*
X124767999Y-79092128D01*
X124761591Y-79032517D01*
X124734337Y-78959446D01*
X124711297Y-78897671D01*
X124711293Y-78897664D01*
X124625047Y-78782455D01*
X124625044Y-78782452D01*
X124509835Y-78696206D01*
X124509828Y-78696202D01*
X124407551Y-78658056D01*
X124351617Y-78616185D01*
X124327200Y-78550721D01*
X124342051Y-78482448D01*
X124363203Y-78454193D01*
X124363202Y-78454193D01*
X124455995Y-78361401D01*
X124591535Y-78167830D01*
X124691403Y-77953663D01*
X124752563Y-77725408D01*
X124773159Y-77490000D01*
X124752563Y-77254592D01*
X124691403Y-77026337D01*
X124591535Y-76812171D01*
X124550220Y-76753166D01*
X124455994Y-76618597D01*
X124288902Y-76451506D01*
X124288895Y-76451501D01*
X124095334Y-76315967D01*
X124095330Y-76315965D01*
X124095329Y-76315965D01*
X123881163Y-76216097D01*
X123881159Y-76216096D01*
X123881155Y-76216094D01*
X123652913Y-76154938D01*
X123652903Y-76154936D01*
X123417501Y-76134341D01*
X123417499Y-76134341D01*
X123182090Y-76154937D01*
X123182089Y-76154937D01*
X123109508Y-76174384D01*
X123039658Y-76172720D01*
X122989736Y-76142290D01*
X122737934Y-75890488D01*
X122727861Y-75877914D01*
X122727674Y-75878070D01*
X122722701Y-75872059D01*
X122670256Y-75822810D01*
X122648535Y-75801089D01*
X122642740Y-75796594D01*
X122638298Y-75792799D01*
X122602896Y-75759554D01*
X122602888Y-75759548D01*
X122584292Y-75749325D01*
X122568031Y-75738644D01*
X122551263Y-75725637D01*
X122516650Y-75710659D01*
X122506678Y-75706343D01*
X122501456Y-75703786D01*
X122458868Y-75680373D01*
X122458865Y-75680372D01*
X122438301Y-75675092D01*
X122419896Y-75668790D01*
X122400427Y-75660365D01*
X122400421Y-75660363D01*
X122352451Y-75652766D01*
X122346736Y-75651582D01*
X122323042Y-75645499D01*
X122299680Y-75639500D01*
X122299677Y-75639500D01*
X122278455Y-75639500D01*
X122259055Y-75637973D01*
X122238096Y-75634653D01*
X122238095Y-75634653D01*
X122214286Y-75636903D01*
X122189730Y-75639225D01*
X122183892Y-75639500D01*
X121005947Y-75639500D01*
X120989936Y-75637732D01*
X120989914Y-75637974D01*
X120982147Y-75637240D01*
X120982146Y-75637240D01*
X120910239Y-75639500D01*
X120879518Y-75639500D01*
X120879514Y-75639500D01*
X120879504Y-75639501D01*
X120872236Y-75640419D01*
X120866419Y-75640876D01*
X120817878Y-75642402D01*
X120817867Y-75642404D01*
X120797491Y-75648323D01*
X120778451Y-75652266D01*
X120757390Y-75654927D01*
X120757382Y-75654929D01*
X120712218Y-75672811D01*
X120706690Y-75674703D01*
X120660045Y-75688255D01*
X120641775Y-75699060D01*
X120624306Y-75707618D01*
X120604571Y-75715432D01*
X120604569Y-75715433D01*
X120565282Y-75743977D01*
X120560399Y-75747184D01*
X120518575Y-75771919D01*
X120503569Y-75786926D01*
X120488779Y-75799558D01*
X120471610Y-75812032D01*
X120471608Y-75812034D01*
X120440637Y-75849470D01*
X120436705Y-75853791D01*
X119317983Y-76972512D01*
X119305410Y-76982586D01*
X119305565Y-76982773D01*
X119299559Y-76987741D01*
X119274934Y-77013963D01*
X119250309Y-77040187D01*
X119239448Y-77051047D01*
X119228588Y-77061908D01*
X119228578Y-77061920D01*
X119224087Y-77067708D01*
X119220301Y-77072140D01*
X119187052Y-77107549D01*
X119176822Y-77126156D01*
X119166146Y-77142407D01*
X119153140Y-77159175D01*
X119153136Y-77159181D01*
X119133848Y-77203754D01*
X119131277Y-77209001D01*
X119107872Y-77251573D01*
X119107872Y-77251574D01*
X119102591Y-77272142D01*
X119096291Y-77290544D01*
X119087864Y-77310016D01*
X119080266Y-77357990D01*
X119079081Y-77363713D01*
X119067000Y-77410761D01*
X119067000Y-77431987D01*
X119065473Y-77451387D01*
X119062153Y-77472346D01*
X109220000Y-77472346D01*
X109220000Y-70609000D01*
X109239685Y-70541961D01*
X109292489Y-70496206D01*
X109344000Y-70485000D01*
X117620650Y-70485000D01*
X117687689Y-70504685D01*
G37*
%TD.AperFunction*%
%TD*%
M02*
