%TF.GenerationSoftware,KiCad,Pcbnew,7.0.7*%
%TF.CreationDate,2023-12-05T11:36:27+01:00*%
%TF.ProjectId,PF,50462e6b-6963-4616-945f-706362585858,rev?*%
%TF.SameCoordinates,Original*%
%TF.FileFunction,Paste,Top*%
%TF.FilePolarity,Positive*%
%FSLAX46Y46*%
G04 Gerber Fmt 4.6, Leading zero omitted, Abs format (unit mm)*
G04 Created by KiCad (PCBNEW 7.0.7) date 2023-12-05 11:36:27*
%MOMM*%
%LPD*%
G01*
G04 APERTURE LIST*
G04 Aperture macros list*
%AMRoundRect*
0 Rectangle with rounded corners*
0 $1 Rounding radius*
0 $2 $3 $4 $5 $6 $7 $8 $9 X,Y pos of 4 corners*
0 Add a 4 corners polygon primitive as box body*
4,1,4,$2,$3,$4,$5,$6,$7,$8,$9,$2,$3,0*
0 Add four circle primitives for the rounded corners*
1,1,$1+$1,$2,$3*
1,1,$1+$1,$4,$5*
1,1,$1+$1,$6,$7*
1,1,$1+$1,$8,$9*
0 Add four rect primitives between the rounded corners*
20,1,$1+$1,$2,$3,$4,$5,0*
20,1,$1+$1,$4,$5,$6,$7,0*
20,1,$1+$1,$6,$7,$8,$9,0*
20,1,$1+$1,$8,$9,$2,$3,0*%
G04 Aperture macros list end*
%ADD10RoundRect,0.250000X-0.312500X-0.625000X0.312500X-0.625000X0.312500X0.625000X-0.312500X0.625000X0*%
%ADD11RoundRect,0.250000X0.312500X0.625000X-0.312500X0.625000X-0.312500X-0.625000X0.312500X-0.625000X0*%
%ADD12RoundRect,0.225000X-0.225000X-0.250000X0.225000X-0.250000X0.225000X0.250000X-0.225000X0.250000X0*%
%ADD13RoundRect,0.225000X0.250000X-0.225000X0.250000X0.225000X-0.250000X0.225000X-0.250000X-0.225000X0*%
%ADD14RoundRect,0.225000X0.225000X0.250000X-0.225000X0.250000X-0.225000X-0.250000X0.225000X-0.250000X0*%
%ADD15R,1.397000X0.300000*%
%ADD16R,0.300000X1.200000*%
%ADD17R,1.200000X0.300000*%
%ADD18RoundRect,0.218750X-0.218750X-0.256250X0.218750X-0.256250X0.218750X0.256250X-0.218750X0.256250X0*%
%ADD19R,1.600000X1.400000*%
%ADD20R,2.006600X1.498600*%
%ADD21R,2.540000X3.810000*%
%ADD22RoundRect,0.225000X-0.250000X0.225000X-0.250000X-0.225000X0.250000X-0.225000X0.250000X0.225000X0*%
%ADD23RoundRect,0.250000X0.625000X-0.312500X0.625000X0.312500X-0.625000X0.312500X-0.625000X-0.312500X0*%
G04 APERTURE END LIST*
D10*
%TO.C,R4*%
X138045000Y-73025000D03*
X140970000Y-73025000D03*
%TD*%
D11*
%TO.C,R3*%
X151957500Y-73660000D03*
X149032500Y-73660000D03*
%TD*%
D12*
%TO.C,C10*%
X141465000Y-75565000D03*
X143015000Y-75565000D03*
%TD*%
D13*
%TO.C,C5*%
X140335000Y-83960000D03*
X140335000Y-82410000D03*
%TD*%
D14*
%TO.C,C3*%
X140335000Y-102235000D03*
X138785000Y-102235000D03*
%TD*%
D15*
%TO.C,IC1*%
X132340000Y-87960000D03*
X132340000Y-88460000D03*
X132340000Y-88960000D03*
X132340000Y-89460000D03*
X132340000Y-89960000D03*
X132340000Y-90460000D03*
X132340000Y-90960000D03*
X132340000Y-91460000D03*
X132340000Y-91960000D03*
X132340000Y-92460000D03*
X132340000Y-92960000D03*
X132340000Y-93460000D03*
X132340000Y-93960000D03*
X132340000Y-94460000D03*
X132340000Y-94960000D03*
X132340000Y-95460000D03*
X132340000Y-95960000D03*
X132340000Y-96460000D03*
X132340000Y-96960000D03*
X132340000Y-97460000D03*
D16*
X134315000Y-99435000D03*
X134815000Y-99435000D03*
X135315000Y-99435000D03*
X135815000Y-99435000D03*
X136315000Y-99435000D03*
X136815000Y-99435000D03*
X137315000Y-99435000D03*
X137815000Y-99435000D03*
X138315000Y-99435000D03*
X138815000Y-99435000D03*
X139315000Y-99435000D03*
X139815000Y-99435000D03*
X140315000Y-99435000D03*
X140815000Y-99435000D03*
X141315000Y-99435000D03*
X141815000Y-99435000D03*
X142315000Y-99435000D03*
X142815000Y-99435000D03*
X143315000Y-99435000D03*
X143815000Y-99435000D03*
D17*
X145790000Y-97460000D03*
X145790000Y-96960000D03*
X145790000Y-96460000D03*
X145790000Y-95960000D03*
X145790000Y-95460000D03*
X145790000Y-94960000D03*
X145790000Y-94460000D03*
X145790000Y-93960000D03*
X145790000Y-93460000D03*
X145790000Y-92960000D03*
X145790000Y-92460000D03*
X145790000Y-91960000D03*
X145790000Y-91460000D03*
X145790000Y-90960000D03*
X145790000Y-90460000D03*
X145790000Y-89960000D03*
X145790000Y-89460000D03*
X145790000Y-88960000D03*
X145790000Y-88460000D03*
X145790000Y-87960000D03*
D16*
X143815000Y-85985000D03*
X143315000Y-85985000D03*
X142815000Y-85985000D03*
X142315000Y-85985000D03*
X141815000Y-85985000D03*
X141315000Y-85985000D03*
X140815000Y-85985000D03*
X140315000Y-85985000D03*
X139815000Y-85985000D03*
X139315000Y-85985000D03*
X138815000Y-85985000D03*
X138315000Y-85985000D03*
X137815000Y-85985000D03*
X137315000Y-85985000D03*
X136815000Y-85985000D03*
X136315000Y-85985000D03*
X135815000Y-85985000D03*
X135315000Y-85985000D03*
X134815000Y-85985000D03*
X134315000Y-85985000D03*
%TD*%
D13*
%TO.C,C1*%
X128765000Y-94895000D03*
X128765000Y-93345000D03*
%TD*%
D18*
%TO.C,D1*%
X149555000Y-76835000D03*
X151130000Y-76835000D03*
%TD*%
D13*
%TO.C,C4*%
X149860000Y-92850000D03*
X149860000Y-91300000D03*
%TD*%
D19*
%TO.C,RESET0*%
X131635000Y-109565000D03*
X123635000Y-109565000D03*
X131635000Y-105065000D03*
X123635000Y-105065000D03*
%TD*%
D12*
%TO.C,C2*%
X135750000Y-102235000D03*
X137300000Y-102235000D03*
%TD*%
D20*
%TO.C,U1*%
X138404600Y-80365600D03*
X138404600Y-78079600D03*
X138404600Y-75793600D03*
D21*
X132105400Y-78105000D03*
%TD*%
D12*
%TO.C,C8*%
X152895000Y-87630000D03*
X154445000Y-87630000D03*
%TD*%
D14*
%TO.C,C6*%
X150635000Y-99060000D03*
X149085000Y-99060000D03*
%TD*%
D22*
%TO.C,C11*%
X141605000Y-78600000D03*
X141605000Y-80150000D03*
%TD*%
D13*
%TO.C,C7*%
X156845000Y-88405000D03*
X156845000Y-86855000D03*
%TD*%
D12*
%TO.C,C9*%
X152895000Y-81280000D03*
X154445000Y-81280000D03*
%TD*%
D23*
%TO.C,R1*%
X128270000Y-91632500D03*
X128270000Y-88707500D03*
%TD*%
%TO.C,R2*%
X125095000Y-99252500D03*
X125095000Y-96327500D03*
%TD*%
M02*
