%TF.GenerationSoftware,KiCad,Pcbnew,7.0.7*%
%TF.CreationDate,2023-12-05T11:36:27+01:00*%
%TF.ProjectId,PF,50462e6b-6963-4616-945f-706362585858,rev?*%
%TF.SameCoordinates,Original*%
%TF.FileFunction,Copper,L1,Top*%
%TF.FilePolarity,Positive*%
%FSLAX46Y46*%
G04 Gerber Fmt 4.6, Leading zero omitted, Abs format (unit mm)*
G04 Created by KiCad (PCBNEW 7.0.7) date 2023-12-05 11:36:27*
%MOMM*%
%LPD*%
G01*
G04 APERTURE LIST*
G04 Aperture macros list*
%AMRoundRect*
0 Rectangle with rounded corners*
0 $1 Rounding radius*
0 $2 $3 $4 $5 $6 $7 $8 $9 X,Y pos of 4 corners*
0 Add a 4 corners polygon primitive as box body*
4,1,4,$2,$3,$4,$5,$6,$7,$8,$9,$2,$3,0*
0 Add four circle primitives for the rounded corners*
1,1,$1+$1,$2,$3*
1,1,$1+$1,$4,$5*
1,1,$1+$1,$6,$7*
1,1,$1+$1,$8,$9*
0 Add four rect primitives between the rounded corners*
20,1,$1+$1,$2,$3,$4,$5,0*
20,1,$1+$1,$4,$5,$6,$7,0*
20,1,$1+$1,$6,$7,$8,$9,0*
20,1,$1+$1,$8,$9,$2,$3,0*%
G04 Aperture macros list end*
%TA.AperFunction,SMDPad,CuDef*%
%ADD10RoundRect,0.250000X-0.312500X-0.625000X0.312500X-0.625000X0.312500X0.625000X-0.312500X0.625000X0*%
%TD*%
%TA.AperFunction,SMDPad,CuDef*%
%ADD11RoundRect,0.250000X0.312500X0.625000X-0.312500X0.625000X-0.312500X-0.625000X0.312500X-0.625000X0*%
%TD*%
%TA.AperFunction,SMDPad,CuDef*%
%ADD12RoundRect,0.225000X-0.225000X-0.250000X0.225000X-0.250000X0.225000X0.250000X-0.225000X0.250000X0*%
%TD*%
%TA.AperFunction,SMDPad,CuDef*%
%ADD13RoundRect,0.225000X0.250000X-0.225000X0.250000X0.225000X-0.250000X0.225000X-0.250000X-0.225000X0*%
%TD*%
%TA.AperFunction,SMDPad,CuDef*%
%ADD14RoundRect,0.225000X0.225000X0.250000X-0.225000X0.250000X-0.225000X-0.250000X0.225000X-0.250000X0*%
%TD*%
%TA.AperFunction,SMDPad,CuDef*%
%ADD15R,1.397000X0.300000*%
%TD*%
%TA.AperFunction,SMDPad,CuDef*%
%ADD16R,0.300000X1.200000*%
%TD*%
%TA.AperFunction,SMDPad,CuDef*%
%ADD17R,1.200000X0.300000*%
%TD*%
%TA.AperFunction,SMDPad,CuDef*%
%ADD18RoundRect,0.218750X-0.218750X-0.256250X0.218750X-0.256250X0.218750X0.256250X-0.218750X0.256250X0*%
%TD*%
%TA.AperFunction,ComponentPad*%
%ADD19R,1.700000X1.700000*%
%TD*%
%TA.AperFunction,ComponentPad*%
%ADD20O,1.700000X1.700000*%
%TD*%
%TA.AperFunction,ComponentPad*%
%ADD21C,1.000000*%
%TD*%
%TA.AperFunction,SMDPad,CuDef*%
%ADD22R,1.600000X1.400000*%
%TD*%
%TA.AperFunction,SMDPad,CuDef*%
%ADD23R,2.006600X1.498600*%
%TD*%
%TA.AperFunction,SMDPad,CuDef*%
%ADD24R,2.540000X3.810000*%
%TD*%
%TA.AperFunction,ComponentPad*%
%ADD25C,1.500000*%
%TD*%
%TA.AperFunction,SMDPad,CuDef*%
%ADD26RoundRect,0.225000X-0.250000X0.225000X-0.250000X-0.225000X0.250000X-0.225000X0.250000X0.225000X0*%
%TD*%
%TA.AperFunction,ComponentPad*%
%ADD27C,1.700000*%
%TD*%
%TA.AperFunction,ComponentPad*%
%ADD28C,3.500000*%
%TD*%
%TA.AperFunction,SMDPad,CuDef*%
%ADD29RoundRect,0.250000X0.625000X-0.312500X0.625000X0.312500X-0.625000X0.312500X-0.625000X-0.312500X0*%
%TD*%
%TA.AperFunction,ViaPad*%
%ADD30C,0.600000*%
%TD*%
%TA.AperFunction,Conductor*%
%ADD31C,0.200000*%
%TD*%
%TA.AperFunction,Conductor*%
%ADD32C,0.300000*%
%TD*%
%TA.AperFunction,Conductor*%
%ADD33C,0.500000*%
%TD*%
G04 APERTURE END LIST*
D10*
%TO.P,R4,1*%
%TO.N,+5V*%
X138045000Y-73025000D03*
%TO.P,R4,2*%
%TO.N,Net-(IC1-VBUS)*%
X140970000Y-73025000D03*
%TD*%
D11*
%TO.P,R3,1,1*%
%TO.N,Net-(D1-A)*%
X151957500Y-73660000D03*
%TO.P,R3,2,2*%
%TO.N,+3V3*%
X149032500Y-73660000D03*
%TD*%
D12*
%TO.P,C10,1*%
%TO.N,+5V*%
X141465000Y-75565000D03*
%TO.P,C10,2*%
%TO.N,GND*%
X143015000Y-75565000D03*
%TD*%
D13*
%TO.P,C5,1*%
%TO.N,/pin70*%
X140335000Y-83960000D03*
%TO.P,C5,2*%
%TO.N,GND*%
X140335000Y-82410000D03*
%TD*%
D14*
%TO.P,C3,1,1*%
%TO.N,+3V3*%
X140335000Y-102235000D03*
%TO.P,C3,2,2*%
%TO.N,GND*%
X138785000Y-102235000D03*
%TD*%
D15*
%TO.P,IC1,1,RE5*%
%TO.N,unconnected-(IC1-RE5-Pad1)*%
X132340000Y-87960000D03*
%TO.P,IC1,2,RE6*%
%TO.N,unconnected-(IC1-RE6-Pad2)*%
X132340000Y-88460000D03*
%TO.P,IC1,3,RE7*%
%TO.N,unconnected-(IC1-RE7-Pad3)*%
X132340000Y-88960000D03*
%TO.P,IC1,4,RC1*%
%TO.N,unconnected-(IC1-RC1-Pad4)*%
X132340000Y-89460000D03*
%TO.P,IC1,5,RC3*%
%TO.N,unconnected-(IC1-RC3-Pad5)*%
X132340000Y-89960000D03*
%TO.P,IC1,6,RG6*%
%TO.N,unconnected-(IC1-RG6-Pad6)*%
X132340000Y-90460000D03*
%TO.P,IC1,7,RG7*%
%TO.N,unconnected-(IC1-RG7-Pad7)*%
X132340000Y-90960000D03*
%TO.P,IC1,8,RG8*%
%TO.N,unconnected-(IC1-RG8-Pad8)*%
X132340000Y-91460000D03*
%TO.P,IC1,9,~{MCLR}*%
%TO.N,/~{MCLR}*%
X132340000Y-91960000D03*
%TO.P,IC1,10,RG9*%
%TO.N,unconnected-(IC1-RG9-Pad10)*%
X132340000Y-92460000D03*
%TO.P,IC1,11,VSS@1*%
%TO.N,GND*%
X132340000Y-92960000D03*
%TO.P,IC1,12,VDD@1*%
%TO.N,+3V3*%
X132340000Y-93460000D03*
%TO.P,IC1,13,TMS*%
%TO.N,unconnected-(IC1-TMS-Pad13)*%
X132340000Y-93960000D03*
%TO.P,IC1,14,TDO*%
%TO.N,unconnected-(IC1-TDO-Pad14)*%
X132340000Y-94460000D03*
%TO.P,IC1,15,RB5*%
%TO.N,unconnected-(IC1-RB5-Pad15)*%
X132340000Y-94960000D03*
%TO.P,IC1,16,RB4*%
%TO.N,unconnected-(IC1-RB4-Pad16)*%
X132340000Y-95460000D03*
%TO.P,IC1,17,RB3*%
%TO.N,unconnected-(IC1-RB3-Pad17)*%
X132340000Y-95960000D03*
%TO.P,IC1,18,RB2*%
%TO.N,unconnected-(IC1-RB2-Pad18)*%
X132340000Y-96460000D03*
%TO.P,IC1,19,RB1*%
%TO.N,unconnected-(IC1-RB1-Pad19)*%
X132340000Y-96960000D03*
%TO.P,IC1,20,RB0*%
%TO.N,/AN0*%
X132340000Y-97460000D03*
D16*
%TO.P,IC1,21,RB6*%
%TO.N,/PGC*%
X134315000Y-99435000D03*
%TO.P,IC1,22,RB7*%
%TO.N,/PGD*%
X134815000Y-99435000D03*
%TO.P,IC1,23,RA9*%
%TO.N,unconnected-(IC1-RA9-Pad23)*%
X135315000Y-99435000D03*
%TO.P,IC1,24,RA10*%
%TO.N,unconnected-(IC1-RA10-Pad24)*%
X135815000Y-99435000D03*
%TO.P,IC1,25,AVDD*%
%TO.N,+3V3*%
X136315000Y-99435000D03*
%TO.P,IC1,26,AVSS*%
%TO.N,GND*%
X136815000Y-99435000D03*
%TO.P,IC1,27,RB8*%
%TO.N,unconnected-(IC1-RB8-Pad27)*%
X137315000Y-99435000D03*
%TO.P,IC1,28,RB9*%
%TO.N,unconnected-(IC1-RB9-Pad28)*%
X137815000Y-99435000D03*
%TO.P,IC1,29,RB10*%
%TO.N,unconnected-(IC1-RB10-Pad29)*%
X138315000Y-99435000D03*
%TO.P,IC1,30,RB11*%
%TO.N,unconnected-(IC1-RB11-Pad30)*%
X138815000Y-99435000D03*
%TO.P,IC1,31,VSS@2*%
%TO.N,GND*%
X139315000Y-99435000D03*
%TO.P,IC1,32,VDD@2*%
%TO.N,+3V3*%
X139815000Y-99435000D03*
%TO.P,IC1,33,TCK*%
%TO.N,unconnected-(IC1-TCK-Pad33)*%
X140315000Y-99435000D03*
%TO.P,IC1,34,TDI*%
%TO.N,unconnected-(IC1-TDI-Pad34)*%
X140815000Y-99435000D03*
%TO.P,IC1,35,RB14*%
%TO.N,unconnected-(IC1-RB14-Pad35)*%
X141315000Y-99435000D03*
%TO.P,IC1,36,RB15*%
%TO.N,unconnected-(IC1-RB15-Pad36)*%
X141815000Y-99435000D03*
%TO.P,IC1,37,RD14*%
%TO.N,unconnected-(IC1-RD14-Pad37)*%
X142315000Y-99435000D03*
%TO.P,IC1,38,RD15*%
%TO.N,unconnected-(IC1-RD15-Pad38)*%
X142815000Y-99435000D03*
%TO.P,IC1,39,RF4*%
%TO.N,unconnected-(IC1-RF4-Pad39)*%
X143315000Y-99435000D03*
%TO.P,IC1,40,RF5*%
%TO.N,/BUZZ*%
X143815000Y-99435000D03*
D17*
%TO.P,IC1,41,RF3*%
%TO.N,unconnected-(IC1-RF3-Pad41)*%
X145790000Y-97460000D03*
%TO.P,IC1,42,RF2*%
%TO.N,unconnected-(IC1-RF2-Pad42)*%
X145790000Y-96960000D03*
%TO.P,IC1,43,RF8*%
%TO.N,unconnected-(IC1-RF8-Pad43)*%
X145790000Y-96460000D03*
%TO.P,IC1,44,VBUS*%
%TO.N,Net-(IC1-VBUS)*%
X145790000Y-95960000D03*
%TO.P,IC1,45,VUSB*%
%TO.N,+3V3*%
X145790000Y-95460000D03*
%TO.P,IC1,46,RG3*%
%TO.N,/D-*%
X145790000Y-94960000D03*
%TO.P,IC1,47,RG2*%
%TO.N,/D+*%
X145790000Y-94460000D03*
%TO.P,IC1,48,VDD@3*%
%TO.N,+3V3*%
X145790000Y-93960000D03*
%TO.P,IC1,49,RC12*%
%TO.N,/OSCI*%
X145790000Y-93460000D03*
%TO.P,IC1,50,RC15*%
%TO.N,/OSCO*%
X145790000Y-92960000D03*
%TO.P,IC1,51,VSS@3*%
%TO.N,GND*%
X145790000Y-92460000D03*
%TO.P,IC1,52,RA14*%
%TO.N,unconnected-(IC1-RA14-Pad52)*%
X145790000Y-91960000D03*
%TO.P,IC1,53,RA15*%
%TO.N,unconnected-(IC1-RA15-Pad53)*%
X145790000Y-91460000D03*
%TO.P,IC1,54,RD8*%
%TO.N,unconnected-(IC1-RD8-Pad54)*%
X145790000Y-90960000D03*
%TO.P,IC1,55,RD9*%
%TO.N,unconnected-(IC1-RD9-Pad55)*%
X145790000Y-90460000D03*
%TO.P,IC1,56,RD10*%
%TO.N,unconnected-(IC1-RD10-Pad56)*%
X145790000Y-89960000D03*
%TO.P,IC1,57,RD11*%
%TO.N,unconnected-(IC1-RD11-Pad57)*%
X145790000Y-89460000D03*
%TO.P,IC1,58,RD0*%
%TO.N,unconnected-(IC1-RD0-Pad58)*%
X145790000Y-88960000D03*
%TO.P,IC1,59,RC13*%
%TO.N,/SOSCI*%
X145790000Y-88460000D03*
%TO.P,IC1,60,RC14*%
%TO.N,/SOSCO*%
X145790000Y-87960000D03*
D16*
%TO.P,IC1,61,RD1*%
%TO.N,/RX*%
X143815000Y-85985000D03*
%TO.P,IC1,62,RD2*%
%TO.N,/TX*%
X143315000Y-85985000D03*
%TO.P,IC1,63,RD3*%
%TO.N,unconnected-(IC1-RD3-Pad63)*%
X142815000Y-85985000D03*
%TO.P,IC1,64,RD12*%
%TO.N,unconnected-(IC1-RD12-Pad64)*%
X142315000Y-85985000D03*
%TO.P,IC1,65,RD13*%
%TO.N,unconnected-(IC1-RD13-Pad65)*%
X141815000Y-85985000D03*
%TO.P,IC1,66,RD4*%
%TO.N,unconnected-(IC1-RD4-Pad66)*%
X141315000Y-85985000D03*
%TO.P,IC1,67,RD5*%
%TO.N,unconnected-(IC1-RD5-Pad67)*%
X140815000Y-85985000D03*
%TO.P,IC1,68,RD6*%
%TO.N,unconnected-(IC1-RD6-Pad68)*%
X140315000Y-85985000D03*
%TO.P,IC1,69,RD7*%
%TO.N,unconnected-(IC1-RD7-Pad69)*%
X139815000Y-85985000D03*
%TO.P,IC1,70,VDDCORE*%
%TO.N,/pin70*%
X139315000Y-85985000D03*
%TO.P,IC1,71,ENVREG*%
%TO.N,+3V3*%
X138815000Y-85985000D03*
%TO.P,IC1,72,RF0*%
%TO.N,unconnected-(IC1-RF0-Pad72)*%
X138315000Y-85985000D03*
%TO.P,IC1,73,RF1*%
%TO.N,unconnected-(IC1-RF1-Pad73)*%
X137815000Y-85985000D03*
%TO.P,IC1,74,RG1*%
%TO.N,unconnected-(IC1-RG1-Pad74)*%
X137315000Y-85985000D03*
%TO.P,IC1,75,RG0*%
%TO.N,unconnected-(IC1-RG0-Pad75)*%
X136815000Y-85985000D03*
%TO.P,IC1,76,RE0*%
%TO.N,unconnected-(IC1-RE0-Pad76)*%
X136315000Y-85985000D03*
%TO.P,IC1,77,RE1*%
%TO.N,unconnected-(IC1-RE1-Pad77)*%
X135815000Y-85985000D03*
%TO.P,IC1,78,RE2*%
%TO.N,unconnected-(IC1-RE2-Pad78)*%
X135315000Y-85985000D03*
%TO.P,IC1,79,RE3*%
%TO.N,unconnected-(IC1-RE3-Pad79)*%
X134815000Y-85985000D03*
%TO.P,IC1,80,RE4*%
%TO.N,unconnected-(IC1-RE4-Pad80)*%
X134315000Y-85985000D03*
%TD*%
D13*
%TO.P,C1,1,1*%
%TO.N,+3V3*%
X128765000Y-94895000D03*
%TO.P,C1,2,2*%
%TO.N,GND*%
X128765000Y-93345000D03*
%TD*%
D18*
%TO.P,D1,1,K*%
%TO.N,GND*%
X149555000Y-76835000D03*
%TO.P,D1,2,A*%
%TO.N,Net-(D1-A)*%
X151130000Y-76835000D03*
%TD*%
D19*
%TO.P,CON1,1,VPP*%
%TO.N,/~{MCLR}*%
X112395000Y-99695000D03*
D20*
%TO.P,CON1,2,VDD*%
%TO.N,+3V3*%
X112395000Y-102235000D03*
%TO.P,CON1,3,GND*%
%TO.N,GND*%
X112395000Y-104775000D03*
%TO.P,CON1,4,PGD*%
%TO.N,/PGD*%
X112395000Y-107315000D03*
%TO.P,CON1,5,PGC*%
%TO.N,/PGC*%
X112395000Y-109855000D03*
%TD*%
D21*
%TO.P,Q2,1,1*%
%TO.N,/SOSCI*%
X151715000Y-85405000D03*
%TO.P,Q2,2,2*%
%TO.N,/SOSCO*%
X151715000Y-83505000D03*
%TD*%
D13*
%TO.P,C4,1,1*%
%TO.N,+3V3*%
X149860000Y-92850000D03*
%TO.P,C4,2,2*%
%TO.N,GND*%
X149860000Y-91300000D03*
%TD*%
D22*
%TO.P,RESET0,1,A*%
%TO.N,GND*%
X131635000Y-109565000D03*
X123635000Y-109565000D03*
%TO.P,RESET0,2,B*%
%TO.N,/~{MCLR}*%
X131635000Y-105065000D03*
X123635000Y-105065000D03*
%TD*%
D19*
%TO.P,J3,1,Pin_1*%
%TO.N,/ANT_1*%
X146050000Y-109220000D03*
D20*
%TO.P,J3,2,Pin_2*%
%TO.N,/ANT_2*%
X146050000Y-106680000D03*
%TD*%
D12*
%TO.P,C2,1,1*%
%TO.N,+3V3*%
X135750000Y-102235000D03*
%TO.P,C2,2,2*%
%TO.N,GND*%
X137300000Y-102235000D03*
%TD*%
D23*
%TO.P,U1,1,GND*%
%TO.N,GND*%
X138404600Y-80365600D03*
%TO.P,U1,2,VO*%
%TO.N,+3V3*%
X138404600Y-78079600D03*
%TO.P,U1,3,VI*%
%TO.N,+5V*%
X138404600Y-75793600D03*
D24*
%TO.P,U1,4*%
%TO.N,N/C*%
X132105400Y-78105000D03*
%TD*%
D12*
%TO.P,C8,1,1*%
%TO.N,/SOSCI*%
X152895000Y-87630000D03*
%TO.P,C8,2,2*%
%TO.N,GND*%
X154445000Y-87630000D03*
%TD*%
D14*
%TO.P,C6,1,1*%
%TO.N,/OSCI*%
X150635000Y-99060000D03*
%TO.P,C6,2,2*%
%TO.N,GND*%
X149085000Y-99060000D03*
%TD*%
D25*
%TO.P,Q1,1,1*%
%TO.N,/OSCI*%
X154305000Y-97700000D03*
%TO.P,Q1,2,2*%
%TO.N,/OSCO*%
X154305000Y-92820000D03*
%TD*%
D26*
%TO.P,C11,1*%
%TO.N,+3V3*%
X141605000Y-78600000D03*
%TO.P,C11,2*%
%TO.N,GND*%
X141605000Y-80150000D03*
%TD*%
D19*
%TO.P,J6,1,Pin_1*%
%TO.N,Net-(J6-Pin_1)*%
X121285000Y-95250000D03*
D20*
%TO.P,J6,2,Pin_2*%
%TO.N,unconnected-(J6-Pin_2-Pad2)*%
X121285000Y-92710000D03*
%TO.P,J6,3,Pin_3*%
%TO.N,GND*%
X121285000Y-90170000D03*
%TD*%
D19*
%TO.P,J4,1,Pin_1*%
%TO.N,/RX*%
X128270000Y-74295000D03*
D20*
%TO.P,J4,2,Pin_2*%
%TO.N,/TX*%
X128270000Y-76835000D03*
%TO.P,J4,3,Pin_3*%
%TO.N,unconnected-(J4-Pin_3-Pad3)*%
X128270000Y-79375000D03*
%TO.P,J4,4,Pin_4*%
%TO.N,unconnected-(J4-Pin_4-Pad4)*%
X128270000Y-81915000D03*
%TO.P,J4,5,Pin_5*%
%TO.N,unconnected-(J4-Pin_5-Pad5)*%
X128270000Y-84455000D03*
%TD*%
D13*
%TO.P,C7,1,1*%
%TO.N,/OSCO*%
X156845000Y-88405000D03*
%TO.P,C7,2,2*%
%TO.N,GND*%
X156845000Y-86855000D03*
%TD*%
D19*
%TO.P,J2,1,VBUS*%
%TO.N,+5V*%
X123417500Y-79990000D03*
D27*
%TO.P,J2,2,D-*%
%TO.N,/D-*%
X123417500Y-77490000D03*
%TO.P,J2,3,D+*%
%TO.N,/D+*%
X121417500Y-77490000D03*
%TO.P,J2,4,GND*%
%TO.N,GND*%
X121417500Y-79990000D03*
D28*
%TO.P,J2,5,Shield*%
X118707500Y-84760000D03*
X118707500Y-72720000D03*
%TD*%
D12*
%TO.P,C9,1,1*%
%TO.N,/SOSCO*%
X152895000Y-81280000D03*
%TO.P,C9,2,2*%
%TO.N,GND*%
X154445000Y-81280000D03*
%TD*%
D29*
%TO.P,R1,1,1*%
%TO.N,/~{MCLR}*%
X128270000Y-91632500D03*
%TO.P,R1,2,2*%
%TO.N,+3V3*%
X128270000Y-88707500D03*
%TD*%
D19*
%TO.P,J5,1,Pin_1*%
%TO.N,/ANT_1*%
X157480000Y-109220000D03*
D20*
%TO.P,J5,2,Pin_2*%
%TO.N,/ANT_2*%
X157480000Y-106680000D03*
%TD*%
D19*
%TO.P,J1,1,Pin_1*%
%TO.N,unconnected-(J1-Pin_1-Pad1)*%
X146050000Y-74295000D03*
D20*
%TO.P,J1,2,Pin_2*%
%TO.N,+3V3*%
X146050000Y-76835000D03*
%TO.P,J1,3,Pin_3*%
%TO.N,GND*%
X146050000Y-79375000D03*
%TD*%
D29*
%TO.P,R2,1,1*%
%TO.N,/BUZZ*%
X125095000Y-99252500D03*
%TO.P,R2,2,2*%
%TO.N,Net-(J6-Pin_1)*%
X125095000Y-96327500D03*
%TD*%
D30*
%TO.N,Net-(IC1-VBUS)*%
X142875000Y-73025000D03*
X147773664Y-96505901D03*
%TO.N,+3V3*%
X148135500Y-99060000D03*
X125125000Y-94010000D03*
X113665000Y-102235000D03*
X151130000Y-93775500D03*
X150495000Y-97332819D03*
X144145000Y-81915000D03*
%TO.N,GND*%
X130038984Y-93843984D03*
X138430000Y-100965000D03*
X142875000Y-80010000D03*
%TO.N,/PGC*%
X132715000Y-102235000D03*
%TO.N,/PGD*%
X134620000Y-101600000D03*
%TO.N,/~{MCLR}*%
X127000000Y-103505000D03*
X127000000Y-92075000D03*
%TO.N,/RX*%
X143510000Y-83185000D03*
%TO.N,/TX*%
X142723489Y-83328545D03*
%TO.N,/D-*%
X149678502Y-97608502D03*
%TO.N,/D+*%
X149845500Y-96520000D03*
%TD*%
D31*
%TO.N,GND*%
X145790000Y-92460000D02*
X148700000Y-92460000D01*
X148700000Y-92460000D02*
X149860000Y-91300000D01*
D32*
%TO.N,Net-(IC1-VBUS)*%
X142875000Y-73025000D02*
X140970000Y-73025000D01*
X147227763Y-95960000D02*
X147773664Y-96505901D01*
X145790000Y-95960000D02*
X147227763Y-95960000D01*
%TO.N,+3V3*%
X148135500Y-98244500D02*
X148135500Y-99060000D01*
X148590000Y-97790000D02*
X148135500Y-98244500D01*
X148525508Y-96339213D02*
X148525508Y-97725508D01*
X148525508Y-97725508D02*
X148590000Y-97790000D01*
X145790000Y-95460000D02*
X147646295Y-95460000D01*
X147646295Y-95460000D02*
X148525508Y-96339213D01*
%TO.N,/D-*%
X149678502Y-97608502D02*
X149025508Y-96955508D01*
X149025508Y-96132107D02*
X147853402Y-94960000D01*
X149025508Y-96955508D02*
X149025508Y-96132107D01*
X147853402Y-94960000D02*
X145790000Y-94960000D01*
%TO.N,/D+*%
X149525508Y-96200008D02*
X149845500Y-96520000D01*
X149525508Y-95925000D02*
X149525508Y-96200008D01*
X148060509Y-94460000D02*
X145790000Y-94460000D01*
X149525508Y-95925000D02*
X148060509Y-94460000D01*
%TO.N,+3V3*%
X149962894Y-95425000D02*
X149732615Y-95425000D01*
X149732615Y-95425000D02*
X148267615Y-93960000D01*
X148267615Y-93960000D02*
X145790000Y-93960000D01*
X150495000Y-95957106D02*
X149962894Y-95425000D01*
X150495000Y-97332819D02*
X150495000Y-95957106D01*
%TO.N,/OSCI*%
X150170000Y-94925000D02*
X149939721Y-94925000D01*
X148474721Y-93460000D02*
X145790000Y-93460000D01*
X151602894Y-96357894D02*
X150170000Y-94925000D01*
X151602894Y-97700000D02*
X151602894Y-96357894D01*
X149939721Y-94925000D02*
X148474721Y-93460000D01*
%TO.N,/OSCO*%
X150146827Y-94425000D02*
X148681827Y-92960000D01*
X148681827Y-92960000D02*
X145790000Y-92960000D01*
X152700000Y-94425000D02*
X150146827Y-94425000D01*
X154305000Y-92820000D02*
X152700000Y-94425000D01*
D31*
%TO.N,+5V*%
X135636000Y-73025000D02*
X134810500Y-72199500D01*
D33*
X138045000Y-73025000D02*
X135636000Y-73025000D01*
X134810500Y-72199500D02*
X138404600Y-75793600D01*
X134366000Y-71755000D02*
X134810500Y-72199500D01*
%TO.N,+3V3*%
X144145000Y-79375000D02*
X144145000Y-81915000D01*
X144285000Y-78600000D02*
X142875000Y-78600000D01*
X126250000Y-93230000D02*
X126250000Y-90727500D01*
X138150600Y-78079600D02*
X135737600Y-80492600D01*
X126250000Y-92885000D02*
X126250000Y-93230000D01*
X146050000Y-76835000D02*
X144285000Y-78600000D01*
X126420000Y-97845000D02*
X126420000Y-93400000D01*
D32*
X135750000Y-101105000D02*
X136315000Y-100540000D01*
D33*
X138404600Y-78079600D02*
X141084600Y-78079600D01*
X135737600Y-80492600D02*
X128270000Y-87960200D01*
D32*
X139815000Y-99435000D02*
X139815000Y-100445000D01*
D33*
X126250000Y-90727500D02*
X128270000Y-88707500D01*
D32*
X136315000Y-100540000D02*
X136315000Y-99435000D01*
X135737600Y-81957600D02*
X135737600Y-80492600D01*
D33*
X138404600Y-78079600D02*
X138150600Y-78079600D01*
D32*
X139815000Y-100445000D02*
X140335000Y-100965000D01*
X139155000Y-103415000D02*
X139065000Y-103415000D01*
D33*
X141084600Y-78079600D02*
X141605000Y-78600000D01*
D32*
X138815000Y-85035000D02*
X135737600Y-81957600D01*
D33*
X126420000Y-93400000D02*
X126250000Y-93230000D01*
X128270000Y-87960200D02*
X128270000Y-88707500D01*
D32*
X135750000Y-102920000D02*
X135255000Y-103415000D01*
X131341500Y-93460000D02*
X132340000Y-93460000D01*
X140335000Y-102235000D02*
X139155000Y-103415000D01*
X135750000Y-102235000D02*
X135750000Y-101105000D01*
X140335000Y-100965000D02*
X140335000Y-102265000D01*
D33*
X142875000Y-78600000D02*
X143370000Y-78600000D01*
X143370000Y-78600000D02*
X144145000Y-79375000D01*
X135255000Y-103415000D02*
X131990000Y-103415000D01*
D32*
X138815000Y-85985000D02*
X138815000Y-85035000D01*
D33*
X139065000Y-103415000D02*
X135255000Y-103415000D01*
X149032500Y-73852500D02*
X146050000Y-76835000D01*
D32*
X135750000Y-102235000D02*
X135750000Y-102920000D01*
X129906500Y-94895000D02*
X131341500Y-93460000D01*
D33*
X131990000Y-103415000D02*
X126420000Y-97845000D01*
X125125000Y-94010000D02*
X126250000Y-92885000D01*
D32*
X128765000Y-94895000D02*
X129906500Y-94895000D01*
X128765000Y-94895000D02*
X127220000Y-94895000D01*
D33*
X142875000Y-78600000D02*
X141605000Y-78600000D01*
X149032500Y-73660000D02*
X149032500Y-73852500D01*
D32*
%TO.N,GND*%
X138505000Y-100965000D02*
X138430000Y-100965000D01*
X130560000Y-92960000D02*
X130175000Y-93345000D01*
X130175000Y-93707968D02*
X130038984Y-93843984D01*
X136815000Y-100620000D02*
X137300000Y-101105000D01*
X139315000Y-100715000D02*
X139315000Y-99435000D01*
X138785000Y-101245000D02*
X138505000Y-100965000D01*
X137300000Y-101105000D02*
X137300000Y-102235000D01*
X130175000Y-93345000D02*
X128765000Y-93345000D01*
D31*
X145840000Y-92410000D02*
X145790000Y-92460000D01*
D32*
X138785000Y-101245000D02*
X139315000Y-100715000D01*
X132340000Y-92960000D02*
X130560000Y-92960000D01*
X138785000Y-102265000D02*
X138785000Y-101245000D01*
X130175000Y-93345000D02*
X130175000Y-93707968D01*
X136815000Y-99435000D02*
X136815000Y-100620000D01*
%TO.N,/OSCI*%
X151602894Y-97700000D02*
X150635000Y-98667894D01*
X154305000Y-97700000D02*
X151602894Y-97700000D01*
X150635000Y-98667894D02*
X150635000Y-99060000D01*
D31*
%TO.N,/OSCO*%
X156845000Y-90280000D02*
X156845000Y-88405000D01*
X154305000Y-92820000D02*
X156845000Y-90280000D01*
X154305000Y-92820000D02*
X154300000Y-92825000D01*
D32*
%TO.N,/SOSCI*%
X152895000Y-87630000D02*
X152895000Y-86585000D01*
X152895000Y-86585000D02*
X151715000Y-85405000D01*
X151715000Y-85405000D02*
X148660000Y-88460000D01*
X145790000Y-88460000D02*
X148660000Y-88460000D01*
D31*
%TO.N,/SOSCO*%
X151715000Y-82460000D02*
X152895000Y-81280000D01*
D32*
X147260000Y-87960000D02*
X151715000Y-83505000D01*
D31*
X152080000Y-83505000D02*
X151715000Y-83505000D01*
D32*
X145790000Y-87960000D02*
X147260000Y-87960000D01*
D31*
X151715000Y-83505000D02*
X151715000Y-82460000D01*
D32*
%TO.N,/PGC*%
X134315000Y-100635000D02*
X134315000Y-99435000D01*
X132715000Y-102235000D02*
X134315000Y-100635000D01*
%TO.N,/PGD*%
X134815000Y-101405000D02*
X134815000Y-99435000D01*
X134620000Y-101600000D02*
X134815000Y-101405000D01*
%TO.N,/~{MCLR}*%
X125095000Y-103505000D02*
X123635000Y-104965000D01*
X123635000Y-104965000D02*
X123635000Y-105065000D01*
X127085000Y-103590000D02*
X128355000Y-103590000D01*
X129830000Y-105065000D02*
X131635000Y-105065000D01*
X121285000Y-99695000D02*
X112395000Y-99695000D01*
X121285000Y-99695000D02*
X125095000Y-103505000D01*
X128597500Y-91960000D02*
X132340000Y-91960000D01*
X128270000Y-91632500D02*
X128597500Y-91960000D01*
X127442500Y-91632500D02*
X127000000Y-92075000D01*
X127000000Y-103505000D02*
X127085000Y-103590000D01*
X128355000Y-103590000D02*
X129830000Y-105065000D01*
X127000000Y-103505000D02*
X125095000Y-103505000D01*
X128270000Y-91632500D02*
X127442500Y-91632500D01*
D33*
%TO.N,+5V*%
X141236400Y-75793600D02*
X141465000Y-75565000D01*
X138404600Y-75793600D02*
X141236400Y-75793600D01*
X127635000Y-71755000D02*
X134366000Y-71755000D01*
X125730000Y-77677500D02*
X125730000Y-73660000D01*
X125730000Y-73660000D02*
X127635000Y-71755000D01*
X123417500Y-79990000D02*
X125730000Y-77677500D01*
D32*
%TO.N,/RX*%
X143815000Y-85985000D02*
X143815000Y-83490000D01*
X143815000Y-83490000D02*
X143510000Y-83185000D01*
%TO.N,/TX*%
X143315000Y-83920056D02*
X142723489Y-83328545D01*
X143315000Y-85985000D02*
X143315000Y-83920056D01*
%TO.N,/ANT_1*%
X157480000Y-109220000D02*
X146050000Y-109220000D01*
%TO.N,/ANT_2*%
X157480000Y-106680000D02*
X146050000Y-106680000D01*
%TO.N,/BUZZ*%
X126557500Y-99252500D02*
X131320000Y-104015000D01*
X143815000Y-101295000D02*
X143815000Y-99435000D01*
X131320000Y-104015000D02*
X132785000Y-104015000D01*
X132785000Y-104015000D02*
X133545000Y-104775000D01*
X140335000Y-104775000D02*
X143815000Y-101295000D01*
X125095000Y-99252500D02*
X126557500Y-99252500D01*
X133545000Y-104775000D02*
X140335000Y-104775000D01*
%TO.N,Net-(J6-Pin_1)*%
X124017500Y-95250000D02*
X121285000Y-95250000D01*
X125095000Y-96327500D02*
X124017500Y-95250000D01*
%TO.N,/pin70*%
X140335000Y-83960000D02*
X139315000Y-84980000D01*
X139315000Y-84980000D02*
X139315000Y-85985000D01*
%TO.N,Net-(D1-A)*%
X151957500Y-76007500D02*
X151130000Y-76835000D01*
X151957500Y-73660000D02*
X151957500Y-76007500D01*
%TD*%
%TA.AperFunction,Conductor*%
%TO.N,GND*%
G36*
X117687689Y-70504685D02*
G01*
X117733444Y-70557489D01*
X117743388Y-70626647D01*
X117714363Y-70690203D01*
X117675494Y-70720212D01*
X117580093Y-70767258D01*
X117580080Y-70767265D01*
X117334850Y-70931123D01*
X117301458Y-70960406D01*
X117976418Y-71635365D01*
X118009903Y-71696688D01*
X118004919Y-71766379D01*
X117963466Y-71821999D01*
X117919278Y-71855368D01*
X117801726Y-71984318D01*
X117742015Y-72020600D01*
X117672167Y-72018839D01*
X117622408Y-71988461D01*
X116947906Y-71313958D01*
X116918623Y-71347350D01*
X116754765Y-71592580D01*
X116754758Y-71592593D01*
X116624312Y-71857111D01*
X116529505Y-72136400D01*
X116529501Y-72136415D01*
X116471964Y-72425675D01*
X116471962Y-72425687D01*
X116452672Y-72720000D01*
X116471962Y-73014312D01*
X116471964Y-73014324D01*
X116529501Y-73303584D01*
X116529505Y-73303599D01*
X116624312Y-73582888D01*
X116754758Y-73847406D01*
X116754765Y-73847419D01*
X116918622Y-74092648D01*
X116947906Y-74126039D01*
X117622408Y-73451537D01*
X117683731Y-73418052D01*
X117753422Y-73423036D01*
X117801722Y-73455676D01*
X117919282Y-73584634D01*
X117963464Y-73617998D01*
X118005099Y-73674106D01*
X118009792Y-73743817D01*
X117976418Y-73804633D01*
X117301459Y-74479592D01*
X117301459Y-74479593D01*
X117334844Y-74508872D01*
X117334848Y-74508875D01*
X117580080Y-74672734D01*
X117580093Y-74672741D01*
X117844611Y-74803187D01*
X118123900Y-74897994D01*
X118123915Y-74897998D01*
X118413175Y-74955535D01*
X118413187Y-74955537D01*
X118707499Y-74974827D01*
X119001812Y-74955537D01*
X119001824Y-74955535D01*
X119291084Y-74897998D01*
X119291099Y-74897994D01*
X119570388Y-74803187D01*
X119834906Y-74672741D01*
X119834919Y-74672734D01*
X120080150Y-74508877D01*
X120113539Y-74479593D01*
X120113540Y-74479592D01*
X119438581Y-73804633D01*
X119405096Y-73743310D01*
X119410080Y-73673618D01*
X119451533Y-73618000D01*
X119495718Y-73584634D01*
X119613276Y-73455678D01*
X119672983Y-73419400D01*
X119742831Y-73421160D01*
X119792591Y-73451538D01*
X120467092Y-74126040D01*
X120467093Y-74126039D01*
X120496377Y-74092650D01*
X120660234Y-73847419D01*
X120660241Y-73847406D01*
X120790687Y-73582888D01*
X120885494Y-73303599D01*
X120885498Y-73303584D01*
X120943035Y-73014324D01*
X120943037Y-73014312D01*
X120962327Y-72720000D01*
X120943037Y-72425687D01*
X120943035Y-72425675D01*
X120885498Y-72136415D01*
X120885494Y-72136400D01*
X120790687Y-71857111D01*
X120660241Y-71592593D01*
X120660234Y-71592580D01*
X120496375Y-71347348D01*
X120496372Y-71347344D01*
X120467093Y-71313959D01*
X120467092Y-71313959D01*
X119792590Y-71988461D01*
X119731267Y-72021946D01*
X119661575Y-72016962D01*
X119613276Y-71984321D01*
X119495718Y-71855366D01*
X119451533Y-71821999D01*
X119409898Y-71765890D01*
X119405207Y-71696178D01*
X119438580Y-71635365D01*
X120113539Y-70960406D01*
X120080148Y-70931122D01*
X119834919Y-70767265D01*
X119834906Y-70767258D01*
X119739506Y-70720212D01*
X119688087Y-70672907D01*
X119670405Y-70605312D01*
X119692075Y-70538887D01*
X119746216Y-70494723D01*
X119794350Y-70485000D01*
X159261000Y-70485000D01*
X159328039Y-70504685D01*
X159373794Y-70557489D01*
X159385000Y-70609000D01*
X159385000Y-111001000D01*
X159365315Y-111068039D01*
X159312511Y-111113794D01*
X159261000Y-111125000D01*
X113329056Y-111125000D01*
X113262017Y-111105315D01*
X113216262Y-111052511D01*
X113206318Y-110983353D01*
X113235343Y-110919797D01*
X113257931Y-110899426D01*
X113259429Y-110898376D01*
X113266401Y-110893495D01*
X113433495Y-110726401D01*
X113569035Y-110532830D01*
X113668903Y-110318663D01*
X113730063Y-110090408D01*
X113750659Y-109855000D01*
X113747159Y-109815000D01*
X122335000Y-109815000D01*
X122335000Y-110312844D01*
X122341401Y-110372372D01*
X122341403Y-110372379D01*
X122391645Y-110507086D01*
X122391649Y-110507093D01*
X122477809Y-110622187D01*
X122477812Y-110622190D01*
X122592906Y-110708350D01*
X122592913Y-110708354D01*
X122727620Y-110758596D01*
X122727627Y-110758598D01*
X122787155Y-110764999D01*
X122787172Y-110765000D01*
X123384999Y-110765000D01*
X123385000Y-109815000D01*
X123885000Y-109815000D01*
X123885000Y-110765000D01*
X124482828Y-110765000D01*
X124482844Y-110764999D01*
X124542372Y-110758598D01*
X124542379Y-110758596D01*
X124677086Y-110708354D01*
X124677093Y-110708350D01*
X124792187Y-110622190D01*
X124792190Y-110622187D01*
X124878350Y-110507093D01*
X124878354Y-110507086D01*
X124928596Y-110372379D01*
X124928598Y-110372372D01*
X124934999Y-110312844D01*
X124935000Y-110312827D01*
X124935000Y-109815000D01*
X130335000Y-109815000D01*
X130335000Y-110312844D01*
X130341401Y-110372372D01*
X130341403Y-110372379D01*
X130391645Y-110507086D01*
X130391649Y-110507093D01*
X130477809Y-110622187D01*
X130477812Y-110622190D01*
X130592906Y-110708350D01*
X130592913Y-110708354D01*
X130727620Y-110758596D01*
X130727627Y-110758598D01*
X130787155Y-110764999D01*
X130787172Y-110765000D01*
X131384999Y-110765000D01*
X131385000Y-109815000D01*
X131885000Y-109815000D01*
X131885000Y-110765000D01*
X132482828Y-110765000D01*
X132482844Y-110764999D01*
X132542372Y-110758598D01*
X132542379Y-110758596D01*
X132677086Y-110708354D01*
X132677093Y-110708350D01*
X132792187Y-110622190D01*
X132792190Y-110622187D01*
X132878350Y-110507093D01*
X132878354Y-110507086D01*
X132928596Y-110372379D01*
X132928598Y-110372372D01*
X132934999Y-110312844D01*
X132935000Y-110312827D01*
X132935000Y-109815000D01*
X131885000Y-109815000D01*
X131385000Y-109815000D01*
X130335000Y-109815000D01*
X124935000Y-109815000D01*
X123885000Y-109815000D01*
X123385000Y-109815000D01*
X122335000Y-109815000D01*
X113747159Y-109815000D01*
X113730063Y-109619592D01*
X113668903Y-109391337D01*
X113633306Y-109315000D01*
X122335000Y-109315000D01*
X123384999Y-109315000D01*
X123385000Y-108365000D01*
X123885000Y-108365000D01*
X123885000Y-109315000D01*
X124935000Y-109315000D01*
X130335000Y-109315000D01*
X131384999Y-109315000D01*
X131385000Y-108365000D01*
X131885000Y-108365000D01*
X131885000Y-109315000D01*
X132935000Y-109315000D01*
X132935000Y-108817172D01*
X132934999Y-108817155D01*
X132928598Y-108757627D01*
X132928596Y-108757620D01*
X132878354Y-108622913D01*
X132878350Y-108622906D01*
X132792190Y-108507812D01*
X132792187Y-108507809D01*
X132677093Y-108421649D01*
X132677086Y-108421645D01*
X132542379Y-108371403D01*
X132542372Y-108371401D01*
X132482844Y-108365000D01*
X131885000Y-108365000D01*
X131385000Y-108365000D01*
X130787155Y-108365000D01*
X130727627Y-108371401D01*
X130727620Y-108371403D01*
X130592913Y-108421645D01*
X130592906Y-108421649D01*
X130477812Y-108507809D01*
X130477809Y-108507812D01*
X130391649Y-108622906D01*
X130391645Y-108622913D01*
X130341403Y-108757620D01*
X130341401Y-108757627D01*
X130335000Y-108817155D01*
X130335000Y-109315000D01*
X124935000Y-109315000D01*
X124935000Y-108817172D01*
X124934999Y-108817155D01*
X124928598Y-108757627D01*
X124928596Y-108757620D01*
X124878354Y-108622913D01*
X124878350Y-108622906D01*
X124792190Y-108507812D01*
X124792187Y-108507809D01*
X124677093Y-108421649D01*
X124677086Y-108421645D01*
X124542379Y-108371403D01*
X124542372Y-108371401D01*
X124482844Y-108365000D01*
X123885000Y-108365000D01*
X123385000Y-108365000D01*
X122787155Y-108365000D01*
X122727627Y-108371401D01*
X122727620Y-108371403D01*
X122592913Y-108421645D01*
X122592906Y-108421649D01*
X122477812Y-108507809D01*
X122477809Y-108507812D01*
X122391649Y-108622906D01*
X122391645Y-108622913D01*
X122341403Y-108757620D01*
X122341401Y-108757627D01*
X122335000Y-108817155D01*
X122335000Y-109315000D01*
X113633306Y-109315000D01*
X113569035Y-109177171D01*
X113433495Y-108983599D01*
X113433494Y-108983597D01*
X113266402Y-108816506D01*
X113266396Y-108816501D01*
X113080842Y-108686575D01*
X113037217Y-108631998D01*
X113030023Y-108562500D01*
X113061546Y-108500145D01*
X113080842Y-108483425D01*
X113169073Y-108421645D01*
X113266401Y-108353495D01*
X113433495Y-108186401D01*
X113569035Y-107992830D01*
X113668903Y-107778663D01*
X113730063Y-107550408D01*
X113750659Y-107315000D01*
X113730063Y-107079592D01*
X113668903Y-106851337D01*
X113589007Y-106680000D01*
X144694341Y-106680000D01*
X144714936Y-106915403D01*
X144714938Y-106915413D01*
X144776094Y-107143655D01*
X144776096Y-107143659D01*
X144776097Y-107143663D01*
X144855993Y-107314999D01*
X144875965Y-107357830D01*
X144875967Y-107357834D01*
X144893853Y-107383377D01*
X145011501Y-107551396D01*
X145011506Y-107551402D01*
X145133430Y-107673326D01*
X145166915Y-107734649D01*
X145161931Y-107804341D01*
X145120059Y-107860274D01*
X145089083Y-107877189D01*
X144957669Y-107926203D01*
X144957664Y-107926206D01*
X144842455Y-108012452D01*
X144842452Y-108012455D01*
X144756206Y-108127664D01*
X144756202Y-108127671D01*
X144705908Y-108262517D01*
X144699501Y-108322116D01*
X144699501Y-108322123D01*
X144699500Y-108322135D01*
X144699500Y-110117870D01*
X144699501Y-110117876D01*
X144705908Y-110177483D01*
X144756202Y-110312328D01*
X144756206Y-110312335D01*
X144842452Y-110427544D01*
X144842455Y-110427547D01*
X144957664Y-110513793D01*
X144957671Y-110513797D01*
X145092517Y-110564091D01*
X145092516Y-110564091D01*
X145099444Y-110564835D01*
X145152127Y-110570500D01*
X146947872Y-110570499D01*
X147007483Y-110564091D01*
X147142331Y-110513796D01*
X147257546Y-110427546D01*
X147343796Y-110312331D01*
X147394091Y-110177483D01*
X147400500Y-110117873D01*
X147400500Y-109994500D01*
X147420185Y-109927461D01*
X147472989Y-109881706D01*
X147524500Y-109870500D01*
X156005501Y-109870500D01*
X156072540Y-109890185D01*
X156118295Y-109942989D01*
X156129501Y-109994500D01*
X156129501Y-110117876D01*
X156135908Y-110177483D01*
X156186202Y-110312328D01*
X156186206Y-110312335D01*
X156272452Y-110427544D01*
X156272455Y-110427547D01*
X156387664Y-110513793D01*
X156387671Y-110513797D01*
X156522517Y-110564091D01*
X156522516Y-110564091D01*
X156529444Y-110564835D01*
X156582127Y-110570500D01*
X158377872Y-110570499D01*
X158437483Y-110564091D01*
X158572331Y-110513796D01*
X158687546Y-110427546D01*
X158773796Y-110312331D01*
X158824091Y-110177483D01*
X158830500Y-110117873D01*
X158830499Y-108322128D01*
X158824091Y-108262517D01*
X158795699Y-108186395D01*
X158773797Y-108127671D01*
X158773793Y-108127664D01*
X158687547Y-108012455D01*
X158687544Y-108012452D01*
X158572335Y-107926206D01*
X158572328Y-107926202D01*
X158440917Y-107877189D01*
X158384983Y-107835318D01*
X158360566Y-107769853D01*
X158375418Y-107701580D01*
X158396563Y-107673332D01*
X158518495Y-107551401D01*
X158654035Y-107357830D01*
X158753903Y-107143663D01*
X158815063Y-106915408D01*
X158835659Y-106680000D01*
X158815063Y-106444592D01*
X158767076Y-106265499D01*
X158753905Y-106216344D01*
X158753904Y-106216343D01*
X158753903Y-106216337D01*
X158654035Y-106002171D01*
X158636147Y-105976623D01*
X158518494Y-105808597D01*
X158351402Y-105641506D01*
X158351395Y-105641501D01*
X158157834Y-105505967D01*
X158157830Y-105505965D01*
X158095556Y-105476926D01*
X157943663Y-105406097D01*
X157943659Y-105406096D01*
X157943655Y-105406094D01*
X157715413Y-105344938D01*
X157715403Y-105344936D01*
X157480001Y-105324341D01*
X157479999Y-105324341D01*
X157244596Y-105344936D01*
X157244586Y-105344938D01*
X157016344Y-105406094D01*
X157016335Y-105406098D01*
X156802171Y-105505964D01*
X156802169Y-105505965D01*
X156608597Y-105641505D01*
X156441506Y-105808596D01*
X156323854Y-105976623D01*
X156269277Y-106020248D01*
X156222279Y-106029500D01*
X147307721Y-106029500D01*
X147240682Y-106009815D01*
X147206146Y-105976623D01*
X147182686Y-105943119D01*
X147100853Y-105826248D01*
X147088494Y-105808597D01*
X146921402Y-105641506D01*
X146921395Y-105641501D01*
X146727834Y-105505967D01*
X146727830Y-105505965D01*
X146665556Y-105476926D01*
X146513663Y-105406097D01*
X146513659Y-105406096D01*
X146513655Y-105406094D01*
X146285413Y-105344938D01*
X146285403Y-105344936D01*
X146050001Y-105324341D01*
X146049999Y-105324341D01*
X145814596Y-105344936D01*
X145814586Y-105344938D01*
X145586344Y-105406094D01*
X145586335Y-105406098D01*
X145372171Y-105505964D01*
X145372169Y-105505965D01*
X145178597Y-105641505D01*
X145011505Y-105808597D01*
X144875965Y-106002169D01*
X144875964Y-106002171D01*
X144776098Y-106216335D01*
X144776094Y-106216344D01*
X144714938Y-106444586D01*
X144714936Y-106444596D01*
X144694341Y-106679999D01*
X144694341Y-106680000D01*
X113589007Y-106680000D01*
X113569035Y-106637171D01*
X113434194Y-106444596D01*
X113433494Y-106443597D01*
X113266402Y-106276506D01*
X113266401Y-106276505D01*
X113080405Y-106146269D01*
X113036781Y-106091692D01*
X113029588Y-106022193D01*
X113061110Y-105959839D01*
X113080405Y-105943119D01*
X113266082Y-105813105D01*
X113433105Y-105646082D01*
X113568600Y-105452578D01*
X113668429Y-105238492D01*
X113668432Y-105238486D01*
X113725636Y-105025000D01*
X113008347Y-105025000D01*
X112941308Y-105005315D01*
X112895553Y-104952511D01*
X112885609Y-104883353D01*
X112889369Y-104866067D01*
X112895000Y-104846888D01*
X112895000Y-104703111D01*
X112889369Y-104683933D01*
X112889370Y-104614064D01*
X112927145Y-104555286D01*
X112990701Y-104526262D01*
X113008347Y-104525000D01*
X113725636Y-104525000D01*
X113725635Y-104524999D01*
X113668432Y-104311513D01*
X113668429Y-104311507D01*
X113568600Y-104097422D01*
X113568599Y-104097420D01*
X113433113Y-103903926D01*
X113433108Y-103903920D01*
X113266078Y-103736890D01*
X113080405Y-103606879D01*
X113036780Y-103552302D01*
X113029588Y-103482804D01*
X113061110Y-103420449D01*
X113080406Y-103403730D01*
X113266401Y-103273495D01*
X113433495Y-103106401D01*
X113450896Y-103081548D01*
X113505470Y-103037923D01*
X113566355Y-103029450D01*
X113641552Y-103037923D01*
X113664999Y-103040565D01*
X113665000Y-103040565D01*
X113665004Y-103040565D01*
X113844249Y-103020369D01*
X113844252Y-103020368D01*
X113844255Y-103020368D01*
X114014522Y-102960789D01*
X114167262Y-102864816D01*
X114294816Y-102737262D01*
X114390789Y-102584522D01*
X114450368Y-102414255D01*
X114450369Y-102414249D01*
X114470565Y-102235003D01*
X114470565Y-102234996D01*
X114450369Y-102055750D01*
X114450368Y-102055745D01*
X114425613Y-101985000D01*
X114390789Y-101885478D01*
X114294816Y-101732738D01*
X114167262Y-101605184D01*
X114133847Y-101584188D01*
X114014523Y-101509211D01*
X113844254Y-101449631D01*
X113844249Y-101449630D01*
X113665004Y-101429435D01*
X113664997Y-101429435D01*
X113566355Y-101440549D01*
X113497533Y-101428494D01*
X113450896Y-101388451D01*
X113433495Y-101363599D01*
X113384900Y-101315004D01*
X113311567Y-101241671D01*
X113278084Y-101180351D01*
X113283068Y-101110659D01*
X113324939Y-101054725D01*
X113355915Y-101037810D01*
X113487331Y-100988796D01*
X113602546Y-100902546D01*
X113688796Y-100787331D01*
X113739091Y-100652483D01*
X113745500Y-100592873D01*
X113745500Y-100469499D01*
X113765185Y-100402461D01*
X113817989Y-100356706D01*
X113869500Y-100345500D01*
X120964192Y-100345500D01*
X121031231Y-100365185D01*
X121051873Y-100381819D01*
X124087372Y-103417318D01*
X124120857Y-103478641D01*
X124115873Y-103548333D01*
X124087372Y-103592680D01*
X123851871Y-103828181D01*
X123790548Y-103861666D01*
X123764190Y-103864500D01*
X122787129Y-103864500D01*
X122787123Y-103864501D01*
X122727516Y-103870908D01*
X122592671Y-103921202D01*
X122592664Y-103921206D01*
X122477455Y-104007452D01*
X122477452Y-104007455D01*
X122391206Y-104122664D01*
X122391202Y-104122671D01*
X122340908Y-104257517D01*
X122334501Y-104317116D01*
X122334500Y-104317135D01*
X122334500Y-105812870D01*
X122334501Y-105812876D01*
X122340908Y-105872483D01*
X122391202Y-106007328D01*
X122391206Y-106007335D01*
X122477452Y-106122544D01*
X122477455Y-106122547D01*
X122592664Y-106208793D01*
X122592671Y-106208797D01*
X122727517Y-106259091D01*
X122727516Y-106259091D01*
X122734444Y-106259835D01*
X122787127Y-106265500D01*
X124482872Y-106265499D01*
X124542483Y-106259091D01*
X124677331Y-106208796D01*
X124792546Y-106122546D01*
X124878796Y-106007331D01*
X124929091Y-105872483D01*
X124935500Y-105812873D01*
X124935499Y-104635806D01*
X124955184Y-104568768D01*
X124971813Y-104548131D01*
X125328125Y-104191818D01*
X125389449Y-104158334D01*
X125415807Y-104155500D01*
X126494932Y-104155500D01*
X126560904Y-104174506D01*
X126650477Y-104230789D01*
X126650481Y-104230790D01*
X126820737Y-104290366D01*
X126820743Y-104290367D01*
X126820745Y-104290368D01*
X126820746Y-104290368D01*
X126820750Y-104290369D01*
X126999996Y-104310565D01*
X127000000Y-104310565D01*
X127000004Y-104310565D01*
X127179249Y-104290369D01*
X127179251Y-104290368D01*
X127179255Y-104290368D01*
X127179258Y-104290366D01*
X127179262Y-104290366D01*
X127301884Y-104247459D01*
X127342839Y-104240500D01*
X128034192Y-104240500D01*
X128101231Y-104260185D01*
X128121873Y-104276819D01*
X129309564Y-105464510D01*
X129319635Y-105477080D01*
X129319822Y-105476926D01*
X129324796Y-105482937D01*
X129324798Y-105482940D01*
X129349316Y-105505964D01*
X129377243Y-105532190D01*
X129398967Y-105553913D01*
X129404757Y-105558405D01*
X129409197Y-105562197D01*
X129438498Y-105589711D01*
X129444607Y-105595448D01*
X129444610Y-105595450D01*
X129444612Y-105595451D01*
X129463207Y-105605674D01*
X129479468Y-105616356D01*
X129496232Y-105629359D01*
X129496236Y-105629362D01*
X129540811Y-105648651D01*
X129546050Y-105651217D01*
X129588632Y-105674627D01*
X129609204Y-105679908D01*
X129627594Y-105686205D01*
X129647074Y-105694635D01*
X129691221Y-105701626D01*
X129695048Y-105702233D01*
X129700757Y-105703415D01*
X129747823Y-105715500D01*
X129769045Y-105715500D01*
X129788444Y-105717026D01*
X129809405Y-105720347D01*
X129854104Y-105716121D01*
X129857770Y-105715775D01*
X129863608Y-105715500D01*
X130212649Y-105715500D01*
X130279688Y-105735185D01*
X130325443Y-105787989D01*
X130335939Y-105826248D01*
X130340908Y-105872483D01*
X130391202Y-106007328D01*
X130391206Y-106007335D01*
X130477452Y-106122544D01*
X130477455Y-106122547D01*
X130592664Y-106208793D01*
X130592671Y-106208797D01*
X130727517Y-106259091D01*
X130727516Y-106259091D01*
X130734444Y-106259835D01*
X130787127Y-106265500D01*
X132482872Y-106265499D01*
X132542483Y-106259091D01*
X132677331Y-106208796D01*
X132792546Y-106122546D01*
X132878796Y-106007331D01*
X132929091Y-105872483D01*
X132935500Y-105812873D01*
X132935499Y-105381542D01*
X132955183Y-105314505D01*
X133007987Y-105268750D01*
X133077146Y-105258806D01*
X133140702Y-105287831D01*
X133144381Y-105291150D01*
X133159607Y-105305448D01*
X133159609Y-105305449D01*
X133178205Y-105315672D01*
X133194470Y-105326357D01*
X133211232Y-105339360D01*
X133211235Y-105339361D01*
X133211236Y-105339362D01*
X133255823Y-105358656D01*
X133261059Y-105361221D01*
X133303632Y-105384627D01*
X133319340Y-105388659D01*
X133324186Y-105389904D01*
X133342598Y-105396207D01*
X133362073Y-105404635D01*
X133410071Y-105412237D01*
X133415740Y-105413411D01*
X133462823Y-105425500D01*
X133484051Y-105425500D01*
X133503448Y-105427026D01*
X133524403Y-105430345D01*
X133524404Y-105430346D01*
X133524404Y-105430345D01*
X133524405Y-105430346D01*
X133572760Y-105425775D01*
X133578599Y-105425500D01*
X140249495Y-105425500D01*
X140265505Y-105427267D01*
X140265528Y-105427026D01*
X140273289Y-105427758D01*
X140273296Y-105427760D01*
X140345203Y-105425500D01*
X140375925Y-105425500D01*
X140383190Y-105424581D01*
X140389016Y-105424122D01*
X140437569Y-105422597D01*
X140457956Y-105416673D01*
X140476996Y-105412731D01*
X140498058Y-105410071D01*
X140543235Y-105392183D01*
X140548735Y-105390300D01*
X140595398Y-105376744D01*
X140613665Y-105365939D01*
X140631136Y-105357380D01*
X140650871Y-105349568D01*
X140690177Y-105321010D01*
X140695043Y-105317813D01*
X140736865Y-105293081D01*
X140751870Y-105278075D01*
X140766668Y-105265436D01*
X140775794Y-105258806D01*
X140783837Y-105252963D01*
X140814809Y-105215522D01*
X140818723Y-105211221D01*
X142400610Y-103629334D01*
X154709500Y-103629334D01*
X154750429Y-103874616D01*
X154831169Y-104109802D01*
X154831172Y-104109811D01*
X154949524Y-104328506D01*
X154949526Y-104328509D01*
X155102262Y-104524744D01*
X155222909Y-104635807D01*
X155285217Y-104693166D01*
X155493393Y-104829173D01*
X155721118Y-104929063D01*
X155941392Y-104984844D01*
X155962179Y-104990108D01*
X155962181Y-104990108D01*
X155962186Y-104990109D01*
X156095376Y-105001145D01*
X156147933Y-105005500D01*
X156147935Y-105005500D01*
X156272065Y-105005500D01*
X156272067Y-105005500D01*
X156333284Y-105000427D01*
X156457813Y-104990109D01*
X156457816Y-104990108D01*
X156457821Y-104990108D01*
X156698881Y-104929063D01*
X156926607Y-104829173D01*
X157134785Y-104693164D01*
X157317738Y-104524744D01*
X157470474Y-104328509D01*
X157588828Y-104109810D01*
X157669571Y-103874614D01*
X157710500Y-103629335D01*
X157710500Y-103380665D01*
X157669571Y-103135386D01*
X157588828Y-102900190D01*
X157470474Y-102681491D01*
X157317738Y-102485256D01*
X157144511Y-102325789D01*
X157134782Y-102316833D01*
X156926606Y-102180826D01*
X156698881Y-102080936D01*
X156457824Y-102019892D01*
X156457813Y-102019890D01*
X156292548Y-102006197D01*
X156272067Y-102004500D01*
X156147933Y-102004500D01*
X156128521Y-102006108D01*
X155962186Y-102019890D01*
X155962175Y-102019892D01*
X155721118Y-102080936D01*
X155493393Y-102180826D01*
X155285217Y-102316833D01*
X155102261Y-102485257D01*
X154949524Y-102681493D01*
X154831172Y-102900188D01*
X154831169Y-102900197D01*
X154750429Y-103135383D01*
X154709500Y-103380665D01*
X154709500Y-103629334D01*
X142400610Y-103629334D01*
X144214513Y-101815431D01*
X144227079Y-101805365D01*
X144226925Y-101805178D01*
X144232937Y-101800204D01*
X144232937Y-101800203D01*
X144232940Y-101800202D01*
X144282190Y-101747755D01*
X144303911Y-101726035D01*
X144308401Y-101720245D01*
X144312183Y-101715815D01*
X144345448Y-101680393D01*
X144355674Y-101661790D01*
X144366353Y-101645533D01*
X144379362Y-101628764D01*
X144398656Y-101584175D01*
X144401212Y-101578956D01*
X144424627Y-101536368D01*
X144429905Y-101515806D01*
X144436207Y-101497399D01*
X144444635Y-101477927D01*
X144452233Y-101429953D01*
X144453414Y-101424247D01*
X144465500Y-101377177D01*
X144465500Y-101355949D01*
X144467027Y-101336549D01*
X144467569Y-101333125D01*
X144470346Y-101315595D01*
X144465775Y-101267238D01*
X144465500Y-101261400D01*
X144465500Y-99390773D01*
X144465499Y-99390751D01*
X144465499Y-98787129D01*
X144465498Y-98787123D01*
X144465497Y-98787116D01*
X144459091Y-98727517D01*
X144452735Y-98710477D01*
X144408797Y-98592671D01*
X144408793Y-98592664D01*
X144322547Y-98477455D01*
X144322544Y-98477452D01*
X144207335Y-98391206D01*
X144207328Y-98391202D01*
X144072486Y-98340910D01*
X144072485Y-98340909D01*
X144072483Y-98340909D01*
X144012873Y-98334500D01*
X144012863Y-98334500D01*
X143617130Y-98334500D01*
X143617119Y-98334501D01*
X143578253Y-98338679D01*
X143551748Y-98338679D01*
X143512874Y-98334500D01*
X143117130Y-98334500D01*
X143117119Y-98334501D01*
X143078253Y-98338679D01*
X143051748Y-98338679D01*
X143012874Y-98334500D01*
X142617130Y-98334500D01*
X142617119Y-98334501D01*
X142578253Y-98338679D01*
X142551748Y-98338679D01*
X142512874Y-98334500D01*
X142117130Y-98334500D01*
X142117119Y-98334501D01*
X142078253Y-98338679D01*
X142051748Y-98338679D01*
X142012874Y-98334500D01*
X141617130Y-98334500D01*
X141617119Y-98334501D01*
X141578253Y-98338679D01*
X141551748Y-98338679D01*
X141512874Y-98334500D01*
X141117130Y-98334500D01*
X141117119Y-98334501D01*
X141078253Y-98338679D01*
X141051748Y-98338679D01*
X141012874Y-98334500D01*
X140617130Y-98334500D01*
X140617119Y-98334501D01*
X140578253Y-98338679D01*
X140551748Y-98338679D01*
X140512874Y-98334500D01*
X140117130Y-98334500D01*
X140117119Y-98334501D01*
X140078253Y-98338679D01*
X140051748Y-98338679D01*
X140012874Y-98334500D01*
X139617132Y-98334500D01*
X139617117Y-98334501D01*
X139575904Y-98338931D01*
X139549402Y-98338931D01*
X139512834Y-98335000D01*
X139117165Y-98335000D01*
X139080598Y-98338931D01*
X139054092Y-98338931D01*
X139012873Y-98334500D01*
X138617130Y-98334500D01*
X138617119Y-98334501D01*
X138578253Y-98338679D01*
X138551748Y-98338679D01*
X138512874Y-98334500D01*
X138117130Y-98334500D01*
X138117119Y-98334501D01*
X138078253Y-98338679D01*
X138051748Y-98338679D01*
X138012874Y-98334500D01*
X137617130Y-98334500D01*
X137617119Y-98334501D01*
X137578253Y-98338679D01*
X137551748Y-98338679D01*
X137512874Y-98334500D01*
X137117132Y-98334500D01*
X137117117Y-98334501D01*
X137075904Y-98338931D01*
X137049402Y-98338931D01*
X137012834Y-98335000D01*
X136617165Y-98335000D01*
X136580598Y-98338931D01*
X136554092Y-98338931D01*
X136512873Y-98334500D01*
X136117130Y-98334500D01*
X136117119Y-98334501D01*
X136078253Y-98338679D01*
X136051748Y-98338679D01*
X136012874Y-98334500D01*
X135617130Y-98334500D01*
X135617119Y-98334501D01*
X135578253Y-98338679D01*
X135551748Y-98338679D01*
X135512874Y-98334500D01*
X135117130Y-98334500D01*
X135117119Y-98334501D01*
X135078253Y-98338679D01*
X135051748Y-98338679D01*
X135012874Y-98334500D01*
X134617130Y-98334500D01*
X134617119Y-98334501D01*
X134578253Y-98338679D01*
X134551748Y-98338679D01*
X134512874Y-98334500D01*
X134117129Y-98334500D01*
X134117123Y-98334501D01*
X134057516Y-98340908D01*
X133922671Y-98391202D01*
X133922664Y-98391206D01*
X133807455Y-98477452D01*
X133807452Y-98477455D01*
X133721206Y-98592664D01*
X133721202Y-98592671D01*
X133670908Y-98727517D01*
X133664503Y-98787102D01*
X133664501Y-98787123D01*
X133664500Y-98787135D01*
X133664500Y-99352823D01*
X133664499Y-100314191D01*
X133644814Y-100381231D01*
X133628180Y-100401872D01*
X132616775Y-101413277D01*
X132555452Y-101446762D01*
X132542988Y-101448815D01*
X132535752Y-101449630D01*
X132535744Y-101449632D01*
X132365478Y-101509210D01*
X132212737Y-101605184D01*
X132085184Y-101732737D01*
X131989209Y-101885480D01*
X131933241Y-102045426D01*
X131892519Y-102102202D01*
X131827567Y-102127949D01*
X131759005Y-102114493D01*
X131728519Y-102092152D01*
X129520703Y-99884336D01*
X127206819Y-97570451D01*
X127173334Y-97509128D01*
X127170500Y-97482770D01*
X127170500Y-95669500D01*
X127190185Y-95602461D01*
X127242989Y-95556706D01*
X127294500Y-95545500D01*
X127863126Y-95545500D01*
X127930165Y-95565185D01*
X127950807Y-95581819D01*
X128061955Y-95692967D01*
X128061959Y-95692970D01*
X128206294Y-95781998D01*
X128206297Y-95781999D01*
X128206303Y-95782003D01*
X128367292Y-95835349D01*
X128466655Y-95845500D01*
X129063344Y-95845499D01*
X129063352Y-95845498D01*
X129063355Y-95845498D01*
X129117760Y-95839940D01*
X129162708Y-95835349D01*
X129323697Y-95782003D01*
X129468044Y-95692968D01*
X129579192Y-95581819D01*
X129640516Y-95548334D01*
X129666874Y-95545500D01*
X129820995Y-95545500D01*
X129837005Y-95547267D01*
X129837028Y-95547026D01*
X129844789Y-95547758D01*
X129844796Y-95547760D01*
X129916703Y-95545500D01*
X129947425Y-95545500D01*
X129954690Y-95544581D01*
X129960516Y-95544122D01*
X130009069Y-95542597D01*
X130029456Y-95536673D01*
X130048496Y-95532731D01*
X130069558Y-95530071D01*
X130114735Y-95512183D01*
X130120235Y-95510300D01*
X130166898Y-95496744D01*
X130185165Y-95485939D01*
X130202636Y-95477380D01*
X130222371Y-95469568D01*
X130261677Y-95441010D01*
X130266543Y-95437813D01*
X130308365Y-95413081D01*
X130323370Y-95398075D01*
X130338168Y-95385436D01*
X130355337Y-95372963D01*
X130386309Y-95335522D01*
X130390223Y-95331221D01*
X130929321Y-94792123D01*
X130990642Y-94758640D01*
X131060334Y-94763624D01*
X131116267Y-94805496D01*
X131140684Y-94870960D01*
X131141000Y-94879806D01*
X131141000Y-95157868D01*
X131141001Y-95157878D01*
X131145179Y-95196745D01*
X131145179Y-95223250D01*
X131141000Y-95262122D01*
X131141000Y-95657869D01*
X131141001Y-95657878D01*
X131145179Y-95696745D01*
X131145179Y-95723250D01*
X131141000Y-95762122D01*
X131141000Y-96157869D01*
X131141001Y-96157878D01*
X131145179Y-96196745D01*
X131145179Y-96223250D01*
X131141000Y-96262122D01*
X131141000Y-96657869D01*
X131141001Y-96657878D01*
X131145179Y-96696745D01*
X131145179Y-96723250D01*
X131141000Y-96762122D01*
X131141000Y-97157869D01*
X131141001Y-97157878D01*
X131145179Y-97196745D01*
X131145179Y-97223250D01*
X131141000Y-97262122D01*
X131141000Y-97657870D01*
X131141001Y-97657876D01*
X131147408Y-97717483D01*
X131197702Y-97852328D01*
X131197706Y-97852335D01*
X131283952Y-97967544D01*
X131283955Y-97967547D01*
X131399164Y-98053793D01*
X131399171Y-98053797D01*
X131534017Y-98104091D01*
X131534016Y-98104091D01*
X131540944Y-98104835D01*
X131593627Y-98110500D01*
X133086372Y-98110499D01*
X133145983Y-98104091D01*
X133280831Y-98053796D01*
X133396046Y-97967546D01*
X133482296Y-97852331D01*
X133532591Y-97717483D01*
X133539000Y-97657873D01*
X133539000Y-97657870D01*
X144689500Y-97657870D01*
X144689501Y-97657876D01*
X144695908Y-97717483D01*
X144746202Y-97852328D01*
X144746206Y-97852335D01*
X144832452Y-97967544D01*
X144832455Y-97967547D01*
X144947664Y-98053793D01*
X144947671Y-98053797D01*
X145082517Y-98104091D01*
X145082516Y-98104091D01*
X145089444Y-98104835D01*
X145142127Y-98110500D01*
X146437872Y-98110499D01*
X146497483Y-98104091D01*
X146632331Y-98053796D01*
X146747546Y-97967546D01*
X146833796Y-97852331D01*
X146884091Y-97717483D01*
X146890500Y-97657873D01*
X146890499Y-97262128D01*
X146890499Y-97262127D01*
X146890498Y-97262111D01*
X146886320Y-97223253D01*
X146886320Y-97196745D01*
X146890500Y-97157873D01*
X146890499Y-97035373D01*
X146910183Y-96968336D01*
X146962987Y-96922581D01*
X147032145Y-96912637D01*
X147095701Y-96941661D01*
X147119492Y-96969402D01*
X147136597Y-96996623D01*
X147143848Y-97008163D01*
X147271402Y-97135717D01*
X147306663Y-97157873D01*
X147410714Y-97223253D01*
X147424142Y-97231690D01*
X147594409Y-97291269D01*
X147594413Y-97291270D01*
X147681218Y-97301049D01*
X147764892Y-97310477D01*
X147829305Y-97337543D01*
X147868860Y-97395137D01*
X147875008Y-97433697D01*
X147875008Y-97533682D01*
X147855323Y-97600721D01*
X147838689Y-97621364D01*
X147735981Y-97724071D01*
X147723410Y-97734143D01*
X147723565Y-97734330D01*
X147717559Y-97739298D01*
X147692934Y-97765521D01*
X147668309Y-97791744D01*
X147657448Y-97802604D01*
X147646588Y-97813465D01*
X147646578Y-97813477D01*
X147642087Y-97819265D01*
X147638301Y-97823697D01*
X147605052Y-97859106D01*
X147594822Y-97877713D01*
X147584146Y-97893964D01*
X147571140Y-97910732D01*
X147571136Y-97910738D01*
X147551848Y-97955311D01*
X147549277Y-97960558D01*
X147525872Y-98003130D01*
X147525872Y-98003131D01*
X147520591Y-98023699D01*
X147514291Y-98042101D01*
X147505864Y-98061573D01*
X147498266Y-98109547D01*
X147497081Y-98115270D01*
X147485000Y-98162318D01*
X147485000Y-98183544D01*
X147483473Y-98202944D01*
X147480153Y-98223903D01*
X147484725Y-98272267D01*
X147485000Y-98278106D01*
X147485000Y-98554931D01*
X147465994Y-98620903D01*
X147409711Y-98710477D01*
X147409709Y-98710481D01*
X147350133Y-98880737D01*
X147350130Y-98880750D01*
X147329935Y-99059996D01*
X147329935Y-99060003D01*
X147350130Y-99239249D01*
X147350131Y-99239254D01*
X147409711Y-99409523D01*
X147458446Y-99487083D01*
X147505684Y-99562262D01*
X147633238Y-99689816D01*
X147677773Y-99717799D01*
X147749779Y-99763044D01*
X147785978Y-99785789D01*
X147940493Y-99839856D01*
X147956245Y-99845368D01*
X147956250Y-99845369D01*
X148135496Y-99865565D01*
X148135500Y-99865565D01*
X148135503Y-99865565D01*
X148216672Y-99856419D01*
X148305123Y-99846453D01*
X148373944Y-99858507D01*
X148401477Y-99878255D01*
X148401605Y-99878095D01*
X148405033Y-99880805D01*
X148406687Y-99881992D01*
X148407267Y-99882572D01*
X148407271Y-99882575D01*
X148551507Y-99971542D01*
X148551518Y-99971547D01*
X148712393Y-100024855D01*
X148811683Y-100034999D01*
X148835000Y-100034998D01*
X148835000Y-99487083D01*
X148854005Y-99421113D01*
X148861289Y-99409522D01*
X148904579Y-99285807D01*
X148920866Y-99239262D01*
X148920869Y-99239249D01*
X148941065Y-99060003D01*
X148941065Y-99059996D01*
X148928433Y-98947883D01*
X148940487Y-98879062D01*
X148987837Y-98827682D01*
X149051653Y-98810000D01*
X149211000Y-98810000D01*
X149278039Y-98829685D01*
X149323794Y-98882489D01*
X149335000Y-98934000D01*
X149335000Y-100034999D01*
X149358308Y-100034999D01*
X149358322Y-100034998D01*
X149457607Y-100024855D01*
X149618481Y-99971547D01*
X149618492Y-99971542D01*
X149762731Y-99882573D01*
X149771959Y-99873345D01*
X149833279Y-99839856D01*
X149902971Y-99844835D01*
X149947327Y-99873339D01*
X149956955Y-99882967D01*
X149956959Y-99882970D01*
X150101294Y-99971998D01*
X150101297Y-99971999D01*
X150101303Y-99972003D01*
X150262292Y-100025349D01*
X150361655Y-100035500D01*
X150908344Y-100035499D01*
X150908352Y-100035498D01*
X150908355Y-100035498D01*
X150962760Y-100029940D01*
X151007708Y-100025349D01*
X151168697Y-99972003D01*
X151313044Y-99882968D01*
X151432968Y-99763044D01*
X151522003Y-99618697D01*
X151575349Y-99457708D01*
X151585500Y-99358345D01*
X151585499Y-98761656D01*
X151579964Y-98707477D01*
X151592733Y-98638788D01*
X151615638Y-98607200D01*
X151836020Y-98386818D01*
X151897343Y-98353334D01*
X151923701Y-98350500D01*
X153169355Y-98350500D01*
X153236394Y-98370185D01*
X153270928Y-98403374D01*
X153343402Y-98506877D01*
X153498123Y-98661598D01*
X153677361Y-98787102D01*
X153875670Y-98879575D01*
X153875676Y-98879576D01*
X153875677Y-98879577D01*
X153880036Y-98880745D01*
X154087023Y-98936207D01*
X154269926Y-98952208D01*
X154304998Y-98955277D01*
X154305000Y-98955277D01*
X154305002Y-98955277D01*
X154333254Y-98952805D01*
X154522977Y-98936207D01*
X154734330Y-98879575D01*
X154932639Y-98787102D01*
X155111877Y-98661598D01*
X155266598Y-98506877D01*
X155392102Y-98327639D01*
X155484575Y-98129330D01*
X155541207Y-97917977D01*
X155558747Y-97717486D01*
X155560277Y-97700002D01*
X155560277Y-97699997D01*
X155548943Y-97570451D01*
X155541207Y-97482023D01*
X155490095Y-97291270D01*
X155484577Y-97270677D01*
X155484576Y-97270676D01*
X155484575Y-97270670D01*
X155392102Y-97072362D01*
X155392100Y-97072359D01*
X155392099Y-97072357D01*
X155266599Y-96893124D01*
X155228898Y-96855423D01*
X155111877Y-96738402D01*
X154932639Y-96612898D01*
X154932640Y-96612898D01*
X154932638Y-96612897D01*
X154784449Y-96543796D01*
X154734330Y-96520425D01*
X154734326Y-96520424D01*
X154734322Y-96520422D01*
X154522977Y-96463793D01*
X154305002Y-96444723D01*
X154304998Y-96444723D01*
X154159681Y-96457436D01*
X154087023Y-96463793D01*
X154087020Y-96463793D01*
X153875677Y-96520422D01*
X153875668Y-96520426D01*
X153677361Y-96612898D01*
X153677357Y-96612900D01*
X153498121Y-96738402D01*
X153343403Y-96893120D01*
X153270931Y-96996623D01*
X153216355Y-97040248D01*
X153169356Y-97049500D01*
X152377394Y-97049500D01*
X152310355Y-97029815D01*
X152264600Y-96977011D01*
X152253394Y-96925500D01*
X152253394Y-96443395D01*
X152255162Y-96427382D01*
X152254920Y-96427360D01*
X152255652Y-96419604D01*
X152255654Y-96419597D01*
X152253394Y-96347690D01*
X152253394Y-96316969D01*
X152252473Y-96309682D01*
X152252016Y-96303873D01*
X152250491Y-96255325D01*
X152244570Y-96234947D01*
X152240625Y-96215898D01*
X152237965Y-96194836D01*
X152220080Y-96149665D01*
X152218192Y-96144148D01*
X152204638Y-96097496D01*
X152204638Y-96097495D01*
X152193833Y-96079226D01*
X152185273Y-96061752D01*
X152184245Y-96059156D01*
X152177462Y-96042023D01*
X152148908Y-96002722D01*
X152145704Y-95997844D01*
X152120976Y-95956031D01*
X152120975Y-95956029D01*
X152105969Y-95941022D01*
X152093329Y-95926224D01*
X152080855Y-95909054D01*
X152043422Y-95878088D01*
X152039100Y-95874154D01*
X151452127Y-95287181D01*
X151418642Y-95225858D01*
X151423626Y-95156166D01*
X151465498Y-95100233D01*
X151530962Y-95075816D01*
X151539808Y-95075500D01*
X152614495Y-95075500D01*
X152630505Y-95077267D01*
X152630528Y-95077026D01*
X152638289Y-95077758D01*
X152638296Y-95077760D01*
X152710203Y-95075500D01*
X152740925Y-95075500D01*
X152748190Y-95074581D01*
X152754016Y-95074122D01*
X152802569Y-95072597D01*
X152822956Y-95066673D01*
X152841996Y-95062731D01*
X152863058Y-95060071D01*
X152908235Y-95042183D01*
X152913735Y-95040300D01*
X152960398Y-95026744D01*
X152978665Y-95015939D01*
X152996136Y-95007380D01*
X153015871Y-94999568D01*
X153055177Y-94971010D01*
X153060043Y-94967813D01*
X153101865Y-94943081D01*
X153116870Y-94928075D01*
X153131668Y-94915436D01*
X153148837Y-94902963D01*
X153179809Y-94865522D01*
X153183723Y-94861221D01*
X153958886Y-94086057D01*
X154020207Y-94052574D01*
X154078663Y-94053966D01*
X154087023Y-94056207D01*
X154269926Y-94072208D01*
X154304998Y-94075277D01*
X154305000Y-94075277D01*
X154305002Y-94075277D01*
X154333254Y-94072805D01*
X154522977Y-94056207D01*
X154734330Y-93999575D01*
X154932639Y-93907102D01*
X155111877Y-93781598D01*
X155266598Y-93626877D01*
X155392102Y-93447639D01*
X155484575Y-93249330D01*
X155541207Y-93037977D01*
X155560277Y-92820000D01*
X155541207Y-92602023D01*
X155524022Y-92537891D01*
X155525686Y-92468041D01*
X155556115Y-92418119D01*
X157238916Y-90735318D01*
X157245006Y-90729977D01*
X157273282Y-90708282D01*
X157309069Y-90661644D01*
X157369536Y-90582841D01*
X157430044Y-90436762D01*
X157446431Y-90312289D01*
X157450682Y-90280001D01*
X157450682Y-90279999D01*
X157446031Y-90244673D01*
X157445500Y-90236571D01*
X157445500Y-89335424D01*
X157465185Y-89268385D01*
X157504402Y-89229886D01*
X157548044Y-89202968D01*
X157667968Y-89083044D01*
X157757003Y-88938697D01*
X157810349Y-88777708D01*
X157820500Y-88678345D01*
X157820499Y-88131656D01*
X157818382Y-88110936D01*
X157810349Y-88032292D01*
X157810348Y-88032289D01*
X157775908Y-87928355D01*
X157757003Y-87871303D01*
X157756999Y-87871297D01*
X157756998Y-87871294D01*
X157667970Y-87726959D01*
X157667967Y-87726955D01*
X157658339Y-87717327D01*
X157624854Y-87656004D01*
X157629838Y-87586312D01*
X157658345Y-87541959D01*
X157667573Y-87532731D01*
X157756542Y-87388492D01*
X157756547Y-87388481D01*
X157809855Y-87227606D01*
X157819999Y-87128322D01*
X157820000Y-87128309D01*
X157820000Y-87105000D01*
X155870001Y-87105000D01*
X155870001Y-87128322D01*
X155880144Y-87227607D01*
X155933452Y-87388481D01*
X155933457Y-87388492D01*
X156022424Y-87532728D01*
X156022427Y-87532732D01*
X156031660Y-87541965D01*
X156065145Y-87603288D01*
X156060161Y-87672980D01*
X156031663Y-87717324D01*
X156022033Y-87726953D01*
X156022029Y-87726959D01*
X155933001Y-87871294D01*
X155932996Y-87871305D01*
X155879651Y-88032290D01*
X155869500Y-88131647D01*
X155869500Y-88678337D01*
X155869501Y-88678355D01*
X155879650Y-88777707D01*
X155879651Y-88777710D01*
X155932996Y-88938694D01*
X155933001Y-88938705D01*
X156022029Y-89083040D01*
X156022032Y-89083044D01*
X156141956Y-89202968D01*
X156185597Y-89229886D01*
X156232321Y-89281832D01*
X156244500Y-89335424D01*
X156244500Y-89979901D01*
X156224815Y-90046940D01*
X156208181Y-90067582D01*
X154706880Y-91568882D01*
X154645557Y-91602367D01*
X154587106Y-91600976D01*
X154522977Y-91583793D01*
X154305002Y-91564723D01*
X154304998Y-91564723D01*
X154206710Y-91573322D01*
X154087023Y-91583793D01*
X154087020Y-91583793D01*
X153875677Y-91640422D01*
X153875668Y-91640426D01*
X153677361Y-91732898D01*
X153677357Y-91732900D01*
X153498121Y-91858402D01*
X153343402Y-92013121D01*
X153217900Y-92192357D01*
X153217898Y-92192361D01*
X153125426Y-92390668D01*
X153125422Y-92390677D01*
X153068793Y-92602020D01*
X153068793Y-92602024D01*
X153049723Y-92819997D01*
X153049723Y-92820002D01*
X153068792Y-93037970D01*
X153068794Y-93037983D01*
X153071035Y-93046346D01*
X153069368Y-93116196D01*
X153038939Y-93166113D01*
X152466873Y-93738181D01*
X152405550Y-93771666D01*
X152379192Y-93774500D01*
X152046266Y-93774500D01*
X151979227Y-93754815D01*
X151933472Y-93702011D01*
X151923046Y-93664384D01*
X151915369Y-93596249D01*
X151915368Y-93596245D01*
X151865829Y-93454671D01*
X151855789Y-93425978D01*
X151759816Y-93273238D01*
X151632262Y-93145684D01*
X151528787Y-93080666D01*
X151479523Y-93049711D01*
X151309254Y-92990131D01*
X151309249Y-92990130D01*
X151130004Y-92969935D01*
X151129996Y-92969935D01*
X150973382Y-92987580D01*
X150904560Y-92975525D01*
X150853181Y-92928176D01*
X150835499Y-92864360D01*
X150835499Y-92576662D01*
X150835498Y-92576644D01*
X150825349Y-92477292D01*
X150825348Y-92477289D01*
X150824452Y-92474586D01*
X150772003Y-92316303D01*
X150771999Y-92316297D01*
X150771998Y-92316294D01*
X150682970Y-92171959D01*
X150682967Y-92171955D01*
X150673339Y-92162327D01*
X150639854Y-92101004D01*
X150644838Y-92031312D01*
X150673345Y-91986959D01*
X150682573Y-91977731D01*
X150771542Y-91833492D01*
X150771547Y-91833481D01*
X150824855Y-91672606D01*
X150834999Y-91573322D01*
X150835000Y-91573309D01*
X150835000Y-91550000D01*
X148885001Y-91550000D01*
X148885001Y-91573322D01*
X148895144Y-91672607D01*
X148948452Y-91833481D01*
X148948457Y-91833492D01*
X149037424Y-91977728D01*
X149037427Y-91977732D01*
X149046660Y-91986965D01*
X149080145Y-92048288D01*
X149075161Y-92117980D01*
X149046663Y-92162324D01*
X149037034Y-92171953D01*
X148976045Y-92270829D01*
X148924096Y-92317552D01*
X148855133Y-92328773D01*
X148851111Y-92328204D01*
X148816779Y-92322766D01*
X148811063Y-92321582D01*
X148790465Y-92316294D01*
X148764007Y-92309500D01*
X148764004Y-92309500D01*
X148742782Y-92309500D01*
X148723382Y-92307973D01*
X148702423Y-92304653D01*
X148702422Y-92304653D01*
X148678613Y-92306903D01*
X148654057Y-92309225D01*
X148648219Y-92309500D01*
X147012244Y-92309500D01*
X146945205Y-92289815D01*
X146899450Y-92237011D01*
X146888954Y-92172247D01*
X146890500Y-92157873D01*
X146890499Y-91762128D01*
X146890499Y-91762127D01*
X146890498Y-91762111D01*
X146886320Y-91723253D01*
X146886320Y-91696745D01*
X146890500Y-91657873D01*
X146890499Y-91262128D01*
X146890499Y-91262127D01*
X146890498Y-91262111D01*
X146886320Y-91223253D01*
X146886320Y-91196745D01*
X146890500Y-91157873D01*
X146890500Y-91050000D01*
X148885000Y-91050000D01*
X149610000Y-91050000D01*
X149610000Y-90350000D01*
X150110000Y-90350000D01*
X150110000Y-91050000D01*
X150834999Y-91050000D01*
X150834999Y-91026692D01*
X150834998Y-91026677D01*
X150824855Y-90927392D01*
X150771547Y-90766518D01*
X150771542Y-90766507D01*
X150682575Y-90622271D01*
X150682572Y-90622267D01*
X150562732Y-90502427D01*
X150562728Y-90502424D01*
X150418492Y-90413457D01*
X150418481Y-90413452D01*
X150257606Y-90360144D01*
X150158322Y-90350000D01*
X150110000Y-90350000D01*
X149610000Y-90350000D01*
X149609999Y-90349999D01*
X149561693Y-90350000D01*
X149561675Y-90350001D01*
X149462392Y-90360144D01*
X149301518Y-90413452D01*
X149301507Y-90413457D01*
X149157271Y-90502424D01*
X149157267Y-90502427D01*
X149037427Y-90622267D01*
X149037424Y-90622271D01*
X148948457Y-90766507D01*
X148948452Y-90766518D01*
X148895144Y-90927393D01*
X148885000Y-91026677D01*
X148885000Y-91050000D01*
X146890500Y-91050000D01*
X146890499Y-90762128D01*
X146890499Y-90762127D01*
X146890498Y-90762111D01*
X146886320Y-90723253D01*
X146886320Y-90696745D01*
X146890500Y-90657873D01*
X146890499Y-90262128D01*
X146890499Y-90262127D01*
X146890498Y-90262111D01*
X146886320Y-90223253D01*
X146886320Y-90196745D01*
X146890500Y-90157873D01*
X146890499Y-89762128D01*
X146890499Y-89762127D01*
X146890498Y-89762111D01*
X146886320Y-89723253D01*
X146886320Y-89696745D01*
X146890500Y-89657873D01*
X146890499Y-89262128D01*
X146888954Y-89247753D01*
X146901361Y-89178994D01*
X146948972Y-89127857D01*
X147012244Y-89110500D01*
X148574495Y-89110500D01*
X148590505Y-89112267D01*
X148590528Y-89112026D01*
X148598289Y-89112758D01*
X148598296Y-89112760D01*
X148670203Y-89110500D01*
X148700925Y-89110500D01*
X148708190Y-89109581D01*
X148714016Y-89109122D01*
X148762569Y-89107597D01*
X148782956Y-89101673D01*
X148801996Y-89097731D01*
X148823058Y-89095071D01*
X148868235Y-89077183D01*
X148873735Y-89075300D01*
X148920398Y-89061744D01*
X148938665Y-89050939D01*
X148956136Y-89042380D01*
X148975871Y-89034568D01*
X149015177Y-89006010D01*
X149020043Y-89002813D01*
X149061865Y-88978081D01*
X149076870Y-88963075D01*
X149091668Y-88950436D01*
X149108837Y-88937963D01*
X149139809Y-88900522D01*
X149143723Y-88896221D01*
X151595792Y-86444152D01*
X151657113Y-86410669D01*
X151695622Y-86408432D01*
X151715000Y-86410341D01*
X151734369Y-86408433D01*
X151803015Y-86421449D01*
X151834208Y-86444154D01*
X152119341Y-86729287D01*
X152152825Y-86790608D01*
X152147841Y-86860299D01*
X152119342Y-86904646D01*
X152097029Y-86926959D01*
X152008001Y-87071294D01*
X152007996Y-87071305D01*
X151954651Y-87232290D01*
X151944500Y-87331647D01*
X151944500Y-87928337D01*
X151944501Y-87928355D01*
X151954650Y-88027707D01*
X151954651Y-88027710D01*
X152007996Y-88188694D01*
X152008001Y-88188705D01*
X152097029Y-88333040D01*
X152097032Y-88333044D01*
X152216955Y-88452967D01*
X152216959Y-88452970D01*
X152361294Y-88541998D01*
X152361297Y-88541999D01*
X152361303Y-88542003D01*
X152522292Y-88595349D01*
X152621655Y-88605500D01*
X153168344Y-88605499D01*
X153168352Y-88605498D01*
X153168355Y-88605498D01*
X153222760Y-88599940D01*
X153267708Y-88595349D01*
X153428697Y-88542003D01*
X153573044Y-88452968D01*
X153582668Y-88443343D01*
X153643987Y-88409856D01*
X153713679Y-88414835D01*
X153758034Y-88443339D01*
X153767267Y-88452572D01*
X153767271Y-88452575D01*
X153911507Y-88541542D01*
X153911518Y-88541547D01*
X154072393Y-88594855D01*
X154171683Y-88604999D01*
X154195000Y-88604998D01*
X154195000Y-87880000D01*
X154695000Y-87880000D01*
X154695000Y-88604999D01*
X154718308Y-88604999D01*
X154718322Y-88604998D01*
X154817607Y-88594855D01*
X154978481Y-88541547D01*
X154978492Y-88541542D01*
X155122728Y-88452575D01*
X155122732Y-88452572D01*
X155242572Y-88332732D01*
X155242575Y-88332728D01*
X155331542Y-88188492D01*
X155331547Y-88188481D01*
X155384855Y-88027606D01*
X155394999Y-87928322D01*
X155395000Y-87928309D01*
X155395000Y-87880000D01*
X154695000Y-87880000D01*
X154195000Y-87880000D01*
X154195000Y-87379999D01*
X154694999Y-87379999D01*
X154695000Y-87380000D01*
X155394999Y-87380000D01*
X155394999Y-87331692D01*
X155394998Y-87331677D01*
X155384855Y-87232392D01*
X155331547Y-87071518D01*
X155331542Y-87071507D01*
X155242575Y-86927271D01*
X155242572Y-86927267D01*
X155122732Y-86807427D01*
X155122728Y-86807424D01*
X154978492Y-86718457D01*
X154978481Y-86718452D01*
X154817606Y-86665144D01*
X154718322Y-86655000D01*
X154695000Y-86655000D01*
X154694999Y-87379999D01*
X154195000Y-87379999D01*
X154195000Y-86654999D01*
X154171693Y-86655000D01*
X154171674Y-86655001D01*
X154072392Y-86665144D01*
X153911518Y-86718452D01*
X153911507Y-86718457D01*
X153767271Y-86807424D01*
X153767264Y-86807430D01*
X153758028Y-86816665D01*
X153696703Y-86850146D01*
X153627011Y-86845157D01*
X153582672Y-86816659D01*
X153581819Y-86815806D01*
X153548334Y-86754483D01*
X153545500Y-86728125D01*
X153545500Y-86670502D01*
X153547268Y-86654489D01*
X153547026Y-86654467D01*
X153547758Y-86646711D01*
X153547760Y-86646704D01*
X153546449Y-86605000D01*
X155870000Y-86605000D01*
X156595000Y-86605000D01*
X156595000Y-85905000D01*
X157095000Y-85905000D01*
X157095000Y-86605000D01*
X157819999Y-86605000D01*
X157819999Y-86581692D01*
X157819998Y-86581677D01*
X157809855Y-86482392D01*
X157756547Y-86321518D01*
X157756542Y-86321507D01*
X157667575Y-86177271D01*
X157667572Y-86177267D01*
X157547732Y-86057427D01*
X157547728Y-86057424D01*
X157403492Y-85968457D01*
X157403481Y-85968452D01*
X157242606Y-85915144D01*
X157143322Y-85905000D01*
X157095000Y-85905000D01*
X156595000Y-85905000D01*
X156594999Y-85904999D01*
X156546693Y-85905000D01*
X156546675Y-85905001D01*
X156447392Y-85915144D01*
X156286518Y-85968452D01*
X156286507Y-85968457D01*
X156142271Y-86057424D01*
X156142267Y-86057427D01*
X156022427Y-86177267D01*
X156022424Y-86177271D01*
X155933457Y-86321507D01*
X155933452Y-86321518D01*
X155880144Y-86482393D01*
X155870000Y-86581677D01*
X155870000Y-86605000D01*
X153546449Y-86605000D01*
X153545500Y-86574796D01*
X153545500Y-86544075D01*
X153544579Y-86536788D01*
X153544122Y-86530979D01*
X153542597Y-86482431D01*
X153536676Y-86462053D01*
X153532731Y-86443004D01*
X153530071Y-86421942D01*
X153512185Y-86376769D01*
X153510296Y-86371249D01*
X153496743Y-86324600D01*
X153485940Y-86306334D01*
X153477378Y-86288856D01*
X153469568Y-86269129D01*
X153469565Y-86269125D01*
X153441014Y-86229827D01*
X153437811Y-86224951D01*
X153413081Y-86183135D01*
X153413079Y-86183133D01*
X153413078Y-86183131D01*
X153398075Y-86168129D01*
X153385435Y-86153330D01*
X153372961Y-86136160D01*
X153335528Y-86105194D01*
X153331206Y-86101260D01*
X152754154Y-85524208D01*
X152720669Y-85462885D01*
X152718433Y-85424369D01*
X152720341Y-85405003D01*
X152720341Y-85405001D01*
X152720341Y-85405000D01*
X152701024Y-85208868D01*
X152643814Y-85020273D01*
X152643811Y-85020269D01*
X152643811Y-85020266D01*
X152550913Y-84846467D01*
X152550909Y-84846460D01*
X152425883Y-84694116D01*
X152273539Y-84569091D01*
X152273538Y-84569090D01*
X152264687Y-84564359D01*
X152214843Y-84515398D01*
X152199381Y-84447261D01*
X152223211Y-84381581D01*
X152264686Y-84345641D01*
X152273538Y-84340910D01*
X152425883Y-84215883D01*
X152550910Y-84063538D01*
X152643814Y-83889727D01*
X152701024Y-83701132D01*
X152720341Y-83505000D01*
X152701024Y-83308868D01*
X152643814Y-83120273D01*
X152643811Y-83120269D01*
X152643811Y-83120266D01*
X152550913Y-82946467D01*
X152550909Y-82946460D01*
X152425884Y-82794118D01*
X152424114Y-82792665D01*
X152423436Y-82791670D01*
X152421581Y-82789815D01*
X152421933Y-82789462D01*
X152384781Y-82734918D01*
X152382912Y-82665074D01*
X152415098Y-82609135D01*
X152732415Y-82291818D01*
X152793739Y-82258333D01*
X152820097Y-82255499D01*
X153168338Y-82255499D01*
X153168344Y-82255499D01*
X153168352Y-82255498D01*
X153168355Y-82255498D01*
X153222760Y-82249940D01*
X153267708Y-82245349D01*
X153428697Y-82192003D01*
X153573044Y-82102968D01*
X153582668Y-82093343D01*
X153643987Y-82059856D01*
X153713679Y-82064835D01*
X153758034Y-82093339D01*
X153767267Y-82102572D01*
X153767271Y-82102575D01*
X153911507Y-82191542D01*
X153911518Y-82191547D01*
X154072393Y-82244855D01*
X154171683Y-82254999D01*
X154195000Y-82254998D01*
X154195000Y-81530000D01*
X154695000Y-81530000D01*
X154695000Y-82254999D01*
X154718308Y-82254999D01*
X154718322Y-82254998D01*
X154817607Y-82244855D01*
X154978481Y-82191547D01*
X154978492Y-82191542D01*
X155122728Y-82102575D01*
X155122732Y-82102572D01*
X155242572Y-81982732D01*
X155242575Y-81982728D01*
X155331542Y-81838492D01*
X155331547Y-81838481D01*
X155384855Y-81677606D01*
X155394999Y-81578322D01*
X155395000Y-81578309D01*
X155395000Y-81530000D01*
X154695000Y-81530000D01*
X154195000Y-81530000D01*
X154195000Y-81029999D01*
X154694999Y-81029999D01*
X154695000Y-81030000D01*
X155394999Y-81030000D01*
X155394999Y-80981692D01*
X155394998Y-80981677D01*
X155384855Y-80882392D01*
X155331547Y-80721518D01*
X155331542Y-80721507D01*
X155242575Y-80577271D01*
X155242572Y-80577267D01*
X155122732Y-80457427D01*
X155122728Y-80457424D01*
X154978492Y-80368457D01*
X154978481Y-80368452D01*
X154817606Y-80315144D01*
X154718322Y-80305000D01*
X154695000Y-80305000D01*
X154694999Y-81029999D01*
X154195000Y-81029999D01*
X154195000Y-80304999D01*
X154171693Y-80305000D01*
X154171674Y-80305001D01*
X154072392Y-80315144D01*
X153911518Y-80368452D01*
X153911507Y-80368457D01*
X153767271Y-80457424D01*
X153767265Y-80457428D01*
X153758031Y-80466663D01*
X153696707Y-80500146D01*
X153627015Y-80495159D01*
X153582672Y-80466660D01*
X153573044Y-80457032D01*
X153573040Y-80457029D01*
X153428705Y-80368001D01*
X153428699Y-80367998D01*
X153428697Y-80367997D01*
X153410632Y-80362011D01*
X153267709Y-80314651D01*
X153168346Y-80304500D01*
X152621662Y-80304500D01*
X152621644Y-80304501D01*
X152522292Y-80314650D01*
X152522289Y-80314651D01*
X152361305Y-80367996D01*
X152361294Y-80368001D01*
X152216959Y-80457029D01*
X152216955Y-80457032D01*
X152097032Y-80576955D01*
X152097029Y-80576959D01*
X152008001Y-80721294D01*
X152007996Y-80721305D01*
X151954651Y-80882290D01*
X151944500Y-80981647D01*
X151944500Y-81329901D01*
X151924815Y-81396940D01*
X151908181Y-81417582D01*
X151321096Y-82004668D01*
X151314994Y-82010019D01*
X151286717Y-82031718D01*
X151239435Y-82093339D01*
X151238732Y-82094255D01*
X151195641Y-82150413D01*
X151190462Y-82157162D01*
X151190461Y-82157163D01*
X151129957Y-82303234D01*
X151129955Y-82303239D01*
X151109318Y-82459998D01*
X151109318Y-82460000D01*
X151113969Y-82495326D01*
X151114500Y-82503427D01*
X151114500Y-82644880D01*
X151094815Y-82711919D01*
X151069169Y-82740729D01*
X151004117Y-82794117D01*
X151004114Y-82794119D01*
X151004112Y-82794122D01*
X150879090Y-82946460D01*
X150879086Y-82946467D01*
X150786188Y-83120266D01*
X150728975Y-83308870D01*
X150709659Y-83504999D01*
X150711567Y-83524372D01*
X150698548Y-83593019D01*
X150675845Y-83624207D01*
X147026873Y-87273181D01*
X146965550Y-87306666D01*
X146939192Y-87309500D01*
X145142129Y-87309500D01*
X145142123Y-87309501D01*
X145082516Y-87315908D01*
X144947671Y-87366202D01*
X144947664Y-87366206D01*
X144832455Y-87452452D01*
X144832452Y-87452455D01*
X144746206Y-87567664D01*
X144746202Y-87567671D01*
X144695910Y-87702513D01*
X144695909Y-87702517D01*
X144689500Y-87762127D01*
X144689500Y-87762134D01*
X144689500Y-87762135D01*
X144689500Y-88157869D01*
X144689501Y-88157878D01*
X144693679Y-88196745D01*
X144693679Y-88223250D01*
X144689500Y-88262122D01*
X144689500Y-88657869D01*
X144689501Y-88657878D01*
X144693679Y-88696745D01*
X144693679Y-88723250D01*
X144689500Y-88762122D01*
X144689500Y-89157869D01*
X144689501Y-89157878D01*
X144693679Y-89196745D01*
X144693679Y-89223250D01*
X144689500Y-89262122D01*
X144689500Y-89657869D01*
X144689501Y-89657878D01*
X144693679Y-89696745D01*
X144693679Y-89723250D01*
X144689500Y-89762122D01*
X144689500Y-90157869D01*
X144689501Y-90157878D01*
X144693679Y-90196745D01*
X144693679Y-90223250D01*
X144689500Y-90262122D01*
X144689500Y-90657869D01*
X144689501Y-90657878D01*
X144693679Y-90696745D01*
X144693679Y-90723250D01*
X144689500Y-90762122D01*
X144689500Y-91157869D01*
X144689501Y-91157878D01*
X144693679Y-91196745D01*
X144693679Y-91223250D01*
X144689500Y-91262122D01*
X144689500Y-91657869D01*
X144689501Y-91657878D01*
X144693679Y-91696745D01*
X144693679Y-91723250D01*
X144689500Y-91762122D01*
X144689500Y-92157869D01*
X144689501Y-92157880D01*
X144693931Y-92199093D01*
X144693931Y-92225596D01*
X144690000Y-92262165D01*
X144690000Y-92657832D01*
X144693931Y-92694399D01*
X144693931Y-92720905D01*
X144689500Y-92762122D01*
X144689500Y-93157869D01*
X144689501Y-93157878D01*
X144693679Y-93196745D01*
X144693679Y-93223250D01*
X144689500Y-93262122D01*
X144689500Y-93657869D01*
X144689501Y-93657878D01*
X144693679Y-93696745D01*
X144693679Y-93723250D01*
X144689500Y-93762122D01*
X144689500Y-94157869D01*
X144689501Y-94157878D01*
X144693679Y-94196745D01*
X144693679Y-94223250D01*
X144689500Y-94262122D01*
X144689500Y-94657869D01*
X144689501Y-94657878D01*
X144693679Y-94696745D01*
X144693679Y-94723250D01*
X144689500Y-94762122D01*
X144689500Y-95157869D01*
X144689501Y-95157878D01*
X144693679Y-95196745D01*
X144693679Y-95223250D01*
X144689500Y-95262122D01*
X144689500Y-95657869D01*
X144689501Y-95657878D01*
X144693679Y-95696745D01*
X144693679Y-95723250D01*
X144689500Y-95762122D01*
X144689500Y-96157869D01*
X144689501Y-96157878D01*
X144693679Y-96196745D01*
X144693679Y-96223250D01*
X144689500Y-96262122D01*
X144689500Y-96657869D01*
X144689501Y-96657878D01*
X144693679Y-96696745D01*
X144693679Y-96723250D01*
X144689500Y-96762122D01*
X144689500Y-97157869D01*
X144689501Y-97157878D01*
X144693679Y-97196745D01*
X144693679Y-97223250D01*
X144689500Y-97262122D01*
X144689500Y-97657870D01*
X133539000Y-97657870D01*
X133538999Y-97262128D01*
X133538999Y-97262127D01*
X133538998Y-97262111D01*
X133534820Y-97223253D01*
X133534820Y-97196745D01*
X133539000Y-97157873D01*
X133538999Y-96762128D01*
X133538999Y-96762127D01*
X133538998Y-96762111D01*
X133534820Y-96723253D01*
X133534820Y-96696745D01*
X133539000Y-96657873D01*
X133538999Y-96262128D01*
X133538999Y-96262127D01*
X133538998Y-96262111D01*
X133534820Y-96223253D01*
X133534820Y-96196745D01*
X133539000Y-96157873D01*
X133538999Y-95762128D01*
X133538999Y-95762127D01*
X133538998Y-95762111D01*
X133534820Y-95723253D01*
X133534820Y-95696745D01*
X133539000Y-95657873D01*
X133538999Y-95262128D01*
X133538999Y-95262127D01*
X133538998Y-95262111D01*
X133534820Y-95223253D01*
X133534820Y-95196745D01*
X133539000Y-95157873D01*
X133538999Y-94762128D01*
X133538999Y-94762127D01*
X133538998Y-94762111D01*
X133534820Y-94723253D01*
X133534820Y-94696745D01*
X133539000Y-94657873D01*
X133538999Y-94262128D01*
X133538999Y-94262127D01*
X133538998Y-94262111D01*
X133534820Y-94223253D01*
X133534820Y-94196745D01*
X133539000Y-94157873D01*
X133538999Y-93762128D01*
X133538999Y-93762127D01*
X133538998Y-93762111D01*
X133534820Y-93723253D01*
X133534820Y-93696745D01*
X133539000Y-93657873D01*
X133538999Y-93262128D01*
X133534567Y-93220898D01*
X133534568Y-93194393D01*
X133538499Y-93157833D01*
X133538500Y-93157819D01*
X133538500Y-92762182D01*
X133538499Y-92762164D01*
X133534568Y-92725602D01*
X133534568Y-92699094D01*
X133539000Y-92657873D01*
X133538999Y-92262128D01*
X133538998Y-92262111D01*
X133534820Y-92223253D01*
X133534820Y-92196747D01*
X133539000Y-92157873D01*
X133538999Y-91762128D01*
X133538999Y-91762127D01*
X133538998Y-91762111D01*
X133534820Y-91723253D01*
X133534820Y-91696745D01*
X133539000Y-91657873D01*
X133538999Y-91262128D01*
X133538999Y-91262127D01*
X133538998Y-91262111D01*
X133534820Y-91223253D01*
X133534820Y-91196745D01*
X133539000Y-91157873D01*
X133538999Y-90762128D01*
X133538999Y-90762127D01*
X133538998Y-90762111D01*
X133534820Y-90723253D01*
X133534820Y-90696745D01*
X133539000Y-90657873D01*
X133538999Y-90262128D01*
X133538999Y-90262127D01*
X133538998Y-90262111D01*
X133534820Y-90223253D01*
X133534820Y-90196745D01*
X133539000Y-90157873D01*
X133538999Y-89762128D01*
X133538999Y-89762127D01*
X133538998Y-89762111D01*
X133534820Y-89723253D01*
X133534820Y-89696745D01*
X133539000Y-89657873D01*
X133538999Y-89262128D01*
X133538999Y-89262127D01*
X133538998Y-89262111D01*
X133534820Y-89223253D01*
X133534820Y-89196745D01*
X133539000Y-89157873D01*
X133538999Y-88762128D01*
X133538999Y-88762127D01*
X133538998Y-88762111D01*
X133534820Y-88723253D01*
X133534820Y-88696745D01*
X133539000Y-88657873D01*
X133538999Y-88262128D01*
X133538999Y-88262127D01*
X133538998Y-88262111D01*
X133534820Y-88223253D01*
X133534820Y-88196745D01*
X133539000Y-88157873D01*
X133538999Y-87762128D01*
X133532591Y-87702517D01*
X133521574Y-87672980D01*
X133482297Y-87567671D01*
X133482293Y-87567664D01*
X133396047Y-87452455D01*
X133396044Y-87452452D01*
X133280835Y-87366206D01*
X133280828Y-87366202D01*
X133145982Y-87315908D01*
X133145983Y-87315908D01*
X133086383Y-87309501D01*
X133086381Y-87309500D01*
X133086373Y-87309500D01*
X133086364Y-87309500D01*
X131593629Y-87309500D01*
X131593623Y-87309501D01*
X131534016Y-87315908D01*
X131399171Y-87366202D01*
X131399164Y-87366206D01*
X131283955Y-87452452D01*
X131283952Y-87452455D01*
X131197706Y-87567664D01*
X131197702Y-87567671D01*
X131147410Y-87702513D01*
X131147409Y-87702517D01*
X131141000Y-87762127D01*
X131141000Y-87762134D01*
X131141000Y-87762135D01*
X131141000Y-88157869D01*
X131141001Y-88157878D01*
X131145179Y-88196745D01*
X131145179Y-88223250D01*
X131141000Y-88262122D01*
X131141000Y-88657869D01*
X131141001Y-88657878D01*
X131145179Y-88696745D01*
X131145179Y-88723250D01*
X131141000Y-88762122D01*
X131141000Y-89157869D01*
X131141001Y-89157878D01*
X131145179Y-89196745D01*
X131145179Y-89223250D01*
X131141000Y-89262122D01*
X131141000Y-89657869D01*
X131141001Y-89657878D01*
X131145179Y-89696745D01*
X131145179Y-89723250D01*
X131141000Y-89762122D01*
X131141000Y-90157869D01*
X131141001Y-90157878D01*
X131145179Y-90196745D01*
X131145179Y-90223250D01*
X131141000Y-90262122D01*
X131141000Y-90657869D01*
X131141001Y-90657878D01*
X131145179Y-90696745D01*
X131145179Y-90723250D01*
X131141000Y-90762122D01*
X131141000Y-91157869D01*
X131141001Y-91157878D01*
X131142546Y-91172248D01*
X131130138Y-91241007D01*
X131082527Y-91292143D01*
X131019256Y-91309500D01*
X129761513Y-91309500D01*
X129694474Y-91289815D01*
X129648719Y-91237011D01*
X129638155Y-91198100D01*
X129634999Y-91167203D01*
X129634998Y-91167200D01*
X129631906Y-91157869D01*
X129579814Y-91000666D01*
X129487712Y-90851344D01*
X129363656Y-90727288D01*
X129245558Y-90654445D01*
X129214336Y-90635187D01*
X129214331Y-90635185D01*
X129175347Y-90622267D01*
X129047797Y-90580001D01*
X129047795Y-90580000D01*
X128945016Y-90569500D01*
X127768727Y-90569500D01*
X127701688Y-90549815D01*
X127655933Y-90497011D01*
X127645989Y-90427853D01*
X127675014Y-90364297D01*
X127681022Y-90357843D01*
X128232048Y-89806817D01*
X128293371Y-89773333D01*
X128319729Y-89770499D01*
X128945002Y-89770499D01*
X128945008Y-89770499D01*
X129047797Y-89759999D01*
X129214334Y-89704814D01*
X129363656Y-89612712D01*
X129487712Y-89488656D01*
X129579814Y-89339334D01*
X129634999Y-89172797D01*
X129645500Y-89070009D01*
X129645499Y-88344992D01*
X129644278Y-88333044D01*
X129634999Y-88242203D01*
X129634998Y-88242200D01*
X129579814Y-88075666D01*
X129492452Y-87934029D01*
X129474013Y-87866639D01*
X129494936Y-87799976D01*
X129510306Y-87781259D01*
X134999381Y-82292184D01*
X135060702Y-82258701D01*
X135130394Y-82263685D01*
X135186327Y-82305557D01*
X135187377Y-82306981D01*
X135191582Y-82312768D01*
X135194788Y-82317649D01*
X135219519Y-82359465D01*
X135219523Y-82359469D01*
X135234525Y-82374471D01*
X135247163Y-82389269D01*
X135259633Y-82406433D01*
X135259636Y-82406437D01*
X135297064Y-82437399D01*
X135301376Y-82441322D01*
X136529071Y-83669016D01*
X137532874Y-84672819D01*
X137566359Y-84734142D01*
X137561375Y-84803834D01*
X137519503Y-84859767D01*
X137454039Y-84884184D01*
X137445193Y-84884500D01*
X137117131Y-84884500D01*
X137117119Y-84884501D01*
X137078253Y-84888679D01*
X137051748Y-84888679D01*
X137012874Y-84884500D01*
X136617130Y-84884500D01*
X136617119Y-84884501D01*
X136578253Y-84888679D01*
X136551748Y-84888679D01*
X136512874Y-84884500D01*
X136117130Y-84884500D01*
X136117119Y-84884501D01*
X136078253Y-84888679D01*
X136051748Y-84888679D01*
X136012874Y-84884500D01*
X135617130Y-84884500D01*
X135617119Y-84884501D01*
X135578253Y-84888679D01*
X135551748Y-84888679D01*
X135512874Y-84884500D01*
X135117130Y-84884500D01*
X135117119Y-84884501D01*
X135078253Y-84888679D01*
X135051748Y-84888679D01*
X135012874Y-84884500D01*
X134617130Y-84884500D01*
X134617119Y-84884501D01*
X134578253Y-84888679D01*
X134551748Y-84888679D01*
X134512874Y-84884500D01*
X134117129Y-84884500D01*
X134117123Y-84884501D01*
X134057516Y-84890908D01*
X133922671Y-84941202D01*
X133922664Y-84941206D01*
X133807455Y-85027452D01*
X133807452Y-85027455D01*
X133721206Y-85142664D01*
X133721202Y-85142671D01*
X133670908Y-85277517D01*
X133664501Y-85337116D01*
X133664500Y-85337135D01*
X133664500Y-86632870D01*
X133664501Y-86632876D01*
X133670908Y-86692483D01*
X133721202Y-86827328D01*
X133721206Y-86827335D01*
X133807452Y-86942544D01*
X133807455Y-86942547D01*
X133922664Y-87028793D01*
X133922671Y-87028797D01*
X133967618Y-87045560D01*
X134057517Y-87079091D01*
X134117127Y-87085500D01*
X134512872Y-87085499D01*
X134512873Y-87085498D01*
X134512885Y-87085498D01*
X134551744Y-87081320D01*
X134578252Y-87081320D01*
X134617127Y-87085500D01*
X135012872Y-87085499D01*
X135012873Y-87085498D01*
X135012885Y-87085498D01*
X135051744Y-87081320D01*
X135078252Y-87081320D01*
X135117127Y-87085500D01*
X135512872Y-87085499D01*
X135512873Y-87085498D01*
X135512885Y-87085498D01*
X135551744Y-87081320D01*
X135578252Y-87081320D01*
X135617127Y-87085500D01*
X136012872Y-87085499D01*
X136012873Y-87085498D01*
X136012885Y-87085498D01*
X136051744Y-87081320D01*
X136078252Y-87081320D01*
X136117127Y-87085500D01*
X136512872Y-87085499D01*
X136512873Y-87085498D01*
X136512885Y-87085498D01*
X136551744Y-87081320D01*
X136578252Y-87081320D01*
X136617127Y-87085500D01*
X137012872Y-87085499D01*
X137012873Y-87085498D01*
X137012885Y-87085498D01*
X137051744Y-87081320D01*
X137078252Y-87081320D01*
X137117127Y-87085500D01*
X137512872Y-87085499D01*
X137512873Y-87085498D01*
X137512885Y-87085498D01*
X137551744Y-87081320D01*
X137578252Y-87081320D01*
X137617127Y-87085500D01*
X138012872Y-87085499D01*
X138012873Y-87085498D01*
X138012885Y-87085498D01*
X138051744Y-87081320D01*
X138078252Y-87081320D01*
X138117127Y-87085500D01*
X138512872Y-87085499D01*
X138512873Y-87085498D01*
X138512885Y-87085498D01*
X138551744Y-87081320D01*
X138578252Y-87081320D01*
X138617127Y-87085500D01*
X139012872Y-87085499D01*
X139012873Y-87085498D01*
X139012885Y-87085498D01*
X139051744Y-87081320D01*
X139078252Y-87081320D01*
X139117127Y-87085500D01*
X139512872Y-87085499D01*
X139512873Y-87085498D01*
X139512885Y-87085498D01*
X139551744Y-87081320D01*
X139578252Y-87081320D01*
X139617127Y-87085500D01*
X140012872Y-87085499D01*
X140012873Y-87085498D01*
X140012885Y-87085498D01*
X140051744Y-87081320D01*
X140078252Y-87081320D01*
X140117127Y-87085500D01*
X140512872Y-87085499D01*
X140512873Y-87085498D01*
X140512885Y-87085498D01*
X140551744Y-87081320D01*
X140578252Y-87081320D01*
X140617127Y-87085500D01*
X141012872Y-87085499D01*
X141012873Y-87085498D01*
X141012885Y-87085498D01*
X141051744Y-87081320D01*
X141078252Y-87081320D01*
X141117127Y-87085500D01*
X141512872Y-87085499D01*
X141512873Y-87085498D01*
X141512885Y-87085498D01*
X141551744Y-87081320D01*
X141578252Y-87081320D01*
X141617127Y-87085500D01*
X142012872Y-87085499D01*
X142012873Y-87085498D01*
X142012885Y-87085498D01*
X142051744Y-87081320D01*
X142078252Y-87081320D01*
X142117127Y-87085500D01*
X142512872Y-87085499D01*
X142512873Y-87085498D01*
X142512885Y-87085498D01*
X142551744Y-87081320D01*
X142578252Y-87081320D01*
X142617127Y-87085500D01*
X143012872Y-87085499D01*
X143012873Y-87085498D01*
X143012885Y-87085498D01*
X143051744Y-87081320D01*
X143078252Y-87081320D01*
X143117127Y-87085500D01*
X143512872Y-87085499D01*
X143512873Y-87085498D01*
X143512885Y-87085498D01*
X143551744Y-87081320D01*
X143578252Y-87081320D01*
X143617127Y-87085500D01*
X144012872Y-87085499D01*
X144072483Y-87079091D01*
X144207331Y-87028796D01*
X144322546Y-86942546D01*
X144408796Y-86827331D01*
X144459091Y-86692483D01*
X144465500Y-86632873D01*
X144465500Y-85991732D01*
X144465500Y-83575501D01*
X144467268Y-83559488D01*
X144467026Y-83559466D01*
X144467758Y-83551710D01*
X144467760Y-83551703D01*
X144465500Y-83479796D01*
X144465500Y-83449075D01*
X144464579Y-83441788D01*
X144464122Y-83435979D01*
X144463510Y-83416501D01*
X144462597Y-83387431D01*
X144456676Y-83367053D01*
X144452731Y-83348004D01*
X144450071Y-83326942D01*
X144432186Y-83281771D01*
X144430298Y-83276254D01*
X144416744Y-83229602D01*
X144416744Y-83229601D01*
X144405939Y-83211332D01*
X144397379Y-83193858D01*
X144393872Y-83185000D01*
X144389568Y-83174129D01*
X144361014Y-83134828D01*
X144357810Y-83129950D01*
X144340183Y-83100145D01*
X144333081Y-83088135D01*
X144333079Y-83088133D01*
X144333076Y-83088129D01*
X144331722Y-83086775D01*
X144330999Y-83085451D01*
X144328298Y-83081969D01*
X144328859Y-83081533D01*
X144298237Y-83025452D01*
X144296182Y-83012973D01*
X144295791Y-83009501D01*
X144295368Y-83005745D01*
X144244274Y-82859726D01*
X144240713Y-82789948D01*
X144275442Y-82729320D01*
X144320362Y-82701730D01*
X144324254Y-82700368D01*
X144324255Y-82700368D01*
X144494522Y-82640789D01*
X144647262Y-82544816D01*
X144774816Y-82417262D01*
X144870789Y-82264522D01*
X144930368Y-82094255D01*
X144930471Y-82093345D01*
X144950565Y-81915003D01*
X144950565Y-81914996D01*
X144930368Y-81735747D01*
X144930368Y-81735745D01*
X144902458Y-81655982D01*
X144895500Y-81615028D01*
X144895500Y-80429050D01*
X144915185Y-80362011D01*
X144967989Y-80316256D01*
X145037147Y-80306312D01*
X145100703Y-80335337D01*
X145107181Y-80341369D01*
X145178917Y-80413105D01*
X145372421Y-80548600D01*
X145586507Y-80648429D01*
X145586516Y-80648433D01*
X145800000Y-80705634D01*
X145800000Y-79987301D01*
X145819685Y-79920262D01*
X145872489Y-79874507D01*
X145941647Y-79864563D01*
X146014237Y-79875000D01*
X146014238Y-79875000D01*
X146085762Y-79875000D01*
X146085763Y-79875000D01*
X146158353Y-79864563D01*
X146227512Y-79874507D01*
X146280315Y-79920262D01*
X146300000Y-79987301D01*
X146300000Y-80705633D01*
X146513483Y-80648433D01*
X146513492Y-80648429D01*
X146727578Y-80548600D01*
X146921082Y-80413105D01*
X147088105Y-80246082D01*
X147223600Y-80052578D01*
X147323429Y-79838492D01*
X147323432Y-79838486D01*
X147380636Y-79625000D01*
X146663347Y-79625000D01*
X146596308Y-79605315D01*
X146550553Y-79552511D01*
X146540609Y-79483353D01*
X146544369Y-79466067D01*
X146550000Y-79446888D01*
X146550000Y-79303111D01*
X146544369Y-79283933D01*
X146544370Y-79214064D01*
X146582145Y-79155286D01*
X146645701Y-79126262D01*
X146663347Y-79125000D01*
X147380636Y-79125000D01*
X147380635Y-79124999D01*
X147323432Y-78911513D01*
X147323429Y-78911507D01*
X147223600Y-78697422D01*
X147223599Y-78697420D01*
X147088113Y-78503926D01*
X147088108Y-78503920D01*
X146921078Y-78336890D01*
X146735405Y-78206879D01*
X146691780Y-78152302D01*
X146684588Y-78082804D01*
X146716110Y-78020449D01*
X146735406Y-78003730D01*
X146735842Y-78003425D01*
X146921401Y-77873495D01*
X147088495Y-77706401D01*
X147224035Y-77512830D01*
X147323903Y-77298663D01*
X147381153Y-77085000D01*
X148617501Y-77085000D01*
X148617501Y-77139152D01*
X148627556Y-77237583D01*
X148680406Y-77397072D01*
X148680408Y-77397077D01*
X148768614Y-77540080D01*
X148887419Y-77658885D01*
X149030422Y-77747091D01*
X149030427Y-77747093D01*
X149189916Y-77799942D01*
X149288356Y-77809999D01*
X149805000Y-77809999D01*
X149821636Y-77809999D01*
X149821652Y-77809998D01*
X149920083Y-77799943D01*
X150079572Y-77747093D01*
X150079577Y-77747091D01*
X150222580Y-77658885D01*
X150254466Y-77627000D01*
X150315789Y-77593515D01*
X150385481Y-77598499D01*
X150429828Y-77627000D01*
X150462108Y-77659280D01*
X150462112Y-77659283D01*
X150605204Y-77747544D01*
X150605207Y-77747545D01*
X150605213Y-77747549D01*
X150764815Y-77800436D01*
X150863326Y-77810500D01*
X150863331Y-77810500D01*
X151396669Y-77810500D01*
X151396674Y-77810500D01*
X151495185Y-77800436D01*
X151654787Y-77747549D01*
X151797891Y-77659281D01*
X151916781Y-77540391D01*
X152005049Y-77397287D01*
X152057936Y-77237685D01*
X152068000Y-77139174D01*
X152068000Y-76868306D01*
X152087685Y-76801268D01*
X152104315Y-76780630D01*
X152357013Y-76527931D01*
X152369579Y-76517865D01*
X152369425Y-76517678D01*
X152375437Y-76512704D01*
X152375437Y-76512703D01*
X152375440Y-76512702D01*
X152424690Y-76460255D01*
X152446412Y-76438534D01*
X152450902Y-76432744D01*
X152454684Y-76428314D01*
X152487948Y-76392893D01*
X152498174Y-76374289D01*
X152508847Y-76358041D01*
X152521863Y-76341263D01*
X152541151Y-76296687D01*
X152543724Y-76291436D01*
X152544061Y-76290821D01*
X152567127Y-76248868D01*
X152572404Y-76228308D01*
X152578706Y-76209903D01*
X152587136Y-76190426D01*
X152594735Y-76142445D01*
X152595917Y-76136734D01*
X152608000Y-76089677D01*
X152608000Y-76068454D01*
X152609527Y-76049055D01*
X152610486Y-76043000D01*
X152612847Y-76028095D01*
X152608275Y-75979727D01*
X152608000Y-75973889D01*
X152608000Y-75689335D01*
X154709500Y-75689335D01*
X154712266Y-75705909D01*
X154750429Y-75934616D01*
X154831169Y-76169802D01*
X154831172Y-76169811D01*
X154949233Y-76387968D01*
X154949526Y-76388509D01*
X155102262Y-76584744D01*
X155261744Y-76731557D01*
X155285217Y-76753166D01*
X155493393Y-76889173D01*
X155721118Y-76989063D01*
X155953906Y-77048013D01*
X155962179Y-77050108D01*
X155962181Y-77050108D01*
X155962186Y-77050109D01*
X156095376Y-77061145D01*
X156147933Y-77065500D01*
X156147935Y-77065500D01*
X156272065Y-77065500D01*
X156272067Y-77065500D01*
X156333284Y-77060427D01*
X156457813Y-77050109D01*
X156457816Y-77050108D01*
X156457821Y-77050108D01*
X156698881Y-76989063D01*
X156926607Y-76889173D01*
X157134785Y-76753164D01*
X157317738Y-76584744D01*
X157470474Y-76388509D01*
X157588828Y-76169810D01*
X157669571Y-75934614D01*
X157710500Y-75689335D01*
X157710500Y-75440665D01*
X157669571Y-75195386D01*
X157588828Y-74960190D01*
X157470474Y-74741491D01*
X157317738Y-74545256D01*
X157134785Y-74376836D01*
X157134782Y-74376833D01*
X156926606Y-74240826D01*
X156698881Y-74140936D01*
X156457824Y-74079892D01*
X156457813Y-74079890D01*
X156292548Y-74066197D01*
X156272067Y-74064500D01*
X156147933Y-74064500D01*
X156128521Y-74066108D01*
X155962186Y-74079890D01*
X155962175Y-74079892D01*
X155721118Y-74140936D01*
X155493393Y-74240826D01*
X155285217Y-74376833D01*
X155102261Y-74545257D01*
X154949524Y-74741493D01*
X154831172Y-74960188D01*
X154831169Y-74960197D01*
X154750429Y-75195383D01*
X154730469Y-75315000D01*
X154709500Y-75440665D01*
X154709500Y-75689335D01*
X152608000Y-75689335D01*
X152608000Y-75027507D01*
X152627685Y-74960468D01*
X152666903Y-74921968D01*
X152738656Y-74877712D01*
X152862712Y-74753656D01*
X152954814Y-74604334D01*
X153009999Y-74437797D01*
X153020500Y-74335009D01*
X153020499Y-72984992D01*
X153009999Y-72882203D01*
X152954814Y-72715666D01*
X152862712Y-72566344D01*
X152738656Y-72442288D01*
X152589334Y-72350186D01*
X152422797Y-72295001D01*
X152422795Y-72295000D01*
X152320010Y-72284500D01*
X151594998Y-72284500D01*
X151594980Y-72284501D01*
X151492203Y-72295000D01*
X151492200Y-72295001D01*
X151325668Y-72350185D01*
X151325663Y-72350187D01*
X151176342Y-72442289D01*
X151052289Y-72566342D01*
X150960187Y-72715663D01*
X150960185Y-72715666D01*
X150960186Y-72715666D01*
X150905001Y-72882203D01*
X150905001Y-72882204D01*
X150905000Y-72882204D01*
X150894500Y-72984983D01*
X150894500Y-74335001D01*
X150894501Y-74335018D01*
X150905000Y-74437796D01*
X150905001Y-74437799D01*
X150958634Y-74599651D01*
X150960186Y-74604334D01*
X151052288Y-74753656D01*
X151176344Y-74877712D01*
X151248096Y-74921968D01*
X151294821Y-74973915D01*
X151307000Y-75027507D01*
X151307000Y-75686690D01*
X151287315Y-75753729D01*
X151270682Y-75774370D01*
X151221873Y-75823180D01*
X151160550Y-75856666D01*
X151134191Y-75859500D01*
X150863318Y-75859500D01*
X150764816Y-75869563D01*
X150764815Y-75869564D01*
X150685719Y-75895773D01*
X150605215Y-75922450D01*
X150605204Y-75922455D01*
X150462112Y-76010716D01*
X150462107Y-76010719D01*
X150429827Y-76043000D01*
X150368503Y-76076485D01*
X150298812Y-76071499D01*
X150254467Y-76043000D01*
X150222580Y-76011114D01*
X150079577Y-75922908D01*
X150079572Y-75922906D01*
X149920083Y-75870057D01*
X149821650Y-75860000D01*
X149805000Y-75860000D01*
X149805000Y-77809999D01*
X149288356Y-77809999D01*
X149305000Y-77809998D01*
X149305000Y-77085000D01*
X148617501Y-77085000D01*
X147381153Y-77085000D01*
X147385063Y-77070408D01*
X147405659Y-76835000D01*
X147404079Y-76816946D01*
X147389507Y-76650383D01*
X147387022Y-76621985D01*
X147394455Y-76585000D01*
X148617500Y-76585000D01*
X149305000Y-76585000D01*
X149305000Y-75859999D01*
X149288356Y-75860000D01*
X149189915Y-75870057D01*
X149030427Y-75922906D01*
X149030422Y-75922908D01*
X148887419Y-76011114D01*
X148768614Y-76129919D01*
X148680408Y-76272922D01*
X148680406Y-76272927D01*
X148627557Y-76432416D01*
X148617500Y-76530849D01*
X148617500Y-76585000D01*
X147394455Y-76585000D01*
X147400788Y-76553486D01*
X147422866Y-76523500D01*
X148874549Y-75071818D01*
X148935872Y-75038333D01*
X148962230Y-75035499D01*
X149395002Y-75035499D01*
X149395008Y-75035499D01*
X149497797Y-75024999D01*
X149664334Y-74969814D01*
X149813656Y-74877712D01*
X149937712Y-74753656D01*
X150029814Y-74604334D01*
X150084999Y-74437797D01*
X150095500Y-74335009D01*
X150095499Y-72984992D01*
X150084999Y-72882203D01*
X150029814Y-72715666D01*
X149937712Y-72566344D01*
X149813656Y-72442288D01*
X149664334Y-72350186D01*
X149497797Y-72295001D01*
X149497795Y-72295000D01*
X149395010Y-72284500D01*
X148669998Y-72284500D01*
X148669980Y-72284501D01*
X148567203Y-72295000D01*
X148567200Y-72295001D01*
X148400668Y-72350185D01*
X148400663Y-72350187D01*
X148251342Y-72442289D01*
X148127289Y-72566342D01*
X148035187Y-72715663D01*
X148035185Y-72715666D01*
X148035186Y-72715666D01*
X147980001Y-72882203D01*
X147980001Y-72882204D01*
X147980000Y-72882204D01*
X147969500Y-72984983D01*
X147969499Y-72984996D01*
X147969500Y-73802769D01*
X147949815Y-73869808D01*
X147933181Y-73890450D01*
X147612180Y-74211451D01*
X147550857Y-74244936D01*
X147481165Y-74239952D01*
X147425232Y-74198080D01*
X147400815Y-74132616D01*
X147400499Y-74123770D01*
X147400499Y-73397129D01*
X147400498Y-73397123D01*
X147400497Y-73397116D01*
X147394091Y-73337517D01*
X147392384Y-73332941D01*
X147343797Y-73202671D01*
X147343793Y-73202664D01*
X147257547Y-73087455D01*
X147257544Y-73087452D01*
X147142335Y-73001206D01*
X147142328Y-73001202D01*
X147007482Y-72950908D01*
X147007483Y-72950908D01*
X146947883Y-72944501D01*
X146947881Y-72944500D01*
X146947873Y-72944500D01*
X146947864Y-72944500D01*
X145152129Y-72944500D01*
X145152123Y-72944501D01*
X145092516Y-72950908D01*
X144957671Y-73001202D01*
X144957664Y-73001206D01*
X144842455Y-73087452D01*
X144842452Y-73087455D01*
X144756206Y-73202664D01*
X144756202Y-73202671D01*
X144705908Y-73337517D01*
X144701930Y-73374522D01*
X144699501Y-73397123D01*
X144699500Y-73397135D01*
X144699500Y-75192870D01*
X144699501Y-75192876D01*
X144705908Y-75252483D01*
X144756202Y-75387328D01*
X144756206Y-75387335D01*
X144842452Y-75502544D01*
X144842455Y-75502547D01*
X144957664Y-75588793D01*
X144957671Y-75588797D01*
X145089081Y-75637810D01*
X145145015Y-75679681D01*
X145169432Y-75745145D01*
X145154580Y-75813418D01*
X145133430Y-75841673D01*
X145011503Y-75963600D01*
X144875965Y-76157169D01*
X144875964Y-76157171D01*
X144776098Y-76371335D01*
X144776094Y-76371344D01*
X144714938Y-76599586D01*
X144714936Y-76599596D01*
X144694341Y-76834999D01*
X144694341Y-76835001D01*
X144712977Y-77048013D01*
X144699210Y-77116513D01*
X144677130Y-77146501D01*
X144010451Y-77813181D01*
X143949128Y-77846666D01*
X143922770Y-77849500D01*
X143459345Y-77849500D01*
X143443055Y-77847835D01*
X143443050Y-77847895D01*
X143435860Y-77847265D01*
X143359083Y-77849500D01*
X142406874Y-77849500D01*
X142339835Y-77829815D01*
X142319193Y-77813181D01*
X142308044Y-77802032D01*
X142308040Y-77802029D01*
X142163705Y-77713001D01*
X142163699Y-77712998D01*
X142163697Y-77712997D01*
X142163694Y-77712996D01*
X142002709Y-77659651D01*
X141903352Y-77649500D01*
X141903345Y-77649500D01*
X141767230Y-77649500D01*
X141700191Y-77629815D01*
X141679549Y-77613181D01*
X141660329Y-77593961D01*
X141648549Y-77580330D01*
X141641082Y-77570301D01*
X141634212Y-77561072D01*
X141634210Y-77561070D01*
X141594187Y-77527486D01*
X141590212Y-77523844D01*
X141587290Y-77520922D01*
X141584380Y-77518011D01*
X141558640Y-77497659D01*
X141499809Y-77448294D01*
X141493780Y-77444329D01*
X141493812Y-77444280D01*
X141487453Y-77440228D01*
X141487422Y-77440279D01*
X141481280Y-77436491D01*
X141481278Y-77436490D01*
X141481277Y-77436489D01*
X141442074Y-77418208D01*
X141411658Y-77404024D01*
X141377494Y-77386867D01*
X141343033Y-77369560D01*
X141343031Y-77369559D01*
X141343030Y-77369559D01*
X141336245Y-77367089D01*
X141336265Y-77367033D01*
X141329149Y-77364559D01*
X141329131Y-77364615D01*
X141322271Y-77362342D01*
X141294441Y-77356596D01*
X141247034Y-77346807D01*
X141198072Y-77335203D01*
X141172319Y-77329099D01*
X141165147Y-77328261D01*
X141165153Y-77328201D01*
X141157655Y-77327435D01*
X141157650Y-77327495D01*
X141150460Y-77326865D01*
X141073683Y-77329100D01*
X140024801Y-77329100D01*
X139957762Y-77309415D01*
X139912007Y-77256611D01*
X139904745Y-77230138D01*
X139903776Y-77230368D01*
X139901992Y-77222820D01*
X139851697Y-77087971D01*
X139851693Y-77087964D01*
X139794011Y-77010911D01*
X139769593Y-76945447D01*
X139784444Y-76877174D01*
X139794011Y-76862289D01*
X139851693Y-76785235D01*
X139851692Y-76785235D01*
X139851696Y-76785231D01*
X139901991Y-76650383D01*
X139901991Y-76650381D01*
X139903774Y-76642838D01*
X139906239Y-76643420D01*
X139928261Y-76590280D01*
X139985659Y-76550440D01*
X140024801Y-76544100D01*
X141172695Y-76544100D01*
X141190665Y-76545409D01*
X141214423Y-76548889D01*
X141266468Y-76544335D01*
X141271870Y-76544100D01*
X141280104Y-76544100D01*
X141280109Y-76544100D01*
X141307317Y-76540919D01*
X141314523Y-76540499D01*
X141738338Y-76540499D01*
X141738344Y-76540499D01*
X141738352Y-76540498D01*
X141738355Y-76540498D01*
X141792760Y-76534940D01*
X141837708Y-76530349D01*
X141998697Y-76477003D01*
X142143044Y-76387968D01*
X142152668Y-76378343D01*
X142213987Y-76344856D01*
X142283679Y-76349835D01*
X142328034Y-76378339D01*
X142337267Y-76387572D01*
X142337271Y-76387575D01*
X142481507Y-76476542D01*
X142481518Y-76476547D01*
X142642393Y-76529855D01*
X142741683Y-76539999D01*
X142765000Y-76539998D01*
X142765000Y-75815000D01*
X143265000Y-75815000D01*
X143265000Y-76539999D01*
X143288308Y-76539999D01*
X143288322Y-76539998D01*
X143387607Y-76529855D01*
X143548481Y-76476547D01*
X143548492Y-76476542D01*
X143692728Y-76387575D01*
X143692732Y-76387572D01*
X143812572Y-76267732D01*
X143812575Y-76267728D01*
X143901542Y-76123492D01*
X143901547Y-76123481D01*
X143954855Y-75962606D01*
X143964999Y-75863322D01*
X143965000Y-75863309D01*
X143965000Y-75815000D01*
X143265000Y-75815000D01*
X142765000Y-75815000D01*
X142765000Y-74590000D01*
X143265000Y-74590000D01*
X143265000Y-75315000D01*
X143964999Y-75315000D01*
X143964999Y-75266692D01*
X143964998Y-75266677D01*
X143954855Y-75167392D01*
X143901547Y-75006518D01*
X143901542Y-75006507D01*
X143812575Y-74862271D01*
X143812572Y-74862267D01*
X143692732Y-74742427D01*
X143692728Y-74742424D01*
X143548492Y-74653457D01*
X143548481Y-74653452D01*
X143387606Y-74600144D01*
X143288322Y-74590000D01*
X143265000Y-74590000D01*
X142765000Y-74590000D01*
X142765000Y-74589999D01*
X142741693Y-74590000D01*
X142741674Y-74590001D01*
X142642392Y-74600144D01*
X142481518Y-74653452D01*
X142481507Y-74653457D01*
X142337271Y-74742424D01*
X142337265Y-74742428D01*
X142328031Y-74751663D01*
X142266707Y-74785146D01*
X142197015Y-74780159D01*
X142152672Y-74751660D01*
X142143044Y-74742032D01*
X142143040Y-74742029D01*
X141998705Y-74653001D01*
X141998699Y-74652998D01*
X141998697Y-74652997D01*
X141966126Y-74642204D01*
X141837709Y-74599651D01*
X141738352Y-74589500D01*
X141601665Y-74589500D01*
X141534626Y-74569815D01*
X141488871Y-74517011D01*
X141478927Y-74447853D01*
X141507952Y-74384297D01*
X141562659Y-74347795D01*
X141601834Y-74334814D01*
X141751156Y-74242712D01*
X141875212Y-74118656D01*
X141967314Y-73969334D01*
X142022499Y-73802797D01*
X142024123Y-73786898D01*
X142050518Y-73722207D01*
X142107698Y-73682055D01*
X142147481Y-73675500D01*
X142369932Y-73675500D01*
X142435904Y-73694506D01*
X142525477Y-73750789D01*
X142525481Y-73750790D01*
X142695737Y-73810366D01*
X142695743Y-73810367D01*
X142695745Y-73810368D01*
X142695746Y-73810368D01*
X142695750Y-73810369D01*
X142874996Y-73830565D01*
X142875000Y-73830565D01*
X142875004Y-73830565D01*
X143054249Y-73810369D01*
X143054252Y-73810368D01*
X143054255Y-73810368D01*
X143224522Y-73750789D01*
X143377262Y-73654816D01*
X143504816Y-73527262D01*
X143600789Y-73374522D01*
X143660368Y-73204255D01*
X143660369Y-73204249D01*
X143680565Y-73025003D01*
X143680565Y-73024996D01*
X143660369Y-72845750D01*
X143660368Y-72845745D01*
X143600788Y-72675476D01*
X143516805Y-72541819D01*
X143504816Y-72522738D01*
X143377262Y-72395184D01*
X143314096Y-72355494D01*
X143224523Y-72299211D01*
X143054254Y-72239631D01*
X143054249Y-72239630D01*
X142875004Y-72219435D01*
X142874996Y-72219435D01*
X142695750Y-72239630D01*
X142695737Y-72239633D01*
X142525481Y-72299209D01*
X142525477Y-72299210D01*
X142435904Y-72355494D01*
X142369932Y-72374500D01*
X142147481Y-72374500D01*
X142080442Y-72354815D01*
X142034687Y-72302011D01*
X142024123Y-72263101D01*
X142022499Y-72247203D01*
X142022498Y-72247200D01*
X142019509Y-72238181D01*
X141967314Y-72080666D01*
X141875212Y-71931344D01*
X141751156Y-71807288D01*
X141601834Y-71715186D01*
X141435297Y-71660001D01*
X141435295Y-71660000D01*
X141332510Y-71649500D01*
X140607498Y-71649500D01*
X140607480Y-71649501D01*
X140504703Y-71660000D01*
X140504700Y-71660001D01*
X140338168Y-71715185D01*
X140338163Y-71715187D01*
X140188842Y-71807289D01*
X140064789Y-71931342D01*
X139972687Y-72080663D01*
X139972685Y-72080668D01*
X139944849Y-72164670D01*
X139917501Y-72247203D01*
X139917501Y-72247204D01*
X139917500Y-72247204D01*
X139907000Y-72349983D01*
X139907000Y-73700001D01*
X139907001Y-73700018D01*
X139917500Y-73802796D01*
X139917501Y-73802799D01*
X139939706Y-73869808D01*
X139972686Y-73969334D01*
X140064788Y-74118656D01*
X140188844Y-74242712D01*
X140338166Y-74334814D01*
X140504703Y-74389999D01*
X140607491Y-74400500D01*
X140924867Y-74400499D01*
X140991905Y-74420183D01*
X141037660Y-74472987D01*
X141047604Y-74542146D01*
X141018579Y-74605701D01*
X140963872Y-74642204D01*
X140931309Y-74652994D01*
X140931294Y-74653001D01*
X140786959Y-74742029D01*
X140786955Y-74742032D01*
X140667032Y-74861955D01*
X140667029Y-74861959D01*
X140591632Y-74984197D01*
X140539684Y-75030922D01*
X140486094Y-75043100D01*
X140024801Y-75043100D01*
X139957762Y-75023415D01*
X139912007Y-74970611D01*
X139904745Y-74944138D01*
X139903776Y-74944368D01*
X139901992Y-74936820D01*
X139851697Y-74801971D01*
X139851693Y-74801964D01*
X139765447Y-74686755D01*
X139765444Y-74686752D01*
X139650235Y-74600506D01*
X139650228Y-74600502D01*
X139515382Y-74550208D01*
X139515383Y-74550208D01*
X139455783Y-74543801D01*
X139455781Y-74543800D01*
X139455773Y-74543800D01*
X139455765Y-74543800D01*
X138775252Y-74543800D01*
X138708213Y-74524115D01*
X138662458Y-74471311D01*
X138652514Y-74402153D01*
X138681539Y-74338597D01*
X138710156Y-74314261D01*
X138719189Y-74308689D01*
X138826156Y-74242712D01*
X138950212Y-74118656D01*
X139042314Y-73969334D01*
X139097499Y-73802797D01*
X139108000Y-73700009D01*
X139107999Y-72349992D01*
X139102811Y-72299209D01*
X139097499Y-72247203D01*
X139097498Y-72247200D01*
X139094509Y-72238181D01*
X139042314Y-72080666D01*
X138950212Y-71931344D01*
X138826156Y-71807288D01*
X138676834Y-71715186D01*
X138510297Y-71660001D01*
X138510295Y-71660000D01*
X138407510Y-71649500D01*
X137682498Y-71649500D01*
X137682480Y-71649501D01*
X137579703Y-71660000D01*
X137579700Y-71660001D01*
X137413168Y-71715185D01*
X137413163Y-71715187D01*
X137263842Y-71807289D01*
X137139789Y-71931342D01*
X137047687Y-72080663D01*
X137047685Y-72080668D01*
X137011621Y-72189504D01*
X136971848Y-72246949D01*
X136907333Y-72273772D01*
X136893915Y-72274500D01*
X135998230Y-72274500D01*
X135931191Y-72254815D01*
X135910549Y-72238181D01*
X134941729Y-71269361D01*
X134929949Y-71255730D01*
X134922482Y-71245701D01*
X134915612Y-71236472D01*
X134915610Y-71236470D01*
X134875587Y-71202886D01*
X134871612Y-71199244D01*
X134868690Y-71196322D01*
X134865780Y-71193411D01*
X134840040Y-71173059D01*
X134781209Y-71123694D01*
X134775180Y-71119729D01*
X134775212Y-71119680D01*
X134768853Y-71115628D01*
X134768822Y-71115679D01*
X134762680Y-71111891D01*
X134762678Y-71111890D01*
X134762677Y-71111889D01*
X134723474Y-71093608D01*
X134693058Y-71079424D01*
X134658894Y-71062267D01*
X134624433Y-71044960D01*
X134624431Y-71044959D01*
X134624430Y-71044959D01*
X134617645Y-71042489D01*
X134617665Y-71042433D01*
X134610549Y-71039959D01*
X134610531Y-71040015D01*
X134603671Y-71037742D01*
X134575841Y-71031996D01*
X134528434Y-71022207D01*
X134479472Y-71010603D01*
X134453719Y-71004499D01*
X134446547Y-71003661D01*
X134446553Y-71003601D01*
X134439055Y-71002835D01*
X134439050Y-71002895D01*
X134431860Y-71002265D01*
X134355083Y-71004500D01*
X127698705Y-71004500D01*
X127680735Y-71003191D01*
X127656972Y-70999710D01*
X127612512Y-71003601D01*
X127604931Y-71004264D01*
X127599530Y-71004500D01*
X127591289Y-71004500D01*
X127569579Y-71007037D01*
X127558724Y-71008306D01*
X127543419Y-71009645D01*
X127482199Y-71015001D01*
X127475132Y-71016460D01*
X127475120Y-71016404D01*
X127467763Y-71018035D01*
X127467777Y-71018092D01*
X127460743Y-71019759D01*
X127388575Y-71046025D01*
X127315675Y-71070181D01*
X127309126Y-71073236D01*
X127309101Y-71073183D01*
X127302308Y-71076471D01*
X127302334Y-71076523D01*
X127295880Y-71079764D01*
X127231708Y-71121971D01*
X127166347Y-71162285D01*
X127160683Y-71166765D01*
X127160647Y-71166719D01*
X127154798Y-71171484D01*
X127154835Y-71171528D01*
X127149310Y-71176164D01*
X127096597Y-71232035D01*
X125244358Y-73084272D01*
X125230729Y-73096051D01*
X125211468Y-73110390D01*
X125177898Y-73150397D01*
X125174253Y-73154376D01*
X125168409Y-73160222D01*
X125148059Y-73185959D01*
X125098695Y-73244789D01*
X125094729Y-73250819D01*
X125094682Y-73250788D01*
X125090630Y-73257147D01*
X125090679Y-73257177D01*
X125086889Y-73263321D01*
X125054424Y-73332941D01*
X125019960Y-73401566D01*
X125017488Y-73408357D01*
X125017432Y-73408336D01*
X125014960Y-73415450D01*
X125015015Y-73415469D01*
X125012742Y-73422327D01*
X125006711Y-73451537D01*
X124997207Y-73497565D01*
X124984001Y-73553284D01*
X124979498Y-73572286D01*
X124978661Y-73579454D01*
X124978601Y-73579447D01*
X124977835Y-73586945D01*
X124977895Y-73586951D01*
X124977265Y-73594140D01*
X124979500Y-73670916D01*
X124979500Y-77159657D01*
X124959815Y-77226696D01*
X124907011Y-77272451D01*
X124837853Y-77282395D01*
X124774297Y-77253370D01*
X124736523Y-77194592D01*
X124735725Y-77191750D01*
X124691405Y-77026344D01*
X124691404Y-77026343D01*
X124691403Y-77026337D01*
X124591535Y-76812171D01*
X124572675Y-76785235D01*
X124455994Y-76618597D01*
X124288902Y-76451506D01*
X124288895Y-76451501D01*
X124270376Y-76438534D01*
X124250021Y-76424281D01*
X124095334Y-76315967D01*
X124095330Y-76315965D01*
X124053988Y-76296687D01*
X123881163Y-76216097D01*
X123881159Y-76216096D01*
X123881155Y-76216094D01*
X123652913Y-76154938D01*
X123652903Y-76154936D01*
X123417501Y-76134341D01*
X123417499Y-76134341D01*
X123182096Y-76154936D01*
X123182086Y-76154938D01*
X122953844Y-76216094D01*
X122953835Y-76216098D01*
X122739671Y-76315964D01*
X122739669Y-76315965D01*
X122546096Y-76451506D01*
X122505179Y-76492423D01*
X122443856Y-76525908D01*
X122374164Y-76520922D01*
X122329818Y-76492422D01*
X122288902Y-76451506D01*
X122288895Y-76451501D01*
X122270376Y-76438534D01*
X122250021Y-76424281D01*
X122095334Y-76315967D01*
X122095330Y-76315965D01*
X122053988Y-76296687D01*
X121881163Y-76216097D01*
X121881159Y-76216096D01*
X121881155Y-76216094D01*
X121652913Y-76154938D01*
X121652903Y-76154936D01*
X121417501Y-76134341D01*
X121417499Y-76134341D01*
X121182096Y-76154936D01*
X121182086Y-76154938D01*
X120953844Y-76216094D01*
X120953835Y-76216098D01*
X120739671Y-76315964D01*
X120739669Y-76315965D01*
X120546097Y-76451505D01*
X120379005Y-76618597D01*
X120243465Y-76812169D01*
X120243464Y-76812171D01*
X120143598Y-77026335D01*
X120143594Y-77026344D01*
X120082438Y-77254586D01*
X120082436Y-77254596D01*
X120061841Y-77489999D01*
X120061841Y-77490000D01*
X120082436Y-77725403D01*
X120082438Y-77725413D01*
X120143594Y-77953655D01*
X120143596Y-77953659D01*
X120143597Y-77953663D01*
X120174740Y-78020449D01*
X120243465Y-78167830D01*
X120243467Y-78167834D01*
X120324603Y-78283707D01*
X120379005Y-78361401D01*
X120546099Y-78528495D01*
X120703531Y-78638730D01*
X120747155Y-78693307D01*
X120754348Y-78762806D01*
X120722826Y-78825160D01*
X120703530Y-78841880D01*
X120656126Y-78875072D01*
X120656125Y-78875072D01*
X121187950Y-79406897D01*
X121221435Y-79468220D01*
X121216451Y-79537912D01*
X121174579Y-79593845D01*
X121157755Y-79604062D01*
X121155448Y-79605634D01*
X121053795Y-79699955D01*
X121053790Y-79699961D01*
X121032145Y-79737451D01*
X120981578Y-79785666D01*
X120912971Y-79798888D01*
X120848106Y-79772920D01*
X120837078Y-79763131D01*
X120302572Y-79228625D01*
X120243901Y-79312419D01*
X120144070Y-79526507D01*
X120144066Y-79526516D01*
X120082932Y-79754673D01*
X120082930Y-79754684D01*
X120062343Y-79989998D01*
X120062343Y-79990001D01*
X120082930Y-80225315D01*
X120082932Y-80225326D01*
X120144066Y-80453483D01*
X120144070Y-80453492D01*
X120243900Y-80667579D01*
X120243902Y-80667583D01*
X120302572Y-80751373D01*
X120302573Y-80751373D01*
X120835197Y-80218748D01*
X120896520Y-80185263D01*
X120966211Y-80190247D01*
X121019825Y-80229116D01*
X121101085Y-80331012D01*
X121101086Y-80331013D01*
X121173026Y-80380061D01*
X121217328Y-80434089D01*
X121225388Y-80503492D01*
X121194645Y-80566235D01*
X121190856Y-80570195D01*
X120656125Y-81104925D01*
X120739921Y-81163599D01*
X120954007Y-81263429D01*
X120954016Y-81263433D01*
X121182173Y-81324567D01*
X121182184Y-81324569D01*
X121417498Y-81345157D01*
X121417502Y-81345157D01*
X121652815Y-81324569D01*
X121652826Y-81324567D01*
X121880983Y-81263433D01*
X121880992Y-81263430D01*
X122071580Y-81174557D01*
X122140657Y-81164065D01*
X122204441Y-81192585D01*
X122209208Y-81196988D01*
X122325164Y-81283793D01*
X122325171Y-81283797D01*
X122460017Y-81334091D01*
X122460016Y-81334091D01*
X122466944Y-81334835D01*
X122519627Y-81340500D01*
X124315372Y-81340499D01*
X124374983Y-81334091D01*
X124509831Y-81283796D01*
X124625046Y-81197546D01*
X124711296Y-81082331D01*
X124761591Y-80947483D01*
X124768000Y-80887873D01*
X124767999Y-79752228D01*
X124787684Y-79685190D01*
X124804313Y-79664553D01*
X126215642Y-78253224D01*
X126229271Y-78241447D01*
X126248530Y-78227110D01*
X126265505Y-78206879D01*
X126282101Y-78187101D01*
X126285761Y-78183106D01*
X126291590Y-78177278D01*
X126311941Y-78151539D01*
X126332112Y-78127500D01*
X126361302Y-78092714D01*
X126361306Y-78092705D01*
X126365274Y-78086675D01*
X126365325Y-78086708D01*
X126369372Y-78080356D01*
X126369320Y-78080324D01*
X126373112Y-78074175D01*
X126405575Y-78004558D01*
X126440036Y-77935940D01*
X126440040Y-77935933D01*
X126440042Y-77935921D01*
X126442509Y-77929146D01*
X126442567Y-77929167D01*
X126445043Y-77922046D01*
X126444986Y-77922028D01*
X126447257Y-77915173D01*
X126462792Y-77839934D01*
X126471776Y-77802029D01*
X126480500Y-77765221D01*
X126480500Y-77765210D01*
X126481338Y-77758048D01*
X126481398Y-77758055D01*
X126482164Y-77750555D01*
X126482105Y-77750550D01*
X126482734Y-77743360D01*
X126480500Y-77666582D01*
X126480500Y-74022229D01*
X126500185Y-73955190D01*
X126516815Y-73934552D01*
X126707820Y-73743547D01*
X126769142Y-73710063D01*
X126838834Y-73715047D01*
X126894767Y-73756919D01*
X126919184Y-73822383D01*
X126919500Y-73831229D01*
X126919500Y-75192870D01*
X126919501Y-75192876D01*
X126925908Y-75252483D01*
X126976202Y-75387328D01*
X126976206Y-75387335D01*
X127062452Y-75502544D01*
X127062455Y-75502547D01*
X127177664Y-75588793D01*
X127177671Y-75588797D01*
X127309081Y-75637810D01*
X127365015Y-75679681D01*
X127389432Y-75745145D01*
X127374580Y-75813418D01*
X127353430Y-75841673D01*
X127231503Y-75963600D01*
X127095965Y-76157169D01*
X127095964Y-76157171D01*
X126996098Y-76371335D01*
X126996094Y-76371344D01*
X126934938Y-76599586D01*
X126934936Y-76599596D01*
X126914341Y-76834999D01*
X126914341Y-76835000D01*
X126934936Y-77070403D01*
X126934938Y-77070413D01*
X126996094Y-77298655D01*
X126996096Y-77298659D01*
X126996097Y-77298663D01*
X127065871Y-77448294D01*
X127095965Y-77512830D01*
X127095967Y-77512834D01*
X127231501Y-77706395D01*
X127231506Y-77706402D01*
X127398597Y-77873493D01*
X127398603Y-77873498D01*
X127584158Y-78003425D01*
X127627783Y-78058002D01*
X127634977Y-78127500D01*
X127603454Y-78189855D01*
X127584158Y-78206575D01*
X127398597Y-78336505D01*
X127231505Y-78503597D01*
X127095965Y-78697169D01*
X127095964Y-78697171D01*
X126996098Y-78911335D01*
X126996094Y-78911344D01*
X126934938Y-79139586D01*
X126934936Y-79139596D01*
X126914341Y-79374999D01*
X126914341Y-79375000D01*
X126934936Y-79610403D01*
X126934938Y-79610413D01*
X126996094Y-79838655D01*
X126996096Y-79838659D01*
X126996097Y-79838663D01*
X127065408Y-79987301D01*
X127095965Y-80052830D01*
X127095967Y-80052834D01*
X127204281Y-80207521D01*
X127216740Y-80225315D01*
X127231501Y-80246395D01*
X127231506Y-80246402D01*
X127398597Y-80413493D01*
X127398603Y-80413498D01*
X127584158Y-80543425D01*
X127627783Y-80598002D01*
X127634977Y-80667500D01*
X127603454Y-80729855D01*
X127584158Y-80746575D01*
X127398597Y-80876505D01*
X127231505Y-81043597D01*
X127095965Y-81237169D01*
X127095964Y-81237171D01*
X126996098Y-81451335D01*
X126996094Y-81451344D01*
X126934938Y-81679586D01*
X126934936Y-81679596D01*
X126914341Y-81914999D01*
X126914341Y-81915000D01*
X126934936Y-82150403D01*
X126934938Y-82150413D01*
X126996094Y-82378655D01*
X126996096Y-82378659D01*
X126996097Y-82378663D01*
X127072811Y-82543176D01*
X127095965Y-82592830D01*
X127095967Y-82592834D01*
X127173476Y-82703527D01*
X127228848Y-82782607D01*
X127231501Y-82786395D01*
X127231506Y-82786402D01*
X127398597Y-82953493D01*
X127398603Y-82953498D01*
X127584158Y-83083425D01*
X127627783Y-83138002D01*
X127634977Y-83207500D01*
X127603454Y-83269855D01*
X127584158Y-83286575D01*
X127398597Y-83416505D01*
X127231505Y-83583597D01*
X127095965Y-83777169D01*
X127095964Y-83777171D01*
X126996098Y-83991335D01*
X126996094Y-83991344D01*
X126934938Y-84219586D01*
X126934936Y-84219596D01*
X126914341Y-84454999D01*
X126914341Y-84455000D01*
X126934936Y-84690403D01*
X126934938Y-84690413D01*
X126996094Y-84918655D01*
X126996096Y-84918659D01*
X126996097Y-84918663D01*
X127059357Y-85054324D01*
X127095965Y-85132830D01*
X127095967Y-85132834D01*
X127197276Y-85277517D01*
X127231505Y-85326401D01*
X127398599Y-85493495D01*
X127442462Y-85524208D01*
X127592165Y-85629032D01*
X127592167Y-85629033D01*
X127592170Y-85629035D01*
X127806337Y-85728903D01*
X128034592Y-85790063D01*
X128222918Y-85806539D01*
X128269999Y-85810659D01*
X128270000Y-85810659D01*
X128270001Y-85810659D01*
X128309234Y-85807226D01*
X128505408Y-85790063D01*
X128733663Y-85728903D01*
X128947830Y-85629035D01*
X129141401Y-85493495D01*
X129308495Y-85326401D01*
X129444035Y-85132830D01*
X129543903Y-84918663D01*
X129605063Y-84690408D01*
X129625659Y-84455000D01*
X129605063Y-84219592D01*
X129543903Y-83991337D01*
X129444035Y-83777171D01*
X129390793Y-83701132D01*
X129308494Y-83583597D01*
X129141402Y-83416506D01*
X129141396Y-83416501D01*
X128955842Y-83286575D01*
X128912217Y-83231998D01*
X128905023Y-83162500D01*
X128936546Y-83100145D01*
X128955842Y-83083425D01*
X129038636Y-83025452D01*
X129141401Y-82953495D01*
X129308495Y-82786401D01*
X129444035Y-82592830D01*
X129543903Y-82378663D01*
X129605063Y-82150408D01*
X129625659Y-81915000D01*
X129605063Y-81679592D01*
X129548942Y-81470144D01*
X129543905Y-81451344D01*
X129543904Y-81451343D01*
X129543903Y-81451337D01*
X129444035Y-81237171D01*
X129433606Y-81222276D01*
X129308494Y-81043597D01*
X129141402Y-80876506D01*
X129141401Y-80876505D01*
X129019746Y-80791321D01*
X128955841Y-80746574D01*
X128912216Y-80691997D01*
X128905024Y-80622498D01*
X128936546Y-80560144D01*
X128955836Y-80543428D01*
X129141401Y-80413495D01*
X129308495Y-80246401D01*
X129440506Y-80057870D01*
X130334900Y-80057870D01*
X130334901Y-80057876D01*
X130341308Y-80117483D01*
X130391602Y-80252328D01*
X130391606Y-80252335D01*
X130477852Y-80367544D01*
X130477855Y-80367547D01*
X130593064Y-80453793D01*
X130593071Y-80453797D01*
X130727917Y-80504091D01*
X130727916Y-80504091D01*
X130734844Y-80504835D01*
X130787527Y-80510500D01*
X133423272Y-80510499D01*
X133482883Y-80504091D01*
X133617731Y-80453796D01*
X133732946Y-80367546D01*
X133819196Y-80252331D01*
X133869491Y-80117483D01*
X133875900Y-80057873D01*
X133875899Y-76152128D01*
X133869491Y-76092517D01*
X133863511Y-76076485D01*
X133819197Y-75957671D01*
X133819193Y-75957664D01*
X133732947Y-75842455D01*
X133732944Y-75842452D01*
X133617735Y-75756206D01*
X133617728Y-75756202D01*
X133482882Y-75705908D01*
X133482883Y-75705908D01*
X133423283Y-75699501D01*
X133423281Y-75699500D01*
X133423273Y-75699500D01*
X133423264Y-75699500D01*
X130787529Y-75699500D01*
X130787523Y-75699501D01*
X130727916Y-75705908D01*
X130593071Y-75756202D01*
X130593064Y-75756206D01*
X130477855Y-75842452D01*
X130477852Y-75842455D01*
X130391606Y-75957664D01*
X130391602Y-75957671D01*
X130341308Y-76092517D01*
X130336812Y-76134341D01*
X130334901Y-76152123D01*
X130334900Y-76152135D01*
X130334900Y-80057870D01*
X129440506Y-80057870D01*
X129444035Y-80052830D01*
X129543903Y-79838663D01*
X129605063Y-79610408D01*
X129625659Y-79375000D01*
X129623515Y-79350500D01*
X129613136Y-79231862D01*
X129605063Y-79139592D01*
X129543903Y-78911337D01*
X129444035Y-78697171D01*
X129441330Y-78693307D01*
X129308494Y-78503597D01*
X129141402Y-78336506D01*
X129141396Y-78336501D01*
X128955842Y-78206575D01*
X128912217Y-78151998D01*
X128905023Y-78082500D01*
X128936546Y-78020145D01*
X128955842Y-78003425D01*
X129061923Y-77929146D01*
X129141401Y-77873495D01*
X129308495Y-77706401D01*
X129444035Y-77512830D01*
X129543903Y-77298663D01*
X129605063Y-77070408D01*
X129625659Y-76835000D01*
X129605063Y-76599592D01*
X129543903Y-76371337D01*
X129444035Y-76157171D01*
X129442471Y-76154938D01*
X129308496Y-75963600D01*
X129267346Y-75922450D01*
X129186567Y-75841671D01*
X129153084Y-75780351D01*
X129158068Y-75710659D01*
X129199939Y-75654725D01*
X129230915Y-75637810D01*
X129362331Y-75588796D01*
X129477546Y-75502546D01*
X129563796Y-75387331D01*
X129614091Y-75252483D01*
X129620500Y-75192873D01*
X129620499Y-73397128D01*
X129614091Y-73337517D01*
X129612384Y-73332941D01*
X129563797Y-73202671D01*
X129563793Y-73202664D01*
X129477547Y-73087455D01*
X129477544Y-73087452D01*
X129362335Y-73001206D01*
X129362328Y-73001202D01*
X129227482Y-72950908D01*
X129227483Y-72950908D01*
X129167883Y-72944501D01*
X129167881Y-72944500D01*
X129167873Y-72944500D01*
X129167865Y-72944500D01*
X127806229Y-72944500D01*
X127739190Y-72924815D01*
X127693435Y-72872011D01*
X127683491Y-72802853D01*
X127712516Y-72739297D01*
X127718548Y-72732819D01*
X127731368Y-72720000D01*
X127909548Y-72541819D01*
X127970872Y-72508334D01*
X127997230Y-72505500D01*
X134003770Y-72505500D01*
X134070809Y-72525185D01*
X134091451Y-72541819D01*
X135060270Y-73510638D01*
X135072051Y-73524270D01*
X135086389Y-73543529D01*
X135086390Y-73543530D01*
X135126411Y-73577112D01*
X135130400Y-73580768D01*
X136864481Y-75314849D01*
X136897966Y-75376172D01*
X136900800Y-75402530D01*
X136900800Y-76590770D01*
X136900801Y-76590776D01*
X136907208Y-76650383D01*
X136957502Y-76785228D01*
X136957506Y-76785235D01*
X137015189Y-76862289D01*
X137039607Y-76927753D01*
X137024756Y-76996026D01*
X137015189Y-77010911D01*
X136957506Y-77087964D01*
X136957502Y-77087971D01*
X136907208Y-77222817D01*
X136900801Y-77282416D01*
X136900800Y-77282435D01*
X136900800Y-78216668D01*
X136881115Y-78283707D01*
X136864481Y-78304349D01*
X135210360Y-79958469D01*
X135210356Y-79958475D01*
X127784358Y-87384472D01*
X127770729Y-87396251D01*
X127751468Y-87410590D01*
X127717898Y-87450597D01*
X127714253Y-87454576D01*
X127708409Y-87460422D01*
X127688059Y-87486159D01*
X127638695Y-87544989D01*
X127634729Y-87551019D01*
X127634682Y-87550988D01*
X127630630Y-87557347D01*
X127630679Y-87557377D01*
X127626889Y-87563520D01*
X127618582Y-87581335D01*
X127572407Y-87633772D01*
X127518806Y-87652283D01*
X127492201Y-87655001D01*
X127325668Y-87710185D01*
X127325663Y-87710187D01*
X127176342Y-87802289D01*
X127052289Y-87926342D01*
X126960187Y-88075663D01*
X126960185Y-88075668D01*
X126948498Y-88110937D01*
X126905001Y-88242203D01*
X126905001Y-88242204D01*
X126905000Y-88242204D01*
X126894500Y-88344983D01*
X126894499Y-88344996D01*
X126894499Y-88970269D01*
X126874814Y-89037309D01*
X126858180Y-89057950D01*
X125764358Y-90151772D01*
X125750729Y-90163551D01*
X125731468Y-90177890D01*
X125697898Y-90217897D01*
X125694253Y-90221876D01*
X125688409Y-90227722D01*
X125668059Y-90253459D01*
X125618695Y-90312289D01*
X125614729Y-90318319D01*
X125614682Y-90318288D01*
X125610630Y-90324647D01*
X125610679Y-90324677D01*
X125606889Y-90330821D01*
X125574424Y-90400441D01*
X125539960Y-90469066D01*
X125537488Y-90475857D01*
X125537432Y-90475836D01*
X125534960Y-90482950D01*
X125535015Y-90482969D01*
X125532742Y-90489827D01*
X125530141Y-90502427D01*
X125517207Y-90565065D01*
X125510124Y-90594952D01*
X125499498Y-90639786D01*
X125498661Y-90646954D01*
X125498601Y-90646947D01*
X125497835Y-90654445D01*
X125497895Y-90654451D01*
X125497265Y-90661640D01*
X125499500Y-90738416D01*
X125499500Y-92522769D01*
X125479815Y-92589808D01*
X125463181Y-92610450D01*
X124816937Y-93256693D01*
X124780876Y-93279362D01*
X124781756Y-93281188D01*
X124775478Y-93284211D01*
X124622737Y-93380184D01*
X124495184Y-93507737D01*
X124399211Y-93660476D01*
X124339631Y-93830745D01*
X124339630Y-93830750D01*
X124319435Y-94009996D01*
X124319435Y-94010003D01*
X124339630Y-94189249D01*
X124339631Y-94189254D01*
X124399211Y-94359523D01*
X124485808Y-94497341D01*
X124504808Y-94564578D01*
X124484440Y-94631413D01*
X124431172Y-94676627D01*
X124361916Y-94685864D01*
X124331569Y-94677115D01*
X124330027Y-94676448D01*
X124306669Y-94666339D01*
X124301456Y-94663786D01*
X124258868Y-94640373D01*
X124258865Y-94640372D01*
X124238301Y-94635092D01*
X124219896Y-94628790D01*
X124200427Y-94620365D01*
X124200421Y-94620363D01*
X124152451Y-94612766D01*
X124146736Y-94611582D01*
X124130272Y-94607355D01*
X124099680Y-94599500D01*
X124099677Y-94599500D01*
X124078455Y-94599500D01*
X124059055Y-94597973D01*
X124056561Y-94597578D01*
X124052511Y-94596936D01*
X124038096Y-94594653D01*
X124038095Y-94594653D01*
X124014286Y-94596903D01*
X123989730Y-94599225D01*
X123983892Y-94599500D01*
X122759499Y-94599500D01*
X122692460Y-94579815D01*
X122646705Y-94527011D01*
X122635499Y-94475500D01*
X122635499Y-94352129D01*
X122635498Y-94352123D01*
X122635497Y-94352116D01*
X122629091Y-94292517D01*
X122617756Y-94262127D01*
X122578797Y-94157671D01*
X122578793Y-94157664D01*
X122492547Y-94042455D01*
X122492544Y-94042452D01*
X122377335Y-93956206D01*
X122377328Y-93956202D01*
X122245917Y-93907189D01*
X122189983Y-93865318D01*
X122165566Y-93799853D01*
X122180418Y-93731580D01*
X122201563Y-93703332D01*
X122323495Y-93581401D01*
X122459035Y-93387830D01*
X122558903Y-93173663D01*
X122620063Y-92945408D01*
X122640659Y-92710000D01*
X122640205Y-92704816D01*
X122628993Y-92576662D01*
X122620063Y-92474592D01*
X122558903Y-92246337D01*
X122459035Y-92032171D01*
X122445697Y-92013121D01*
X122323494Y-91838597D01*
X122156402Y-91671506D01*
X122156401Y-91671505D01*
X121970405Y-91541269D01*
X121926781Y-91486692D01*
X121919588Y-91417193D01*
X121951110Y-91354839D01*
X121970405Y-91338119D01*
X122156082Y-91208105D01*
X122323105Y-91041082D01*
X122458600Y-90847578D01*
X122558429Y-90633492D01*
X122558432Y-90633486D01*
X122615636Y-90420000D01*
X121898347Y-90420000D01*
X121831308Y-90400315D01*
X121785553Y-90347511D01*
X121775609Y-90278353D01*
X121779369Y-90261067D01*
X121781603Y-90253459D01*
X121785000Y-90241889D01*
X121785000Y-90098111D01*
X121779368Y-90078933D01*
X121779370Y-90009064D01*
X121817145Y-89950286D01*
X121880701Y-89921262D01*
X121898347Y-89920000D01*
X122615636Y-89920000D01*
X122615635Y-89919999D01*
X122558432Y-89706513D01*
X122558429Y-89706507D01*
X122458600Y-89492422D01*
X122458599Y-89492420D01*
X122323113Y-89298926D01*
X122323108Y-89298920D01*
X122156082Y-89131894D01*
X121962578Y-88996399D01*
X121748492Y-88896570D01*
X121748486Y-88896567D01*
X121535000Y-88839364D01*
X121535000Y-89557698D01*
X121515315Y-89624737D01*
X121462511Y-89670492D01*
X121393355Y-89680436D01*
X121320766Y-89670000D01*
X121320763Y-89670000D01*
X121249237Y-89670000D01*
X121249233Y-89670000D01*
X121176644Y-89680436D01*
X121107486Y-89670492D01*
X121054683Y-89624736D01*
X121034999Y-89557698D01*
X121034999Y-88839364D01*
X121034998Y-88839364D01*
X120821505Y-88896570D01*
X120607422Y-88996399D01*
X120607420Y-88996400D01*
X120413926Y-89131886D01*
X120413920Y-89131891D01*
X120246891Y-89298920D01*
X120246886Y-89298926D01*
X120111400Y-89492420D01*
X120111399Y-89492422D01*
X120011570Y-89706507D01*
X120011567Y-89706513D01*
X119954364Y-89919999D01*
X119954364Y-89920000D01*
X120671653Y-89920000D01*
X120738692Y-89939685D01*
X120784447Y-89992489D01*
X120794391Y-90061647D01*
X120790631Y-90078933D01*
X120785000Y-90098111D01*
X120785000Y-90241889D01*
X120788397Y-90253459D01*
X120790631Y-90261067D01*
X120790630Y-90330936D01*
X120752855Y-90389714D01*
X120689299Y-90418738D01*
X120671653Y-90420000D01*
X119954364Y-90420000D01*
X120011567Y-90633486D01*
X120011570Y-90633492D01*
X120111399Y-90847578D01*
X120246894Y-91041082D01*
X120413917Y-91208105D01*
X120599595Y-91338119D01*
X120643219Y-91392696D01*
X120650412Y-91462195D01*
X120618890Y-91524549D01*
X120599595Y-91541269D01*
X120413594Y-91671508D01*
X120246505Y-91838597D01*
X120110965Y-92032169D01*
X120110964Y-92032171D01*
X120011098Y-92246335D01*
X120011094Y-92246344D01*
X119949938Y-92474586D01*
X119949936Y-92474596D01*
X119929341Y-92709999D01*
X119929341Y-92710000D01*
X119949936Y-92945403D01*
X119949938Y-92945413D01*
X120011094Y-93173655D01*
X120011096Y-93173659D01*
X120011097Y-93173663D01*
X120081064Y-93323707D01*
X120110965Y-93387830D01*
X120110967Y-93387834D01*
X120219281Y-93542521D01*
X120246501Y-93581396D01*
X120246506Y-93581402D01*
X120368430Y-93703326D01*
X120401915Y-93764649D01*
X120396931Y-93834341D01*
X120355059Y-93890274D01*
X120324083Y-93907189D01*
X120192669Y-93956203D01*
X120192664Y-93956206D01*
X120077455Y-94042452D01*
X120077452Y-94042455D01*
X119991206Y-94157664D01*
X119991202Y-94157671D01*
X119940908Y-94292517D01*
X119934501Y-94352116D01*
X119934501Y-94352123D01*
X119934500Y-94352135D01*
X119934500Y-96147870D01*
X119934501Y-96147876D01*
X119940908Y-96207483D01*
X119991202Y-96342328D01*
X119991206Y-96342335D01*
X120077452Y-96457544D01*
X120077455Y-96457547D01*
X120192664Y-96543793D01*
X120192671Y-96543797D01*
X120327517Y-96594091D01*
X120327516Y-96594091D01*
X120334444Y-96594835D01*
X120387127Y-96600500D01*
X122182872Y-96600499D01*
X122242483Y-96594091D01*
X122377331Y-96543796D01*
X122492546Y-96457546D01*
X122578796Y-96342331D01*
X122629091Y-96207483D01*
X122635500Y-96147873D01*
X122635500Y-96024499D01*
X122655185Y-95957461D01*
X122707989Y-95911706D01*
X122759500Y-95900500D01*
X123595500Y-95900500D01*
X123662539Y-95920185D01*
X123708294Y-95972989D01*
X123719500Y-96024500D01*
X123719500Y-96690001D01*
X123719501Y-96690019D01*
X123730000Y-96792796D01*
X123730001Y-96792799D01*
X123779330Y-96941661D01*
X123785186Y-96959334D01*
X123877288Y-97108656D01*
X124001344Y-97232712D01*
X124150666Y-97324814D01*
X124317203Y-97379999D01*
X124419991Y-97390500D01*
X125545500Y-97390499D01*
X125612539Y-97410184D01*
X125658294Y-97462987D01*
X125669500Y-97514499D01*
X125669500Y-97781294D01*
X125668191Y-97799263D01*
X125664710Y-97823025D01*
X125669264Y-97875064D01*
X125669500Y-97880470D01*
X125669500Y-97888709D01*
X125673306Y-97921274D01*
X125680000Y-97997791D01*
X125681461Y-98004867D01*
X125681403Y-98004878D01*
X125683034Y-98012237D01*
X125683092Y-98012224D01*
X125684758Y-98019253D01*
X125686156Y-98023093D01*
X125686334Y-98025898D01*
X125686423Y-98026273D01*
X125686358Y-98026288D01*
X125690585Y-98092822D01*
X125656613Y-98153877D01*
X125595025Y-98186872D01*
X125569633Y-98189500D01*
X124419998Y-98189500D01*
X124419981Y-98189501D01*
X124317203Y-98200000D01*
X124317200Y-98200001D01*
X124150668Y-98255185D01*
X124150663Y-98255187D01*
X124001342Y-98347289D01*
X123877289Y-98471342D01*
X123785187Y-98620663D01*
X123785185Y-98620668D01*
X123771624Y-98661593D01*
X123730001Y-98787203D01*
X123730001Y-98787204D01*
X123730000Y-98787204D01*
X123719500Y-98889983D01*
X123719500Y-99615001D01*
X123719501Y-99615019D01*
X123730000Y-99717796D01*
X123730001Y-99717799D01*
X123781543Y-99873339D01*
X123785186Y-99884334D01*
X123877288Y-100033656D01*
X124001344Y-100157712D01*
X124150666Y-100249814D01*
X124317203Y-100304999D01*
X124419991Y-100315500D01*
X125770008Y-100315499D01*
X125872797Y-100304999D01*
X126039334Y-100249814D01*
X126188656Y-100157712D01*
X126278029Y-100068338D01*
X126339353Y-100034853D01*
X126409045Y-100039837D01*
X126453392Y-100068338D01*
X130366719Y-103981665D01*
X130400204Y-104042988D01*
X130395220Y-104112680D01*
X130393632Y-104116156D01*
X130344660Y-104247459D01*
X130340909Y-104257517D01*
X130335937Y-104303757D01*
X130309201Y-104368306D01*
X130251809Y-104408154D01*
X130212649Y-104414500D01*
X130150808Y-104414500D01*
X130083769Y-104394815D01*
X130063127Y-104378181D01*
X128875434Y-103190488D01*
X128865361Y-103177914D01*
X128865174Y-103178070D01*
X128860201Y-103172059D01*
X128807756Y-103122810D01*
X128786035Y-103101089D01*
X128780240Y-103096594D01*
X128775798Y-103092799D01*
X128740396Y-103059554D01*
X128740388Y-103059548D01*
X128721792Y-103049325D01*
X128705531Y-103038644D01*
X128688763Y-103025637D01*
X128665295Y-103015482D01*
X128644178Y-103006343D01*
X128638956Y-103003786D01*
X128596368Y-102980373D01*
X128596365Y-102980372D01*
X128575801Y-102975092D01*
X128557396Y-102968790D01*
X128537927Y-102960365D01*
X128537921Y-102960363D01*
X128489951Y-102952766D01*
X128484236Y-102951582D01*
X128467772Y-102947355D01*
X128437180Y-102939500D01*
X128437177Y-102939500D01*
X128415955Y-102939500D01*
X128396555Y-102937973D01*
X128375596Y-102934653D01*
X128375595Y-102934653D01*
X128351786Y-102936903D01*
X128327230Y-102939225D01*
X128321392Y-102939500D01*
X127617940Y-102939500D01*
X127550901Y-102919815D01*
X127530259Y-102903181D01*
X127502262Y-102875184D01*
X127349523Y-102779211D01*
X127179254Y-102719631D01*
X127179249Y-102719630D01*
X127000004Y-102699435D01*
X126999996Y-102699435D01*
X126820750Y-102719630D01*
X126820737Y-102719633D01*
X126650481Y-102779209D01*
X126650477Y-102779210D01*
X126560904Y-102835494D01*
X126494932Y-102854500D01*
X125415808Y-102854500D01*
X125348769Y-102834815D01*
X125328127Y-102818181D01*
X121805434Y-99295488D01*
X121795361Y-99282914D01*
X121795174Y-99283070D01*
X121790201Y-99277059D01*
X121737756Y-99227810D01*
X121716035Y-99206089D01*
X121710240Y-99201594D01*
X121705798Y-99197799D01*
X121670396Y-99164554D01*
X121670388Y-99164548D01*
X121651792Y-99154325D01*
X121635531Y-99143644D01*
X121618763Y-99130637D01*
X121595295Y-99120482D01*
X121574178Y-99111343D01*
X121568956Y-99108786D01*
X121526368Y-99085373D01*
X121526365Y-99085372D01*
X121505801Y-99080092D01*
X121487396Y-99073790D01*
X121467927Y-99065365D01*
X121467921Y-99065363D01*
X121419951Y-99057766D01*
X121414236Y-99056582D01*
X121397772Y-99052355D01*
X121367180Y-99044500D01*
X121367177Y-99044500D01*
X121345955Y-99044500D01*
X121326555Y-99042973D01*
X121305596Y-99039653D01*
X121305595Y-99039653D01*
X121281786Y-99041903D01*
X121257230Y-99044225D01*
X121251392Y-99044500D01*
X113869499Y-99044500D01*
X113802460Y-99024815D01*
X113756705Y-98972011D01*
X113745499Y-98920500D01*
X113745499Y-98797129D01*
X113745498Y-98797123D01*
X113745497Y-98797116D01*
X113739091Y-98737517D01*
X113735361Y-98727517D01*
X113688797Y-98602671D01*
X113688793Y-98602664D01*
X113602547Y-98487455D01*
X113602544Y-98487452D01*
X113487335Y-98401206D01*
X113487328Y-98401202D01*
X113352482Y-98350908D01*
X113352483Y-98350908D01*
X113292883Y-98344501D01*
X113292881Y-98344500D01*
X113292873Y-98344500D01*
X113292864Y-98344500D01*
X111497129Y-98344500D01*
X111497123Y-98344501D01*
X111437516Y-98350908D01*
X111302671Y-98401202D01*
X111302664Y-98401206D01*
X111187455Y-98487452D01*
X111187452Y-98487455D01*
X111101206Y-98602664D01*
X111101202Y-98602671D01*
X111050908Y-98737517D01*
X111045575Y-98787127D01*
X111044501Y-98797123D01*
X111044500Y-98797135D01*
X111044500Y-100592870D01*
X111044501Y-100592876D01*
X111050908Y-100652483D01*
X111101202Y-100787328D01*
X111101206Y-100787335D01*
X111187452Y-100902544D01*
X111187455Y-100902547D01*
X111302664Y-100988793D01*
X111302671Y-100988797D01*
X111434081Y-101037810D01*
X111490015Y-101079681D01*
X111514432Y-101145145D01*
X111499580Y-101213418D01*
X111478430Y-101241673D01*
X111356503Y-101363600D01*
X111220965Y-101557169D01*
X111220964Y-101557171D01*
X111121098Y-101771335D01*
X111121094Y-101771344D01*
X111059938Y-101999586D01*
X111059936Y-101999596D01*
X111039341Y-102234999D01*
X111039341Y-102235000D01*
X111059936Y-102470403D01*
X111059938Y-102470413D01*
X111121094Y-102698655D01*
X111121096Y-102698659D01*
X111121097Y-102698663D01*
X111184586Y-102834815D01*
X111220965Y-102912830D01*
X111220967Y-102912834D01*
X111296848Y-103021202D01*
X111356505Y-103106401D01*
X111523599Y-103273495D01*
X111701840Y-103398301D01*
X111709594Y-103403730D01*
X111753219Y-103458307D01*
X111760413Y-103527805D01*
X111728890Y-103590160D01*
X111709595Y-103606880D01*
X111523922Y-103736890D01*
X111523920Y-103736891D01*
X111356891Y-103903920D01*
X111356886Y-103903926D01*
X111221400Y-104097420D01*
X111221399Y-104097422D01*
X111121570Y-104311507D01*
X111121567Y-104311513D01*
X111064364Y-104524999D01*
X111064364Y-104525000D01*
X111781653Y-104525000D01*
X111848692Y-104544685D01*
X111894447Y-104597489D01*
X111904391Y-104666647D01*
X111900631Y-104683933D01*
X111895000Y-104703111D01*
X111895000Y-104846888D01*
X111900631Y-104866067D01*
X111900630Y-104935936D01*
X111862855Y-104994714D01*
X111799299Y-105023738D01*
X111781653Y-105025000D01*
X111064364Y-105025000D01*
X111121567Y-105238486D01*
X111121570Y-105238492D01*
X111221399Y-105452578D01*
X111356894Y-105646082D01*
X111523917Y-105813105D01*
X111709595Y-105943119D01*
X111753219Y-105997696D01*
X111760412Y-106067195D01*
X111728890Y-106129549D01*
X111709595Y-106146269D01*
X111523594Y-106276508D01*
X111356505Y-106443597D01*
X111220965Y-106637169D01*
X111220964Y-106637171D01*
X111121098Y-106851335D01*
X111121094Y-106851344D01*
X111059938Y-107079586D01*
X111059936Y-107079596D01*
X111039341Y-107314999D01*
X111039341Y-107315000D01*
X111059936Y-107550403D01*
X111059938Y-107550413D01*
X111121094Y-107778655D01*
X111121096Y-107778659D01*
X111121097Y-107778663D01*
X111133071Y-107804341D01*
X111220965Y-107992830D01*
X111220967Y-107992834D01*
X111356501Y-108186395D01*
X111356506Y-108186402D01*
X111523597Y-108353493D01*
X111523603Y-108353498D01*
X111709158Y-108483425D01*
X111752783Y-108538002D01*
X111759977Y-108607500D01*
X111728454Y-108669855D01*
X111709158Y-108686575D01*
X111523597Y-108816505D01*
X111356505Y-108983597D01*
X111220965Y-109177169D01*
X111220964Y-109177171D01*
X111121098Y-109391335D01*
X111121094Y-109391344D01*
X111059938Y-109619586D01*
X111059936Y-109619596D01*
X111039341Y-109854999D01*
X111039341Y-109855000D01*
X111059936Y-110090403D01*
X111059938Y-110090413D01*
X111121094Y-110318655D01*
X111121096Y-110318659D01*
X111121097Y-110318663D01*
X111171869Y-110427544D01*
X111220965Y-110532830D01*
X111220967Y-110532834D01*
X111329281Y-110687521D01*
X111356505Y-110726401D01*
X111523599Y-110893495D01*
X111528923Y-110897223D01*
X111532069Y-110899426D01*
X111575693Y-110954003D01*
X111582885Y-111023502D01*
X111551362Y-111085856D01*
X111491132Y-111121269D01*
X111460944Y-111125000D01*
X109344000Y-111125000D01*
X109276961Y-111105315D01*
X109231206Y-111052511D01*
X109220000Y-111001000D01*
X109220000Y-89659335D01*
X111529500Y-89659335D01*
X111537954Y-89709999D01*
X111570429Y-89904616D01*
X111651169Y-90139802D01*
X111651172Y-90139811D01*
X111769524Y-90358506D01*
X111769526Y-90358509D01*
X111922262Y-90554744D01*
X112076509Y-90696738D01*
X112105217Y-90723166D01*
X112313393Y-90859173D01*
X112541118Y-90959063D01*
X112782175Y-91020107D01*
X112782179Y-91020108D01*
X112782181Y-91020108D01*
X112782186Y-91020109D01*
X112915376Y-91031145D01*
X112967933Y-91035500D01*
X112967935Y-91035500D01*
X113092065Y-91035500D01*
X113092067Y-91035500D01*
X113153284Y-91030427D01*
X113277813Y-91020109D01*
X113277816Y-91020108D01*
X113277821Y-91020108D01*
X113518881Y-90959063D01*
X113746607Y-90859173D01*
X113954785Y-90723164D01*
X114137738Y-90554744D01*
X114290474Y-90358509D01*
X114408828Y-90139810D01*
X114489571Y-89904614D01*
X114530500Y-89659335D01*
X114530500Y-89410665D01*
X114489571Y-89165386D01*
X114486993Y-89157878D01*
X114470287Y-89109214D01*
X114408828Y-88930190D01*
X114290474Y-88711491D01*
X114137738Y-88515256D01*
X113954785Y-88346836D01*
X113954782Y-88346833D01*
X113746606Y-88210826D01*
X113518881Y-88110936D01*
X113277824Y-88049892D01*
X113277813Y-88049890D01*
X113112548Y-88036197D01*
X113092067Y-88034500D01*
X112967933Y-88034500D01*
X112948521Y-88036108D01*
X112782186Y-88049890D01*
X112782175Y-88049892D01*
X112541118Y-88110936D01*
X112313393Y-88210826D01*
X112105217Y-88346833D01*
X111922261Y-88515257D01*
X111769524Y-88711493D01*
X111651172Y-88930188D01*
X111651169Y-88930197D01*
X111570429Y-89165383D01*
X111542055Y-89335424D01*
X111529500Y-89410665D01*
X111529500Y-89659335D01*
X109220000Y-89659335D01*
X109220000Y-84760000D01*
X116452672Y-84760000D01*
X116471962Y-85054312D01*
X116471964Y-85054324D01*
X116529501Y-85343584D01*
X116529505Y-85343599D01*
X116624312Y-85622888D01*
X116754758Y-85887406D01*
X116754765Y-85887419D01*
X116918622Y-86132648D01*
X116947906Y-86166039D01*
X117622408Y-85491537D01*
X117683731Y-85458052D01*
X117753422Y-85463036D01*
X117801722Y-85495676D01*
X117919282Y-85624634D01*
X117963464Y-85657998D01*
X118005099Y-85714106D01*
X118009792Y-85783817D01*
X117976418Y-85844633D01*
X117301459Y-86519592D01*
X117301459Y-86519593D01*
X117334844Y-86548872D01*
X117334848Y-86548875D01*
X117580080Y-86712734D01*
X117580093Y-86712741D01*
X117844611Y-86843187D01*
X118123900Y-86937994D01*
X118123915Y-86937998D01*
X118413175Y-86995535D01*
X118413187Y-86995537D01*
X118707499Y-87014827D01*
X119001812Y-86995537D01*
X119001824Y-86995535D01*
X119291084Y-86937998D01*
X119291099Y-86937994D01*
X119570388Y-86843187D01*
X119834906Y-86712741D01*
X119834919Y-86712734D01*
X120080150Y-86548877D01*
X120113539Y-86519593D01*
X120113540Y-86519592D01*
X119438581Y-85844633D01*
X119405096Y-85783310D01*
X119410080Y-85713618D01*
X119451533Y-85658000D01*
X119495718Y-85624634D01*
X119613276Y-85495678D01*
X119672983Y-85459400D01*
X119742831Y-85461160D01*
X119792591Y-85491538D01*
X120467092Y-86166040D01*
X120467093Y-86166039D01*
X120496377Y-86132650D01*
X120660234Y-85887419D01*
X120660241Y-85887406D01*
X120790687Y-85622888D01*
X120885494Y-85343599D01*
X120885498Y-85343584D01*
X120943035Y-85054324D01*
X120943037Y-85054312D01*
X120962327Y-84760000D01*
X120943037Y-84465687D01*
X120943035Y-84465675D01*
X120885498Y-84176415D01*
X120885494Y-84176400D01*
X120790687Y-83897111D01*
X120660241Y-83632593D01*
X120660234Y-83632580D01*
X120496375Y-83387348D01*
X120496372Y-83387344D01*
X120467093Y-83353959D01*
X120467092Y-83353959D01*
X119792590Y-84028461D01*
X119731267Y-84061946D01*
X119661575Y-84056962D01*
X119613276Y-84024321D01*
X119495718Y-83895366D01*
X119451533Y-83861999D01*
X119409898Y-83805890D01*
X119405207Y-83736178D01*
X119438580Y-83675365D01*
X120113539Y-83000406D01*
X120080148Y-82971122D01*
X119834919Y-82807265D01*
X119834906Y-82807258D01*
X119570388Y-82676812D01*
X119291099Y-82582005D01*
X119291084Y-82582001D01*
X119001824Y-82524464D01*
X119001812Y-82524462D01*
X118707499Y-82505172D01*
X118413187Y-82524462D01*
X118413175Y-82524464D01*
X118123915Y-82582001D01*
X118123900Y-82582005D01*
X117844611Y-82676812D01*
X117580093Y-82807258D01*
X117580080Y-82807265D01*
X117334850Y-82971123D01*
X117301458Y-83000406D01*
X117976418Y-83675365D01*
X118009903Y-83736688D01*
X118004919Y-83806379D01*
X117963466Y-83861999D01*
X117919278Y-83895368D01*
X117801726Y-84024318D01*
X117742015Y-84060600D01*
X117672167Y-84058839D01*
X117622408Y-84028461D01*
X116947906Y-83353958D01*
X116918623Y-83387350D01*
X116754765Y-83632580D01*
X116754758Y-83632593D01*
X116624312Y-83897111D01*
X116529505Y-84176400D01*
X116529501Y-84176415D01*
X116471964Y-84465675D01*
X116471962Y-84465687D01*
X116452672Y-84760000D01*
X109220000Y-84760000D01*
X109220000Y-70609000D01*
X109239685Y-70541961D01*
X109292489Y-70496206D01*
X109344000Y-70485000D01*
X117620650Y-70485000D01*
X117687689Y-70504685D01*
G37*
%TD.AperFunction*%
%TA.AperFunction,Conductor*%
G36*
X137617127Y-100535500D02*
G01*
X138012872Y-100535499D01*
X138012873Y-100535498D01*
X138012885Y-100535498D01*
X138051744Y-100531320D01*
X138078252Y-100531320D01*
X138117127Y-100535500D01*
X138512872Y-100535499D01*
X138512873Y-100535498D01*
X138512885Y-100535498D01*
X138551744Y-100531320D01*
X138578252Y-100531320D01*
X138617127Y-100535500D01*
X139012872Y-100535499D01*
X139027245Y-100533954D01*
X139051740Y-100531321D01*
X139120499Y-100543726D01*
X139171637Y-100591336D01*
X139180286Y-100608960D01*
X139185519Y-100622177D01*
X139197813Y-100653231D01*
X139199705Y-100658758D01*
X139213254Y-100705395D01*
X139213255Y-100705397D01*
X139224060Y-100723666D01*
X139232617Y-100741134D01*
X139236666Y-100751358D01*
X139240432Y-100760872D01*
X139268983Y-100800170D01*
X139272188Y-100805049D01*
X139296919Y-100846865D01*
X139296923Y-100846869D01*
X139311925Y-100861871D01*
X139324563Y-100876669D01*
X139337033Y-100893833D01*
X139337036Y-100893837D01*
X139374464Y-100924799D01*
X139378776Y-100928722D01*
X139559672Y-101109617D01*
X139648181Y-101198126D01*
X139681666Y-101259449D01*
X139684500Y-101285807D01*
X139684500Y-101333125D01*
X139664815Y-101400164D01*
X139648181Y-101420806D01*
X139647327Y-101421660D01*
X139586004Y-101455145D01*
X139516312Y-101450161D01*
X139471965Y-101421660D01*
X139462732Y-101412427D01*
X139462728Y-101412424D01*
X139318492Y-101323457D01*
X139318481Y-101323452D01*
X139157606Y-101270144D01*
X139058322Y-101260000D01*
X139035000Y-101260000D01*
X139035000Y-102361000D01*
X139015315Y-102428039D01*
X138962511Y-102473794D01*
X138911000Y-102485000D01*
X137174000Y-102485000D01*
X137106961Y-102465315D01*
X137061206Y-102412511D01*
X137050000Y-102361000D01*
X137050000Y-101985000D01*
X137550000Y-101985000D01*
X138535000Y-101985000D01*
X138535000Y-101259999D01*
X138511693Y-101260000D01*
X138511674Y-101260001D01*
X138412392Y-101270144D01*
X138251518Y-101323452D01*
X138251507Y-101323457D01*
X138107597Y-101412223D01*
X138040205Y-101430664D01*
X137977403Y-101412223D01*
X137833492Y-101323457D01*
X137833481Y-101323452D01*
X137672606Y-101270144D01*
X137573322Y-101260000D01*
X137550000Y-101260000D01*
X137550000Y-101985000D01*
X137050000Y-101985000D01*
X137050000Y-101259999D01*
X137026693Y-101260000D01*
X137026674Y-101260001D01*
X136927391Y-101270144D01*
X136792011Y-101315004D01*
X136722183Y-101317405D01*
X136662141Y-101281674D01*
X136630949Y-101219153D01*
X136638510Y-101149694D01*
X136665324Y-101109620D01*
X136714513Y-101060431D01*
X136727079Y-101050365D01*
X136726925Y-101050178D01*
X136732937Y-101045204D01*
X136732937Y-101045203D01*
X136732940Y-101045202D01*
X136782190Y-100992755D01*
X136803912Y-100971034D01*
X136808402Y-100965244D01*
X136812184Y-100960814D01*
X136845448Y-100925393D01*
X136855674Y-100906789D01*
X136866347Y-100890541D01*
X136879363Y-100873763D01*
X136898651Y-100829187D01*
X136901224Y-100823936D01*
X136912990Y-100802534D01*
X136924627Y-100781368D01*
X136929904Y-100760808D01*
X136936206Y-100742403D01*
X136944636Y-100722926D01*
X136952237Y-100674928D01*
X136953420Y-100669222D01*
X136956496Y-100657243D01*
X136964548Y-100625882D01*
X137000284Y-100565847D01*
X137062808Y-100534661D01*
X137097903Y-100533433D01*
X137117127Y-100535500D01*
X137512872Y-100535499D01*
X137512873Y-100535498D01*
X137512885Y-100535498D01*
X137551744Y-100531320D01*
X137578252Y-100531320D01*
X137617127Y-100535500D01*
G37*
%TD.AperFunction*%
%TA.AperFunction,Conductor*%
G36*
X131086799Y-92630185D02*
G01*
X131132554Y-92682989D01*
X131143049Y-92747758D01*
X131141215Y-92764813D01*
X131114476Y-92829363D01*
X131081048Y-92858286D01*
X131062834Y-92869058D01*
X131045363Y-92877618D01*
X131025628Y-92885432D01*
X131025626Y-92885433D01*
X130986339Y-92913977D01*
X130981456Y-92917184D01*
X130939632Y-92941919D01*
X130924626Y-92956926D01*
X130909836Y-92969558D01*
X130892667Y-92982032D01*
X130892665Y-92982034D01*
X130861694Y-93019470D01*
X130857762Y-93023791D01*
X129884683Y-93996870D01*
X129823360Y-94030355D01*
X129753669Y-94025371D01*
X129697735Y-93983499D01*
X129673318Y-93918035D01*
X129679296Y-93870185D01*
X129729855Y-93717606D01*
X129739999Y-93618322D01*
X129740000Y-93618309D01*
X129740000Y-93595000D01*
X127790001Y-93595000D01*
X127790001Y-93618322D01*
X127800144Y-93717607D01*
X127853452Y-93878481D01*
X127853457Y-93878492D01*
X127942424Y-94022728D01*
X127942427Y-94022732D01*
X127951659Y-94031964D01*
X127985144Y-94093287D01*
X127980160Y-94162979D01*
X127951762Y-94207224D01*
X127950909Y-94208079D01*
X127889625Y-94241635D01*
X127863125Y-94244500D01*
X127294500Y-94244500D01*
X127227461Y-94224815D01*
X127181706Y-94172011D01*
X127170500Y-94120500D01*
X127170500Y-93463705D01*
X127171809Y-93445735D01*
X127175289Y-93421974D01*
X127172301Y-93387830D01*
X127170735Y-93369933D01*
X127170500Y-93364532D01*
X127170500Y-93356297D01*
X127170500Y-93356296D01*
X127170500Y-93356291D01*
X127166691Y-93323707D01*
X127159998Y-93247202D01*
X127159996Y-93247197D01*
X127158538Y-93240133D01*
X127158597Y-93240120D01*
X127156967Y-93232764D01*
X127156908Y-93232779D01*
X127155242Y-93225753D01*
X127155241Y-93225745D01*
X127128973Y-93153573D01*
X127116354Y-93115491D01*
X127104815Y-93080666D01*
X127101763Y-93074121D01*
X127101817Y-93074095D01*
X127098533Y-93067312D01*
X127098480Y-93067340D01*
X127095236Y-93060882D01*
X127089237Y-93051760D01*
X127068845Y-92984932D01*
X127087820Y-92917688D01*
X127140138Y-92871378D01*
X127172536Y-92862217D01*
X127172468Y-92861917D01*
X127178344Y-92860575D01*
X127178963Y-92860401D01*
X127179100Y-92860385D01*
X127179255Y-92860368D01*
X127349522Y-92800789D01*
X127491857Y-92711353D01*
X127559089Y-92692354D01*
X127570411Y-92692988D01*
X127594991Y-92695500D01*
X127720179Y-92695499D01*
X127787216Y-92715183D01*
X127832971Y-92767987D01*
X127842915Y-92837145D01*
X127837883Y-92858503D01*
X127800144Y-92972392D01*
X127790000Y-93071677D01*
X127790000Y-93071690D01*
X127789999Y-93095000D01*
X129739999Y-93095000D01*
X129739999Y-93071692D01*
X129739998Y-93071677D01*
X129729855Y-92972392D01*
X129676547Y-92811518D01*
X129676543Y-92811509D01*
X129669195Y-92799596D01*
X129650755Y-92732203D01*
X129671678Y-92665540D01*
X129725320Y-92620771D01*
X129774734Y-92610500D01*
X131019760Y-92610500D01*
X131086799Y-92630185D01*
G37*
%TD.AperFunction*%
%TA.AperFunction,Conductor*%
G36*
X140580144Y-78849785D02*
G01*
X140625899Y-78902589D01*
X140636463Y-78941499D01*
X140639650Y-78972707D01*
X140639651Y-78972710D01*
X140692996Y-79133694D01*
X140693001Y-79133705D01*
X140782029Y-79278040D01*
X140782032Y-79278044D01*
X140791660Y-79287672D01*
X140825145Y-79348995D01*
X140820161Y-79418687D01*
X140791663Y-79463031D01*
X140782428Y-79472265D01*
X140782424Y-79472271D01*
X140693457Y-79616507D01*
X140693452Y-79616518D01*
X140640144Y-79777393D01*
X140630000Y-79876677D01*
X140630000Y-79900000D01*
X142579999Y-79900000D01*
X142579999Y-79876692D01*
X142579998Y-79876677D01*
X142569855Y-79777392D01*
X142516547Y-79616518D01*
X142516542Y-79616507D01*
X142469103Y-79539597D01*
X142450662Y-79472205D01*
X142471584Y-79405541D01*
X142525226Y-79360772D01*
X142574641Y-79350500D01*
X142787279Y-79350500D01*
X143007770Y-79350500D01*
X143074809Y-79370185D01*
X143095451Y-79386819D01*
X143358181Y-79649548D01*
X143391666Y-79710871D01*
X143394500Y-79737229D01*
X143394500Y-81615028D01*
X143387542Y-81655982D01*
X143359631Y-81735747D01*
X143339435Y-81914996D01*
X143339435Y-81915003D01*
X143359630Y-82094249D01*
X143359631Y-82094254D01*
X143410726Y-82240273D01*
X143414287Y-82310052D01*
X143379558Y-82370680D01*
X143334638Y-82398270D01*
X143330745Y-82399631D01*
X143330745Y-82399632D01*
X143303277Y-82409243D01*
X143160478Y-82459210D01*
X143033018Y-82539299D01*
X142965781Y-82558299D01*
X142926093Y-82551347D01*
X142902744Y-82543177D01*
X142902735Y-82543175D01*
X142723493Y-82522980D01*
X142723485Y-82522980D01*
X142544239Y-82543175D01*
X142544234Y-82543176D01*
X142373965Y-82602756D01*
X142221226Y-82698729D01*
X142093673Y-82826282D01*
X141997700Y-82979021D01*
X141938120Y-83149290D01*
X141938119Y-83149295D01*
X141917924Y-83328541D01*
X141917924Y-83328548D01*
X141938119Y-83507794D01*
X141938120Y-83507799D01*
X141997700Y-83678068D01*
X142078324Y-83806379D01*
X142093673Y-83830807D01*
X142221227Y-83958361D01*
X142273705Y-83991335D01*
X142370048Y-84051872D01*
X142373967Y-84054334D01*
X142544234Y-84113913D01*
X142551463Y-84114727D01*
X142615877Y-84141791D01*
X142625265Y-84150267D01*
X142628181Y-84153183D01*
X142661666Y-84214506D01*
X142664500Y-84240864D01*
X142664500Y-84762755D01*
X142644815Y-84829794D01*
X142592011Y-84875549D01*
X142527246Y-84886045D01*
X142512874Y-84884500D01*
X142117130Y-84884500D01*
X142117119Y-84884501D01*
X142078253Y-84888679D01*
X142051748Y-84888679D01*
X142012874Y-84884500D01*
X141617130Y-84884500D01*
X141617119Y-84884501D01*
X141578253Y-84888679D01*
X141551748Y-84888679D01*
X141512875Y-84884500D01*
X141210873Y-84884500D01*
X141143834Y-84864815D01*
X141098079Y-84812011D01*
X141088135Y-84742853D01*
X141117160Y-84679297D01*
X141123179Y-84672832D01*
X141157968Y-84638044D01*
X141247003Y-84493697D01*
X141300349Y-84332708D01*
X141310500Y-84233345D01*
X141310499Y-83686656D01*
X141304976Y-83632593D01*
X141300349Y-83587292D01*
X141300348Y-83587289D01*
X141288556Y-83551703D01*
X141247003Y-83426303D01*
X141246999Y-83426297D01*
X141246998Y-83426294D01*
X141157970Y-83281959D01*
X141157967Y-83281955D01*
X141148339Y-83272327D01*
X141114854Y-83211004D01*
X141119838Y-83141312D01*
X141148345Y-83096959D01*
X141157573Y-83087731D01*
X141246542Y-82943492D01*
X141246547Y-82943481D01*
X141299855Y-82782606D01*
X141309999Y-82683322D01*
X141310000Y-82683309D01*
X141310000Y-82660000D01*
X139360001Y-82660000D01*
X139360001Y-82683322D01*
X139370144Y-82782607D01*
X139423452Y-82943481D01*
X139423457Y-82943492D01*
X139512424Y-83087728D01*
X139512427Y-83087732D01*
X139521660Y-83096965D01*
X139555145Y-83158288D01*
X139550161Y-83227980D01*
X139521663Y-83272324D01*
X139512033Y-83281953D01*
X139512029Y-83281959D01*
X139423001Y-83426294D01*
X139422996Y-83426305D01*
X139369651Y-83587290D01*
X139359500Y-83686647D01*
X139359500Y-83964191D01*
X139339815Y-84031230D01*
X139323181Y-84051872D01*
X139125180Y-84249872D01*
X139063857Y-84283357D01*
X138994165Y-84278373D01*
X138949818Y-84249872D01*
X136424419Y-81724472D01*
X136390934Y-81663149D01*
X136388100Y-81636791D01*
X136388100Y-80954828D01*
X136407785Y-80887789D01*
X136424414Y-80867152D01*
X136689620Y-80601946D01*
X136750942Y-80568462D01*
X136820634Y-80573446D01*
X136876567Y-80615318D01*
X136900984Y-80680782D01*
X136901300Y-80689628D01*
X136901300Y-81162744D01*
X136907701Y-81222272D01*
X136907703Y-81222279D01*
X136957945Y-81356986D01*
X136957947Y-81356989D01*
X137001489Y-81415156D01*
X138316918Y-80099727D01*
X138378241Y-80066242D01*
X138447933Y-80071226D01*
X138492280Y-80099727D01*
X138670472Y-80277919D01*
X138703957Y-80339242D01*
X138698973Y-80408934D01*
X138670472Y-80453281D01*
X137508853Y-81614899D01*
X137508854Y-81614900D01*
X139362645Y-81614900D01*
X139429684Y-81634585D01*
X139475439Y-81687389D01*
X139485383Y-81756547D01*
X139468183Y-81803997D01*
X139423457Y-81876507D01*
X139423452Y-81876518D01*
X139370144Y-82037393D01*
X139360000Y-82136677D01*
X139360000Y-82160000D01*
X140085000Y-82160000D01*
X140085000Y-81460000D01*
X140585000Y-81460000D01*
X140585000Y-82160000D01*
X141309999Y-82160000D01*
X141309999Y-82136692D01*
X141309998Y-82136677D01*
X141299855Y-82037392D01*
X141246547Y-81876518D01*
X141246542Y-81876507D01*
X141157575Y-81732271D01*
X141157572Y-81732267D01*
X141037732Y-81612427D01*
X141037728Y-81612424D01*
X140893492Y-81523457D01*
X140893481Y-81523452D01*
X140732606Y-81470144D01*
X140633322Y-81460000D01*
X140585000Y-81460000D01*
X140085000Y-81460000D01*
X140084999Y-81459999D01*
X140036693Y-81460000D01*
X140036670Y-81460002D01*
X140002483Y-81463494D01*
X139933790Y-81450723D01*
X139882907Y-81402842D01*
X139865987Y-81335052D01*
X139873701Y-81296802D01*
X139901497Y-81222276D01*
X139901498Y-81222272D01*
X139907899Y-81162744D01*
X139907900Y-81162727D01*
X139907900Y-80400000D01*
X140630001Y-80400000D01*
X140630001Y-80423322D01*
X140640144Y-80522607D01*
X140693452Y-80683481D01*
X140693457Y-80683492D01*
X140782424Y-80827728D01*
X140782427Y-80827732D01*
X140902267Y-80947572D01*
X140902271Y-80947575D01*
X141046507Y-81036542D01*
X141046518Y-81036547D01*
X141207393Y-81089855D01*
X141306683Y-81099999D01*
X141354999Y-81099998D01*
X141355000Y-81099998D01*
X141355000Y-80400000D01*
X141855000Y-80400000D01*
X141855000Y-81099999D01*
X141903308Y-81099999D01*
X141903322Y-81099998D01*
X142002607Y-81089855D01*
X142163481Y-81036547D01*
X142163492Y-81036542D01*
X142307728Y-80947575D01*
X142307732Y-80947572D01*
X142427572Y-80827732D01*
X142427575Y-80827728D01*
X142516542Y-80683492D01*
X142516547Y-80683481D01*
X142569855Y-80522606D01*
X142579999Y-80423322D01*
X142580000Y-80423309D01*
X142580000Y-80400000D01*
X141855000Y-80400000D01*
X141355000Y-80400000D01*
X140630001Y-80400000D01*
X139907900Y-80400000D01*
X139907900Y-79568472D01*
X139907899Y-79568455D01*
X139901498Y-79508927D01*
X139901496Y-79508920D01*
X139851254Y-79374213D01*
X139851252Y-79374210D01*
X139793698Y-79297327D01*
X139769281Y-79231862D01*
X139784133Y-79163589D01*
X139793694Y-79148710D01*
X139851696Y-79071231D01*
X139901991Y-78936383D01*
X139901991Y-78936381D01*
X139903774Y-78928838D01*
X139906239Y-78929420D01*
X139928261Y-78876280D01*
X139985659Y-78836440D01*
X140024801Y-78830100D01*
X140513105Y-78830100D01*
X140580144Y-78849785D01*
G37*
%TD.AperFunction*%
%TD*%
M02*
