M48
; DRILL file {KiCad 7.0.7} date Tue Dec  5 11:36:24 2023
; FORMAT={-:-/ absolute / inch / decimal}
; #@! TF.CreationDate,2023-12-05T11:36:24+01:00
; #@! TF.GenerationSoftware,Kicad,Pcbnew,7.0.7
; #@! TF.FileFunction,Plated,1,2,PTH
FMAT,2
INCH
; #@! TA.AperFunction,Plated,PTH,ViaDrill
T1C0.0118
; #@! TA.AperFunction,Plated,PTH,ComponentDrill
T2C0.0197
; #@! TA.AperFunction,Plated,PTH,ComponentDrill
T3C0.0315
; #@! TA.AperFunction,Plated,PTH,ComponentDrill
T4C0.0362
; #@! TA.AperFunction,Plated,PTH,ComponentDrill
T5C0.0394
; #@! TA.AperFunction,Plated,PTH,ComponentDrill
T6C0.0917
%
G90
G05
T1
X4.475Y-4.025
X4.9262Y-3.7012
X5.0Y-3.625
X5.0Y-4.075
X5.1196Y-3.6946
X5.225Y-4.025
X5.3Y-4.0
X5.45Y-3.975
X5.619Y-3.2807
X5.625Y-2.875
X5.625Y-3.15
X5.65Y-3.275
X5.675Y-3.225
X5.8179Y-3.7994
X5.8321Y-3.9
X5.8929Y-3.8429
X5.8994Y-3.8
X5.925Y-3.832
X5.95Y-3.6919
T2
X5.973Y-3.2876
X5.973Y-3.3624
T3
X6.075Y-3.6543
X6.075Y-3.8465
T4
X4.7802Y-3.0508
X4.7802Y-3.1492
X4.859Y-3.0508
X4.859Y-3.1492
T5
X4.425Y-3.925
X4.425Y-4.025
X4.425Y-4.125
X4.425Y-4.225
X4.425Y-4.325
X4.775Y-3.55
X4.775Y-3.65
X4.775Y-3.75
X5.05Y-2.925
X5.05Y-3.025
X5.05Y-3.125
X5.05Y-3.225
X5.05Y-3.325
X5.75Y-2.925
X5.75Y-3.025
X5.75Y-3.125
X5.75Y-4.2
X5.75Y-4.3
X6.2Y-4.2
X6.2Y-4.3
T6
X4.6735Y-2.863
X4.6735Y-3.337
T0
M30
