%TF.GenerationSoftware,KiCad,Pcbnew,7.0.7*%
%TF.CreationDate,2023-12-11T18:46:51+01:00*%
%TF.ProjectId,projekt,70726f6a-656b-4742-9e6b-696361645f70,rev?*%
%TF.SameCoordinates,Original*%
%TF.FileFunction,Soldermask,Bot*%
%TF.FilePolarity,Negative*%
%FSLAX46Y46*%
G04 Gerber Fmt 4.6, Leading zero omitted, Abs format (unit mm)*
G04 Created by KiCad (PCBNEW 7.0.7) date 2023-12-11 18:46:51*
%MOMM*%
%LPD*%
G01*
G04 APERTURE LIST*
%ADD10R,1.700000X1.700000*%
%ADD11O,1.700000X1.700000*%
%ADD12R,1.600000X1.600000*%
%ADD13C,1.600000*%
%ADD14C,4.000000*%
%ADD15R,1.016000X1.016000*%
%ADD16C,1.016000*%
%ADD17R,1.158000X1.158000*%
%ADD18C,1.158000*%
%ADD19R,1.524000X1.524000*%
%ADD20C,1.524000*%
G04 APERTURE END LIST*
D10*
%TO.C,J3*%
X80010000Y-29845000D03*
D11*
X77470000Y-29845000D03*
%TD*%
D10*
%TO.C,J2*%
X59055000Y-29845000D03*
D11*
X61595000Y-29845000D03*
X64135000Y-29845000D03*
%TD*%
D12*
%TO.C,J1*%
X60127500Y-41890000D03*
D13*
X60127500Y-39390000D03*
X58127500Y-39390000D03*
X58127500Y-41890000D03*
D14*
X55267500Y-46640000D03*
X55267500Y-34640000D03*
%TD*%
D15*
%TO.C,U3*%
X86110001Y-49530000D03*
D16*
X86110001Y-48260000D03*
X86110001Y-45720000D03*
X86110001Y-44450000D03*
%TD*%
D17*
%TO.C,LED1*%
X77700000Y-69850000D03*
D18*
X75160000Y-69850000D03*
X72620000Y-69850000D03*
X70080000Y-69850000D03*
X67540000Y-69850000D03*
X65000000Y-69850000D03*
X62460000Y-69850000D03*
X59920000Y-69850000D03*
X59920000Y-77470000D03*
X62460000Y-77470000D03*
X65000000Y-77470000D03*
X67540000Y-77470000D03*
X70080000Y-77470000D03*
X72620000Y-77470000D03*
X75160000Y-77470000D03*
X77700000Y-77470000D03*
%TD*%
D19*
%TO.C,U8*%
X82550000Y-50165000D03*
D20*
X82550000Y-47625000D03*
X82550000Y-45085000D03*
X82550000Y-42545000D03*
X74930000Y-42545000D03*
X74930000Y-45085000D03*
X74930000Y-47625000D03*
X74930000Y-50165000D03*
%TD*%
M02*
