%TF.GenerationSoftware,KiCad,Pcbnew,7.0.7*%
%TF.CreationDate,2023-12-11T18:46:51+01:00*%
%TF.ProjectId,projekt,70726f6a-656b-4742-9e6b-696361645f70,rev?*%
%TF.SameCoordinates,Original*%
%TF.FileFunction,Copper,L1,Top*%
%TF.FilePolarity,Positive*%
%FSLAX46Y46*%
G04 Gerber Fmt 4.6, Leading zero omitted, Abs format (unit mm)*
G04 Created by KiCad (PCBNEW 7.0.7) date 2023-12-11 18:46:51*
%MOMM*%
%LPD*%
G01*
G04 APERTURE LIST*
G04 Aperture macros list*
%AMRoundRect*
0 Rectangle with rounded corners*
0 $1 Rounding radius*
0 $2 $3 $4 $5 $6 $7 $8 $9 X,Y pos of 4 corners*
0 Add a 4 corners polygon primitive as box body*
4,1,4,$2,$3,$4,$5,$6,$7,$8,$9,$2,$3,0*
0 Add four circle primitives for the rounded corners*
1,1,$1+$1,$2,$3*
1,1,$1+$1,$4,$5*
1,1,$1+$1,$6,$7*
1,1,$1+$1,$8,$9*
0 Add four rect primitives between the rounded corners*
20,1,$1+$1,$2,$3,$4,$5,0*
20,1,$1+$1,$4,$5,$6,$7,0*
20,1,$1+$1,$6,$7,$8,$9,0*
20,1,$1+$1,$8,$9,$2,$3,0*%
G04 Aperture macros list end*
%TA.AperFunction,NonConductor*%
%ADD10C,0.200000*%
%TD*%
%TA.AperFunction,ComponentPad*%
%ADD11R,1.700000X1.700000*%
%TD*%
%TA.AperFunction,ComponentPad*%
%ADD12O,1.700000X1.700000*%
%TD*%
%TA.AperFunction,SMDPad,CuDef*%
%ADD13RoundRect,0.250000X0.312500X0.625000X-0.312500X0.625000X-0.312500X-0.625000X0.312500X-0.625000X0*%
%TD*%
%TA.AperFunction,SMDPad,CuDef*%
%ADD14RoundRect,0.250000X-0.325000X-0.650000X0.325000X-0.650000X0.325000X0.650000X-0.325000X0.650000X0*%
%TD*%
%TA.AperFunction,SMDPad,CuDef*%
%ADD15R,1.600000X1.400000*%
%TD*%
%TA.AperFunction,SMDPad,CuDef*%
%ADD16RoundRect,0.150000X0.512500X0.150000X-0.512500X0.150000X-0.512500X-0.150000X0.512500X-0.150000X0*%
%TD*%
%TA.AperFunction,SMDPad,CuDef*%
%ADD17R,0.800000X0.300000*%
%TD*%
%TA.AperFunction,SMDPad,CuDef*%
%ADD18R,0.300000X0.800000*%
%TD*%
%TA.AperFunction,SMDPad,CuDef*%
%ADD19R,1.760000X1.760000*%
%TD*%
%TA.AperFunction,SMDPad,CuDef*%
%ADD20RoundRect,0.250000X0.625000X-0.312500X0.625000X0.312500X-0.625000X0.312500X-0.625000X-0.312500X0*%
%TD*%
%TA.AperFunction,SMDPad,CuDef*%
%ADD21R,1.500000X2.000000*%
%TD*%
%TA.AperFunction,SMDPad,CuDef*%
%ADD22R,3.800000X2.000000*%
%TD*%
%TA.AperFunction,SMDPad,CuDef*%
%ADD23RoundRect,0.250000X-0.312500X-0.625000X0.312500X-0.625000X0.312500X0.625000X-0.312500X0.625000X0*%
%TD*%
%TA.AperFunction,SMDPad,CuDef*%
%ADD24RoundRect,0.250000X-0.650000X0.325000X-0.650000X-0.325000X0.650000X-0.325000X0.650000X0.325000X0*%
%TD*%
%TA.AperFunction,ComponentPad*%
%ADD25R,1.600000X1.600000*%
%TD*%
%TA.AperFunction,ComponentPad*%
%ADD26C,1.600000*%
%TD*%
%TA.AperFunction,ComponentPad*%
%ADD27C,4.000000*%
%TD*%
%TA.AperFunction,ComponentPad*%
%ADD28R,1.016000X1.016000*%
%TD*%
%TA.AperFunction,ComponentPad*%
%ADD29C,1.016000*%
%TD*%
%TA.AperFunction,SMDPad,CuDef*%
%ADD30RoundRect,0.075000X0.075000X-0.337500X0.075000X0.337500X-0.075000X0.337500X-0.075000X-0.337500X0*%
%TD*%
%TA.AperFunction,SMDPad,CuDef*%
%ADD31RoundRect,0.075000X0.337500X-0.075000X0.337500X0.075000X-0.337500X0.075000X-0.337500X-0.075000X0*%
%TD*%
%TA.AperFunction,SMDPad,CuDef*%
%ADD32R,2.500000X2.500000*%
%TD*%
%TA.AperFunction,SMDPad,CuDef*%
%ADD33RoundRect,0.250000X-0.625000X0.312500X-0.625000X-0.312500X0.625000X-0.312500X0.625000X0.312500X0*%
%TD*%
%TA.AperFunction,SMDPad,CuDef*%
%ADD34RoundRect,0.250000X0.650000X-0.325000X0.650000X0.325000X-0.650000X0.325000X-0.650000X-0.325000X0*%
%TD*%
%TA.AperFunction,ComponentPad*%
%ADD35R,1.158000X1.158000*%
%TD*%
%TA.AperFunction,ComponentPad*%
%ADD36C,1.158000*%
%TD*%
%TA.AperFunction,ComponentPad*%
%ADD37R,1.524000X1.524000*%
%TD*%
%TA.AperFunction,ComponentPad*%
%ADD38C,1.524000*%
%TD*%
%TA.AperFunction,SMDPad,CuDef*%
%ADD39RoundRect,0.250000X0.325000X0.650000X-0.325000X0.650000X-0.325000X-0.650000X0.325000X-0.650000X0*%
%TD*%
%TA.AperFunction,ViaPad*%
%ADD40C,0.600000*%
%TD*%
%TA.AperFunction,ViaPad*%
%ADD41C,0.800000*%
%TD*%
%TA.AperFunction,Conductor*%
%ADD42C,0.508000*%
%TD*%
%TA.AperFunction,Conductor*%
%ADD43C,0.245000*%
%TD*%
%TA.AperFunction,Conductor*%
%ADD44C,0.200000*%
%TD*%
G04 APERTURE END LIST*
D10*
X43180000Y-27940000D02*
X88900000Y-27940000D01*
X88900000Y-79375000D01*
X43180000Y-79375000D01*
X43180000Y-27940000D01*
D11*
%TO.P,J3,1,Pin_1*%
%TO.N,/SCL*%
X80010000Y-29845000D03*
D12*
%TO.P,J3,2,Pin_2*%
%TO.N,/SDA*%
X77470000Y-29845000D03*
%TD*%
D11*
%TO.P,J2,1,Pin_1*%
%TO.N,+5V*%
X59055000Y-29845000D03*
D12*
%TO.P,J2,2,Pin_2*%
%TO.N,+3.3V*%
X61595000Y-29845000D03*
%TO.P,J2,3,Pin_3*%
%TO.N,GND*%
X64135000Y-29845000D03*
%TD*%
D13*
%TO.P,R2,1*%
%TO.N,+3.3V*%
X78932500Y-36195000D03*
%TO.P,R2,2*%
%TO.N,/SDA*%
X76007500Y-36195000D03*
%TD*%
%TO.P,R8,1*%
%TO.N,GND*%
X84205000Y-72390000D03*
%TO.P,R8,2*%
%TO.N,Net-(LED1-KG)*%
X81280000Y-72390000D03*
%TD*%
D14*
%TO.P,C3,1*%
%TO.N,+5V*%
X74090000Y-66040000D03*
%TO.P,C3,2*%
%TO.N,GND*%
X77040000Y-66040000D03*
%TD*%
D15*
%TO.P,SW1,1,1*%
%TO.N,GND*%
X53720000Y-61015000D03*
X45720000Y-61015000D03*
%TO.P,SW1,2,2*%
%TO.N,/#RST*%
X53720000Y-56515000D03*
X45720000Y-56515000D03*
%TD*%
D16*
%TO.P,U1,1,VIN+*%
%TO.N,Net-(U1-VIN+)*%
X71622500Y-45400000D03*
%TO.P,U1,2,GND*%
%TO.N,GND*%
X71622500Y-44450000D03*
%TO.P,U1,3,SCL*%
%TO.N,/SCL*%
X71622500Y-43500000D03*
%TO.P,U1,4,SDA*%
%TO.N,/SDA*%
X69347500Y-43500000D03*
%TO.P,U1,5,VDD*%
%TO.N,+3.3V*%
X69347500Y-44450000D03*
%TO.P,U1,6,VIN-*%
%TO.N,GND*%
X69347500Y-45400000D03*
%TD*%
D17*
%TO.P,IC1,1,V+*%
%TO.N,+5V*%
X69445000Y-65000000D03*
%TO.P,IC1,2,IN1-*%
%TO.N,+3.3V*%
X69445000Y-64500000D03*
%TO.P,IC1,3,NC_1*%
%TO.N,unconnected-(IC1-NC_1-Pad3)*%
X69445000Y-64000000D03*
%TO.P,IC1,4,IN1+*%
%TO.N,Net-(IC1-IN1+)*%
X69445000Y-63500000D03*
D18*
%TO.P,IC1,5,IN2-*%
%TO.N,Net-(IC1-IN2-)*%
X68695000Y-62750000D03*
%TO.P,IC1,6,IN2+*%
%TO.N,Net-(IC1-IN1+)*%
X68195000Y-62750000D03*
%TO.P,IC1,7,IN3-*%
%TO.N,Net-(IC1-IN3-)*%
X67695000Y-62750000D03*
%TO.P,IC1,8,IN3+*%
%TO.N,Net-(IC1-IN1+)*%
X67195000Y-62750000D03*
D17*
%TO.P,IC1,9,IN4-*%
%TO.N,Net-(IC1-IN4-)*%
X66445000Y-63500000D03*
%TO.P,IC1,10,NC_2*%
%TO.N,unconnected-(IC1-NC_2-Pad10)*%
X66445000Y-64000000D03*
%TO.P,IC1,11,IN4+*%
%TO.N,Net-(IC1-IN1+)*%
X66445000Y-64500000D03*
%TO.P,IC1,12,V-*%
%TO.N,GND*%
X66445000Y-65000000D03*
D18*
%TO.P,IC1,13,OUT4*%
%TO.N,Net-(IC1-OUT4)*%
X67195000Y-65750000D03*
%TO.P,IC1,14,OUT3*%
%TO.N,Net-(IC1-OUT3)*%
X67695000Y-65750000D03*
%TO.P,IC1,15,OUT2*%
%TO.N,Net-(IC1-OUT2)*%
X68195000Y-65750000D03*
%TO.P,IC1,16,OUT1*%
%TO.N,Net-(IC1-OUT1)*%
X68695000Y-65750000D03*
D19*
%TO.P,IC1,17,EP*%
%TO.N,GND*%
X67945000Y-64250000D03*
%TD*%
D20*
%TO.P,R15,1*%
%TO.N,Umert*%
X85090000Y-42102500D03*
%TO.P,R15,2*%
%TO.N,GND*%
X85090000Y-39177500D03*
%TD*%
D21*
%TO.P,U4,1,VI*%
%TO.N,+5V*%
X65645000Y-39320000D03*
%TO.P,U4,2,GND*%
%TO.N,GND*%
X67945000Y-39320000D03*
D22*
X67945000Y-33020000D03*
D21*
%TO.P,U4,3,VO*%
%TO.N,+3.3V*%
X70245000Y-39320000D03*
%TD*%
D23*
%TO.P,R14,1*%
%TO.N,GND*%
X53782500Y-76200000D03*
%TO.P,R14,2*%
%TO.N,Net-(LED1-KE)*%
X56707500Y-76200000D03*
%TD*%
D13*
%TO.P,R6,1*%
%TO.N,Net-(IC1-IN1+)*%
X80202500Y-53975000D03*
%TO.P,R6,2*%
%TO.N,Net-(U8A--)*%
X77277500Y-53975000D03*
%TD*%
D24*
%TO.P,C1,1*%
%TO.N,+3.3V*%
X69850000Y-48055000D03*
%TO.P,C1,2*%
%TO.N,GND*%
X69850000Y-51005000D03*
%TD*%
D25*
%TO.P,J1,1,VBUS*%
%TO.N,+5V*%
X60127500Y-41890000D03*
D26*
%TO.P,J1,2,D-*%
%TO.N,/D-*%
X60127500Y-39390000D03*
%TO.P,J1,3,D+*%
%TO.N,/D+*%
X58127500Y-39390000D03*
%TO.P,J1,4,GND*%
%TO.N,GND*%
X58127500Y-41890000D03*
D27*
%TO.P,J1,5,Shield*%
X55267500Y-46640000D03*
X55267500Y-34640000D03*
%TD*%
D23*
%TO.P,R11,1*%
%TO.N,Net-(IC1-IN4-)*%
X64172500Y-60325000D03*
%TO.P,R11,2*%
%TO.N,Net-(IC1-IN3-)*%
X67097500Y-60325000D03*
%TD*%
D13*
%TO.P,R7,1*%
%TO.N,Net-(U8A--)*%
X75122500Y-53975000D03*
%TO.P,R7,2*%
%TO.N,GND*%
X72197500Y-53975000D03*
%TD*%
D28*
%TO.P,U3,1,A*%
%TO.N,+3.3V*%
X86110001Y-49530000D03*
D29*
%TO.P,U3,2,Cath*%
%TO.N,Net-(U3-Cath)*%
X86110001Y-48260000D03*
%TO.P,U3,3,E*%
%TO.N,Umert*%
X86110001Y-45720000D03*
%TO.P,U3,4,Coll*%
%TO.N,+3.3V*%
X86110001Y-44450000D03*
%TD*%
D23*
%TO.P,R13,1*%
%TO.N,GND*%
X53782500Y-72390000D03*
%TO.P,R13,2*%
%TO.N,Net-(LED1-KF)*%
X56707500Y-72390000D03*
%TD*%
%TO.P,R12,1*%
%TO.N,GND*%
X59092500Y-60325000D03*
%TO.P,R12,2*%
%TO.N,Net-(IC1-IN4-)*%
X62017500Y-60325000D03*
%TD*%
%TO.P,R10,1*%
%TO.N,Net-(IC1-IN3-)*%
X69252500Y-60325000D03*
%TO.P,R10,2*%
%TO.N,Net-(IC1-IN2-)*%
X72177500Y-60325000D03*
%TD*%
D13*
%TO.P,R3,1*%
%TO.N,+3.3V*%
X60517500Y-53975000D03*
%TO.P,R3,2*%
%TO.N,/#RST*%
X57592500Y-53975000D03*
%TD*%
D23*
%TO.P,R9,1*%
%TO.N,Net-(IC1-IN2-)*%
X74332500Y-60325000D03*
%TO.P,R9,2*%
%TO.N,+3.3V*%
X77257500Y-60325000D03*
%TD*%
D30*
%TO.P,U2,1,GP0*%
%TO.N,unconnected-(U2-GP0-Pad1)*%
X63795000Y-54675000D03*
%TO.P,U2,2,GP1*%
%TO.N,unconnected-(U2-GP1-Pad2)*%
X64445000Y-54675000D03*
%TO.P,U2,3,~{RST}*%
%TO.N,/#RST*%
X65095000Y-54675000D03*
%TO.P,U2,4,URx*%
%TO.N,unconnected-(U2-URx-Pad4)*%
X65745000Y-54675000D03*
D31*
%TO.P,U2,5,UTx*%
%TO.N,unconnected-(U2-UTx-Pad5)*%
X66707500Y-53712500D03*
%TO.P,U2,6,GP2*%
%TO.N,unconnected-(U2-GP2-Pad6)*%
X66707500Y-53062500D03*
%TO.P,U2,7,GP3*%
%TO.N,unconnected-(U2-GP3-Pad7)*%
X66707500Y-52412500D03*
%TO.P,U2,8,SDA*%
%TO.N,/SDA*%
X66707500Y-51762500D03*
D30*
%TO.P,U2,9,SCL*%
%TO.N,/SCL*%
X65745000Y-50800000D03*
%TO.P,U2,10,VUSB*%
%TO.N,Net-(U2-VUSB)*%
X65095000Y-50800000D03*
%TO.P,U2,11,D-*%
%TO.N,/D-*%
X64445000Y-50800000D03*
%TO.P,U2,12,D+*%
%TO.N,/D+*%
X63795000Y-50800000D03*
D31*
%TO.P,U2,13,VSS*%
%TO.N,GND*%
X62832500Y-51762500D03*
%TO.P,U2,14,NC*%
%TO.N,unconnected-(U2-NC-Pad14)*%
X62832500Y-52412500D03*
%TO.P,U2,15,NC*%
%TO.N,unconnected-(U2-NC-Pad15)*%
X62832500Y-53062500D03*
%TO.P,U2,16,VDD*%
%TO.N,+3.3V*%
X62832500Y-53712500D03*
D32*
%TO.P,U2,17,NC*%
%TO.N,unconnected-(U2-NC-Pad17)*%
X64770000Y-52737500D03*
%TD*%
D13*
%TO.P,R1,1*%
%TO.N,+3.3V*%
X78932500Y-38735000D03*
%TO.P,R1,2*%
%TO.N,/SCL*%
X76007500Y-38735000D03*
%TD*%
%TO.P,R4,1*%
%TO.N,GND*%
X84205000Y-76200000D03*
%TO.P,R4,2*%
%TO.N,Net-(LED1-KH)*%
X81280000Y-76200000D03*
%TD*%
D33*
%TO.P,R5,1*%
%TO.N,Net-(U3-Cath)*%
X83820000Y-53340000D03*
%TO.P,R5,2*%
%TO.N,GND*%
X83820000Y-56265000D03*
%TD*%
D34*
%TO.P,C4,1*%
%TO.N,+3.3V*%
X73025000Y-34495000D03*
%TO.P,C4,2*%
%TO.N,GND*%
X73025000Y-31545000D03*
%TD*%
D35*
%TO.P,LED1,1,KA*%
%TO.N,Net-(LED1-AH)*%
X77700000Y-69850000D03*
D36*
%TO.P,LED1,2,AA*%
%TO.N,Net-(IC1-OUT1)*%
X75160000Y-69850000D03*
%TO.P,LED1,3,AB*%
%TO.N,Net-(IC1-OUT2)*%
X72620000Y-69850000D03*
%TO.P,LED1,4,KB*%
%TO.N,Net-(LED1-AG)*%
X70080000Y-69850000D03*
%TO.P,LED1,5,KC*%
%TO.N,Net-(LED1-AF)*%
X67540000Y-69850000D03*
%TO.P,LED1,6,AC*%
%TO.N,Net-(IC1-OUT3)*%
X65000000Y-69850000D03*
%TO.P,LED1,7,AD*%
%TO.N,Net-(IC1-OUT4)*%
X62460000Y-69850000D03*
%TO.P,LED1,8,KD*%
%TO.N,Net-(LED1-AE)*%
X59920000Y-69850000D03*
%TO.P,LED1,9,KE*%
%TO.N,Net-(LED1-KE)*%
X59920000Y-77470000D03*
%TO.P,LED1,10,AE*%
%TO.N,Net-(LED1-AE)*%
X62460000Y-77470000D03*
%TO.P,LED1,11,AF*%
%TO.N,Net-(LED1-AF)*%
X65000000Y-77470000D03*
%TO.P,LED1,12,KF*%
%TO.N,Net-(LED1-KF)*%
X67540000Y-77470000D03*
%TO.P,LED1,13,KG*%
%TO.N,Net-(LED1-KG)*%
X70080000Y-77470000D03*
%TO.P,LED1,14,AG*%
%TO.N,Net-(LED1-AG)*%
X72620000Y-77470000D03*
%TO.P,LED1,15,AH*%
%TO.N,Net-(LED1-AH)*%
X75160000Y-77470000D03*
%TO.P,LED1,16,KH*%
%TO.N,Net-(LED1-KH)*%
X77700000Y-77470000D03*
%TD*%
D37*
%TO.P,U8,1*%
%TO.N,Net-(IC1-IN1+)*%
X82550000Y-50165000D03*
D38*
%TO.P,U8,2,-*%
%TO.N,Net-(U8A--)*%
X82550000Y-47625000D03*
%TO.P,U8,3,+*%
%TO.N,Umert*%
X82550000Y-45085000D03*
%TO.P,U8,4,V-*%
%TO.N,GND*%
X82550000Y-42545000D03*
%TO.P,U8,5,+*%
%TO.N,Umert*%
X74930000Y-42545000D03*
%TO.P,U8,6,-*%
%TO.N,Net-(U1-VIN+)*%
X74930000Y-45085000D03*
%TO.P,U8,7*%
X74930000Y-47625000D03*
%TO.P,U8,8,V+*%
%TO.N,+3.3V*%
X74930000Y-50165000D03*
%TD*%
D39*
%TO.P,C2,1*%
%TO.N,+3.3V*%
X60530000Y-50800000D03*
%TO.P,C2,2*%
%TO.N,GND*%
X57580000Y-50800000D03*
%TD*%
D34*
%TO.P,C5,1*%
%TO.N,Net-(U2-VUSB)*%
X64770000Y-47830000D03*
%TO.P,C5,2*%
%TO.N,GND*%
X64770000Y-44880000D03*
%TD*%
D40*
%TO.N,GND*%
X78740000Y-66040000D03*
X66675000Y-42545000D03*
X67945000Y-34925000D03*
%TO.N,/SCL*%
X74295000Y-39370000D03*
%TO.N,/SDA*%
X74172326Y-36707326D03*
%TO.N,+3.3V*%
X72185000Y-48055000D03*
X70485000Y-41275000D03*
%TO.N,GND*%
X67945000Y-67945000D03*
D41*
X56515000Y-41339500D03*
D40*
X67945000Y-45720000D03*
X70485000Y-53340000D03*
X64770000Y-66040000D03*
D41*
X61912500Y-47307500D03*
D40*
X81915000Y-56515000D03*
%TO.N,/SCL*%
X71755000Y-42545000D03*
%TO.N,/SDA*%
X69215000Y-42545000D03*
D41*
%TO.N,+5V*%
X76200000Y-63500000D03*
D40*
%TO.N,Net-(IC1-IN1+)*%
X66040000Y-62230000D03*
X65405000Y-64135000D03*
%TO.N,Net-(LED1-KF)*%
X57785000Y-74295000D03*
%TO.N,Net-(LED1-KG)*%
X80010000Y-74295000D03*
%TD*%
D42*
%TO.N,GND*%
X77040000Y-66040000D02*
X78740000Y-66040000D01*
X66675000Y-42545000D02*
X65405000Y-43815000D01*
X67945000Y-41275000D02*
X66675000Y-42545000D01*
X58127500Y-42887500D02*
X58127500Y-41890000D01*
X59055000Y-43815000D02*
X58127500Y-42887500D01*
X65405000Y-43815000D02*
X59055000Y-43815000D01*
X67945000Y-39320000D02*
X67945000Y-41275000D01*
X67945000Y-33020000D02*
X67945000Y-34925000D01*
%TO.N,+3.3V*%
X78932500Y-36195000D02*
X78932500Y-38735000D01*
X78932500Y-34998500D02*
X78105000Y-34171000D01*
X78932500Y-36195000D02*
X78932500Y-34998500D01*
X78105000Y-34171000D02*
X84971000Y-34171000D01*
X73349000Y-34171000D02*
X78105000Y-34171000D01*
X87630000Y-36830000D02*
X87630000Y-43648421D01*
X84971000Y-34171000D02*
X87630000Y-36830000D01*
X73025000Y-34495000D02*
X73349000Y-34171000D01*
X87630000Y-43648421D02*
X86828421Y-44450000D01*
D43*
%TO.N,/SCL*%
X74930000Y-38735000D02*
X74295000Y-39370000D01*
X76007500Y-38735000D02*
X74930000Y-38735000D01*
%TO.N,/SDA*%
X74684652Y-36195000D02*
X74172326Y-36707326D01*
X76007500Y-36195000D02*
X74684652Y-36195000D01*
%TO.N,Umert*%
X84455000Y-43180000D02*
X82550000Y-45085000D01*
X84455000Y-42737500D02*
X84455000Y-43180000D01*
X85090000Y-42102500D02*
X84455000Y-42737500D01*
D42*
%TO.N,+3.3V*%
X61595000Y-31516000D02*
X67945000Y-37866000D01*
X61595000Y-29845000D02*
X61595000Y-31516000D01*
X67945000Y-37866000D02*
X69149000Y-37866000D01*
X63500000Y-37866000D02*
X67945000Y-37866000D01*
X70245000Y-41035000D02*
X70485000Y-41275000D01*
X70245000Y-39320000D02*
X70245000Y-41035000D01*
X72185000Y-48055000D02*
X69850000Y-48055000D01*
X74295000Y-50165000D02*
X72185000Y-48055000D01*
X74930000Y-50165000D02*
X74295000Y-50165000D01*
D43*
%TO.N,/SCL*%
X65745000Y-49825000D02*
X65745000Y-50800000D01*
X66262500Y-49307500D02*
X65745000Y-49825000D01*
X66262500Y-49307500D02*
X66262500Y-44227500D01*
X66262500Y-44227500D02*
X68580000Y-41910000D01*
X70032500Y-41910000D02*
X71622500Y-43500000D01*
X68580000Y-41910000D02*
X70032500Y-41910000D01*
D44*
%TO.N,/D-*%
X60127500Y-39390000D02*
X58877500Y-40640000D01*
X55245000Y-42545000D02*
X56515000Y-42545000D01*
X58877500Y-40640000D02*
X55245000Y-40640000D01*
X55010000Y-40875000D02*
X55010000Y-42310000D01*
X62723185Y-45955000D02*
X62230000Y-45955000D01*
X59925000Y-45955000D02*
X62230000Y-45955000D01*
X63102410Y-47915227D02*
X63102410Y-46334225D01*
X56515000Y-42545000D02*
X59925000Y-45955000D01*
X64445000Y-49257817D02*
X63102410Y-47915227D01*
X63102410Y-46334225D02*
X62723185Y-45955000D01*
X55245000Y-40640000D02*
X55010000Y-40875000D01*
X64445000Y-50800000D02*
X64445000Y-49257817D01*
X55010000Y-42310000D02*
X55245000Y-42545000D01*
%TO.N,/D+*%
X62702410Y-46827410D02*
X62230000Y-46355000D01*
X59690000Y-46355000D02*
X62230000Y-46355000D01*
X55860000Y-39390000D02*
X54610000Y-40640000D01*
X55245000Y-43180000D02*
X56515000Y-43180000D01*
X62702410Y-49707410D02*
X62702410Y-46827410D01*
X58127500Y-39390000D02*
X55860000Y-39390000D01*
X63795000Y-50800000D02*
X62702410Y-49707410D01*
X56515000Y-43180000D02*
X59690000Y-46355000D01*
X54610000Y-40640000D02*
X54610000Y-42545000D01*
X54610000Y-42545000D02*
X55245000Y-43180000D01*
D43*
%TO.N,GND*%
X82165000Y-56265000D02*
X81915000Y-56515000D01*
X70287628Y-45400000D02*
X71237628Y-44450000D01*
X67195000Y-65000000D02*
X67945000Y-64250000D01*
X66445000Y-65000000D02*
X67195000Y-65000000D01*
X61912500Y-50842500D02*
X61912500Y-47307500D01*
X71237628Y-44450000D02*
X71622500Y-44450000D01*
X83820000Y-56265000D02*
X82165000Y-56265000D01*
X65810000Y-65000000D02*
X64770000Y-66040000D01*
X69347500Y-45400000D02*
X68265000Y-45400000D01*
X69347500Y-45400000D02*
X70287628Y-45400000D01*
D42*
X57065500Y-41890000D02*
X58127500Y-41890000D01*
D43*
X69850000Y-52705000D02*
X69850000Y-51005000D01*
D42*
X56515000Y-41339500D02*
X57065500Y-41890000D01*
D43*
X66445000Y-65000000D02*
X65810000Y-65000000D01*
X70485000Y-53340000D02*
X69850000Y-52705000D01*
X62832500Y-51762500D02*
X61912500Y-50842500D01*
X68265000Y-45400000D02*
X67945000Y-45720000D01*
%TO.N,+3.3V*%
X68785000Y-46990000D02*
X67945000Y-46990000D01*
X67310000Y-46355000D02*
X67310000Y-45085000D01*
D42*
X69149000Y-37866000D02*
X70245000Y-38962000D01*
X55015526Y-43734000D02*
X54056000Y-42774474D01*
X54056000Y-40410526D02*
X56600526Y-37866000D01*
X70245000Y-37275000D02*
X70245000Y-39320000D01*
X73025000Y-34495000D02*
X70245000Y-37275000D01*
X56600526Y-37866000D02*
X63500000Y-37866000D01*
D43*
X62832500Y-53712500D02*
X60780000Y-53712500D01*
D42*
X87072001Y-44693580D02*
X87072001Y-48658474D01*
X60517500Y-47965974D02*
X56285526Y-43734000D01*
X60517500Y-53975000D02*
X60517500Y-47965974D01*
X70245000Y-38962000D02*
X70245000Y-39320000D01*
X81700034Y-60325000D02*
X77257500Y-60325000D01*
X56285526Y-43734000D02*
X55015526Y-43734000D01*
X60530000Y-50800000D02*
X60530000Y-53962500D01*
X86110001Y-55915033D02*
X81700034Y-60325000D01*
X86110001Y-49530000D02*
X86110001Y-55915033D01*
X86828421Y-44450000D02*
X87072001Y-44693580D01*
D43*
X77257500Y-60325000D02*
X73082500Y-64500000D01*
X69850000Y-48055000D02*
X68785000Y-46990000D01*
D42*
X60530000Y-53962500D02*
X60517500Y-53975000D01*
D43*
X67310000Y-45085000D02*
X67945000Y-44450000D01*
X67945000Y-46990000D02*
X67310000Y-46355000D01*
D42*
X86200475Y-49530000D02*
X86110001Y-49530000D01*
D43*
X67945000Y-44450000D02*
X69347500Y-44450000D01*
X60780000Y-53712500D02*
X60517500Y-53975000D01*
D42*
X87072001Y-48658474D02*
X86200475Y-49530000D01*
X86110001Y-44450000D02*
X86828421Y-44450000D01*
X54056000Y-42774474D02*
X54056000Y-40410526D01*
D43*
X73082500Y-64500000D02*
X69445000Y-64500000D01*
%TO.N,/SCL*%
X71622500Y-43500000D02*
X71622500Y-42677500D01*
X71622500Y-42677500D02*
X71755000Y-42545000D01*
%TO.N,/SDA*%
X69215000Y-42545000D02*
X69347500Y-42677500D01*
X67310000Y-43815000D02*
X67625000Y-43500000D01*
X66707500Y-44417500D02*
X67310000Y-43815000D01*
X67625000Y-43500000D02*
X69347500Y-43500000D01*
X69347500Y-42677500D02*
X69347500Y-43500000D01*
X66707500Y-51762500D02*
X66707500Y-44417500D01*
%TO.N,/#RST*%
X65095000Y-54675000D02*
X65095000Y-56190000D01*
X57592500Y-53975000D02*
X56515000Y-53975000D01*
X53975000Y-56515000D02*
X53720000Y-56515000D01*
X53720000Y-56515000D02*
X45720000Y-56515000D01*
X65095000Y-56190000D02*
X64770000Y-56515000D01*
X56515000Y-53975000D02*
X53975000Y-56515000D01*
X64770000Y-56515000D02*
X53720000Y-56515000D01*
%TO.N,Net-(U3-Cath)*%
X83820000Y-50165000D02*
X83820000Y-53340000D01*
X85725000Y-48260000D02*
X83820000Y-50165000D01*
X86110001Y-48260000D02*
X85725000Y-48260000D01*
%TO.N,Net-(U2-VUSB)*%
X65095000Y-50800000D02*
X65095000Y-48155000D01*
X65095000Y-48155000D02*
X64770000Y-47830000D01*
%TO.N,Net-(U1-VIN+)*%
X71937500Y-45085000D02*
X71622500Y-45400000D01*
X74930000Y-45085000D02*
X74930000Y-47625000D01*
X74930000Y-45085000D02*
X71937500Y-45085000D01*
D42*
%TO.N,+5V*%
X65645000Y-39320000D02*
X63055000Y-41910000D01*
X61575000Y-41890000D02*
X60127500Y-41890000D01*
X76200000Y-63930000D02*
X74090000Y-66040000D01*
D43*
X71350000Y-65000000D02*
X72390000Y-66040000D01*
D42*
X63055000Y-41910000D02*
X61595000Y-41910000D01*
D43*
X69445000Y-65000000D02*
X71350000Y-65000000D01*
D42*
X61595000Y-41910000D02*
X61575000Y-41890000D01*
D43*
X72390000Y-66040000D02*
X74090000Y-66040000D01*
D42*
X76200000Y-63500000D02*
X76200000Y-63930000D01*
D43*
%TO.N,Net-(IC1-IN1+)*%
X76931250Y-57246250D02*
X75217500Y-58960000D01*
X66675000Y-62230000D02*
X67195000Y-62750000D01*
X69850000Y-61595000D02*
X71292500Y-60152500D01*
X68195000Y-62750000D02*
X68195000Y-62055000D01*
X66040000Y-62230000D02*
X66675000Y-62230000D01*
X66212500Y-59455936D02*
X67248436Y-58420000D01*
X82550000Y-51627500D02*
X80202500Y-53975000D01*
X71755000Y-58420000D02*
X72390000Y-57785000D01*
X71292500Y-58882500D02*
X72390000Y-57785000D01*
X72390000Y-57785000D02*
X72928750Y-57246250D01*
X67195000Y-62750000D02*
X66212500Y-61767500D01*
X65770000Y-64500000D02*
X65405000Y-64135000D01*
X67248436Y-58420000D02*
X71755000Y-58420000D01*
X66445000Y-64500000D02*
X65770000Y-64500000D01*
X71292500Y-60152500D02*
X71292500Y-58882500D01*
X75217500Y-61194064D02*
X72911564Y-63500000D01*
X72928750Y-57246250D02*
X76931250Y-57246250D01*
X80202500Y-53975000D02*
X76931250Y-57246250D01*
X68655000Y-61595000D02*
X69850000Y-61595000D01*
X82550000Y-50165000D02*
X82550000Y-51627500D01*
X68195000Y-62055000D02*
X68655000Y-61595000D01*
X75217500Y-58960000D02*
X75217500Y-61194064D01*
X66212500Y-61767500D02*
X66212500Y-59455936D01*
X72911564Y-63500000D02*
X69445000Y-63500000D01*
%TO.N,Net-(IC1-IN2-)*%
X72177500Y-60325000D02*
X70272500Y-62230000D01*
X69215000Y-62230000D02*
X68695000Y-62750000D01*
X74332500Y-60325000D02*
X72177500Y-60325000D01*
X70272500Y-62230000D02*
X69215000Y-62230000D01*
%TO.N,Net-(IC1-IN3-)*%
X67695000Y-60922500D02*
X67695000Y-62750000D01*
X67097500Y-60325000D02*
X67695000Y-60922500D01*
X67097500Y-60325000D02*
X69252500Y-60325000D01*
%TO.N,Net-(IC1-IN4-)*%
X62017500Y-60325000D02*
X64172500Y-60325000D01*
X65000000Y-63500000D02*
X66445000Y-63500000D01*
X64172500Y-60325000D02*
X64172500Y-62672500D01*
X64172500Y-62672500D02*
X65000000Y-63500000D01*
%TO.N,Net-(IC1-OUT4)*%
X67195000Y-65750000D02*
X67195000Y-67025674D01*
X65840337Y-68380337D02*
X63929663Y-68380337D01*
X63929663Y-68380337D02*
X62460000Y-69850000D01*
X67195000Y-67025674D02*
X65840337Y-68380337D01*
%TO.N,Net-(IC1-OUT3)*%
X67695000Y-65750000D02*
X67695000Y-67155000D01*
X67695000Y-67155000D02*
X65000000Y-69850000D01*
%TO.N,Net-(IC1-OUT2)*%
X68195000Y-66925000D02*
X69215000Y-67945000D01*
X68195000Y-65750000D02*
X68195000Y-66925000D01*
X70715000Y-67945000D02*
X72620000Y-69850000D01*
X69215000Y-67945000D02*
X70715000Y-67945000D01*
%TO.N,Net-(IC1-OUT1)*%
X72620000Y-67310000D02*
X75160000Y-69850000D01*
X69215000Y-67310000D02*
X72620000Y-67310000D01*
X68695000Y-66790000D02*
X69215000Y-67310000D01*
X68695000Y-65750000D02*
X68695000Y-66790000D01*
%TO.N,Net-(U8A--)*%
X77277500Y-53975000D02*
X77277500Y-52897500D01*
X77277500Y-52897500D02*
X82550000Y-47625000D01*
X77277500Y-53975000D02*
X75122500Y-53975000D01*
%TO.N,Umert*%
X86110001Y-45720000D02*
X83185000Y-45720000D01*
X74930000Y-42545000D02*
X80010000Y-42545000D01*
X83185000Y-45720000D02*
X82550000Y-45085000D01*
X80010000Y-42545000D02*
X82550000Y-45085000D01*
%TO.N,Net-(LED1-AH)*%
X77700000Y-74930000D02*
X75160000Y-77470000D01*
X77700000Y-69850000D02*
X77700000Y-74930000D01*
%TO.N,Net-(LED1-AG)*%
X70080000Y-74930000D02*
X72620000Y-77470000D01*
X70080000Y-69850000D02*
X70080000Y-74930000D01*
%TO.N,Net-(LED1-AF)*%
X67540000Y-74930000D02*
X65000000Y-77470000D01*
X67540000Y-69850000D02*
X67540000Y-74930000D01*
%TO.N,Net-(LED1-AE)*%
X59920000Y-69850000D02*
X59920000Y-74930000D01*
X59920000Y-74930000D02*
X62460000Y-77470000D01*
%TO.N,Net-(LED1-KE)*%
X58650000Y-76200000D02*
X59920000Y-77470000D01*
X56707500Y-76200000D02*
X58650000Y-76200000D01*
%TO.N,Net-(LED1-KF)*%
X56707500Y-73217500D02*
X57785000Y-74295000D01*
X56707500Y-72390000D02*
X56707500Y-73217500D01*
%TO.N,Net-(LED1-KG)*%
X81280000Y-73025000D02*
X80010000Y-74295000D01*
X81280000Y-72390000D02*
X81280000Y-73025000D01*
%TO.N,Net-(LED1-KH)*%
X80010000Y-77470000D02*
X77700000Y-77470000D01*
X81280000Y-76200000D02*
X80010000Y-77470000D01*
%TD*%
%TA.AperFunction,Conductor*%
%TO.N,GND*%
G36*
X57739350Y-28560185D02*
G01*
X57785105Y-28612989D01*
X57795049Y-28682147D01*
X57771578Y-28738811D01*
X57761204Y-28752668D01*
X57761202Y-28752671D01*
X57710908Y-28887517D01*
X57704501Y-28947116D01*
X57704501Y-28947123D01*
X57704500Y-28947135D01*
X57704500Y-30742870D01*
X57704501Y-30742876D01*
X57710908Y-30802483D01*
X57761202Y-30937328D01*
X57761206Y-30937335D01*
X57847452Y-31052544D01*
X57847455Y-31052547D01*
X57962664Y-31138793D01*
X57962671Y-31138797D01*
X58097517Y-31189091D01*
X58097516Y-31189091D01*
X58104444Y-31189835D01*
X58157127Y-31195500D01*
X59952872Y-31195499D01*
X60012483Y-31189091D01*
X60147331Y-31138796D01*
X60262546Y-31052546D01*
X60348796Y-30937331D01*
X60397810Y-30805916D01*
X60439681Y-30749984D01*
X60505145Y-30725566D01*
X60573418Y-30740417D01*
X60601673Y-30761569D01*
X60723597Y-30883493D01*
X60723603Y-30883498D01*
X60787623Y-30928325D01*
X60831248Y-30982901D01*
X60840500Y-31029900D01*
X60840499Y-31452000D01*
X60839191Y-31469966D01*
X60835684Y-31493909D01*
X60840264Y-31546241D01*
X60840500Y-31551648D01*
X60840500Y-31559946D01*
X60844325Y-31592674D01*
X60851056Y-31669610D01*
X60852516Y-31676677D01*
X60852464Y-31676687D01*
X60854123Y-31684167D01*
X60854174Y-31684155D01*
X60855839Y-31691180D01*
X60882247Y-31763740D01*
X60906535Y-31837034D01*
X60909586Y-31843575D01*
X60909536Y-31843598D01*
X60912876Y-31850497D01*
X60912925Y-31850473D01*
X60916165Y-31856925D01*
X60958599Y-31921444D01*
X60999131Y-31987156D01*
X61003611Y-31992822D01*
X61003569Y-31992855D01*
X61008401Y-31998786D01*
X61008443Y-31998752D01*
X61013081Y-32004280D01*
X61013085Y-32004285D01*
X61032601Y-32022697D01*
X61069247Y-32057272D01*
X65911795Y-36899819D01*
X65945280Y-36961142D01*
X65940296Y-37030834D01*
X65898424Y-37086767D01*
X65832960Y-37111184D01*
X65824114Y-37111500D01*
X56664518Y-37111500D01*
X56646549Y-37110191D01*
X56622615Y-37106685D01*
X56579453Y-37110462D01*
X56570284Y-37111264D01*
X56564885Y-37111500D01*
X56556583Y-37111500D01*
X56534753Y-37114051D01*
X56523838Y-37115327D01*
X56518853Y-37115763D01*
X56446911Y-37122056D01*
X56444475Y-37122560D01*
X56442765Y-37122419D01*
X56439720Y-37122686D01*
X56439674Y-37122165D01*
X56374840Y-37116839D01*
X56319353Y-37074378D01*
X56295630Y-37008658D01*
X56311204Y-36940547D01*
X56359664Y-36892460D01*
X56609709Y-36754996D01*
X56609719Y-36754990D01*
X56852526Y-36578579D01*
X56852527Y-36578579D01*
X55987871Y-35713924D01*
X55954386Y-35652601D01*
X55959370Y-35582910D01*
X56000825Y-35527289D01*
X56045569Y-35493501D01*
X56162659Y-35365059D01*
X56222366Y-35328782D01*
X56292213Y-35330542D01*
X56341973Y-35360920D01*
X57203212Y-36222160D01*
X57294044Y-36112364D01*
X57462596Y-35846767D01*
X57462599Y-35846761D01*
X57596534Y-35562137D01*
X57596538Y-35562129D01*
X57693744Y-35262958D01*
X57752691Y-34953949D01*
X57752692Y-34953942D01*
X57772443Y-34640005D01*
X57772443Y-34639994D01*
X57752692Y-34326057D01*
X57752691Y-34326050D01*
X57693744Y-34017041D01*
X57596536Y-33717867D01*
X57596534Y-33717862D01*
X57462599Y-33433238D01*
X57462596Y-33433232D01*
X57294042Y-33167632D01*
X57294039Y-33167628D01*
X57203212Y-33057838D01*
X56341973Y-33919078D01*
X56280650Y-33952563D01*
X56210958Y-33947579D01*
X56162655Y-33914935D01*
X56045570Y-33786499D01*
X56000824Y-33752708D01*
X55959189Y-33696599D01*
X55954498Y-33626887D01*
X55987871Y-33566074D01*
X56852527Y-32701419D01*
X56852526Y-32701417D01*
X56609727Y-32525014D01*
X56609709Y-32525003D01*
X56334052Y-32373459D01*
X56334044Y-32373455D01*
X56041573Y-32257659D01*
X55736879Y-32179426D01*
X55736870Y-32179424D01*
X55424798Y-32140000D01*
X55110201Y-32140000D01*
X54798129Y-32179424D01*
X54798120Y-32179426D01*
X54493426Y-32257659D01*
X54200955Y-32373455D01*
X54200947Y-32373459D01*
X53925287Y-32525004D01*
X53925282Y-32525007D01*
X53682472Y-32701418D01*
X53682471Y-32701419D01*
X54547128Y-33566075D01*
X54580613Y-33627398D01*
X54575629Y-33697089D01*
X54534175Y-33752709D01*
X54489432Y-33786497D01*
X54372344Y-33914936D01*
X54312632Y-33951217D01*
X54242785Y-33949456D01*
X54193026Y-33919078D01*
X53331786Y-33057838D01*
X53331785Y-33057838D01*
X53240959Y-33167629D01*
X53240957Y-33167632D01*
X53072403Y-33433232D01*
X53072400Y-33433238D01*
X52938465Y-33717862D01*
X52938463Y-33717867D01*
X52841255Y-34017041D01*
X52782308Y-34326050D01*
X52782307Y-34326057D01*
X52762557Y-34639994D01*
X52762557Y-34640005D01*
X52782307Y-34953942D01*
X52782308Y-34953949D01*
X52841255Y-35262958D01*
X52938462Y-35562129D01*
X52938465Y-35562137D01*
X53072400Y-35846761D01*
X53072403Y-35846767D01*
X53240957Y-36112367D01*
X53240960Y-36112371D01*
X53331786Y-36222160D01*
X54193025Y-35360920D01*
X54254348Y-35327435D01*
X54324039Y-35332419D01*
X54372343Y-35365062D01*
X54489431Y-35493501D01*
X54534173Y-35527289D01*
X54575809Y-35583399D01*
X54580500Y-35653111D01*
X54547127Y-35713924D01*
X53682471Y-36578579D01*
X53682472Y-36578581D01*
X53925272Y-36754985D01*
X53925290Y-36754996D01*
X54200947Y-36906540D01*
X54200955Y-36906544D01*
X54493426Y-37022340D01*
X54798120Y-37100573D01*
X54798129Y-37100575D01*
X55110201Y-37139999D01*
X55110215Y-37140000D01*
X55424785Y-37140000D01*
X55424798Y-37139999D01*
X55736870Y-37100575D01*
X55736879Y-37100573D01*
X56041570Y-37022341D01*
X56096925Y-37000425D01*
X56166503Y-36994048D01*
X56228483Y-37026300D01*
X56263188Y-37086941D01*
X56259598Y-37156718D01*
X56218854Y-37213478D01*
X56210715Y-37219316D01*
X56195084Y-37229597D01*
X56129375Y-37270128D01*
X56123705Y-37274611D01*
X56123672Y-37274569D01*
X56117740Y-37279401D01*
X56117774Y-37279442D01*
X56112243Y-37284082D01*
X56059254Y-37340247D01*
X53567742Y-39831758D01*
X53554113Y-39843537D01*
X53534706Y-39857985D01*
X53500939Y-39898226D01*
X53497295Y-39902204D01*
X53491419Y-39908081D01*
X53470972Y-39933940D01*
X53421334Y-39993096D01*
X53417366Y-39999131D01*
X53417322Y-39999102D01*
X53413209Y-40005557D01*
X53413254Y-40005585D01*
X53409459Y-40011737D01*
X53376827Y-40081717D01*
X53342176Y-40150714D01*
X53339704Y-40157505D01*
X53339655Y-40157487D01*
X53337141Y-40164719D01*
X53337191Y-40164736D01*
X53334920Y-40171588D01*
X53319304Y-40247214D01*
X53301498Y-40322344D01*
X53300661Y-40329513D01*
X53300607Y-40329506D01*
X53299830Y-40337122D01*
X53299883Y-40337127D01*
X53299253Y-40344316D01*
X53301500Y-40421507D01*
X53301499Y-42710474D01*
X53300191Y-42728440D01*
X53296684Y-42752383D01*
X53301264Y-42804715D01*
X53301500Y-42810122D01*
X53301500Y-42818420D01*
X53305325Y-42851148D01*
X53312056Y-42928084D01*
X53313516Y-42935151D01*
X53313464Y-42935161D01*
X53315123Y-42942641D01*
X53315174Y-42942629D01*
X53316839Y-42949654D01*
X53316839Y-42949656D01*
X53316840Y-42949658D01*
X53331109Y-42988862D01*
X53343247Y-43022214D01*
X53367535Y-43095508D01*
X53370586Y-43102049D01*
X53370536Y-43102072D01*
X53373876Y-43108971D01*
X53373925Y-43108947D01*
X53377162Y-43115394D01*
X53377164Y-43115398D01*
X53416456Y-43175139D01*
X53419599Y-43179918D01*
X53460131Y-43245630D01*
X53464611Y-43251296D01*
X53464569Y-43251329D01*
X53469401Y-43257260D01*
X53469443Y-43257226D01*
X53474081Y-43262754D01*
X53474085Y-43262759D01*
X53496924Y-43284306D01*
X53530247Y-43315746D01*
X54344710Y-44130208D01*
X54378195Y-44191531D01*
X54373211Y-44261222D01*
X54331339Y-44317156D01*
X54302677Y-44333181D01*
X54200950Y-44373458D01*
X54200947Y-44373459D01*
X53925287Y-44525004D01*
X53925282Y-44525007D01*
X53682472Y-44701418D01*
X53682471Y-44701419D01*
X54547128Y-45566075D01*
X54580613Y-45627398D01*
X54575629Y-45697089D01*
X54534175Y-45752709D01*
X54489432Y-45786497D01*
X54372344Y-45914936D01*
X54312632Y-45951217D01*
X54242785Y-45949456D01*
X54193026Y-45919078D01*
X53331786Y-45057838D01*
X53331785Y-45057838D01*
X53240959Y-45167629D01*
X53240957Y-45167632D01*
X53072403Y-45433232D01*
X53072400Y-45433238D01*
X52938465Y-45717862D01*
X52938463Y-45717867D01*
X52841255Y-46017041D01*
X52782308Y-46326050D01*
X52782307Y-46326057D01*
X52762557Y-46639994D01*
X52762557Y-46640005D01*
X52782307Y-46953942D01*
X52782308Y-46953949D01*
X52841255Y-47262958D01*
X52938463Y-47562132D01*
X52938465Y-47562137D01*
X53072400Y-47846761D01*
X53072403Y-47846767D01*
X53240957Y-48112367D01*
X53240960Y-48112371D01*
X53331786Y-48222160D01*
X54193025Y-47360920D01*
X54254348Y-47327435D01*
X54324039Y-47332419D01*
X54372341Y-47365061D01*
X54433525Y-47432175D01*
X54489431Y-47493501D01*
X54534173Y-47527289D01*
X54575809Y-47583399D01*
X54580500Y-47653111D01*
X54547127Y-47713924D01*
X53682471Y-48578579D01*
X53682472Y-48578581D01*
X53925272Y-48754985D01*
X53925290Y-48754996D01*
X54200947Y-48906540D01*
X54200955Y-48906544D01*
X54493426Y-49022340D01*
X54798120Y-49100573D01*
X54798129Y-49100575D01*
X55110201Y-49139999D01*
X55110215Y-49140000D01*
X55424785Y-49140000D01*
X55424798Y-49139999D01*
X55736870Y-49100575D01*
X55736879Y-49100573D01*
X56041573Y-49022340D01*
X56334044Y-48906544D01*
X56334052Y-48906540D01*
X56609709Y-48754996D01*
X56609719Y-48754990D01*
X56852526Y-48578579D01*
X56852527Y-48578579D01*
X55987871Y-47713924D01*
X55954386Y-47652601D01*
X55959370Y-47582910D01*
X56000825Y-47527289D01*
X56045569Y-47493501D01*
X56162659Y-47365059D01*
X56222366Y-47328782D01*
X56292213Y-47330542D01*
X56341973Y-47360920D01*
X57203212Y-48222160D01*
X57294044Y-48112364D01*
X57462596Y-47846767D01*
X57462599Y-47846761D01*
X57596534Y-47562137D01*
X57596536Y-47562132D01*
X57693744Y-47262958D01*
X57752691Y-46953949D01*
X57752692Y-46953942D01*
X57772443Y-46640005D01*
X57772443Y-46639996D01*
X57769411Y-46591813D01*
X57784846Y-46523670D01*
X57834673Y-46474689D01*
X57903070Y-46460422D01*
X57968323Y-46485398D01*
X57980847Y-46496345D01*
X59726680Y-48242178D01*
X59760165Y-48303501D01*
X59762999Y-48329859D01*
X59762999Y-49479269D01*
X59743314Y-49546308D01*
X59726681Y-49566950D01*
X59612287Y-49681345D01*
X59520187Y-49830663D01*
X59520185Y-49830668D01*
X59520115Y-49830880D01*
X59465001Y-49997203D01*
X59465001Y-49997204D01*
X59465000Y-49997204D01*
X59454500Y-50099983D01*
X59454500Y-51500001D01*
X59454501Y-51500018D01*
X59465000Y-51602796D01*
X59465001Y-51602799D01*
X59517756Y-51762000D01*
X59520186Y-51769334D01*
X59612096Y-51918345D01*
X59612289Y-51918657D01*
X59726681Y-52033049D01*
X59760166Y-52094372D01*
X59763000Y-52120730D01*
X59763000Y-52679269D01*
X59743315Y-52746308D01*
X59726682Y-52766950D01*
X59612287Y-52881345D01*
X59520187Y-53030663D01*
X59520185Y-53030668D01*
X59500690Y-53089500D01*
X59465001Y-53197203D01*
X59465001Y-53197204D01*
X59465000Y-53197204D01*
X59454500Y-53299983D01*
X59454500Y-54650001D01*
X59454501Y-54650018D01*
X59465000Y-54752796D01*
X59465001Y-54752799D01*
X59484478Y-54811576D01*
X59520186Y-54919334D01*
X59612288Y-55068656D01*
X59736344Y-55192712D01*
X59885666Y-55284814D01*
X60052203Y-55339999D01*
X60154991Y-55350500D01*
X60880008Y-55350499D01*
X60880016Y-55350498D01*
X60880019Y-55350498D01*
X60941094Y-55344259D01*
X60982797Y-55339999D01*
X61149334Y-55284814D01*
X61298656Y-55192712D01*
X61422712Y-55068656D01*
X61514814Y-54919334D01*
X61569999Y-54752797D01*
X61580500Y-54650009D01*
X61580500Y-54459500D01*
X61600185Y-54392461D01*
X61652989Y-54346706D01*
X61704500Y-54335500D01*
X62289470Y-54335500D01*
X62336918Y-54344937D01*
X62344764Y-54348187D01*
X62457280Y-54363000D01*
X63020500Y-54363000D01*
X63087539Y-54382685D01*
X63133294Y-54435489D01*
X63144500Y-54487000D01*
X63144500Y-55050227D01*
X63159313Y-55162735D01*
X63159313Y-55162736D01*
X63209879Y-55284814D01*
X63217302Y-55302733D01*
X63309549Y-55422951D01*
X63429767Y-55515198D01*
X63569764Y-55573187D01*
X63682280Y-55588000D01*
X63682287Y-55588000D01*
X63907713Y-55588000D01*
X63907720Y-55588000D01*
X64020236Y-55573187D01*
X64072550Y-55551517D01*
X64142015Y-55544049D01*
X64167443Y-55551514D01*
X64219764Y-55573187D01*
X64332280Y-55588000D01*
X64348000Y-55588000D01*
X64415039Y-55607685D01*
X64460794Y-55660489D01*
X64472000Y-55712000D01*
X64472000Y-55768000D01*
X64452315Y-55835039D01*
X64399511Y-55880794D01*
X64348000Y-55892000D01*
X55778417Y-55892000D01*
X55711378Y-55872315D01*
X55665623Y-55819511D01*
X55655679Y-55750353D01*
X55684704Y-55686797D01*
X55690736Y-55680319D01*
X55855857Y-55515198D01*
X56429564Y-54941489D01*
X56490885Y-54908006D01*
X56560576Y-54912990D01*
X56616510Y-54954861D01*
X56622781Y-54964075D01*
X56687285Y-55068652D01*
X56687287Y-55068655D01*
X56687288Y-55068656D01*
X56811344Y-55192712D01*
X56960666Y-55284814D01*
X57127203Y-55339999D01*
X57229991Y-55350500D01*
X57955008Y-55350499D01*
X57955016Y-55350498D01*
X57955019Y-55350498D01*
X58016094Y-55344259D01*
X58057797Y-55339999D01*
X58224334Y-55284814D01*
X58373656Y-55192712D01*
X58497712Y-55068656D01*
X58589814Y-54919334D01*
X58644999Y-54752797D01*
X58655500Y-54650009D01*
X58655499Y-53299992D01*
X58644999Y-53197203D01*
X58589814Y-53030666D01*
X58497712Y-52881344D01*
X58373656Y-52757288D01*
X58264644Y-52690049D01*
X58224336Y-52665187D01*
X58224331Y-52665185D01*
X58214568Y-52661950D01*
X58057797Y-52610001D01*
X58057795Y-52610000D01*
X57955010Y-52599500D01*
X57229998Y-52599500D01*
X57229980Y-52599501D01*
X57127203Y-52610000D01*
X57127200Y-52610001D01*
X56960668Y-52665185D01*
X56960663Y-52665187D01*
X56811342Y-52757289D01*
X56687289Y-52881342D01*
X56595187Y-53030663D01*
X56595185Y-53030668D01*
X56575690Y-53089500D01*
X56540001Y-53197203D01*
X56540001Y-53197204D01*
X56540000Y-53197204D01*
X56535273Y-53243474D01*
X56508875Y-53308165D01*
X56451694Y-53348315D01*
X56424424Y-53353250D01*
X56424473Y-53353558D01*
X56416768Y-53354778D01*
X56397637Y-53360336D01*
X56378591Y-53364280D01*
X56358837Y-53366775D01*
X56358830Y-53366777D01*
X56315684Y-53383859D01*
X56310157Y-53385751D01*
X56265611Y-53398693D01*
X56256073Y-53404333D01*
X56248465Y-53408832D01*
X56230999Y-53417389D01*
X56212483Y-53424719D01*
X56174940Y-53451995D01*
X56170058Y-53455202D01*
X56130121Y-53478821D01*
X56116042Y-53492901D01*
X56101254Y-53505532D01*
X56085138Y-53517241D01*
X56085132Y-53517247D01*
X56055551Y-53553003D01*
X56051620Y-53557324D01*
X54330762Y-55278181D01*
X54269439Y-55311666D01*
X54243081Y-55314500D01*
X52872129Y-55314500D01*
X52872123Y-55314501D01*
X52812516Y-55320908D01*
X52677671Y-55371202D01*
X52677664Y-55371206D01*
X52562455Y-55457452D01*
X52562452Y-55457455D01*
X52476206Y-55572664D01*
X52476202Y-55572671D01*
X52425908Y-55707517D01*
X52421303Y-55750353D01*
X52419501Y-55767123D01*
X52419500Y-55767135D01*
X52419500Y-55768000D01*
X52419443Y-55768193D01*
X52419322Y-55770452D01*
X52418788Y-55770423D01*
X52399815Y-55835039D01*
X52347011Y-55880794D01*
X52295500Y-55892000D01*
X47144499Y-55892000D01*
X47077460Y-55872315D01*
X47031705Y-55819511D01*
X47021024Y-55770417D01*
X47020900Y-55770423D01*
X47020854Y-55770429D01*
X47020853Y-55770426D01*
X47020676Y-55770436D01*
X47020560Y-55768284D01*
X47020499Y-55768000D01*
X47020499Y-55767129D01*
X47020498Y-55767123D01*
X47020497Y-55767116D01*
X47014091Y-55707517D01*
X47002615Y-55676749D01*
X46963797Y-55572671D01*
X46963793Y-55572664D01*
X46877547Y-55457455D01*
X46877544Y-55457452D01*
X46762335Y-55371206D01*
X46762328Y-55371202D01*
X46627482Y-55320908D01*
X46627483Y-55320908D01*
X46567883Y-55314501D01*
X46567881Y-55314500D01*
X46567873Y-55314500D01*
X46567864Y-55314500D01*
X44872129Y-55314500D01*
X44872123Y-55314501D01*
X44812516Y-55320908D01*
X44677671Y-55371202D01*
X44677664Y-55371206D01*
X44562455Y-55457452D01*
X44562452Y-55457455D01*
X44476206Y-55572664D01*
X44476202Y-55572671D01*
X44425908Y-55707517D01*
X44421303Y-55750353D01*
X44419501Y-55767123D01*
X44419500Y-55767135D01*
X44419500Y-57262870D01*
X44419501Y-57262876D01*
X44425908Y-57322483D01*
X44476202Y-57457328D01*
X44476206Y-57457335D01*
X44562452Y-57572544D01*
X44562455Y-57572547D01*
X44677664Y-57658793D01*
X44677671Y-57658797D01*
X44812517Y-57709091D01*
X44812516Y-57709091D01*
X44819444Y-57709835D01*
X44872127Y-57715500D01*
X46567872Y-57715499D01*
X46627483Y-57709091D01*
X46762331Y-57658796D01*
X46877546Y-57572546D01*
X46963796Y-57457331D01*
X47014091Y-57322483D01*
X47020500Y-57262873D01*
X47020500Y-57262000D01*
X47020556Y-57261806D01*
X47020678Y-57259548D01*
X47021211Y-57259576D01*
X47040185Y-57194961D01*
X47092989Y-57149206D01*
X47144500Y-57138000D01*
X52295501Y-57138000D01*
X52362540Y-57157685D01*
X52408295Y-57210489D01*
X52418975Y-57259582D01*
X52419099Y-57259576D01*
X52419146Y-57259571D01*
X52419146Y-57259573D01*
X52419324Y-57259564D01*
X52419439Y-57261715D01*
X52419501Y-57262000D01*
X52419501Y-57262876D01*
X52425908Y-57322483D01*
X52476202Y-57457328D01*
X52476206Y-57457335D01*
X52562452Y-57572544D01*
X52562455Y-57572547D01*
X52677664Y-57658793D01*
X52677671Y-57658797D01*
X52812517Y-57709091D01*
X52812516Y-57709091D01*
X52819444Y-57709835D01*
X52872127Y-57715500D01*
X54567872Y-57715499D01*
X54627483Y-57709091D01*
X54762331Y-57658796D01*
X54877546Y-57572546D01*
X54963796Y-57457331D01*
X55014091Y-57322483D01*
X55020500Y-57262873D01*
X55020500Y-57262000D01*
X55020556Y-57261806D01*
X55020678Y-57259548D01*
X55021211Y-57259576D01*
X55040185Y-57194961D01*
X55092989Y-57149206D01*
X55144500Y-57138000D01*
X64687528Y-57138000D01*
X64703108Y-57139720D01*
X64703136Y-57139431D01*
X64710902Y-57140165D01*
X64710904Y-57140164D01*
X64710905Y-57140165D01*
X64779800Y-57138000D01*
X64809200Y-57138000D01*
X64816035Y-57137136D01*
X64821853Y-57136678D01*
X64868233Y-57135221D01*
X64887359Y-57129663D01*
X64906405Y-57125719D01*
X64926165Y-57123224D01*
X64969319Y-57106136D01*
X64974810Y-57104256D01*
X65019389Y-57091306D01*
X65036524Y-57081171D01*
X65054001Y-57072610D01*
X65072518Y-57065279D01*
X65110069Y-57037994D01*
X65114935Y-57034799D01*
X65154876Y-57011179D01*
X65168960Y-56997093D01*
X65183750Y-56984462D01*
X65199863Y-56972757D01*
X65229451Y-56936989D01*
X65233365Y-56932688D01*
X65477211Y-56688842D01*
X65489446Y-56679043D01*
X65489260Y-56678818D01*
X65495274Y-56673843D01*
X65542459Y-56623596D01*
X65563240Y-56602815D01*
X65563240Y-56602814D01*
X65563246Y-56602809D01*
X65567476Y-56597354D01*
X65571248Y-56592937D01*
X65603024Y-56559101D01*
X65612622Y-56541641D01*
X65623295Y-56525392D01*
X65635504Y-56509654D01*
X65653933Y-56467064D01*
X65656493Y-56461837D01*
X65678855Y-56421165D01*
X65683809Y-56401869D01*
X65690107Y-56383473D01*
X65698018Y-56365194D01*
X65705281Y-56319330D01*
X65706454Y-56313670D01*
X65718000Y-56268703D01*
X65718000Y-56248790D01*
X65719527Y-56229390D01*
X65722642Y-56209724D01*
X65718275Y-56163525D01*
X65718000Y-56157687D01*
X65718000Y-55712000D01*
X65737685Y-55644961D01*
X65790489Y-55599206D01*
X65842000Y-55588000D01*
X65857713Y-55588000D01*
X65857720Y-55588000D01*
X65970236Y-55573187D01*
X66110233Y-55515198D01*
X66230451Y-55422951D01*
X66322698Y-55302733D01*
X66380687Y-55162736D01*
X66395500Y-55050220D01*
X66395500Y-54486999D01*
X66415185Y-54419961D01*
X66467989Y-54374206D01*
X66519500Y-54363000D01*
X67082713Y-54363000D01*
X67082720Y-54363000D01*
X67195236Y-54348187D01*
X67335233Y-54290198D01*
X67420200Y-54225000D01*
X71135001Y-54225000D01*
X71135001Y-54649986D01*
X71145494Y-54752697D01*
X71200641Y-54919119D01*
X71200643Y-54919124D01*
X71292684Y-55068345D01*
X71416654Y-55192315D01*
X71565875Y-55284356D01*
X71565880Y-55284358D01*
X71732302Y-55339505D01*
X71732309Y-55339506D01*
X71835019Y-55349999D01*
X71947499Y-55349999D01*
X71947500Y-55349998D01*
X71947500Y-54225000D01*
X72447500Y-54225000D01*
X72447500Y-55349999D01*
X72559972Y-55349999D01*
X72559986Y-55349998D01*
X72662697Y-55339505D01*
X72829119Y-55284358D01*
X72829124Y-55284356D01*
X72978345Y-55192315D01*
X73102315Y-55068345D01*
X73194356Y-54919124D01*
X73194358Y-54919119D01*
X73249505Y-54752697D01*
X73249506Y-54752690D01*
X73259999Y-54649986D01*
X73260000Y-54649973D01*
X73260000Y-54225000D01*
X72447500Y-54225000D01*
X71947500Y-54225000D01*
X71135001Y-54225000D01*
X67420200Y-54225000D01*
X67455451Y-54197951D01*
X67547698Y-54077733D01*
X67605687Y-53937736D01*
X67620500Y-53825220D01*
X67620500Y-53725000D01*
X71135000Y-53725000D01*
X71947500Y-53725000D01*
X71947500Y-52600000D01*
X72447500Y-52600000D01*
X72447500Y-53725000D01*
X73259999Y-53725000D01*
X73259999Y-53300028D01*
X73259998Y-53300013D01*
X73249505Y-53197302D01*
X73194358Y-53030880D01*
X73194356Y-53030875D01*
X73102315Y-52881654D01*
X72978345Y-52757684D01*
X72829124Y-52665643D01*
X72829119Y-52665641D01*
X72662697Y-52610494D01*
X72662690Y-52610493D01*
X72559986Y-52600000D01*
X72447500Y-52600000D01*
X71947500Y-52600000D01*
X71835027Y-52600000D01*
X71835012Y-52600001D01*
X71732302Y-52610494D01*
X71565880Y-52665641D01*
X71565875Y-52665643D01*
X71416654Y-52757684D01*
X71292684Y-52881654D01*
X71200643Y-53030875D01*
X71200641Y-53030880D01*
X71145494Y-53197302D01*
X71145493Y-53197309D01*
X71135000Y-53300013D01*
X71135000Y-53725000D01*
X67620500Y-53725000D01*
X67620500Y-53599780D01*
X67605687Y-53487264D01*
X67584017Y-53434949D01*
X67576549Y-53365483D01*
X67584016Y-53340051D01*
X67605687Y-53287736D01*
X67620500Y-53175220D01*
X67620500Y-52949780D01*
X67605687Y-52837264D01*
X67584017Y-52784950D01*
X67576549Y-52715483D01*
X67584018Y-52690049D01*
X67605687Y-52637736D01*
X67620500Y-52525220D01*
X67620500Y-52299780D01*
X67605687Y-52187264D01*
X67584017Y-52134949D01*
X67576549Y-52065485D01*
X67584014Y-52040056D01*
X67605687Y-51987736D01*
X67620500Y-51875220D01*
X67620500Y-51649780D01*
X67620163Y-51647224D01*
X67618949Y-51638000D01*
X67605687Y-51537264D01*
X67547698Y-51397267D01*
X67455451Y-51277049D01*
X67426716Y-51255000D01*
X68450001Y-51255000D01*
X68450001Y-51379986D01*
X68460494Y-51482697D01*
X68515641Y-51649119D01*
X68515643Y-51649124D01*
X68607684Y-51798345D01*
X68731654Y-51922315D01*
X68880875Y-52014356D01*
X68880880Y-52014358D01*
X69047302Y-52069505D01*
X69047309Y-52069506D01*
X69150019Y-52079999D01*
X69599999Y-52079999D01*
X69600000Y-52079998D01*
X69600000Y-51255000D01*
X70100000Y-51255000D01*
X70100000Y-52079999D01*
X70549972Y-52079999D01*
X70549986Y-52079998D01*
X70652697Y-52069505D01*
X70819119Y-52014358D01*
X70819124Y-52014356D01*
X70968345Y-51922315D01*
X71092315Y-51798345D01*
X71184356Y-51649124D01*
X71184358Y-51649119D01*
X71239505Y-51482697D01*
X71239506Y-51482690D01*
X71249999Y-51379986D01*
X71250000Y-51379973D01*
X71250000Y-51255000D01*
X70100000Y-51255000D01*
X69600000Y-51255000D01*
X68450001Y-51255000D01*
X67426716Y-51255000D01*
X67379013Y-51218395D01*
X67337810Y-51161967D01*
X67330500Y-51120020D01*
X67330500Y-50755000D01*
X68450000Y-50755000D01*
X69599999Y-50755000D01*
X69599999Y-49930000D01*
X70100000Y-49930000D01*
X70100000Y-50755000D01*
X71249999Y-50755000D01*
X71249999Y-50630028D01*
X71249998Y-50630013D01*
X71239505Y-50527302D01*
X71184358Y-50360880D01*
X71184356Y-50360875D01*
X71092315Y-50211654D01*
X70968345Y-50087684D01*
X70819124Y-49995643D01*
X70819119Y-49995641D01*
X70652697Y-49940494D01*
X70652690Y-49940493D01*
X70549986Y-49930000D01*
X70100000Y-49930000D01*
X69599999Y-49930000D01*
X69150028Y-49930000D01*
X69150012Y-49930001D01*
X69047302Y-49940494D01*
X68880880Y-49995641D01*
X68880875Y-49995643D01*
X68731654Y-50087684D01*
X68607684Y-50211654D01*
X68515643Y-50360875D01*
X68515641Y-50360880D01*
X68460494Y-50527302D01*
X68460493Y-50527309D01*
X68450000Y-50630013D01*
X68450000Y-50755000D01*
X67330500Y-50755000D01*
X67330500Y-47554913D01*
X67350185Y-47487874D01*
X67402989Y-47442119D01*
X67472147Y-47432175D01*
X67530509Y-47456940D01*
X67532186Y-47458241D01*
X67532191Y-47458246D01*
X67537638Y-47462471D01*
X67542079Y-47466264D01*
X67575899Y-47498024D01*
X67593347Y-47507616D01*
X67609606Y-47518295D01*
X67625346Y-47530505D01*
X67667940Y-47548937D01*
X67673161Y-47551494D01*
X67713835Y-47573855D01*
X67727896Y-47577465D01*
X67733114Y-47578805D01*
X67751521Y-47585106D01*
X67769807Y-47593019D01*
X67815666Y-47600281D01*
X67821344Y-47601457D01*
X67866297Y-47613000D01*
X67886209Y-47613000D01*
X67905608Y-47614527D01*
X67925276Y-47617642D01*
X67971475Y-47613274D01*
X67977312Y-47613000D01*
X68325500Y-47613000D01*
X68392539Y-47632685D01*
X68438294Y-47685489D01*
X68449500Y-47737000D01*
X68449500Y-48430001D01*
X68449501Y-48430019D01*
X68460000Y-48532796D01*
X68460001Y-48532799D01*
X68498007Y-48647492D01*
X68515186Y-48699334D01*
X68607288Y-48848656D01*
X68731344Y-48972712D01*
X68880666Y-49064814D01*
X69047203Y-49119999D01*
X69149991Y-49130500D01*
X70550008Y-49130499D01*
X70652797Y-49119999D01*
X70819334Y-49064814D01*
X70968656Y-48972712D01*
X71092712Y-48848656D01*
X71092712Y-48848655D01*
X71095549Y-48845819D01*
X71156872Y-48812334D01*
X71183230Y-48809500D01*
X71821114Y-48809500D01*
X71888153Y-48829185D01*
X71908795Y-48845819D01*
X73716234Y-50653258D01*
X73728016Y-50666891D01*
X73742461Y-50686294D01*
X73782706Y-50720064D01*
X73786696Y-50723720D01*
X73791515Y-50728539D01*
X73816216Y-50763814D01*
X73832467Y-50798664D01*
X73959170Y-50979615D01*
X73959175Y-50979621D01*
X74115378Y-51135824D01*
X74115384Y-51135829D01*
X74296333Y-51262531D01*
X74296335Y-51262532D01*
X74296338Y-51262534D01*
X74496550Y-51355894D01*
X74709932Y-51413070D01*
X74867123Y-51426822D01*
X74929998Y-51432323D01*
X74930000Y-51432323D01*
X74930002Y-51432323D01*
X74985140Y-51427499D01*
X75150068Y-51413070D01*
X75363450Y-51355894D01*
X75563662Y-51262534D01*
X75744620Y-51135826D01*
X75900826Y-50979620D01*
X76027534Y-50798662D01*
X76120894Y-50598450D01*
X76178070Y-50385068D01*
X76197323Y-50165000D01*
X76196873Y-50159861D01*
X76187705Y-50055068D01*
X76178070Y-49944932D01*
X76120894Y-49731550D01*
X76027534Y-49531339D01*
X75900826Y-49350380D01*
X75744620Y-49194174D01*
X75744616Y-49194171D01*
X75744615Y-49194170D01*
X75563666Y-49067468D01*
X75563658Y-49067464D01*
X75434811Y-49007382D01*
X75382371Y-48961210D01*
X75363219Y-48894017D01*
X75383435Y-48827135D01*
X75434811Y-48782618D01*
X75481486Y-48760853D01*
X75563662Y-48722534D01*
X75744620Y-48595826D01*
X75900826Y-48439620D01*
X76027534Y-48258662D01*
X76120894Y-48058450D01*
X76178070Y-47845068D01*
X76196151Y-47638393D01*
X76197323Y-47625002D01*
X76197323Y-47624997D01*
X76188775Y-47527289D01*
X76178070Y-47404932D01*
X76120894Y-47191550D01*
X76027534Y-46991339D01*
X75900826Y-46810380D01*
X75744620Y-46654174D01*
X75744616Y-46654171D01*
X75744615Y-46654170D01*
X75605876Y-46557024D01*
X75562251Y-46502447D01*
X75553000Y-46455453D01*
X75553000Y-46254548D01*
X75572685Y-46187509D01*
X75605874Y-46152976D01*
X75744620Y-46055826D01*
X75900826Y-45899620D01*
X76027534Y-45718662D01*
X76120894Y-45518450D01*
X76178070Y-45305068D01*
X76197323Y-45085000D01*
X76178070Y-44864932D01*
X76120894Y-44651550D01*
X76027534Y-44451339D01*
X75947095Y-44336460D01*
X75900827Y-44270381D01*
X75827877Y-44197431D01*
X75744620Y-44114174D01*
X75744616Y-44114171D01*
X75744615Y-44114170D01*
X75563666Y-43987468D01*
X75563658Y-43987464D01*
X75434811Y-43927382D01*
X75382371Y-43881210D01*
X75363219Y-43814017D01*
X75383435Y-43747135D01*
X75434811Y-43702618D01*
X75485788Y-43678847D01*
X75563662Y-43642534D01*
X75744620Y-43515826D01*
X75900826Y-43359620D01*
X75979381Y-43247432D01*
X75997975Y-43220877D01*
X76052552Y-43177252D01*
X76099550Y-43168000D01*
X79700583Y-43168000D01*
X79767622Y-43187685D01*
X79788264Y-43204319D01*
X81282360Y-44698415D01*
X81315845Y-44759738D01*
X81314454Y-44818188D01*
X81301931Y-44864926D01*
X81301930Y-44864933D01*
X81282677Y-45084997D01*
X81282677Y-45085002D01*
X81301929Y-45305062D01*
X81301930Y-45305070D01*
X81359104Y-45518445D01*
X81359105Y-45518447D01*
X81359106Y-45518450D01*
X81442406Y-45697089D01*
X81452466Y-45718662D01*
X81452468Y-45718666D01*
X81579170Y-45899615D01*
X81579175Y-45899621D01*
X81735378Y-46055824D01*
X81735384Y-46055829D01*
X81916333Y-46182531D01*
X81916335Y-46182532D01*
X81916338Y-46182534D01*
X82035748Y-46238215D01*
X82045189Y-46242618D01*
X82097628Y-46288790D01*
X82116780Y-46355984D01*
X82096564Y-46422865D01*
X82045189Y-46467382D01*
X81916340Y-46527465D01*
X81916338Y-46527466D01*
X81735377Y-46654175D01*
X81579175Y-46810377D01*
X81452466Y-46991338D01*
X81452465Y-46991340D01*
X81359107Y-47191548D01*
X81359104Y-47191554D01*
X81301930Y-47404929D01*
X81301929Y-47404937D01*
X81282677Y-47624997D01*
X81282677Y-47625002D01*
X81288976Y-47696996D01*
X81301929Y-47845062D01*
X81301930Y-47845066D01*
X81301930Y-47845070D01*
X81314454Y-47891809D01*
X81312791Y-47961659D01*
X81282360Y-48011583D01*
X76895285Y-52398658D01*
X76883048Y-52408463D01*
X76883233Y-52408687D01*
X76877227Y-52413655D01*
X76857382Y-52434788D01*
X76830040Y-52463904D01*
X76823112Y-52470832D01*
X76809258Y-52484685D01*
X76809250Y-52484694D01*
X76805018Y-52490148D01*
X76801234Y-52494577D01*
X76769478Y-52528396D01*
X76769472Y-52528403D01*
X76759882Y-52545848D01*
X76749205Y-52562102D01*
X76736997Y-52577840D01*
X76736996Y-52577842D01*
X76730221Y-52593498D01*
X76685528Y-52647203D01*
X76655430Y-52661950D01*
X76645668Y-52665185D01*
X76645666Y-52665185D01*
X76645666Y-52665186D01*
X76602568Y-52691769D01*
X76496342Y-52757289D01*
X76372289Y-52881342D01*
X76305539Y-52989562D01*
X76253591Y-53036286D01*
X76184628Y-53047509D01*
X76120546Y-53019665D01*
X76094461Y-52989562D01*
X76087016Y-52977491D01*
X76027712Y-52881344D01*
X75903656Y-52757288D01*
X75794644Y-52690049D01*
X75754336Y-52665187D01*
X75754331Y-52665185D01*
X75744568Y-52661950D01*
X75587797Y-52610001D01*
X75587795Y-52610000D01*
X75485010Y-52599500D01*
X74759998Y-52599500D01*
X74759980Y-52599501D01*
X74657203Y-52610000D01*
X74657200Y-52610001D01*
X74490668Y-52665185D01*
X74490663Y-52665187D01*
X74341342Y-52757289D01*
X74217289Y-52881342D01*
X74125187Y-53030663D01*
X74125185Y-53030668D01*
X74105690Y-53089500D01*
X74070001Y-53197203D01*
X74070001Y-53197204D01*
X74070000Y-53197204D01*
X74059500Y-53299983D01*
X74059500Y-54650001D01*
X74059501Y-54650018D01*
X74070000Y-54752796D01*
X74070001Y-54752799D01*
X74089478Y-54811576D01*
X74125186Y-54919334D01*
X74217288Y-55068656D01*
X74341344Y-55192712D01*
X74490666Y-55284814D01*
X74657203Y-55339999D01*
X74759991Y-55350500D01*
X75485008Y-55350499D01*
X75485016Y-55350498D01*
X75485019Y-55350498D01*
X75546094Y-55344259D01*
X75587797Y-55339999D01*
X75754334Y-55284814D01*
X75903656Y-55192712D01*
X76027712Y-55068656D01*
X76094461Y-54960437D01*
X76146409Y-54913713D01*
X76215371Y-54902490D01*
X76279454Y-54930334D01*
X76305539Y-54960438D01*
X76372285Y-55068652D01*
X76372288Y-55068656D01*
X76496344Y-55192712D01*
X76645666Y-55284814D01*
X76812203Y-55339999D01*
X76914991Y-55350500D01*
X77640008Y-55350499D01*
X77640008Y-55350498D01*
X77640438Y-55350477D01*
X77640530Y-55350499D01*
X77643165Y-55350499D01*
X77643165Y-55351128D01*
X77708395Y-55366714D01*
X77756785Y-55417115D01*
X77770244Y-55485676D01*
X77744501Y-55550630D01*
X77734447Y-55561996D01*
X76709514Y-56586931D01*
X76648191Y-56620416D01*
X76621833Y-56623250D01*
X73011222Y-56623250D01*
X72995641Y-56621529D01*
X72995614Y-56621819D01*
X72987847Y-56621084D01*
X72918950Y-56623250D01*
X72889550Y-56623250D01*
X72882703Y-56624113D01*
X72876892Y-56624570D01*
X72830518Y-56626028D01*
X72811388Y-56631586D01*
X72792342Y-56635530D01*
X72772588Y-56638025D01*
X72772582Y-56638027D01*
X72729438Y-56655108D01*
X72723912Y-56657000D01*
X72679360Y-56669944D01*
X72662214Y-56680083D01*
X72644757Y-56688635D01*
X72626229Y-56695972D01*
X72588685Y-56723249D01*
X72583803Y-56726456D01*
X72543871Y-56750073D01*
X72529793Y-56764151D01*
X72515003Y-56776783D01*
X72498889Y-56788490D01*
X72498882Y-56788497D01*
X72469301Y-56824253D01*
X72465370Y-56828574D01*
X71987682Y-57306262D01*
X71533264Y-57760681D01*
X71471941Y-57794166D01*
X71445583Y-57797000D01*
X67330908Y-57797000D01*
X67315327Y-57795279D01*
X67315300Y-57795569D01*
X67307533Y-57794834D01*
X67238636Y-57797000D01*
X67209236Y-57797000D01*
X67202389Y-57797863D01*
X67196578Y-57798320D01*
X67150204Y-57799778D01*
X67131074Y-57805336D01*
X67112028Y-57809280D01*
X67092274Y-57811775D01*
X67092268Y-57811777D01*
X67049124Y-57828858D01*
X67043598Y-57830750D01*
X66999046Y-57843694D01*
X66981900Y-57853833D01*
X66964443Y-57862385D01*
X66945915Y-57869722D01*
X66908371Y-57896999D01*
X66903489Y-57900206D01*
X66863557Y-57923823D01*
X66849479Y-57937901D01*
X66834689Y-57950533D01*
X66818575Y-57962240D01*
X66818568Y-57962247D01*
X66788987Y-57998003D01*
X66785056Y-58002324D01*
X65830285Y-58957094D01*
X65818048Y-58966899D01*
X65818233Y-58967123D01*
X65812227Y-58972091D01*
X65787892Y-58998005D01*
X65765040Y-59022340D01*
X65758112Y-59029268D01*
X65744258Y-59043121D01*
X65744250Y-59043130D01*
X65740018Y-59048584D01*
X65736234Y-59053013D01*
X65704478Y-59086832D01*
X65704472Y-59086839D01*
X65694882Y-59104284D01*
X65684205Y-59120538D01*
X65671997Y-59136276D01*
X65671994Y-59136281D01*
X65653569Y-59178858D01*
X65651000Y-59184103D01*
X65628644Y-59224770D01*
X65628644Y-59224771D01*
X65623693Y-59244055D01*
X65617392Y-59262458D01*
X65609481Y-59280740D01*
X65609480Y-59280741D01*
X65602222Y-59326570D01*
X65601037Y-59332291D01*
X65589500Y-59377227D01*
X65589500Y-59397140D01*
X65587974Y-59416535D01*
X65584858Y-59436211D01*
X65584857Y-59436213D01*
X65589224Y-59482411D01*
X65589499Y-59488247D01*
X65589499Y-61499190D01*
X65569814Y-61566229D01*
X65542814Y-61596135D01*
X65537742Y-61600179D01*
X65410183Y-61727739D01*
X65314211Y-61880476D01*
X65254631Y-62050745D01*
X65254630Y-62050750D01*
X65234435Y-62229996D01*
X65234435Y-62230003D01*
X65254630Y-62409249D01*
X65254631Y-62409254D01*
X65314211Y-62579523D01*
X65326562Y-62599179D01*
X65345562Y-62666416D01*
X65325194Y-62733251D01*
X65271926Y-62778465D01*
X65202670Y-62787702D01*
X65139414Y-62758031D01*
X65133887Y-62752832D01*
X64831818Y-62450763D01*
X64798333Y-62389440D01*
X64795500Y-62363091D01*
X64795500Y-61709470D01*
X64815185Y-61642430D01*
X64854401Y-61603932D01*
X64953656Y-61542712D01*
X65077712Y-61418656D01*
X65169814Y-61269334D01*
X65224999Y-61102797D01*
X65235500Y-61000009D01*
X65235499Y-59649992D01*
X65224999Y-59547203D01*
X65169814Y-59380666D01*
X65077712Y-59231344D01*
X64953656Y-59107288D01*
X64804334Y-59015186D01*
X64637797Y-58960001D01*
X64637795Y-58960000D01*
X64535010Y-58949500D01*
X63809998Y-58949500D01*
X63809980Y-58949501D01*
X63707203Y-58960000D01*
X63707200Y-58960001D01*
X63540668Y-59015185D01*
X63540663Y-59015187D01*
X63391342Y-59107289D01*
X63267289Y-59231342D01*
X63200539Y-59339562D01*
X63148591Y-59386286D01*
X63079628Y-59397509D01*
X63015546Y-59369665D01*
X62989461Y-59339562D01*
X62983233Y-59329465D01*
X62922712Y-59231344D01*
X62798656Y-59107288D01*
X62649334Y-59015186D01*
X62482797Y-58960001D01*
X62482795Y-58960000D01*
X62380010Y-58949500D01*
X61654998Y-58949500D01*
X61654980Y-58949501D01*
X61552203Y-58960000D01*
X61552200Y-58960001D01*
X61385668Y-59015185D01*
X61385663Y-59015187D01*
X61236342Y-59107289D01*
X61112289Y-59231342D01*
X61020187Y-59380663D01*
X61020185Y-59380668D01*
X60992349Y-59464670D01*
X60965001Y-59547203D01*
X60965001Y-59547204D01*
X60965000Y-59547204D01*
X60954500Y-59649983D01*
X60954500Y-61000001D01*
X60954501Y-61000018D01*
X60965000Y-61102796D01*
X60965001Y-61102799D01*
X60985446Y-61164496D01*
X61020186Y-61269334D01*
X61112288Y-61418656D01*
X61236344Y-61542712D01*
X61385666Y-61634814D01*
X61552203Y-61689999D01*
X61654991Y-61700500D01*
X62380008Y-61700499D01*
X62380016Y-61700498D01*
X62380019Y-61700498D01*
X62441094Y-61694259D01*
X62482797Y-61689999D01*
X62649334Y-61634814D01*
X62798656Y-61542712D01*
X62922712Y-61418656D01*
X62989461Y-61310437D01*
X63041409Y-61263713D01*
X63110371Y-61252490D01*
X63174454Y-61280334D01*
X63200539Y-61310438D01*
X63267287Y-61418655D01*
X63391343Y-61542711D01*
X63391347Y-61542714D01*
X63490596Y-61603932D01*
X63537321Y-61655879D01*
X63549499Y-61709470D01*
X63549500Y-62590031D01*
X63547779Y-62605617D01*
X63548069Y-62605645D01*
X63547334Y-62613406D01*
X63549499Y-62682299D01*
X63549499Y-62711702D01*
X63550363Y-62718545D01*
X63550820Y-62724358D01*
X63552278Y-62770733D01*
X63557834Y-62789854D01*
X63561779Y-62808906D01*
X63564276Y-62828665D01*
X63581361Y-62871818D01*
X63583250Y-62877335D01*
X63596194Y-62921888D01*
X63596197Y-62921896D01*
X63606329Y-62939028D01*
X63614890Y-62956502D01*
X63622221Y-62975018D01*
X63649498Y-63012562D01*
X63652706Y-63017446D01*
X63676318Y-63057372D01*
X63676324Y-63057380D01*
X63690396Y-63071451D01*
X63703033Y-63086246D01*
X63714743Y-63102363D01*
X63750224Y-63131715D01*
X63750497Y-63131941D01*
X63754808Y-63135863D01*
X64263840Y-63644895D01*
X64501156Y-63882211D01*
X64510958Y-63894445D01*
X64511182Y-63894261D01*
X64516153Y-63900270D01*
X64566404Y-63947460D01*
X64572855Y-63953911D01*
X64606340Y-64015234D01*
X64608394Y-64055474D01*
X64599435Y-64134995D01*
X64599435Y-64135003D01*
X64619630Y-64314249D01*
X64619631Y-64314254D01*
X64679211Y-64484523D01*
X64731042Y-64567011D01*
X64775184Y-64637262D01*
X64902738Y-64764816D01*
X64955047Y-64797684D01*
X65037511Y-64849500D01*
X65055478Y-64860789D01*
X65225745Y-64920368D01*
X65276807Y-64926121D01*
X65341219Y-64953186D01*
X65350604Y-64961660D01*
X65357184Y-64968240D01*
X65357188Y-64968243D01*
X65357191Y-64968246D01*
X65362637Y-64972470D01*
X65367065Y-64976252D01*
X65384770Y-64992878D01*
X65400897Y-65008023D01*
X65400899Y-65008024D01*
X65418347Y-65017616D01*
X65434606Y-65028295D01*
X65450346Y-65040505D01*
X65470245Y-65049116D01*
X65523954Y-65093806D01*
X65544975Y-65160438D01*
X65545000Y-65162918D01*
X65545000Y-65197844D01*
X65551401Y-65257372D01*
X65551403Y-65257379D01*
X65601645Y-65392086D01*
X65601649Y-65392093D01*
X65687809Y-65507187D01*
X65687812Y-65507190D01*
X65802906Y-65593350D01*
X65802913Y-65593354D01*
X65937620Y-65643596D01*
X65937627Y-65643598D01*
X65997155Y-65649999D01*
X65997172Y-65650000D01*
X66295000Y-65650000D01*
X66295000Y-65274499D01*
X66314685Y-65207460D01*
X66367489Y-65161705D01*
X66418998Y-65150499D01*
X66422756Y-65150499D01*
X66489795Y-65170184D01*
X66535550Y-65222988D01*
X66546045Y-65287750D01*
X66544500Y-65302127D01*
X66544500Y-65302131D01*
X66544500Y-65302132D01*
X66544500Y-66197870D01*
X66544501Y-66197876D01*
X66550908Y-66257483D01*
X66564182Y-66293070D01*
X66572000Y-66336403D01*
X66572000Y-66716256D01*
X66552315Y-66783295D01*
X66535681Y-66803937D01*
X65618601Y-67721018D01*
X65557278Y-67754503D01*
X65530920Y-67757337D01*
X64012135Y-67757337D01*
X63996554Y-67755616D01*
X63996527Y-67755906D01*
X63988760Y-67755171D01*
X63919863Y-67757337D01*
X63890458Y-67757337D01*
X63883617Y-67758200D01*
X63877804Y-67758657D01*
X63831430Y-67760115D01*
X63812300Y-67765673D01*
X63793254Y-67769617D01*
X63773500Y-67772112D01*
X63773493Y-67772114D01*
X63730347Y-67789196D01*
X63724820Y-67791088D01*
X63680274Y-67804030D01*
X63670736Y-67809670D01*
X63663128Y-67814169D01*
X63645662Y-67822726D01*
X63627146Y-67830056D01*
X63589603Y-67857332D01*
X63584721Y-67860539D01*
X63544784Y-67884158D01*
X63530705Y-67898238D01*
X63515917Y-67910869D01*
X63499801Y-67922578D01*
X63499795Y-67922584D01*
X63470214Y-67958340D01*
X63466283Y-67962661D01*
X62689162Y-68739781D01*
X62627839Y-68773266D01*
X62578700Y-68773989D01*
X62560036Y-68770500D01*
X62560030Y-68770500D01*
X62359970Y-68770500D01*
X62163315Y-68807261D01*
X62163312Y-68807261D01*
X62163312Y-68807262D01*
X61976764Y-68879530D01*
X61976763Y-68879531D01*
X61806667Y-68984851D01*
X61658823Y-69119628D01*
X61538258Y-69279281D01*
X61449088Y-69458358D01*
X61449083Y-69458371D01*
X61394333Y-69650793D01*
X61375875Y-69849999D01*
X61375875Y-69850000D01*
X61394333Y-70049206D01*
X61449083Y-70241628D01*
X61449088Y-70241641D01*
X61538258Y-70420718D01*
X61658822Y-70580370D01*
X61806669Y-70715150D01*
X61976764Y-70820469D01*
X62163315Y-70892739D01*
X62359970Y-70929500D01*
X62359972Y-70929500D01*
X62560028Y-70929500D01*
X62560030Y-70929500D01*
X62756685Y-70892739D01*
X62943236Y-70820469D01*
X63113331Y-70715150D01*
X63261178Y-70580370D01*
X63381742Y-70420718D01*
X63470916Y-70241631D01*
X63525666Y-70049207D01*
X63544125Y-69850000D01*
X63532274Y-69722111D01*
X63545689Y-69653542D01*
X63568061Y-69622992D01*
X63753439Y-69437614D01*
X63814762Y-69404130D01*
X63884454Y-69409114D01*
X63940387Y-69450986D01*
X63964804Y-69516450D01*
X63960386Y-69559230D01*
X63934334Y-69650791D01*
X63934333Y-69650793D01*
X63915875Y-69849999D01*
X63915875Y-69850000D01*
X63934333Y-70049206D01*
X63989083Y-70241628D01*
X63989088Y-70241641D01*
X64078258Y-70420718D01*
X64198822Y-70580370D01*
X64346669Y-70715150D01*
X64516764Y-70820469D01*
X64703315Y-70892739D01*
X64899970Y-70929500D01*
X64899972Y-70929500D01*
X65100028Y-70929500D01*
X65100030Y-70929500D01*
X65296685Y-70892739D01*
X65483236Y-70820469D01*
X65653331Y-70715150D01*
X65801178Y-70580370D01*
X65921742Y-70420718D01*
X66010916Y-70241631D01*
X66065666Y-70049207D01*
X66084125Y-69850000D01*
X66072274Y-69722111D01*
X66085689Y-69653542D01*
X66108061Y-69622992D01*
X66293441Y-69437612D01*
X66354762Y-69404129D01*
X66424454Y-69409113D01*
X66480387Y-69450985D01*
X66504804Y-69516449D01*
X66500386Y-69559229D01*
X66474334Y-69650790D01*
X66474333Y-69650793D01*
X66455875Y-69849999D01*
X66455875Y-69850000D01*
X66474333Y-70049206D01*
X66529083Y-70241628D01*
X66529088Y-70241641D01*
X66618258Y-70420717D01*
X66618258Y-70420718D01*
X66738822Y-70580370D01*
X66876539Y-70705915D01*
X66912819Y-70765623D01*
X66917000Y-70797550D01*
X66917000Y-74620582D01*
X66897315Y-74687621D01*
X66880681Y-74708263D01*
X65229162Y-76359781D01*
X65167839Y-76393266D01*
X65118700Y-76393989D01*
X65100036Y-76390500D01*
X65100030Y-76390500D01*
X64899970Y-76390500D01*
X64703315Y-76427261D01*
X64703312Y-76427261D01*
X64703312Y-76427262D01*
X64516764Y-76499530D01*
X64516763Y-76499531D01*
X64346667Y-76604851D01*
X64198823Y-76739628D01*
X64078258Y-76899281D01*
X63989088Y-77078358D01*
X63989083Y-77078371D01*
X63934333Y-77270793D01*
X63915875Y-77469999D01*
X63915875Y-77470000D01*
X63934333Y-77669206D01*
X63989083Y-77861628D01*
X63989088Y-77861641D01*
X64052901Y-77989794D01*
X64078258Y-78040718D01*
X64198822Y-78200370D01*
X64346669Y-78335150D01*
X64516764Y-78440469D01*
X64703315Y-78512739D01*
X64788227Y-78528611D01*
X64850507Y-78560279D01*
X64885780Y-78620592D01*
X64882846Y-78690400D01*
X64842637Y-78747540D01*
X64777919Y-78773871D01*
X64765441Y-78774500D01*
X62694559Y-78774500D01*
X62627520Y-78754815D01*
X62581765Y-78702011D01*
X62571821Y-78632853D01*
X62600846Y-78569297D01*
X62659624Y-78531523D01*
X62671763Y-78528613D01*
X62756685Y-78512739D01*
X62943236Y-78440469D01*
X63113331Y-78335150D01*
X63261178Y-78200370D01*
X63381742Y-78040718D01*
X63470916Y-77861631D01*
X63525666Y-77669207D01*
X63544125Y-77470000D01*
X63525666Y-77270793D01*
X63470916Y-77078369D01*
X63467239Y-77070985D01*
X63427453Y-76991083D01*
X63381742Y-76899282D01*
X63261178Y-76739630D01*
X63113331Y-76604850D01*
X62943236Y-76499531D01*
X62943235Y-76499530D01*
X62806830Y-76446687D01*
X62756685Y-76427261D01*
X62560030Y-76390500D01*
X62359970Y-76390500D01*
X62359969Y-76390500D01*
X62341296Y-76393990D01*
X62271781Y-76386955D01*
X62230836Y-76359781D01*
X60579319Y-74708264D01*
X60545834Y-74646941D01*
X60543000Y-74620583D01*
X60543000Y-73064973D01*
X60543000Y-70797546D01*
X60562684Y-70730511D01*
X60583453Y-70705922D01*
X60721178Y-70580370D01*
X60841742Y-70420718D01*
X60930916Y-70241631D01*
X60985666Y-70049207D01*
X61004125Y-69850000D01*
X60985666Y-69650793D01*
X60930916Y-69458369D01*
X60927239Y-69450985D01*
X60887453Y-69371083D01*
X60841742Y-69279282D01*
X60721178Y-69119630D01*
X60573331Y-68984850D01*
X60403236Y-68879531D01*
X60403235Y-68879530D01*
X60266830Y-68826687D01*
X60216685Y-68807261D01*
X60020030Y-68770500D01*
X59819970Y-68770500D01*
X59623315Y-68807261D01*
X59623312Y-68807261D01*
X59623312Y-68807262D01*
X59436764Y-68879530D01*
X59436763Y-68879531D01*
X59266667Y-68984851D01*
X59118823Y-69119628D01*
X58998258Y-69279281D01*
X58909088Y-69458358D01*
X58909083Y-69458371D01*
X58854333Y-69650793D01*
X58835875Y-69849999D01*
X58835875Y-69850000D01*
X58854333Y-70049206D01*
X58909083Y-70241628D01*
X58909088Y-70241641D01*
X58998258Y-70420717D01*
X58998258Y-70420718D01*
X59118822Y-70580370D01*
X59256539Y-70705915D01*
X59292819Y-70765623D01*
X59297000Y-70797550D01*
X59297000Y-74847527D01*
X59295280Y-74863108D01*
X59295569Y-74863136D01*
X59294834Y-74870902D01*
X59297000Y-74939799D01*
X59297000Y-74969202D01*
X59297863Y-74976044D01*
X59298320Y-74981857D01*
X59299778Y-75028233D01*
X59305334Y-75047354D01*
X59309280Y-75066407D01*
X59311776Y-75086164D01*
X59311776Y-75086166D01*
X59316359Y-75097741D01*
X59328861Y-75129318D01*
X59330748Y-75134831D01*
X59338399Y-75161165D01*
X59343694Y-75179388D01*
X59343697Y-75179396D01*
X59353829Y-75196528D01*
X59362390Y-75214002D01*
X59369721Y-75232518D01*
X59396998Y-75270062D01*
X59400206Y-75274946D01*
X59423818Y-75314872D01*
X59423824Y-75314880D01*
X59437896Y-75328951D01*
X59450533Y-75343746D01*
X59462243Y-75359863D01*
X59497997Y-75389441D01*
X59502308Y-75393363D01*
X59914501Y-75805556D01*
X60326518Y-76217573D01*
X60360003Y-76278896D01*
X60355019Y-76348588D01*
X60313147Y-76404521D01*
X60247683Y-76428938D01*
X60216054Y-76427143D01*
X60020030Y-76390500D01*
X59819970Y-76390500D01*
X59819969Y-76390500D01*
X59801296Y-76393990D01*
X59731781Y-76386955D01*
X59690836Y-76359781D01*
X59148844Y-75817789D01*
X59139044Y-75805556D01*
X59138820Y-75805742D01*
X59133844Y-75799727D01*
X59083596Y-75752540D01*
X59062812Y-75731757D01*
X59062809Y-75731754D01*
X59057358Y-75727526D01*
X59052936Y-75723749D01*
X59034256Y-75706208D01*
X59019103Y-75691977D01*
X59019099Y-75691975D01*
X59001653Y-75682384D01*
X58985388Y-75671700D01*
X58969655Y-75659496D01*
X58969654Y-75659495D01*
X58927067Y-75641065D01*
X58921821Y-75638495D01*
X58881162Y-75616143D01*
X58861876Y-75611191D01*
X58843476Y-75604892D01*
X58825193Y-75596981D01*
X58825188Y-75596980D01*
X58779365Y-75589722D01*
X58773644Y-75588537D01*
X58728707Y-75577000D01*
X58728703Y-75577000D01*
X58708791Y-75577000D01*
X58689392Y-75575473D01*
X58669725Y-75572358D01*
X58669724Y-75572358D01*
X58623524Y-75576725D01*
X58617688Y-75577000D01*
X57887790Y-75577000D01*
X57820751Y-75557315D01*
X57774996Y-75504511D01*
X57764432Y-75465601D01*
X57759999Y-75422203D01*
X57706237Y-75259963D01*
X57703836Y-75190137D01*
X57739568Y-75130095D01*
X57802088Y-75098902D01*
X57810050Y-75097742D01*
X57876398Y-75090266D01*
X57964250Y-75080369D01*
X57964253Y-75080368D01*
X57964255Y-75080368D01*
X58134522Y-75020789D01*
X58287262Y-74924816D01*
X58414816Y-74797262D01*
X58510789Y-74644522D01*
X58570368Y-74474255D01*
X58570369Y-74474249D01*
X58590565Y-74295003D01*
X58590565Y-74294996D01*
X58570369Y-74115750D01*
X58570368Y-74115745D01*
X58510788Y-73945476D01*
X58414815Y-73792737D01*
X58287262Y-73665184D01*
X58134521Y-73569210D01*
X57964249Y-73509630D01*
X57913189Y-73503877D01*
X57848775Y-73476810D01*
X57839393Y-73468338D01*
X57759039Y-73387984D01*
X57725554Y-73326661D01*
X57729013Y-73261304D01*
X57759999Y-73167797D01*
X57770500Y-73065009D01*
X57770499Y-71714992D01*
X57759999Y-71612203D01*
X57704814Y-71445666D01*
X57612712Y-71296344D01*
X57488656Y-71172288D01*
X57339334Y-71080186D01*
X57172797Y-71025001D01*
X57172795Y-71025000D01*
X57070010Y-71014500D01*
X56344998Y-71014500D01*
X56344980Y-71014501D01*
X56242203Y-71025000D01*
X56242200Y-71025001D01*
X56075668Y-71080185D01*
X56075663Y-71080187D01*
X55926342Y-71172289D01*
X55802289Y-71296342D01*
X55710187Y-71445663D01*
X55710185Y-71445668D01*
X55710115Y-71445880D01*
X55655001Y-71612203D01*
X55655001Y-71612204D01*
X55655000Y-71612204D01*
X55644500Y-71714983D01*
X55644500Y-73065001D01*
X55644501Y-73065018D01*
X55655000Y-73167796D01*
X55655001Y-73167799D01*
X55685984Y-73261298D01*
X55710186Y-73334334D01*
X55802288Y-73483656D01*
X55926344Y-73607712D01*
X56075666Y-73699814D01*
X56242203Y-73754999D01*
X56333911Y-73764368D01*
X56398603Y-73790764D01*
X56408990Y-73800045D01*
X56958338Y-74349393D01*
X56991823Y-74410716D01*
X56993877Y-74423189D01*
X56999630Y-74474249D01*
X57059211Y-74644525D01*
X57060260Y-74646702D01*
X57060514Y-74648248D01*
X57061511Y-74651096D01*
X57061012Y-74651270D01*
X57071610Y-74715643D01*
X57043886Y-74779777D01*
X56985889Y-74818741D01*
X56948538Y-74824500D01*
X56344998Y-74824500D01*
X56344980Y-74824501D01*
X56242203Y-74835000D01*
X56242200Y-74835001D01*
X56075668Y-74890185D01*
X56075663Y-74890187D01*
X55926342Y-74982289D01*
X55802289Y-75106342D01*
X55710187Y-75255663D01*
X55710185Y-75255668D01*
X55704632Y-75272426D01*
X55655001Y-75422203D01*
X55655001Y-75422204D01*
X55655000Y-75422204D01*
X55644500Y-75524983D01*
X55644500Y-76875001D01*
X55644501Y-76875018D01*
X55655000Y-76977796D01*
X55655001Y-76977799D01*
X55688327Y-77078369D01*
X55710186Y-77144334D01*
X55802288Y-77293656D01*
X55926344Y-77417712D01*
X56075666Y-77509814D01*
X56242203Y-77564999D01*
X56344991Y-77575500D01*
X57070008Y-77575499D01*
X57070016Y-77575498D01*
X57070019Y-77575498D01*
X57131094Y-77569259D01*
X57172797Y-77564999D01*
X57339334Y-77509814D01*
X57488656Y-77417712D01*
X57612712Y-77293656D01*
X57704814Y-77144334D01*
X57759999Y-76977797D01*
X57764432Y-76934397D01*
X57790829Y-76869705D01*
X57848010Y-76829554D01*
X57887791Y-76823000D01*
X58340583Y-76823000D01*
X58407622Y-76842685D01*
X58428264Y-76859319D01*
X58811935Y-77242990D01*
X58845420Y-77304313D01*
X58847725Y-77342112D01*
X58835875Y-77469998D01*
X58835875Y-77470000D01*
X58854333Y-77669206D01*
X58909083Y-77861628D01*
X58909088Y-77861641D01*
X58972901Y-77989794D01*
X58998258Y-78040718D01*
X59118822Y-78200370D01*
X59266669Y-78335150D01*
X59436764Y-78440469D01*
X59623315Y-78512739D01*
X59708227Y-78528611D01*
X59770507Y-78560279D01*
X59805780Y-78620592D01*
X59802846Y-78690400D01*
X59762637Y-78747540D01*
X59697919Y-78773871D01*
X59685441Y-78774500D01*
X43904500Y-78774500D01*
X43837461Y-78754815D01*
X43791706Y-78702011D01*
X43780500Y-78650500D01*
X43780500Y-76450000D01*
X52720001Y-76450000D01*
X52720001Y-76874986D01*
X52730494Y-76977697D01*
X52785641Y-77144119D01*
X52785643Y-77144124D01*
X52877684Y-77293345D01*
X53001654Y-77417315D01*
X53150875Y-77509356D01*
X53150880Y-77509358D01*
X53317302Y-77564505D01*
X53317309Y-77564506D01*
X53420019Y-77574999D01*
X53532499Y-77574999D01*
X53532500Y-77574998D01*
X53532500Y-76450000D01*
X54032500Y-76450000D01*
X54032500Y-77574999D01*
X54144972Y-77574999D01*
X54144986Y-77574998D01*
X54247697Y-77564505D01*
X54414119Y-77509358D01*
X54414124Y-77509356D01*
X54563345Y-77417315D01*
X54687315Y-77293345D01*
X54779356Y-77144124D01*
X54779358Y-77144119D01*
X54834505Y-76977697D01*
X54834506Y-76977690D01*
X54844999Y-76874986D01*
X54845000Y-76874973D01*
X54845000Y-76450000D01*
X54032500Y-76450000D01*
X53532500Y-76450000D01*
X52720001Y-76450000D01*
X43780500Y-76450000D01*
X43780500Y-75950000D01*
X52720000Y-75950000D01*
X53532500Y-75950000D01*
X53532500Y-74825000D01*
X54032500Y-74825000D01*
X54032500Y-75950000D01*
X54844999Y-75950000D01*
X54844999Y-75525028D01*
X54844998Y-75525013D01*
X54834505Y-75422302D01*
X54779358Y-75255880D01*
X54779356Y-75255875D01*
X54687315Y-75106654D01*
X54563345Y-74982684D01*
X54414124Y-74890643D01*
X54414119Y-74890641D01*
X54247697Y-74835494D01*
X54247690Y-74835493D01*
X54144986Y-74825000D01*
X54032500Y-74825000D01*
X53532500Y-74825000D01*
X53420027Y-74825000D01*
X53420012Y-74825001D01*
X53317302Y-74835494D01*
X53150880Y-74890641D01*
X53150875Y-74890643D01*
X53001654Y-74982684D01*
X52877684Y-75106654D01*
X52785643Y-75255875D01*
X52785641Y-75255880D01*
X52730494Y-75422302D01*
X52730493Y-75422309D01*
X52720000Y-75525013D01*
X52720000Y-75950000D01*
X43780500Y-75950000D01*
X43780500Y-72640000D01*
X52720001Y-72640000D01*
X52720001Y-73064986D01*
X52730494Y-73167697D01*
X52785641Y-73334119D01*
X52785643Y-73334124D01*
X52877684Y-73483345D01*
X53001654Y-73607315D01*
X53150875Y-73699356D01*
X53150880Y-73699358D01*
X53317302Y-73754505D01*
X53317309Y-73754506D01*
X53420019Y-73764999D01*
X53532499Y-73764999D01*
X53532500Y-73764998D01*
X53532500Y-72640000D01*
X54032500Y-72640000D01*
X54032500Y-73764999D01*
X54144972Y-73764999D01*
X54144986Y-73764998D01*
X54247697Y-73754505D01*
X54414119Y-73699358D01*
X54414124Y-73699356D01*
X54563345Y-73607315D01*
X54687315Y-73483345D01*
X54779356Y-73334124D01*
X54779358Y-73334119D01*
X54834505Y-73167697D01*
X54834506Y-73167690D01*
X54844999Y-73064986D01*
X54845000Y-73064973D01*
X54845000Y-72640000D01*
X54032500Y-72640000D01*
X53532500Y-72640000D01*
X52720001Y-72640000D01*
X43780500Y-72640000D01*
X43780500Y-72140000D01*
X52720000Y-72140000D01*
X53532500Y-72140000D01*
X53532500Y-71015000D01*
X54032500Y-71015000D01*
X54032500Y-72140000D01*
X54844999Y-72140000D01*
X54844999Y-71715028D01*
X54844998Y-71715013D01*
X54834505Y-71612302D01*
X54779358Y-71445880D01*
X54779356Y-71445875D01*
X54687315Y-71296654D01*
X54563345Y-71172684D01*
X54414124Y-71080643D01*
X54414119Y-71080641D01*
X54247697Y-71025494D01*
X54247690Y-71025493D01*
X54144986Y-71015000D01*
X54032500Y-71015000D01*
X53532500Y-71015000D01*
X53420027Y-71015000D01*
X53420012Y-71015001D01*
X53317302Y-71025494D01*
X53150880Y-71080641D01*
X53150875Y-71080643D01*
X53001654Y-71172684D01*
X52877684Y-71296654D01*
X52785643Y-71445875D01*
X52785641Y-71445880D01*
X52730494Y-71612302D01*
X52730493Y-71612309D01*
X52720000Y-71715013D01*
X52720000Y-72140000D01*
X43780500Y-72140000D01*
X43780500Y-61265000D01*
X44420000Y-61265000D01*
X44420000Y-61762844D01*
X44426401Y-61822372D01*
X44426403Y-61822379D01*
X44476645Y-61957086D01*
X44476649Y-61957093D01*
X44562809Y-62072187D01*
X44562812Y-62072190D01*
X44677906Y-62158350D01*
X44677913Y-62158354D01*
X44812620Y-62208596D01*
X44812627Y-62208598D01*
X44872155Y-62214999D01*
X44872172Y-62215000D01*
X45470000Y-62215000D01*
X45470000Y-61265000D01*
X45970000Y-61265000D01*
X45970000Y-62215000D01*
X46567828Y-62215000D01*
X46567844Y-62214999D01*
X46627372Y-62208598D01*
X46627379Y-62208596D01*
X46762086Y-62158354D01*
X46762093Y-62158350D01*
X46877187Y-62072190D01*
X46877190Y-62072187D01*
X46963350Y-61957093D01*
X46963354Y-61957086D01*
X47013596Y-61822379D01*
X47013598Y-61822372D01*
X47019999Y-61762844D01*
X47020000Y-61762827D01*
X47020000Y-61265000D01*
X52420000Y-61265000D01*
X52420000Y-61762844D01*
X52426401Y-61822372D01*
X52426403Y-61822379D01*
X52476645Y-61957086D01*
X52476649Y-61957093D01*
X52562809Y-62072187D01*
X52562812Y-62072190D01*
X52677906Y-62158350D01*
X52677913Y-62158354D01*
X52812620Y-62208596D01*
X52812627Y-62208598D01*
X52872155Y-62214999D01*
X52872172Y-62215000D01*
X53470000Y-62215000D01*
X53470000Y-61265000D01*
X53970000Y-61265000D01*
X53970000Y-62215000D01*
X54567828Y-62215000D01*
X54567844Y-62214999D01*
X54627372Y-62208598D01*
X54627379Y-62208596D01*
X54762086Y-62158354D01*
X54762093Y-62158350D01*
X54877187Y-62072190D01*
X54877190Y-62072187D01*
X54963350Y-61957093D01*
X54963354Y-61957086D01*
X55013596Y-61822379D01*
X55013598Y-61822372D01*
X55019999Y-61762844D01*
X55020000Y-61762827D01*
X55020000Y-61265000D01*
X53970000Y-61265000D01*
X53470000Y-61265000D01*
X52420000Y-61265000D01*
X47020000Y-61265000D01*
X45970000Y-61265000D01*
X45470000Y-61265000D01*
X44420000Y-61265000D01*
X43780500Y-61265000D01*
X43780500Y-60765000D01*
X44420000Y-60765000D01*
X45470000Y-60765000D01*
X45470000Y-59815000D01*
X45970000Y-59815000D01*
X45970000Y-60765000D01*
X47020000Y-60765000D01*
X52420000Y-60765000D01*
X53470000Y-60765000D01*
X53470000Y-59815000D01*
X53970000Y-59815000D01*
X53970000Y-60765000D01*
X55020000Y-60765000D01*
X55020000Y-60575000D01*
X58030001Y-60575000D01*
X58030001Y-60999986D01*
X58040494Y-61102697D01*
X58095641Y-61269119D01*
X58095643Y-61269124D01*
X58187684Y-61418345D01*
X58311654Y-61542315D01*
X58460875Y-61634356D01*
X58460880Y-61634358D01*
X58627302Y-61689505D01*
X58627309Y-61689506D01*
X58730019Y-61699999D01*
X58842499Y-61699999D01*
X58842499Y-61699998D01*
X58842500Y-60575000D01*
X59342500Y-60575000D01*
X59342500Y-61699999D01*
X59454972Y-61699999D01*
X59454986Y-61699998D01*
X59557697Y-61689505D01*
X59724119Y-61634358D01*
X59724124Y-61634356D01*
X59873345Y-61542315D01*
X59997315Y-61418345D01*
X60089356Y-61269124D01*
X60089358Y-61269119D01*
X60144505Y-61102697D01*
X60144506Y-61102690D01*
X60154999Y-60999986D01*
X60155000Y-60999973D01*
X60155000Y-60575000D01*
X59342500Y-60575000D01*
X58842500Y-60575000D01*
X58030001Y-60575000D01*
X55020000Y-60575000D01*
X55020000Y-60267172D01*
X55019999Y-60267155D01*
X55013598Y-60207627D01*
X55013596Y-60207620D01*
X54964132Y-60075000D01*
X58030000Y-60075000D01*
X58842499Y-60075000D01*
X58842499Y-58950000D01*
X59342500Y-58950000D01*
X59342500Y-60075000D01*
X60154999Y-60075000D01*
X60154999Y-59650028D01*
X60154998Y-59650013D01*
X60144505Y-59547302D01*
X60089358Y-59380880D01*
X60089356Y-59380875D01*
X59997315Y-59231654D01*
X59873345Y-59107684D01*
X59724124Y-59015643D01*
X59724119Y-59015641D01*
X59557697Y-58960494D01*
X59557690Y-58960493D01*
X59454986Y-58950000D01*
X59342500Y-58950000D01*
X58842499Y-58950000D01*
X58730027Y-58950000D01*
X58730012Y-58950001D01*
X58627302Y-58960494D01*
X58460880Y-59015641D01*
X58460875Y-59015643D01*
X58311654Y-59107684D01*
X58187684Y-59231654D01*
X58095643Y-59380875D01*
X58095641Y-59380880D01*
X58040494Y-59547302D01*
X58040493Y-59547309D01*
X58030000Y-59650013D01*
X58030000Y-60075000D01*
X54964132Y-60075000D01*
X54963354Y-60072913D01*
X54963350Y-60072906D01*
X54877190Y-59957812D01*
X54877187Y-59957809D01*
X54762093Y-59871649D01*
X54762086Y-59871645D01*
X54627379Y-59821403D01*
X54627372Y-59821401D01*
X54567844Y-59815000D01*
X53970000Y-59815000D01*
X53470000Y-59815000D01*
X52872155Y-59815000D01*
X52812627Y-59821401D01*
X52812620Y-59821403D01*
X52677913Y-59871645D01*
X52677906Y-59871649D01*
X52562812Y-59957809D01*
X52562809Y-59957812D01*
X52476649Y-60072906D01*
X52476645Y-60072913D01*
X52426403Y-60207620D01*
X52426401Y-60207627D01*
X52420000Y-60267155D01*
X52420000Y-60765000D01*
X47020000Y-60765000D01*
X47020000Y-60267172D01*
X47019999Y-60267155D01*
X47013598Y-60207627D01*
X47013596Y-60207620D01*
X46963354Y-60072913D01*
X46963350Y-60072906D01*
X46877190Y-59957812D01*
X46877187Y-59957809D01*
X46762093Y-59871649D01*
X46762086Y-59871645D01*
X46627379Y-59821403D01*
X46627372Y-59821401D01*
X46567844Y-59815000D01*
X45970000Y-59815000D01*
X45470000Y-59815000D01*
X44872155Y-59815000D01*
X44812627Y-59821401D01*
X44812620Y-59821403D01*
X44677913Y-59871645D01*
X44677906Y-59871649D01*
X44562812Y-59957809D01*
X44562809Y-59957812D01*
X44476649Y-60072906D01*
X44476645Y-60072913D01*
X44426403Y-60207620D01*
X44426401Y-60207627D01*
X44420000Y-60267155D01*
X44420000Y-60765000D01*
X43780500Y-60765000D01*
X43780500Y-51050000D01*
X56505001Y-51050000D01*
X56505001Y-51499986D01*
X56515494Y-51602697D01*
X56570641Y-51769119D01*
X56570643Y-51769124D01*
X56662684Y-51918345D01*
X56786654Y-52042315D01*
X56935875Y-52134356D01*
X56935880Y-52134358D01*
X57102302Y-52189505D01*
X57102309Y-52189506D01*
X57205019Y-52199999D01*
X57329999Y-52199999D01*
X57330000Y-52199998D01*
X57330000Y-51050000D01*
X57830000Y-51050000D01*
X57830000Y-52199999D01*
X57954972Y-52199999D01*
X57954986Y-52199998D01*
X58057697Y-52189505D01*
X58224119Y-52134358D01*
X58224124Y-52134356D01*
X58373345Y-52042315D01*
X58497315Y-51918345D01*
X58589356Y-51769124D01*
X58589358Y-51769119D01*
X58644505Y-51602697D01*
X58644506Y-51602690D01*
X58654999Y-51499986D01*
X58655000Y-51499973D01*
X58655000Y-51050000D01*
X57830000Y-51050000D01*
X57330000Y-51050000D01*
X56505001Y-51050000D01*
X43780500Y-51050000D01*
X43780500Y-50550000D01*
X56505000Y-50550000D01*
X57330000Y-50550000D01*
X57330000Y-49400000D01*
X57830000Y-49400000D01*
X57830000Y-50550000D01*
X58654999Y-50550000D01*
X58654999Y-50100028D01*
X58654998Y-50100013D01*
X58644505Y-49997302D01*
X58589358Y-49830880D01*
X58589356Y-49830875D01*
X58497315Y-49681654D01*
X58373345Y-49557684D01*
X58224124Y-49465643D01*
X58224119Y-49465641D01*
X58057697Y-49410494D01*
X58057690Y-49410493D01*
X57954986Y-49400000D01*
X57830000Y-49400000D01*
X57330000Y-49400000D01*
X57205027Y-49400000D01*
X57205012Y-49400001D01*
X57102302Y-49410494D01*
X56935880Y-49465641D01*
X56935875Y-49465643D01*
X56786654Y-49557684D01*
X56662684Y-49681654D01*
X56570643Y-49830875D01*
X56570641Y-49830880D01*
X56515494Y-49997302D01*
X56515493Y-49997309D01*
X56505000Y-50100013D01*
X56505000Y-50550000D01*
X43780500Y-50550000D01*
X43780500Y-28664500D01*
X43800185Y-28597461D01*
X43852989Y-28551706D01*
X43904500Y-28540500D01*
X57672311Y-28540500D01*
X57739350Y-28560185D01*
G37*
%TD.AperFunction*%
%TA.AperFunction,Conductor*%
G36*
X68103332Y-67730234D02*
G01*
X68147680Y-67758735D01*
X68716156Y-68327211D01*
X68725958Y-68339445D01*
X68726182Y-68339261D01*
X68731153Y-68345270D01*
X68781404Y-68392460D01*
X68802184Y-68413240D01*
X68802188Y-68413243D01*
X68802191Y-68413246D01*
X68807637Y-68417470D01*
X68812065Y-68421252D01*
X68829770Y-68437878D01*
X68845897Y-68453023D01*
X68845899Y-68453024D01*
X68863347Y-68462616D01*
X68879606Y-68473295D01*
X68895346Y-68485505D01*
X68937940Y-68503937D01*
X68943161Y-68506494D01*
X68983835Y-68528855D01*
X68997896Y-68532465D01*
X69003114Y-68533805D01*
X69021521Y-68540106D01*
X69039807Y-68548019D01*
X69085666Y-68555281D01*
X69091344Y-68556457D01*
X69136297Y-68568000D01*
X69156209Y-68568000D01*
X69175608Y-68569527D01*
X69195276Y-68572642D01*
X69241475Y-68568274D01*
X69247312Y-68568000D01*
X69737576Y-68568000D01*
X69804615Y-68587685D01*
X69850370Y-68640489D01*
X69860314Y-68709647D01*
X69831289Y-68773203D01*
X69782370Y-68807627D01*
X69596764Y-68879530D01*
X69596763Y-68879531D01*
X69426667Y-68984851D01*
X69278823Y-69119628D01*
X69158258Y-69279281D01*
X69069088Y-69458358D01*
X69069083Y-69458371D01*
X69014333Y-69650793D01*
X68995875Y-69849999D01*
X68995875Y-69850000D01*
X69014333Y-70049206D01*
X69069083Y-70241628D01*
X69069088Y-70241641D01*
X69158258Y-70420717D01*
X69158258Y-70420718D01*
X69278822Y-70580370D01*
X69416539Y-70705915D01*
X69452819Y-70765623D01*
X69457000Y-70797550D01*
X69457000Y-74847527D01*
X69455280Y-74863108D01*
X69455569Y-74863136D01*
X69454834Y-74870902D01*
X69457000Y-74939799D01*
X69457000Y-74969202D01*
X69457863Y-74976044D01*
X69458320Y-74981857D01*
X69459778Y-75028233D01*
X69465334Y-75047354D01*
X69469280Y-75066407D01*
X69471776Y-75086164D01*
X69471776Y-75086166D01*
X69476359Y-75097741D01*
X69488861Y-75129318D01*
X69490748Y-75134831D01*
X69498399Y-75161165D01*
X69503694Y-75179388D01*
X69503697Y-75179396D01*
X69513829Y-75196528D01*
X69522390Y-75214002D01*
X69529721Y-75232518D01*
X69556998Y-75270062D01*
X69560206Y-75274946D01*
X69583818Y-75314872D01*
X69583824Y-75314880D01*
X69597896Y-75328951D01*
X69610533Y-75343746D01*
X69622243Y-75359863D01*
X69657997Y-75389441D01*
X69662308Y-75393363D01*
X70074501Y-75805556D01*
X70486518Y-76217573D01*
X70520003Y-76278896D01*
X70515019Y-76348588D01*
X70473147Y-76404521D01*
X70407683Y-76428938D01*
X70376054Y-76427143D01*
X70180030Y-76390500D01*
X69979970Y-76390500D01*
X69783315Y-76427261D01*
X69783312Y-76427261D01*
X69783312Y-76427262D01*
X69596764Y-76499530D01*
X69596763Y-76499531D01*
X69426667Y-76604851D01*
X69278823Y-76739628D01*
X69158258Y-76899281D01*
X69069088Y-77078358D01*
X69069083Y-77078371D01*
X69014333Y-77270793D01*
X68995875Y-77469999D01*
X68995875Y-77470000D01*
X69014333Y-77669206D01*
X69069083Y-77861628D01*
X69069088Y-77861641D01*
X69132901Y-77989794D01*
X69158258Y-78040718D01*
X69278822Y-78200370D01*
X69426669Y-78335150D01*
X69596764Y-78440469D01*
X69783315Y-78512739D01*
X69868227Y-78528611D01*
X69930507Y-78560279D01*
X69965780Y-78620592D01*
X69962846Y-78690400D01*
X69922637Y-78747540D01*
X69857919Y-78773871D01*
X69845441Y-78774500D01*
X67774559Y-78774500D01*
X67707520Y-78754815D01*
X67661765Y-78702011D01*
X67651821Y-78632853D01*
X67680846Y-78569297D01*
X67739624Y-78531523D01*
X67751763Y-78528613D01*
X67836685Y-78512739D01*
X68023236Y-78440469D01*
X68193331Y-78335150D01*
X68341178Y-78200370D01*
X68461742Y-78040718D01*
X68550916Y-77861631D01*
X68605666Y-77669207D01*
X68624125Y-77470000D01*
X68605666Y-77270793D01*
X68550916Y-77078369D01*
X68547239Y-77070985D01*
X68507453Y-76991083D01*
X68461742Y-76899282D01*
X68341178Y-76739630D01*
X68193331Y-76604850D01*
X68023236Y-76499531D01*
X68023235Y-76499530D01*
X67886830Y-76446687D01*
X67836685Y-76427261D01*
X67640030Y-76390500D01*
X67439970Y-76390500D01*
X67243946Y-76427143D01*
X67174431Y-76420112D01*
X67119752Y-76376614D01*
X67097270Y-76310460D01*
X67114123Y-76242653D01*
X67133476Y-76217577D01*
X67922211Y-75428842D01*
X67934446Y-75419043D01*
X67934260Y-75418818D01*
X67940274Y-75413843D01*
X67987459Y-75363596D01*
X68008240Y-75342815D01*
X68008240Y-75342814D01*
X68008246Y-75342809D01*
X68012476Y-75337354D01*
X68016248Y-75332937D01*
X68048024Y-75299101D01*
X68057622Y-75281641D01*
X68068295Y-75265392D01*
X68080504Y-75249654D01*
X68098933Y-75207064D01*
X68101493Y-75201837D01*
X68123855Y-75161165D01*
X68128809Y-75141869D01*
X68135107Y-75123473D01*
X68143018Y-75105194D01*
X68150281Y-75059330D01*
X68151454Y-75053670D01*
X68163000Y-75008703D01*
X68163000Y-74988790D01*
X68164527Y-74969390D01*
X68164557Y-74969200D01*
X68167642Y-74949724D01*
X68163275Y-74903525D01*
X68163000Y-74897687D01*
X68163000Y-70797550D01*
X68182685Y-70730511D01*
X68203457Y-70705918D01*
X68341178Y-70580370D01*
X68461742Y-70420718D01*
X68550916Y-70241631D01*
X68605666Y-70049207D01*
X68624125Y-69850000D01*
X68605666Y-69650793D01*
X68550916Y-69458369D01*
X68547239Y-69450985D01*
X68507453Y-69371083D01*
X68461742Y-69279282D01*
X68341178Y-69119630D01*
X68193331Y-68984850D01*
X68023236Y-68879531D01*
X68023235Y-68879530D01*
X67886830Y-68826687D01*
X67836685Y-68807261D01*
X67640030Y-68770500D01*
X67439970Y-68770500D01*
X67243946Y-68807142D01*
X67174432Y-68800112D01*
X67119753Y-68756614D01*
X67097271Y-68690460D01*
X67114124Y-68622653D01*
X67133479Y-68597575D01*
X67972322Y-67758732D01*
X68033641Y-67725250D01*
X68103332Y-67730234D01*
G37*
%TD.AperFunction*%
%TA.AperFunction,Conductor*%
G36*
X88218834Y-44229124D02*
G01*
X88274767Y-44270996D01*
X88299184Y-44336460D01*
X88299500Y-44345306D01*
X88299500Y-78650500D01*
X88279815Y-78717539D01*
X88227011Y-78763294D01*
X88175500Y-78774500D01*
X77934559Y-78774500D01*
X77867520Y-78754815D01*
X77821765Y-78702011D01*
X77811821Y-78632853D01*
X77840846Y-78569297D01*
X77899624Y-78531523D01*
X77911763Y-78528613D01*
X77996685Y-78512739D01*
X78183236Y-78440469D01*
X78353331Y-78335150D01*
X78501178Y-78200370D01*
X78545050Y-78142273D01*
X78601160Y-78100637D01*
X78644005Y-78093000D01*
X79927528Y-78093000D01*
X79943108Y-78094720D01*
X79943136Y-78094431D01*
X79950902Y-78095165D01*
X79950904Y-78095164D01*
X79950905Y-78095165D01*
X80019800Y-78093000D01*
X80049200Y-78093000D01*
X80056035Y-78092136D01*
X80061853Y-78091678D01*
X80108233Y-78090221D01*
X80127359Y-78084663D01*
X80146405Y-78080719D01*
X80166165Y-78078224D01*
X80209319Y-78061136D01*
X80214810Y-78059256D01*
X80259389Y-78046306D01*
X80276524Y-78036171D01*
X80294001Y-78027610D01*
X80312518Y-78020279D01*
X80350069Y-77992994D01*
X80354935Y-77989799D01*
X80394876Y-77966179D01*
X80408960Y-77952093D01*
X80423750Y-77939462D01*
X80439863Y-77927757D01*
X80469451Y-77891989D01*
X80473365Y-77887688D01*
X80756119Y-77604934D01*
X80817440Y-77571451D01*
X80856401Y-77569259D01*
X80860693Y-77569697D01*
X80917491Y-77575500D01*
X81642508Y-77575499D01*
X81642516Y-77575498D01*
X81642519Y-77575498D01*
X81703594Y-77569259D01*
X81745297Y-77564999D01*
X81911834Y-77509814D01*
X82061156Y-77417712D01*
X82185212Y-77293656D01*
X82277314Y-77144334D01*
X82332499Y-76977797D01*
X82343000Y-76875009D01*
X82343000Y-76450000D01*
X83142501Y-76450000D01*
X83142501Y-76874986D01*
X83152994Y-76977697D01*
X83208141Y-77144119D01*
X83208143Y-77144124D01*
X83300184Y-77293345D01*
X83424154Y-77417315D01*
X83573375Y-77509356D01*
X83573380Y-77509358D01*
X83739802Y-77564505D01*
X83739809Y-77564506D01*
X83842519Y-77574999D01*
X83954999Y-77574999D01*
X83955000Y-77574998D01*
X83955000Y-76450000D01*
X84455000Y-76450000D01*
X84455000Y-77574999D01*
X84567472Y-77574999D01*
X84567486Y-77574998D01*
X84670197Y-77564505D01*
X84836619Y-77509358D01*
X84836624Y-77509356D01*
X84985845Y-77417315D01*
X85109815Y-77293345D01*
X85201856Y-77144124D01*
X85201858Y-77144119D01*
X85257005Y-76977697D01*
X85257006Y-76977690D01*
X85267499Y-76874986D01*
X85267500Y-76874973D01*
X85267500Y-76450000D01*
X84455000Y-76450000D01*
X83955000Y-76450000D01*
X83142501Y-76450000D01*
X82343000Y-76450000D01*
X82342999Y-75950000D01*
X83142500Y-75950000D01*
X83955000Y-75950000D01*
X83955000Y-74825000D01*
X84455000Y-74825000D01*
X84455000Y-75950000D01*
X85267499Y-75950000D01*
X85267499Y-75525028D01*
X85267498Y-75525013D01*
X85257005Y-75422302D01*
X85201858Y-75255880D01*
X85201856Y-75255875D01*
X85109815Y-75106654D01*
X84985845Y-74982684D01*
X84836624Y-74890643D01*
X84836619Y-74890641D01*
X84670197Y-74835494D01*
X84670190Y-74835493D01*
X84567486Y-74825000D01*
X84455000Y-74825000D01*
X83955000Y-74825000D01*
X83842527Y-74825000D01*
X83842512Y-74825001D01*
X83739802Y-74835494D01*
X83573380Y-74890641D01*
X83573375Y-74890643D01*
X83424154Y-74982684D01*
X83300184Y-75106654D01*
X83208143Y-75255875D01*
X83208141Y-75255880D01*
X83152994Y-75422302D01*
X83152993Y-75422309D01*
X83142500Y-75525013D01*
X83142500Y-75950000D01*
X82342999Y-75950000D01*
X82342999Y-75524992D01*
X82332499Y-75422203D01*
X82277314Y-75255666D01*
X82185212Y-75106344D01*
X82061156Y-74982288D01*
X81911834Y-74890186D01*
X81745297Y-74835001D01*
X81745295Y-74835000D01*
X81642510Y-74824500D01*
X80917498Y-74824500D01*
X80917480Y-74824501D01*
X80855265Y-74830857D01*
X80786572Y-74818087D01*
X80735688Y-74770206D01*
X80718768Y-74702416D01*
X80734536Y-74651646D01*
X80732769Y-74650795D01*
X80735786Y-74644529D01*
X80735787Y-74644523D01*
X80735789Y-74644522D01*
X80795368Y-74474255D01*
X80801121Y-74423189D01*
X80828186Y-74358778D01*
X80836650Y-74349403D01*
X81384235Y-73801818D01*
X81445559Y-73768333D01*
X81471917Y-73765499D01*
X81642502Y-73765499D01*
X81642508Y-73765499D01*
X81745297Y-73754999D01*
X81911834Y-73699814D01*
X82061156Y-73607712D01*
X82185212Y-73483656D01*
X82277314Y-73334334D01*
X82332499Y-73167797D01*
X82343000Y-73065009D01*
X82343000Y-72640000D01*
X83142501Y-72640000D01*
X83142501Y-73064986D01*
X83152994Y-73167697D01*
X83208141Y-73334119D01*
X83208143Y-73334124D01*
X83300184Y-73483345D01*
X83424154Y-73607315D01*
X83573375Y-73699356D01*
X83573380Y-73699358D01*
X83739802Y-73754505D01*
X83739809Y-73754506D01*
X83842519Y-73764999D01*
X83954999Y-73764999D01*
X83955000Y-73764998D01*
X83955000Y-72640000D01*
X84455000Y-72640000D01*
X84455000Y-73764999D01*
X84567472Y-73764999D01*
X84567486Y-73764998D01*
X84670197Y-73754505D01*
X84836619Y-73699358D01*
X84836624Y-73699356D01*
X84985845Y-73607315D01*
X85109815Y-73483345D01*
X85201856Y-73334124D01*
X85201858Y-73334119D01*
X85257005Y-73167697D01*
X85257006Y-73167690D01*
X85267499Y-73064986D01*
X85267500Y-73064973D01*
X85267500Y-72640000D01*
X84455000Y-72640000D01*
X83955000Y-72640000D01*
X83142501Y-72640000D01*
X82343000Y-72640000D01*
X82342999Y-72140000D01*
X83142500Y-72140000D01*
X83955000Y-72140000D01*
X83955000Y-71015000D01*
X84455000Y-71015000D01*
X84455000Y-72140000D01*
X85267499Y-72140000D01*
X85267499Y-71715028D01*
X85267498Y-71715013D01*
X85257005Y-71612302D01*
X85201858Y-71445880D01*
X85201856Y-71445875D01*
X85109815Y-71296654D01*
X84985845Y-71172684D01*
X84836624Y-71080643D01*
X84836619Y-71080641D01*
X84670197Y-71025494D01*
X84670190Y-71025493D01*
X84567486Y-71015000D01*
X84455000Y-71015000D01*
X83955000Y-71015000D01*
X83842527Y-71015000D01*
X83842512Y-71015001D01*
X83739802Y-71025494D01*
X83573380Y-71080641D01*
X83573375Y-71080643D01*
X83424154Y-71172684D01*
X83300184Y-71296654D01*
X83208143Y-71445875D01*
X83208141Y-71445880D01*
X83152994Y-71612302D01*
X83152993Y-71612309D01*
X83142500Y-71715013D01*
X83142500Y-72140000D01*
X82342999Y-72140000D01*
X82342999Y-71714992D01*
X82332499Y-71612203D01*
X82277314Y-71445666D01*
X82185212Y-71296344D01*
X82061156Y-71172288D01*
X81911834Y-71080186D01*
X81745297Y-71025001D01*
X81745295Y-71025000D01*
X81642510Y-71014500D01*
X80917498Y-71014500D01*
X80917480Y-71014501D01*
X80814703Y-71025000D01*
X80814700Y-71025001D01*
X80648168Y-71080185D01*
X80648163Y-71080187D01*
X80498842Y-71172289D01*
X80374789Y-71296342D01*
X80282687Y-71445663D01*
X80282685Y-71445668D01*
X80282615Y-71445880D01*
X80227501Y-71612203D01*
X80227501Y-71612204D01*
X80227500Y-71612204D01*
X80217000Y-71714983D01*
X80217000Y-73065001D01*
X80217001Y-73065018D01*
X80224168Y-73135170D01*
X80211398Y-73203862D01*
X80188491Y-73235452D01*
X79955605Y-73468338D01*
X79894282Y-73501823D01*
X79881809Y-73503877D01*
X79830750Y-73509630D01*
X79660478Y-73569210D01*
X79507737Y-73665184D01*
X79380184Y-73792737D01*
X79284211Y-73945476D01*
X79224631Y-74115745D01*
X79224630Y-74115750D01*
X79204435Y-74294996D01*
X79204435Y-74295003D01*
X79224630Y-74474249D01*
X79224631Y-74474254D01*
X79284211Y-74644523D01*
X79369197Y-74779777D01*
X79380184Y-74797262D01*
X79507738Y-74924816D01*
X79660478Y-75020789D01*
X79790847Y-75066407D01*
X79830745Y-75080368D01*
X79830750Y-75080369D01*
X80009996Y-75100565D01*
X80010000Y-75100565D01*
X80010003Y-75100565D01*
X80154438Y-75084291D01*
X80223260Y-75096345D01*
X80274640Y-75143694D01*
X80292264Y-75211305D01*
X80283466Y-75248316D01*
X80284958Y-75248811D01*
X80282687Y-75255664D01*
X80282686Y-75255666D01*
X80227501Y-75422203D01*
X80227501Y-75422204D01*
X80227500Y-75422204D01*
X80217000Y-75524983D01*
X80217000Y-76330582D01*
X80197315Y-76397621D01*
X80180681Y-76418263D01*
X79788264Y-76810681D01*
X79726941Y-76844166D01*
X79700583Y-76847000D01*
X78644005Y-76847000D01*
X78576966Y-76827315D01*
X78545051Y-76797727D01*
X78501176Y-76739628D01*
X78353332Y-76604851D01*
X78353331Y-76604850D01*
X78183236Y-76499531D01*
X78183235Y-76499530D01*
X78046830Y-76446687D01*
X77996685Y-76427261D01*
X77800030Y-76390500D01*
X77599970Y-76390500D01*
X77403946Y-76427143D01*
X77334431Y-76420112D01*
X77279752Y-76376614D01*
X77257270Y-76310460D01*
X77274123Y-76242653D01*
X77293476Y-76217577D01*
X78082211Y-75428842D01*
X78094446Y-75419043D01*
X78094260Y-75418818D01*
X78100274Y-75413843D01*
X78147459Y-75363596D01*
X78168240Y-75342815D01*
X78168240Y-75342814D01*
X78168246Y-75342809D01*
X78172476Y-75337354D01*
X78176248Y-75332937D01*
X78208024Y-75299101D01*
X78217622Y-75281641D01*
X78228295Y-75265392D01*
X78240504Y-75249654D01*
X78258933Y-75207064D01*
X78261493Y-75201837D01*
X78283855Y-75161165D01*
X78288809Y-75141869D01*
X78295107Y-75123473D01*
X78303018Y-75105194D01*
X78310281Y-75059330D01*
X78311454Y-75053670D01*
X78323000Y-75008703D01*
X78323000Y-74988790D01*
X78324527Y-74969390D01*
X78324557Y-74969200D01*
X78327642Y-74949724D01*
X78323275Y-74903525D01*
X78323000Y-74897687D01*
X78323000Y-71032864D01*
X78342685Y-70965825D01*
X78395489Y-70920070D01*
X78403667Y-70916682D01*
X78521328Y-70872797D01*
X78521327Y-70872797D01*
X78521331Y-70872796D01*
X78636546Y-70786546D01*
X78722796Y-70671331D01*
X78773091Y-70536483D01*
X78779500Y-70476873D01*
X78779499Y-69223128D01*
X78773091Y-69163517D01*
X78756722Y-69119630D01*
X78722797Y-69028671D01*
X78722793Y-69028664D01*
X78636547Y-68913455D01*
X78636544Y-68913452D01*
X78521335Y-68827206D01*
X78521328Y-68827202D01*
X78386482Y-68776908D01*
X78386483Y-68776908D01*
X78326883Y-68770501D01*
X78326881Y-68770500D01*
X78326873Y-68770500D01*
X78326864Y-68770500D01*
X77073129Y-68770500D01*
X77073123Y-68770501D01*
X77013516Y-68776908D01*
X76878671Y-68827202D01*
X76878664Y-68827206D01*
X76763455Y-68913452D01*
X76763452Y-68913455D01*
X76677206Y-69028664D01*
X76677202Y-69028671D01*
X76626908Y-69163517D01*
X76620501Y-69223116D01*
X76620501Y-69223123D01*
X76620500Y-69223135D01*
X76620500Y-70476870D01*
X76620501Y-70476876D01*
X76626908Y-70536483D01*
X76677202Y-70671328D01*
X76677206Y-70671335D01*
X76763452Y-70786544D01*
X76763455Y-70786547D01*
X76878664Y-70872793D01*
X76878671Y-70872797D01*
X76996333Y-70916682D01*
X77052267Y-70958553D01*
X77076684Y-71024017D01*
X77077000Y-71032864D01*
X77077000Y-74620582D01*
X77057315Y-74687621D01*
X77040681Y-74708263D01*
X75389162Y-76359781D01*
X75327839Y-76393266D01*
X75278700Y-76393989D01*
X75260036Y-76390500D01*
X75260030Y-76390500D01*
X75059970Y-76390500D01*
X74863315Y-76427261D01*
X74863312Y-76427261D01*
X74863312Y-76427262D01*
X74676764Y-76499530D01*
X74676763Y-76499531D01*
X74506667Y-76604851D01*
X74358823Y-76739628D01*
X74238258Y-76899281D01*
X74149088Y-77078358D01*
X74149083Y-77078371D01*
X74094333Y-77270793D01*
X74075875Y-77469999D01*
X74075875Y-77470000D01*
X74094333Y-77669206D01*
X74149083Y-77861628D01*
X74149088Y-77861641D01*
X74212901Y-77989794D01*
X74238258Y-78040718D01*
X74358822Y-78200370D01*
X74506669Y-78335150D01*
X74676764Y-78440469D01*
X74863315Y-78512739D01*
X74948227Y-78528611D01*
X75010507Y-78560279D01*
X75045780Y-78620592D01*
X75042846Y-78690400D01*
X75002637Y-78747540D01*
X74937919Y-78773871D01*
X74925441Y-78774500D01*
X72854559Y-78774500D01*
X72787520Y-78754815D01*
X72741765Y-78702011D01*
X72731821Y-78632853D01*
X72760846Y-78569297D01*
X72819624Y-78531523D01*
X72831763Y-78528613D01*
X72916685Y-78512739D01*
X73103236Y-78440469D01*
X73273331Y-78335150D01*
X73421178Y-78200370D01*
X73541742Y-78040718D01*
X73630916Y-77861631D01*
X73685666Y-77669207D01*
X73704125Y-77470000D01*
X73685666Y-77270793D01*
X73630916Y-77078369D01*
X73627239Y-77070985D01*
X73587453Y-76991083D01*
X73541742Y-76899282D01*
X73421178Y-76739630D01*
X73273331Y-76604850D01*
X73103236Y-76499531D01*
X73103235Y-76499530D01*
X72966830Y-76446687D01*
X72916685Y-76427261D01*
X72720030Y-76390500D01*
X72519970Y-76390500D01*
X72519969Y-76390500D01*
X72501296Y-76393990D01*
X72431781Y-76386955D01*
X72390836Y-76359781D01*
X70739319Y-74708264D01*
X70705834Y-74646941D01*
X70703000Y-74620583D01*
X70703000Y-70797550D01*
X70722685Y-70730511D01*
X70743457Y-70705918D01*
X70881178Y-70580370D01*
X71001742Y-70420718D01*
X71090916Y-70241631D01*
X71145666Y-70049207D01*
X71164125Y-69850000D01*
X71145666Y-69650793D01*
X71119614Y-69559230D01*
X71120200Y-69489365D01*
X71158467Y-69430906D01*
X71222264Y-69402415D01*
X71291337Y-69412939D01*
X71326561Y-69437616D01*
X71511935Y-69622990D01*
X71545420Y-69684313D01*
X71547725Y-69722112D01*
X71535875Y-69849998D01*
X71535875Y-69850000D01*
X71554333Y-70049206D01*
X71609083Y-70241628D01*
X71609088Y-70241641D01*
X71698258Y-70420717D01*
X71698258Y-70420718D01*
X71818822Y-70580370D01*
X71966669Y-70715150D01*
X72136764Y-70820469D01*
X72323315Y-70892739D01*
X72519970Y-70929500D01*
X72519972Y-70929500D01*
X72720028Y-70929500D01*
X72720030Y-70929500D01*
X72916685Y-70892739D01*
X73103236Y-70820469D01*
X73273331Y-70715150D01*
X73421178Y-70580370D01*
X73541742Y-70420718D01*
X73630916Y-70241631D01*
X73685666Y-70049207D01*
X73704125Y-69850000D01*
X73685666Y-69650793D01*
X73659614Y-69559230D01*
X73660200Y-69489365D01*
X73698467Y-69430906D01*
X73762264Y-69402415D01*
X73831337Y-69412939D01*
X73866561Y-69437616D01*
X74051935Y-69622990D01*
X74085420Y-69684313D01*
X74087725Y-69722112D01*
X74075875Y-69849998D01*
X74075875Y-69850000D01*
X74094333Y-70049206D01*
X74149083Y-70241628D01*
X74149088Y-70241641D01*
X74238257Y-70420718D01*
X74238258Y-70420718D01*
X74358822Y-70580370D01*
X74506669Y-70715150D01*
X74676764Y-70820469D01*
X74863315Y-70892739D01*
X75059970Y-70929500D01*
X75059972Y-70929500D01*
X75260028Y-70929500D01*
X75260030Y-70929500D01*
X75456685Y-70892739D01*
X75643236Y-70820469D01*
X75813331Y-70715150D01*
X75961178Y-70580370D01*
X76081742Y-70420718D01*
X76170916Y-70241631D01*
X76225666Y-70049207D01*
X76244125Y-69850000D01*
X76225666Y-69650793D01*
X76170916Y-69458369D01*
X76167239Y-69450985D01*
X76127453Y-69371083D01*
X76081742Y-69279282D01*
X75961178Y-69119630D01*
X75813331Y-68984850D01*
X75643236Y-68879531D01*
X75643235Y-68879530D01*
X75506830Y-68826687D01*
X75456685Y-68807261D01*
X75260030Y-68770500D01*
X75059970Y-68770500D01*
X75059969Y-68770500D01*
X75041296Y-68773990D01*
X74971781Y-68766955D01*
X74930836Y-68739781D01*
X73843235Y-67652180D01*
X73809750Y-67590857D01*
X73814734Y-67521165D01*
X73856606Y-67465232D01*
X73922070Y-67440815D01*
X73930896Y-67440499D01*
X74465008Y-67440499D01*
X74465016Y-67440498D01*
X74465019Y-67440498D01*
X74521302Y-67434748D01*
X74567797Y-67429999D01*
X74734334Y-67374814D01*
X74883656Y-67282712D01*
X75007712Y-67158656D01*
X75099814Y-67009334D01*
X75154999Y-66842797D01*
X75165500Y-66740009D01*
X75165499Y-66290000D01*
X75965001Y-66290000D01*
X75965001Y-66739986D01*
X75975494Y-66842697D01*
X76030641Y-67009119D01*
X76030643Y-67009124D01*
X76122684Y-67158345D01*
X76246654Y-67282315D01*
X76395875Y-67374356D01*
X76395880Y-67374358D01*
X76562302Y-67429505D01*
X76562309Y-67429506D01*
X76665019Y-67439999D01*
X76789999Y-67439999D01*
X76790000Y-67439998D01*
X76790000Y-66290000D01*
X77290000Y-66290000D01*
X77290000Y-67439999D01*
X77414972Y-67439999D01*
X77414986Y-67439998D01*
X77517697Y-67429505D01*
X77684119Y-67374358D01*
X77684124Y-67374356D01*
X77833345Y-67282315D01*
X77957315Y-67158345D01*
X78049356Y-67009124D01*
X78049358Y-67009119D01*
X78104505Y-66842697D01*
X78104506Y-66842690D01*
X78114999Y-66739986D01*
X78115000Y-66739973D01*
X78115000Y-66290000D01*
X77290000Y-66290000D01*
X76790000Y-66290000D01*
X75965001Y-66290000D01*
X75165499Y-66290000D01*
X75165499Y-66082884D01*
X75185183Y-66015846D01*
X75201813Y-65995209D01*
X75753321Y-65443701D01*
X75814642Y-65410218D01*
X75884334Y-65415202D01*
X75940267Y-65457074D01*
X75964684Y-65522538D01*
X75965000Y-65531384D01*
X75965000Y-65790000D01*
X76790000Y-65790000D01*
X76790000Y-64640000D01*
X77290000Y-64640000D01*
X77290000Y-65790000D01*
X78114999Y-65790000D01*
X78114999Y-65340028D01*
X78114998Y-65340013D01*
X78104505Y-65237302D01*
X78049358Y-65070880D01*
X78049356Y-65070875D01*
X77957315Y-64921654D01*
X77833345Y-64797684D01*
X77684124Y-64705643D01*
X77684119Y-64705641D01*
X77517697Y-64650494D01*
X77517690Y-64650493D01*
X77414986Y-64640000D01*
X77290000Y-64640000D01*
X76790000Y-64640000D01*
X76761193Y-64611194D01*
X76727708Y-64549871D01*
X76732692Y-64480179D01*
X76761198Y-64435824D01*
X76764583Y-64432441D01*
X76785027Y-64406584D01*
X76834667Y-64347427D01*
X76834669Y-64347422D01*
X76838637Y-64341390D01*
X76838683Y-64341420D01*
X76842795Y-64334965D01*
X76842748Y-64334936D01*
X76846532Y-64328799D01*
X76846539Y-64328791D01*
X76879172Y-64258808D01*
X76913824Y-64189811D01*
X76913826Y-64189799D01*
X76916293Y-64183024D01*
X76916346Y-64183043D01*
X76918858Y-64175815D01*
X76918807Y-64175798D01*
X76921077Y-64168945D01*
X76921077Y-64168943D01*
X76921079Y-64168940D01*
X76936695Y-64093310D01*
X76954500Y-64018188D01*
X76954500Y-64018181D01*
X76955047Y-64013505D01*
X76970821Y-63965897D01*
X77027179Y-63868284D01*
X77085674Y-63688256D01*
X77105460Y-63500000D01*
X77085674Y-63311744D01*
X77027179Y-63131716D01*
X76932533Y-62967784D01*
X76805871Y-62827112D01*
X76777234Y-62806306D01*
X76652734Y-62715851D01*
X76652729Y-62715848D01*
X76479807Y-62638857D01*
X76479802Y-62638855D01*
X76314495Y-62603719D01*
X76294646Y-62599500D01*
X76163416Y-62599500D01*
X76096377Y-62579815D01*
X76050622Y-62527011D01*
X76040678Y-62457853D01*
X76069703Y-62394297D01*
X76075735Y-62387819D01*
X76391367Y-62072187D01*
X76733619Y-61729934D01*
X76794940Y-61696451D01*
X76833901Y-61694259D01*
X76838193Y-61694697D01*
X76894991Y-61700500D01*
X77620008Y-61700499D01*
X77620016Y-61700498D01*
X77620019Y-61700498D01*
X77681094Y-61694259D01*
X77722797Y-61689999D01*
X77889334Y-61634814D01*
X78038656Y-61542712D01*
X78162712Y-61418656D01*
X78254814Y-61269334D01*
X78289554Y-61164493D01*
X78329325Y-61107051D01*
X78393841Y-61080228D01*
X78407259Y-61079500D01*
X81636034Y-61079500D01*
X81654003Y-61080809D01*
X81659384Y-61081596D01*
X81677940Y-61084315D01*
X81730282Y-61079735D01*
X81735683Y-61079500D01*
X81743968Y-61079500D01*
X81743975Y-61079500D01*
X81776708Y-61075674D01*
X81853646Y-61068943D01*
X81853649Y-61068941D01*
X81860727Y-61067481D01*
X81860738Y-61067535D01*
X81868197Y-61065881D01*
X81868185Y-61065827D01*
X81875212Y-61064160D01*
X81875218Y-61064160D01*
X81929634Y-61044354D01*
X81947774Y-61037752D01*
X82021068Y-61013465D01*
X82027615Y-61010412D01*
X82027638Y-61010462D01*
X82034532Y-61007125D01*
X82034507Y-61007075D01*
X82040950Y-61003838D01*
X82040958Y-61003836D01*
X82083971Y-60975545D01*
X82105477Y-60961401D01*
X82135085Y-60943138D01*
X82171188Y-60920870D01*
X82171193Y-60920864D01*
X82176857Y-60916387D01*
X82176891Y-60916430D01*
X82182816Y-60911604D01*
X82182781Y-60911562D01*
X82188317Y-60906916D01*
X82188316Y-60906916D01*
X82188319Y-60906915D01*
X82241305Y-60850752D01*
X86598265Y-56493791D01*
X86611884Y-56482021D01*
X86631295Y-56467572D01*
X86665076Y-56427312D01*
X86668710Y-56423346D01*
X86674584Y-56417474D01*
X86695028Y-56391617D01*
X86744668Y-56332460D01*
X86744670Y-56332455D01*
X86748638Y-56326423D01*
X86748684Y-56326453D01*
X86752796Y-56319998D01*
X86752749Y-56319969D01*
X86756533Y-56313832D01*
X86756540Y-56313824D01*
X86789173Y-56243841D01*
X86823825Y-56174844D01*
X86823827Y-56174832D01*
X86826294Y-56168057D01*
X86826347Y-56168076D01*
X86828859Y-56160848D01*
X86828808Y-56160831D01*
X86831079Y-56153976D01*
X86846696Y-56078340D01*
X86864501Y-56003221D01*
X86864501Y-56003213D01*
X86865339Y-55996049D01*
X86865393Y-55996055D01*
X86866171Y-55988439D01*
X86866118Y-55988435D01*
X86866747Y-55981244D01*
X86864501Y-55904051D01*
X86864501Y-50540744D01*
X86884186Y-50473705D01*
X86914187Y-50441479D01*
X86975547Y-50395546D01*
X87061797Y-50280331D01*
X87112092Y-50145483D01*
X87118501Y-50085873D01*
X87118500Y-49730358D01*
X87138184Y-49663320D01*
X87154814Y-49642683D01*
X87560265Y-49237232D01*
X87573884Y-49225462D01*
X87593295Y-49211013D01*
X87627076Y-49170753D01*
X87630710Y-49166787D01*
X87636584Y-49160915D01*
X87657028Y-49135058D01*
X87706668Y-49075901D01*
X87706670Y-49075896D01*
X87710638Y-49069864D01*
X87710684Y-49069894D01*
X87714796Y-49063439D01*
X87714749Y-49063410D01*
X87718533Y-49057273D01*
X87718540Y-49057265D01*
X87751173Y-48987282D01*
X87785825Y-48918285D01*
X87785827Y-48918273D01*
X87788294Y-48911498D01*
X87788347Y-48911517D01*
X87790859Y-48904289D01*
X87790808Y-48904272D01*
X87793078Y-48897419D01*
X87793078Y-48897417D01*
X87793080Y-48897414D01*
X87808696Y-48821784D01*
X87826501Y-48746662D01*
X87826501Y-48746657D01*
X87827339Y-48739489D01*
X87827393Y-48739495D01*
X87828171Y-48731879D01*
X87828118Y-48731875D01*
X87828747Y-48724684D01*
X87828684Y-48722535D01*
X87826501Y-48647492D01*
X87826501Y-44757572D01*
X87827810Y-44739602D01*
X87828935Y-44731919D01*
X87831315Y-44715673D01*
X87826736Y-44663339D01*
X87826501Y-44657938D01*
X87826501Y-44649645D01*
X87826501Y-44649644D01*
X87826501Y-44649639D01*
X87822673Y-44616892D01*
X87822673Y-44616891D01*
X87820141Y-44587941D01*
X87833909Y-44519441D01*
X87855985Y-44489458D01*
X88087819Y-44257625D01*
X88149142Y-44224140D01*
X88218834Y-44229124D01*
G37*
%TD.AperFunction*%
%TA.AperFunction,Conductor*%
G36*
X82370405Y-52790662D02*
G01*
X82426338Y-52832534D01*
X82450755Y-52897998D01*
X82450429Y-52919445D01*
X82444500Y-52977478D01*
X82444500Y-53702501D01*
X82444501Y-53702519D01*
X82455000Y-53805296D01*
X82455001Y-53805299D01*
X82493053Y-53920131D01*
X82510186Y-53971834D01*
X82602288Y-54121156D01*
X82726344Y-54245212D01*
X82875666Y-54337314D01*
X83042203Y-54392499D01*
X83144991Y-54403000D01*
X84495008Y-54402999D01*
X84597797Y-54392499D01*
X84764334Y-54337314D01*
X84913656Y-54245212D01*
X85037712Y-54121156D01*
X85125962Y-53978078D01*
X85177910Y-53931354D01*
X85246872Y-53920131D01*
X85310955Y-53947975D01*
X85349811Y-54006043D01*
X85355501Y-54043175D01*
X85355501Y-55551146D01*
X85335816Y-55618185D01*
X85319182Y-55638827D01*
X85314745Y-55643264D01*
X85253422Y-55676749D01*
X85183730Y-55671765D01*
X85127797Y-55629893D01*
X85121525Y-55620680D01*
X85037315Y-55484154D01*
X84913345Y-55360184D01*
X84764124Y-55268143D01*
X84764119Y-55268141D01*
X84597697Y-55212994D01*
X84597690Y-55212993D01*
X84494986Y-55202500D01*
X84070000Y-55202500D01*
X84070000Y-56391000D01*
X84050315Y-56458039D01*
X83997511Y-56503794D01*
X83946000Y-56515000D01*
X82445001Y-56515000D01*
X82445001Y-56627486D01*
X82455494Y-56730197D01*
X82510641Y-56896619D01*
X82510643Y-56896624D01*
X82602684Y-57045845D01*
X82726654Y-57169815D01*
X82875875Y-57261856D01*
X82875880Y-57261858D01*
X83042302Y-57317005D01*
X83042309Y-57317006D01*
X83145019Y-57327499D01*
X83331146Y-57327499D01*
X83398186Y-57347183D01*
X83443941Y-57399987D01*
X83453885Y-57469145D01*
X83424860Y-57532701D01*
X83418828Y-57539180D01*
X81423829Y-59534181D01*
X81362506Y-59567666D01*
X81336148Y-59570500D01*
X78407259Y-59570500D01*
X78340220Y-59550815D01*
X78294465Y-59498011D01*
X78289559Y-59485519D01*
X78254814Y-59380666D01*
X78162712Y-59231344D01*
X78038656Y-59107288D01*
X77889334Y-59015186D01*
X77722797Y-58960001D01*
X77722795Y-58960000D01*
X77620010Y-58949500D01*
X76894998Y-58949500D01*
X76894980Y-58949501D01*
X76792203Y-58960000D01*
X76792200Y-58960001D01*
X76625668Y-59015185D01*
X76625663Y-59015187D01*
X76476342Y-59107289D01*
X76352289Y-59231342D01*
X76260187Y-59380663D01*
X76260185Y-59380668D01*
X76232349Y-59464670D01*
X76205001Y-59547203D01*
X76205001Y-59547204D01*
X76205000Y-59547204D01*
X76194500Y-59649983D01*
X76194500Y-60455582D01*
X76174815Y-60522621D01*
X76158181Y-60543263D01*
X76052181Y-60649263D01*
X75990858Y-60682748D01*
X75921166Y-60677764D01*
X75865233Y-60635892D01*
X75840816Y-60570428D01*
X75840500Y-60561582D01*
X75840500Y-59269416D01*
X75860185Y-59202377D01*
X75876814Y-59181740D01*
X77330206Y-57728347D01*
X77344997Y-57715715D01*
X77361113Y-57704007D01*
X77390698Y-57668242D01*
X77394624Y-57663930D01*
X77435779Y-57622781D01*
X77435813Y-57622740D01*
X78554759Y-56503794D01*
X79043553Y-56015000D01*
X82445000Y-56015000D01*
X83570000Y-56015000D01*
X83570000Y-55202500D01*
X83145028Y-55202500D01*
X83145012Y-55202501D01*
X83042302Y-55212994D01*
X82875880Y-55268141D01*
X82875875Y-55268143D01*
X82726654Y-55360184D01*
X82602684Y-55484154D01*
X82510643Y-55633375D01*
X82510641Y-55633380D01*
X82455494Y-55799802D01*
X82455493Y-55799809D01*
X82445000Y-55902513D01*
X82445000Y-56015000D01*
X79043553Y-56015000D01*
X79678619Y-55379934D01*
X79739940Y-55346451D01*
X79778901Y-55344259D01*
X79783193Y-55344697D01*
X79839991Y-55350500D01*
X80565008Y-55350499D01*
X80565016Y-55350498D01*
X80565019Y-55350498D01*
X80626094Y-55344259D01*
X80667797Y-55339999D01*
X80834334Y-55284814D01*
X80983656Y-55192712D01*
X81107712Y-55068656D01*
X81199814Y-54919334D01*
X81254999Y-54752797D01*
X81265500Y-54650009D01*
X81265499Y-53844415D01*
X81285183Y-53777377D01*
X81301813Y-53756740D01*
X82239392Y-52819161D01*
X82300713Y-52785678D01*
X82370405Y-52790662D01*
G37*
%TD.AperFunction*%
%TA.AperFunction,Conductor*%
G36*
X61996942Y-46975185D02*
G01*
X62017584Y-46991819D01*
X62065591Y-47039826D01*
X62099076Y-47101149D01*
X62101910Y-47127507D01*
X62101910Y-49663981D01*
X62101379Y-49672079D01*
X62100119Y-49681654D01*
X62096728Y-49707409D01*
X62096728Y-49707411D01*
X62106594Y-49782353D01*
X62117366Y-49864170D01*
X62117366Y-49864172D01*
X62165440Y-49980234D01*
X62177874Y-50010251D01*
X62274128Y-50135692D01*
X62302405Y-50157390D01*
X62308495Y-50162730D01*
X62686509Y-50540744D01*
X63046584Y-50900819D01*
X63080069Y-50962142D01*
X63075085Y-51031834D01*
X63033213Y-51087767D01*
X62991778Y-51103221D01*
X62982500Y-51112500D01*
X62982500Y-51638000D01*
X62962815Y-51705039D01*
X62910011Y-51750794D01*
X62858500Y-51762000D01*
X62806500Y-51762000D01*
X62739461Y-51742315D01*
X62693706Y-51689511D01*
X62682500Y-51638000D01*
X62682500Y-51112500D01*
X62457302Y-51112500D01*
X62344895Y-51127300D01*
X62344891Y-51127301D01*
X62205021Y-51185236D01*
X62084905Y-51277405D01*
X61992736Y-51397521D01*
X61934801Y-51537391D01*
X61934800Y-51537396D01*
X61924911Y-51612499D01*
X61924912Y-51612500D01*
X62129185Y-51612500D01*
X62196224Y-51632185D01*
X62241979Y-51684989D01*
X62251923Y-51754147D01*
X62222898Y-51817703D01*
X62204672Y-51834874D01*
X62152085Y-51875227D01*
X62136905Y-51886875D01*
X62071736Y-51912070D01*
X62061418Y-51912500D01*
X61924912Y-51912500D01*
X61934800Y-51987603D01*
X61934801Y-51987608D01*
X61956251Y-52039394D01*
X61963720Y-52108864D01*
X61956252Y-52134297D01*
X61934313Y-52187263D01*
X61934313Y-52187264D01*
X61919500Y-52299772D01*
X61919500Y-52525227D01*
X61934313Y-52637735D01*
X61934313Y-52637736D01*
X61955981Y-52690049D01*
X61963448Y-52759519D01*
X61955981Y-52784951D01*
X61934313Y-52837263D01*
X61934313Y-52837264D01*
X61919500Y-52949772D01*
X61919500Y-52965500D01*
X61899815Y-53032539D01*
X61847011Y-53078294D01*
X61795500Y-53089500D01*
X61620310Y-53089500D01*
X61553271Y-53069815D01*
X61514771Y-53030597D01*
X61422712Y-52881344D01*
X61320817Y-52779449D01*
X61287334Y-52718127D01*
X61284500Y-52691769D01*
X61284500Y-52133230D01*
X61304185Y-52066191D01*
X61320819Y-52045549D01*
X61378765Y-51987603D01*
X61447712Y-51918656D01*
X61539814Y-51769334D01*
X61594999Y-51602797D01*
X61605500Y-51500009D01*
X61605499Y-50099992D01*
X61594999Y-49997203D01*
X61539814Y-49830666D01*
X61447712Y-49681344D01*
X61323656Y-49557288D01*
X61319088Y-49553676D01*
X61278711Y-49496654D01*
X61271999Y-49456415D01*
X61271999Y-48029972D01*
X61273309Y-48011997D01*
X61276815Y-47988066D01*
X61272236Y-47935730D01*
X61272000Y-47930324D01*
X61272000Y-47922040D01*
X61272000Y-47922033D01*
X61268174Y-47889299D01*
X61261443Y-47812362D01*
X61261441Y-47812357D01*
X61259983Y-47805293D01*
X61260037Y-47805281D01*
X61258381Y-47797811D01*
X61258327Y-47797824D01*
X61256660Y-47790796D01*
X61256660Y-47790790D01*
X61230252Y-47718234D01*
X61205964Y-47644938D01*
X61205961Y-47644934D01*
X61202912Y-47638393D01*
X61202961Y-47638369D01*
X61199628Y-47631483D01*
X61199579Y-47631508D01*
X61196335Y-47625049D01*
X61191463Y-47617642D01*
X61153900Y-47560529D01*
X61113370Y-47494820D01*
X61113368Y-47494818D01*
X61108892Y-47489157D01*
X61108934Y-47489123D01*
X61104097Y-47483185D01*
X61104056Y-47483220D01*
X61099412Y-47477685D01*
X61043252Y-47424702D01*
X60785731Y-47167181D01*
X60752246Y-47105858D01*
X60757230Y-47036167D01*
X60799101Y-46980233D01*
X60864566Y-46955816D01*
X60873412Y-46955500D01*
X61929903Y-46955500D01*
X61996942Y-46975185D01*
G37*
%TD.AperFunction*%
%TA.AperFunction,Conductor*%
G36*
X68516306Y-45167268D02*
G01*
X68574602Y-45201744D01*
X68616224Y-45213836D01*
X68732426Y-45247597D01*
X68732429Y-45247597D01*
X68732431Y-45247598D01*
X68744722Y-45248565D01*
X68769304Y-45250500D01*
X69473500Y-45250500D01*
X69540539Y-45270185D01*
X69586294Y-45322989D01*
X69597500Y-45374500D01*
X69597500Y-46200000D01*
X69925644Y-46200000D01*
X69962489Y-46197100D01*
X69962495Y-46197099D01*
X70120193Y-46151283D01*
X70120196Y-46151282D01*
X70261552Y-46067685D01*
X70261561Y-46067678D01*
X70377678Y-45951561D01*
X70377680Y-45951558D01*
X70377972Y-45951066D01*
X70378301Y-45950758D01*
X70382463Y-45945393D01*
X70383328Y-45946064D01*
X70429038Y-45903379D01*
X70497778Y-45890870D01*
X70562370Y-45917510D01*
X70586936Y-45945858D01*
X70587139Y-45945702D01*
X70590022Y-45949420D01*
X70591438Y-45951053D01*
X70591914Y-45951859D01*
X70591923Y-45951870D01*
X70708129Y-46068076D01*
X70708133Y-46068079D01*
X70708135Y-46068081D01*
X70849602Y-46151744D01*
X70853836Y-46152974D01*
X71007426Y-46197597D01*
X71007429Y-46197597D01*
X71007431Y-46197598D01*
X71019722Y-46198565D01*
X71044304Y-46200500D01*
X71044306Y-46200500D01*
X72200696Y-46200500D01*
X72219131Y-46199049D01*
X72237569Y-46197598D01*
X72237571Y-46197597D01*
X72237573Y-46197597D01*
X72289419Y-46182534D01*
X72395398Y-46151744D01*
X72536865Y-46068081D01*
X72653081Y-45951865D01*
X72736744Y-45810398D01*
X72740518Y-45797406D01*
X72778123Y-45738521D01*
X72841595Y-45709313D01*
X72859595Y-45708000D01*
X73760450Y-45708000D01*
X73827489Y-45727685D01*
X73862025Y-45760877D01*
X73951866Y-45889184D01*
X73959174Y-45899620D01*
X74115380Y-46055826D01*
X74254124Y-46152975D01*
X74297748Y-46207550D01*
X74307000Y-46254549D01*
X74307000Y-46455450D01*
X74287315Y-46522489D01*
X74254123Y-46557025D01*
X74115378Y-46654174D01*
X73959175Y-46810377D01*
X73832466Y-46991338D01*
X73832465Y-46991340D01*
X73739107Y-47191548D01*
X73739104Y-47191554D01*
X73681930Y-47404929D01*
X73681929Y-47404937D01*
X73662677Y-47624997D01*
X73662677Y-47625002D01*
X73681929Y-47845062D01*
X73681930Y-47845070D01*
X73739104Y-48058445D01*
X73739105Y-48058447D01*
X73739106Y-48058450D01*
X73764248Y-48112367D01*
X73832466Y-48258662D01*
X73832468Y-48258666D01*
X73899544Y-48354460D01*
X73921871Y-48420666D01*
X73904861Y-48488433D01*
X73853913Y-48536246D01*
X73785203Y-48548924D01*
X73720546Y-48522442D01*
X73710288Y-48513264D01*
X72933385Y-47736361D01*
X72915298Y-47710869D01*
X72914494Y-47711375D01*
X72910789Y-47705478D01*
X72814816Y-47552738D01*
X72687262Y-47425184D01*
X72674882Y-47417405D01*
X72534523Y-47329211D01*
X72364254Y-47269631D01*
X72364249Y-47269630D01*
X72185004Y-47249435D01*
X72184996Y-47249435D01*
X72005750Y-47269630D01*
X72005737Y-47269633D01*
X71937415Y-47293541D01*
X71896460Y-47300500D01*
X71183230Y-47300500D01*
X71116191Y-47280815D01*
X71095549Y-47264181D01*
X70968657Y-47137289D01*
X70968656Y-47137288D01*
X70819334Y-47045186D01*
X70652797Y-46990001D01*
X70652795Y-46990000D01*
X70550016Y-46979500D01*
X70550009Y-46979500D01*
X69706917Y-46979500D01*
X69639878Y-46959815D01*
X69619236Y-46943181D01*
X69283844Y-46607789D01*
X69274044Y-46595556D01*
X69273820Y-46595742D01*
X69268844Y-46589727D01*
X69218596Y-46542540D01*
X69197812Y-46521757D01*
X69197809Y-46521754D01*
X69192358Y-46517526D01*
X69187936Y-46513749D01*
X69169256Y-46496208D01*
X69154103Y-46481977D01*
X69154099Y-46481975D01*
X69136653Y-46472384D01*
X69120388Y-46461700D01*
X69104654Y-46449495D01*
X69104651Y-46449493D01*
X69104650Y-46449493D01*
X69077630Y-46437800D01*
X69023924Y-46393109D01*
X69002905Y-46326475D01*
X69021247Y-46259056D01*
X69073127Y-46212256D01*
X69088822Y-46208677D01*
X69097500Y-46200000D01*
X69097500Y-45650000D01*
X68187705Y-45650000D01*
X68187704Y-45650001D01*
X68187899Y-45652486D01*
X68233718Y-45810198D01*
X68317314Y-45951552D01*
X68317321Y-45951561D01*
X68433438Y-46067678D01*
X68433447Y-46067685D01*
X68549415Y-46136268D01*
X68597098Y-46187337D01*
X68609602Y-46256079D01*
X68582957Y-46320668D01*
X68525621Y-46360598D01*
X68486294Y-46367000D01*
X68254417Y-46367000D01*
X68187378Y-46347315D01*
X68166736Y-46330681D01*
X67969319Y-46133264D01*
X67935834Y-46071941D01*
X67933000Y-46045583D01*
X67933000Y-45394417D01*
X67952685Y-45327378D01*
X67969319Y-45306736D01*
X68089736Y-45186319D01*
X68151059Y-45152834D01*
X68177417Y-45150000D01*
X68453185Y-45150000D01*
X68516306Y-45167268D01*
G37*
%TD.AperFunction*%
%TA.AperFunction,Conductor*%
G36*
X68138039Y-39089685D02*
G01*
X68183794Y-39142489D01*
X68195000Y-39194000D01*
X68195000Y-40820000D01*
X68742828Y-40820000D01*
X68742844Y-40819999D01*
X68802372Y-40813598D01*
X68802379Y-40813596D01*
X68937086Y-40763354D01*
X68937089Y-40763352D01*
X69020271Y-40701082D01*
X69085735Y-40676664D01*
X69154008Y-40691515D01*
X69168887Y-40701077D01*
X69248333Y-40760550D01*
X69252668Y-40763795D01*
X69252671Y-40763797D01*
X69320093Y-40788943D01*
X69387517Y-40814091D01*
X69387521Y-40814091D01*
X69395009Y-40815861D01*
X69455727Y-40850431D01*
X69488116Y-40912341D01*
X69490500Y-40936539D01*
X69490500Y-40971000D01*
X69489191Y-40988969D01*
X69485684Y-41012908D01*
X69490264Y-41065241D01*
X69490500Y-41070648D01*
X69490500Y-41078946D01*
X69494325Y-41111674D01*
X69497870Y-41152192D01*
X69484104Y-41220692D01*
X69435489Y-41270875D01*
X69374342Y-41287000D01*
X68662472Y-41287000D01*
X68646891Y-41285279D01*
X68646864Y-41285569D01*
X68639097Y-41284834D01*
X68570200Y-41287000D01*
X68540800Y-41287000D01*
X68533953Y-41287863D01*
X68528142Y-41288320D01*
X68481768Y-41289778D01*
X68462638Y-41295336D01*
X68443592Y-41299280D01*
X68423838Y-41301775D01*
X68423832Y-41301777D01*
X68380688Y-41318858D01*
X68375162Y-41320750D01*
X68330610Y-41333694D01*
X68313464Y-41343833D01*
X68296007Y-41352385D01*
X68277479Y-41359722D01*
X68239935Y-41386999D01*
X68235053Y-41390206D01*
X68195121Y-41413823D01*
X68181043Y-41427901D01*
X68166253Y-41440533D01*
X68150139Y-41452240D01*
X68150132Y-41452247D01*
X68120551Y-41488003D01*
X68116620Y-41492324D01*
X65880285Y-43728658D01*
X65868048Y-43738463D01*
X65868233Y-43738687D01*
X65862227Y-43743655D01*
X65853853Y-43752573D01*
X65815040Y-43793904D01*
X65807749Y-43801194D01*
X65792586Y-43816357D01*
X65731262Y-43849841D01*
X65665903Y-43846380D01*
X65572697Y-43815494D01*
X65572690Y-43815493D01*
X65469986Y-43805000D01*
X65020000Y-43805000D01*
X65020000Y-45954999D01*
X65469972Y-45954999D01*
X65469986Y-45954998D01*
X65502898Y-45951636D01*
X65571591Y-45964405D01*
X65622475Y-46012286D01*
X65639500Y-46074994D01*
X65639500Y-46634501D01*
X65619815Y-46701540D01*
X65567011Y-46747295D01*
X65502900Y-46757859D01*
X65470023Y-46754501D01*
X65470014Y-46754500D01*
X65470009Y-46754500D01*
X65470003Y-46754500D01*
X64069998Y-46754500D01*
X64069981Y-46754501D01*
X63967203Y-46765000D01*
X63967200Y-46765001D01*
X63865914Y-46798565D01*
X63796086Y-46800967D01*
X63736044Y-46765235D01*
X63704851Y-46702715D01*
X63702910Y-46680859D01*
X63702910Y-46377653D01*
X63703441Y-46369551D01*
X63706326Y-46347642D01*
X63708092Y-46334225D01*
X63707625Y-46330681D01*
X63690039Y-46197099D01*
X63687454Y-46177463D01*
X63641488Y-46066492D01*
X63634421Y-46049430D01*
X63626952Y-45979960D01*
X63658227Y-45917481D01*
X63718316Y-45881829D01*
X63788141Y-45884323D01*
X63800357Y-45889184D01*
X63967302Y-45944505D01*
X63967309Y-45944506D01*
X64070019Y-45954999D01*
X64519999Y-45954999D01*
X64520000Y-45954998D01*
X64520000Y-45130000D01*
X63370001Y-45130000D01*
X63370001Y-45254986D01*
X63380494Y-45357697D01*
X63416823Y-45467331D01*
X63419225Y-45537160D01*
X63383493Y-45597201D01*
X63320972Y-45628394D01*
X63251513Y-45620833D01*
X63211436Y-45594016D01*
X63178513Y-45561093D01*
X63173159Y-45554988D01*
X63151471Y-45526722D01*
X63151468Y-45526720D01*
X63151467Y-45526718D01*
X63026026Y-45430464D01*
X62879947Y-45369956D01*
X62879945Y-45369955D01*
X62762546Y-45354500D01*
X62723185Y-45349318D01*
X62687855Y-45353969D01*
X62679757Y-45354500D01*
X60225097Y-45354500D01*
X60158058Y-45334815D01*
X60137416Y-45318181D01*
X59449235Y-44630000D01*
X63370000Y-44630000D01*
X64520000Y-44630000D01*
X64520000Y-43805000D01*
X64070028Y-43805000D01*
X64070012Y-43805001D01*
X63967302Y-43815494D01*
X63800880Y-43870641D01*
X63800875Y-43870643D01*
X63651654Y-43962684D01*
X63527684Y-44086654D01*
X63435643Y-44235875D01*
X63435641Y-44235880D01*
X63380494Y-44402302D01*
X63380493Y-44402309D01*
X63370000Y-44505013D01*
X63370000Y-44630000D01*
X59449235Y-44630000D01*
X58211348Y-43392113D01*
X58177863Y-43330790D01*
X58182847Y-43261098D01*
X58224719Y-43205165D01*
X58288223Y-43180904D01*
X58354099Y-43175141D01*
X58354110Y-43175139D01*
X58573817Y-43116269D01*
X58573826Y-43116265D01*
X58779981Y-43020134D01*
X58792753Y-43011191D01*
X58858959Y-42988862D01*
X58926727Y-43005870D01*
X58963144Y-43038449D01*
X58969954Y-43047546D01*
X59016143Y-43082123D01*
X59085164Y-43133793D01*
X59085171Y-43133797D01*
X59220017Y-43184091D01*
X59220016Y-43184091D01*
X59226944Y-43184835D01*
X59279627Y-43190500D01*
X60975372Y-43190499D01*
X61034983Y-43184091D01*
X61169831Y-43133796D01*
X61285046Y-43047546D01*
X61371296Y-42932331D01*
X61421591Y-42797483D01*
X61423792Y-42777007D01*
X61450529Y-42712460D01*
X61507921Y-42672611D01*
X61543469Y-42666317D01*
X61603724Y-42664564D01*
X61605948Y-42664500D01*
X62991000Y-42664500D01*
X63008969Y-42665809D01*
X63014350Y-42666596D01*
X63032906Y-42669315D01*
X63085248Y-42664735D01*
X63090649Y-42664500D01*
X63098934Y-42664500D01*
X63098941Y-42664500D01*
X63131674Y-42660674D01*
X63208612Y-42653943D01*
X63208615Y-42653941D01*
X63215693Y-42652481D01*
X63215704Y-42652535D01*
X63223163Y-42650881D01*
X63223151Y-42650827D01*
X63230178Y-42649160D01*
X63230184Y-42649160D01*
X63284600Y-42629354D01*
X63302740Y-42622752D01*
X63376034Y-42598465D01*
X63382581Y-42595412D01*
X63382604Y-42595462D01*
X63389498Y-42592125D01*
X63389473Y-42592075D01*
X63395916Y-42588838D01*
X63395924Y-42588836D01*
X63438937Y-42560545D01*
X63460443Y-42546401D01*
X63490051Y-42528138D01*
X63526154Y-42505870D01*
X63526159Y-42505864D01*
X63531823Y-42501387D01*
X63531857Y-42501430D01*
X63537782Y-42496604D01*
X63537747Y-42496562D01*
X63543283Y-42491916D01*
X63543282Y-42491916D01*
X63543285Y-42491915D01*
X63596271Y-42435752D01*
X65175204Y-40856818D01*
X65236528Y-40823333D01*
X65262886Y-40820499D01*
X66442871Y-40820499D01*
X66442872Y-40820499D01*
X66502483Y-40814091D01*
X66637331Y-40763796D01*
X66721105Y-40701082D01*
X66786569Y-40676665D01*
X66854842Y-40691516D01*
X66869727Y-40701082D01*
X66952910Y-40763352D01*
X66952913Y-40763354D01*
X67087620Y-40813596D01*
X67087627Y-40813598D01*
X67147155Y-40819999D01*
X67147172Y-40820000D01*
X67695000Y-40820000D01*
X67695000Y-39194000D01*
X67714685Y-39126961D01*
X67767489Y-39081206D01*
X67819000Y-39070000D01*
X68071000Y-39070000D01*
X68138039Y-39089685D01*
G37*
%TD.AperFunction*%
%TA.AperFunction,Conductor*%
G36*
X75055614Y-34945185D02*
G01*
X75101369Y-34997989D01*
X75111313Y-35067147D01*
X75094114Y-35114596D01*
X75010189Y-35250659D01*
X75010185Y-35250668D01*
X74955001Y-35417204D01*
X74955000Y-35417205D01*
X74950567Y-35460603D01*
X74924171Y-35525295D01*
X74866990Y-35565446D01*
X74827209Y-35572000D01*
X74767124Y-35572000D01*
X74751543Y-35570279D01*
X74751516Y-35570569D01*
X74743749Y-35569834D01*
X74674852Y-35572000D01*
X74645447Y-35572000D01*
X74638606Y-35572863D01*
X74632793Y-35573320D01*
X74586419Y-35574778D01*
X74567289Y-35580336D01*
X74548243Y-35584280D01*
X74528489Y-35586775D01*
X74528482Y-35586777D01*
X74485336Y-35603859D01*
X74479809Y-35605751D01*
X74435263Y-35618693D01*
X74425725Y-35624333D01*
X74418117Y-35628832D01*
X74400651Y-35637389D01*
X74382135Y-35644719D01*
X74344592Y-35671995D01*
X74339710Y-35675202D01*
X74299773Y-35698821D01*
X74285694Y-35712901D01*
X74270906Y-35725532D01*
X74254790Y-35737241D01*
X74254784Y-35737247D01*
X74225203Y-35773003D01*
X74221272Y-35777324D01*
X74117931Y-35880664D01*
X74056608Y-35914149D01*
X74044135Y-35916203D01*
X73993076Y-35921956D01*
X73822804Y-35981536D01*
X73670063Y-36077510D01*
X73542510Y-36205063D01*
X73446537Y-36357802D01*
X73386957Y-36528071D01*
X73386956Y-36528076D01*
X73366761Y-36707322D01*
X73366761Y-36707329D01*
X73386956Y-36886575D01*
X73386957Y-36886580D01*
X73446537Y-37056849D01*
X73522370Y-37177536D01*
X73542510Y-37209588D01*
X73670064Y-37337142D01*
X73675006Y-37340247D01*
X73816498Y-37429153D01*
X73822804Y-37433115D01*
X73913926Y-37465000D01*
X73993071Y-37492694D01*
X73993076Y-37492695D01*
X74172322Y-37512891D01*
X74172326Y-37512891D01*
X74172330Y-37512891D01*
X74351575Y-37492695D01*
X74351578Y-37492694D01*
X74351581Y-37492694D01*
X74521848Y-37433115D01*
X74674588Y-37337142D01*
X74802142Y-37209588D01*
X74823026Y-37176351D01*
X74875358Y-37130061D01*
X74944411Y-37119411D01*
X75008260Y-37147785D01*
X75033557Y-37177225D01*
X75102288Y-37288656D01*
X75150773Y-37337141D01*
X75190951Y-37377319D01*
X75224435Y-37438643D01*
X75219451Y-37508334D01*
X75190951Y-37552681D01*
X75102287Y-37641345D01*
X75010187Y-37790663D01*
X75010185Y-37790668D01*
X74982349Y-37874670D01*
X74955001Y-37957203D01*
X74955001Y-37957204D01*
X74955000Y-37957204D01*
X74950273Y-38003474D01*
X74923875Y-38068165D01*
X74866694Y-38108315D01*
X74839425Y-38113250D01*
X74839474Y-38113558D01*
X74831769Y-38114778D01*
X74812638Y-38120336D01*
X74793592Y-38124280D01*
X74773838Y-38126775D01*
X74773832Y-38126777D01*
X74730688Y-38143858D01*
X74725162Y-38145750D01*
X74680610Y-38158694D01*
X74663464Y-38168833D01*
X74646007Y-38177385D01*
X74627479Y-38184722D01*
X74589935Y-38211999D01*
X74585053Y-38215206D01*
X74545121Y-38238823D01*
X74531043Y-38252901D01*
X74516253Y-38265533D01*
X74500139Y-38277240D01*
X74500132Y-38277247D01*
X74470551Y-38313003D01*
X74466620Y-38317324D01*
X74240605Y-38543338D01*
X74179282Y-38576823D01*
X74166809Y-38578877D01*
X74115750Y-38584630D01*
X73945478Y-38644210D01*
X73792737Y-38740184D01*
X73665184Y-38867737D01*
X73569211Y-39020476D01*
X73509631Y-39190745D01*
X73509630Y-39190750D01*
X73489435Y-39369996D01*
X73489435Y-39370003D01*
X73509630Y-39549249D01*
X73509631Y-39549254D01*
X73569211Y-39719523D01*
X73656213Y-39857985D01*
X73665184Y-39872262D01*
X73792738Y-39999816D01*
X73855895Y-40039500D01*
X73923082Y-40081717D01*
X73945478Y-40095789D01*
X74115744Y-40155367D01*
X74115745Y-40155368D01*
X74115750Y-40155369D01*
X74294996Y-40175565D01*
X74295000Y-40175565D01*
X74295004Y-40175565D01*
X74474249Y-40155369D01*
X74474252Y-40155368D01*
X74474255Y-40155368D01*
X74644522Y-40095789D01*
X74797262Y-39999816D01*
X74924816Y-39872262D01*
X74927395Y-39868157D01*
X74979721Y-39821864D01*
X75048774Y-39811209D01*
X75112625Y-39839577D01*
X75120073Y-39846441D01*
X75226344Y-39952712D01*
X75375666Y-40044814D01*
X75542203Y-40099999D01*
X75644991Y-40110500D01*
X76370008Y-40110499D01*
X76370016Y-40110498D01*
X76370019Y-40110498D01*
X76426302Y-40104748D01*
X76472797Y-40099999D01*
X76639334Y-40044814D01*
X76788656Y-39952712D01*
X76912712Y-39828656D01*
X77004814Y-39679334D01*
X77059999Y-39512797D01*
X77070500Y-39410009D01*
X77070499Y-38059992D01*
X77060535Y-37962455D01*
X77059999Y-37957203D01*
X77059998Y-37957200D01*
X77033159Y-37876206D01*
X77004814Y-37790666D01*
X76912712Y-37641344D01*
X76824049Y-37552680D01*
X76790564Y-37491358D01*
X76795548Y-37421666D01*
X76824049Y-37377319D01*
X76864227Y-37337141D01*
X76912712Y-37288656D01*
X77004814Y-37139334D01*
X77059999Y-36972797D01*
X77070500Y-36870009D01*
X77070499Y-35519992D01*
X77059999Y-35417203D01*
X77004814Y-35250666D01*
X76936142Y-35139331D01*
X76920886Y-35114596D01*
X76902446Y-35047204D01*
X76923369Y-34980541D01*
X76977011Y-34935771D01*
X77026425Y-34925500D01*
X77741114Y-34925500D01*
X77808153Y-34945185D01*
X77828795Y-34961819D01*
X77935463Y-35068487D01*
X77968948Y-35129810D01*
X77963964Y-35199502D01*
X77953321Y-35221264D01*
X77935189Y-35250659D01*
X77935185Y-35250666D01*
X77935186Y-35250666D01*
X77880001Y-35417203D01*
X77880001Y-35417204D01*
X77880000Y-35417204D01*
X77869500Y-35519983D01*
X77869500Y-36870001D01*
X77869501Y-36870018D01*
X77880000Y-36972796D01*
X77880001Y-36972799D01*
X77935185Y-37139331D01*
X77935187Y-37139336D01*
X77945908Y-37156718D01*
X78020704Y-37277982D01*
X78027289Y-37288657D01*
X78115950Y-37377318D01*
X78149435Y-37438641D01*
X78144451Y-37508333D01*
X78115951Y-37552679D01*
X78027289Y-37641342D01*
X77935187Y-37790663D01*
X77935185Y-37790668D01*
X77907349Y-37874670D01*
X77880001Y-37957203D01*
X77880001Y-37957204D01*
X77880000Y-37957204D01*
X77869500Y-38059983D01*
X77869500Y-39410001D01*
X77869501Y-39410018D01*
X77880000Y-39512796D01*
X77880001Y-39512799D01*
X77914426Y-39616686D01*
X77935186Y-39679334D01*
X78027288Y-39828656D01*
X78151344Y-39952712D01*
X78300666Y-40044814D01*
X78467203Y-40099999D01*
X78569991Y-40110500D01*
X79295008Y-40110499D01*
X79295016Y-40110498D01*
X79295019Y-40110498D01*
X79351302Y-40104748D01*
X79397797Y-40099999D01*
X79564334Y-40044814D01*
X79713656Y-39952712D01*
X79837712Y-39828656D01*
X79929814Y-39679334D01*
X79984999Y-39512797D01*
X79993713Y-39427500D01*
X83715001Y-39427500D01*
X83715001Y-39539986D01*
X83725494Y-39642697D01*
X83780641Y-39809119D01*
X83780643Y-39809124D01*
X83872684Y-39958345D01*
X83996654Y-40082315D01*
X84145875Y-40174356D01*
X84145880Y-40174358D01*
X84312302Y-40229505D01*
X84312309Y-40229506D01*
X84415019Y-40239999D01*
X84839999Y-40239999D01*
X84840000Y-40239998D01*
X84840000Y-39427500D01*
X85340000Y-39427500D01*
X85340000Y-40239999D01*
X85764972Y-40239999D01*
X85764986Y-40239998D01*
X85867697Y-40229505D01*
X86034119Y-40174358D01*
X86034124Y-40174356D01*
X86183345Y-40082315D01*
X86307315Y-39958345D01*
X86399356Y-39809124D01*
X86399358Y-39809119D01*
X86454505Y-39642697D01*
X86454506Y-39642690D01*
X86464999Y-39539986D01*
X86465000Y-39539973D01*
X86465000Y-39427500D01*
X85340000Y-39427500D01*
X84840000Y-39427500D01*
X83715001Y-39427500D01*
X79993713Y-39427500D01*
X79995500Y-39410009D01*
X79995500Y-38927500D01*
X83715000Y-38927500D01*
X84840000Y-38927500D01*
X84840000Y-38115000D01*
X85340000Y-38115000D01*
X85340000Y-38927500D01*
X86464999Y-38927500D01*
X86464999Y-38815028D01*
X86464998Y-38815013D01*
X86454505Y-38712302D01*
X86399358Y-38545880D01*
X86399356Y-38545875D01*
X86307315Y-38396654D01*
X86183345Y-38272684D01*
X86034124Y-38180643D01*
X86034119Y-38180641D01*
X85867697Y-38125494D01*
X85867690Y-38125493D01*
X85764986Y-38115000D01*
X85340000Y-38115000D01*
X84840000Y-38115000D01*
X84415028Y-38115000D01*
X84415012Y-38115001D01*
X84312302Y-38125494D01*
X84145880Y-38180641D01*
X84145875Y-38180643D01*
X83996654Y-38272684D01*
X83872684Y-38396654D01*
X83780643Y-38545875D01*
X83780641Y-38545880D01*
X83725494Y-38712302D01*
X83725493Y-38712309D01*
X83715000Y-38815013D01*
X83715000Y-38927500D01*
X79995500Y-38927500D01*
X79995499Y-38059992D01*
X79985535Y-37962455D01*
X79984999Y-37957203D01*
X79984998Y-37957200D01*
X79958159Y-37876206D01*
X79929814Y-37790666D01*
X79837712Y-37641344D01*
X79749047Y-37552679D01*
X79715564Y-37491356D01*
X79720548Y-37421665D01*
X79749045Y-37377322D01*
X79837712Y-37288656D01*
X79929814Y-37139334D01*
X79984999Y-36972797D01*
X79995500Y-36870009D01*
X79995499Y-35519992D01*
X79984999Y-35417203D01*
X79929814Y-35250666D01*
X79861142Y-35139331D01*
X79845886Y-35114596D01*
X79827446Y-35047204D01*
X79848369Y-34980541D01*
X79902011Y-34935771D01*
X79951425Y-34925500D01*
X84607114Y-34925500D01*
X84674153Y-34945185D01*
X84694795Y-34961819D01*
X86839181Y-37106204D01*
X86872666Y-37167527D01*
X86875500Y-37193885D01*
X86875500Y-43284534D01*
X86855815Y-43351573D01*
X86839185Y-43372210D01*
X86759577Y-43451819D01*
X86693059Y-43518337D01*
X86631736Y-43551821D01*
X86562044Y-43546837D01*
X86546927Y-43540014D01*
X86497810Y-43513761D01*
X86497807Y-43513760D01*
X86497805Y-43513759D01*
X86307702Y-43456092D01*
X86307700Y-43456091D01*
X86307698Y-43456091D01*
X86110001Y-43436620D01*
X85912301Y-43456091D01*
X85722192Y-43513760D01*
X85547002Y-43607401D01*
X85546995Y-43607405D01*
X85393432Y-43733431D01*
X85267406Y-43886994D01*
X85267402Y-43887001D01*
X85173761Y-44062191D01*
X85116092Y-44252300D01*
X85096621Y-44449999D01*
X85116092Y-44647699D01*
X85173761Y-44837808D01*
X85214779Y-44914547D01*
X85229021Y-44982950D01*
X85204021Y-45048194D01*
X85147716Y-45089564D01*
X85105421Y-45097000D01*
X83931998Y-45097000D01*
X83864959Y-45077315D01*
X83819204Y-45024511D01*
X83808470Y-44983807D01*
X83807781Y-44975937D01*
X83798070Y-44864932D01*
X83785544Y-44818188D01*
X83787208Y-44748338D01*
X83817637Y-44698416D01*
X84837211Y-43678842D01*
X84849446Y-43669043D01*
X84849260Y-43668818D01*
X84855274Y-43663843D01*
X84902459Y-43613596D01*
X84923240Y-43592815D01*
X84923240Y-43592814D01*
X84923246Y-43592809D01*
X84927476Y-43587354D01*
X84931248Y-43582937D01*
X84963024Y-43549101D01*
X84972615Y-43531652D01*
X84983294Y-43515394D01*
X84995505Y-43499654D01*
X85013941Y-43457049D01*
X85016494Y-43451837D01*
X85038855Y-43411165D01*
X85039354Y-43409217D01*
X85043806Y-43391882D01*
X85050111Y-43373466D01*
X85050652Y-43372216D01*
X85058019Y-43355193D01*
X85065278Y-43309357D01*
X85066459Y-43303650D01*
X85078000Y-43258703D01*
X85078000Y-43258701D01*
X85078011Y-43258659D01*
X85113751Y-43198622D01*
X85176275Y-43167437D01*
X85198115Y-43165499D01*
X85765002Y-43165499D01*
X85765008Y-43165499D01*
X85867797Y-43154999D01*
X86034334Y-43099814D01*
X86183656Y-43007712D01*
X86307712Y-42883656D01*
X86399814Y-42734334D01*
X86454999Y-42567797D01*
X86465500Y-42465009D01*
X86465499Y-41739992D01*
X86454999Y-41637203D01*
X86399814Y-41470666D01*
X86307712Y-41321344D01*
X86183656Y-41197288D01*
X86057024Y-41119181D01*
X86034336Y-41105187D01*
X86034331Y-41105185D01*
X86005843Y-41095745D01*
X85867797Y-41050001D01*
X85867795Y-41050000D01*
X85765010Y-41039500D01*
X84414998Y-41039500D01*
X84414981Y-41039501D01*
X84312203Y-41050000D01*
X84312200Y-41050001D01*
X84145668Y-41105185D01*
X84145663Y-41105187D01*
X83996342Y-41197289D01*
X83872289Y-41321342D01*
X83780187Y-41470663D01*
X83780185Y-41470668D01*
X83752349Y-41554670D01*
X83729203Y-41624524D01*
X83725001Y-41637204D01*
X83725000Y-41637205D01*
X83715105Y-41734066D01*
X83688709Y-41798758D01*
X83631528Y-41838909D01*
X83606652Y-41841899D01*
X83092177Y-42356374D01*
X83030854Y-42389859D01*
X82961162Y-42384875D01*
X82905229Y-42343003D01*
X82894013Y-42324990D01*
X82882883Y-42303146D01*
X82791854Y-42212117D01*
X82791852Y-42212115D01*
X82770011Y-42200987D01*
X82719215Y-42153014D01*
X82702419Y-42085193D01*
X82724956Y-42019058D01*
X82738624Y-42002821D01*
X83248187Y-41493258D01*
X83183409Y-41447900D01*
X83183407Y-41447899D01*
X82983284Y-41354580D01*
X82983270Y-41354575D01*
X82769986Y-41297426D01*
X82769976Y-41297424D01*
X82550001Y-41278179D01*
X82549999Y-41278179D01*
X82330023Y-41297424D01*
X82330013Y-41297426D01*
X82116729Y-41354575D01*
X82116720Y-41354579D01*
X81916586Y-41447903D01*
X81851812Y-41493257D01*
X81851811Y-41493258D01*
X82361374Y-42002821D01*
X82394859Y-42064144D01*
X82389875Y-42133836D01*
X82348003Y-42189769D01*
X82329990Y-42200986D01*
X82308146Y-42212116D01*
X82217116Y-42303146D01*
X82205986Y-42324990D01*
X82158011Y-42375785D01*
X82090189Y-42392579D01*
X82024055Y-42370040D01*
X82007821Y-42356374D01*
X81498258Y-41846811D01*
X81498257Y-41846812D01*
X81452903Y-41911586D01*
X81359579Y-42111720D01*
X81359575Y-42111729D01*
X81302426Y-42325013D01*
X81302424Y-42325023D01*
X81283179Y-42544999D01*
X81283179Y-42545002D01*
X81291081Y-42635329D01*
X81277314Y-42703829D01*
X81228698Y-42754012D01*
X81160670Y-42769945D01*
X81094826Y-42746569D01*
X81079872Y-42733817D01*
X80508844Y-42162789D01*
X80499044Y-42150556D01*
X80498820Y-42150742D01*
X80493844Y-42144727D01*
X80443596Y-42097540D01*
X80422812Y-42076757D01*
X80422809Y-42076754D01*
X80417358Y-42072526D01*
X80412936Y-42068749D01*
X80385236Y-42042737D01*
X80379103Y-42036977D01*
X80379099Y-42036975D01*
X80361653Y-42027384D01*
X80345388Y-42016700D01*
X80329655Y-42004496D01*
X80329654Y-42004495D01*
X80287067Y-41986065D01*
X80281821Y-41983495D01*
X80241162Y-41961143D01*
X80221876Y-41956191D01*
X80203476Y-41949892D01*
X80185193Y-41941981D01*
X80185188Y-41941980D01*
X80139365Y-41934722D01*
X80133644Y-41933537D01*
X80088707Y-41922000D01*
X80088703Y-41922000D01*
X80068791Y-41922000D01*
X80049392Y-41920473D01*
X80029725Y-41917358D01*
X80029724Y-41917358D01*
X79983524Y-41921725D01*
X79977688Y-41922000D01*
X76099550Y-41922000D01*
X76032511Y-41902315D01*
X75997975Y-41869123D01*
X75900827Y-41730381D01*
X75833835Y-41663389D01*
X75744620Y-41574174D01*
X75744616Y-41574171D01*
X75744615Y-41574170D01*
X75563666Y-41447468D01*
X75563662Y-41447466D01*
X75548794Y-41440533D01*
X75363450Y-41354106D01*
X75363447Y-41354105D01*
X75363445Y-41354104D01*
X75150070Y-41296930D01*
X75150062Y-41296929D01*
X74930002Y-41277677D01*
X74929998Y-41277677D01*
X74709937Y-41296929D01*
X74709929Y-41296930D01*
X74496554Y-41354104D01*
X74496550Y-41354106D01*
X74474260Y-41364500D01*
X74296340Y-41447465D01*
X74296338Y-41447466D01*
X74115377Y-41574175D01*
X73959175Y-41730377D01*
X73832466Y-41911338D01*
X73832465Y-41911340D01*
X73739107Y-42111548D01*
X73739104Y-42111554D01*
X73681930Y-42324929D01*
X73681929Y-42324937D01*
X73662677Y-42544997D01*
X73662677Y-42545002D01*
X73681929Y-42765062D01*
X73681930Y-42765070D01*
X73739104Y-42978445D01*
X73739105Y-42978447D01*
X73739106Y-42978450D01*
X73799969Y-43108971D01*
X73832466Y-43178662D01*
X73832468Y-43178666D01*
X73959170Y-43359615D01*
X73959175Y-43359621D01*
X74115378Y-43515824D01*
X74115384Y-43515829D01*
X74296333Y-43642531D01*
X74296335Y-43642532D01*
X74296338Y-43642534D01*
X74374212Y-43678847D01*
X74425189Y-43702618D01*
X74477628Y-43748790D01*
X74496780Y-43815984D01*
X74476564Y-43882865D01*
X74425189Y-43927382D01*
X74296340Y-43987465D01*
X74296338Y-43987466D01*
X74115377Y-44114175D01*
X73959174Y-44270378D01*
X73862025Y-44409123D01*
X73807448Y-44452748D01*
X73760450Y-44462000D01*
X72909000Y-44462000D01*
X72841961Y-44442315D01*
X72796206Y-44389511D01*
X72785000Y-44338000D01*
X72785000Y-44234356D01*
X72782100Y-44197510D01*
X72782099Y-44197504D01*
X72736283Y-44039806D01*
X72736281Y-44039801D01*
X72735578Y-44038612D01*
X72735310Y-44037558D01*
X72733184Y-44032644D01*
X72733976Y-44032300D01*
X72718395Y-43970888D01*
X72734009Y-43917714D01*
X72733646Y-43917557D01*
X72734920Y-43914612D01*
X72735579Y-43912369D01*
X72736742Y-43910401D01*
X72736744Y-43910398D01*
X72782598Y-43752569D01*
X72785500Y-43715694D01*
X72785500Y-43284306D01*
X72782598Y-43247431D01*
X72782074Y-43245628D01*
X72748836Y-43131224D01*
X72736744Y-43089602D01*
X72653081Y-42948135D01*
X72566643Y-42861697D01*
X72533160Y-42800377D01*
X72537286Y-42733060D01*
X72540368Y-42724255D01*
X72541921Y-42710474D01*
X72560565Y-42545003D01*
X72560565Y-42544996D01*
X72540369Y-42365750D01*
X72540368Y-42365745D01*
X72486611Y-42212116D01*
X72480789Y-42195478D01*
X72452679Y-42150742D01*
X72411492Y-42085193D01*
X72384816Y-42042738D01*
X72257262Y-41915184D01*
X72251141Y-41911338D01*
X72104523Y-41819211D01*
X71934254Y-41759631D01*
X71934249Y-41759630D01*
X71755004Y-41739435D01*
X71754996Y-41739435D01*
X71575750Y-41759630D01*
X71575745Y-41759631D01*
X71405476Y-41819211D01*
X71341647Y-41859318D01*
X71274410Y-41878318D01*
X71207575Y-41857950D01*
X71162361Y-41804682D01*
X71153124Y-41735426D01*
X71170681Y-41688353D01*
X71210789Y-41624522D01*
X71270368Y-41454255D01*
X71270369Y-41454249D01*
X71290565Y-41275003D01*
X71290565Y-41274996D01*
X71270369Y-41095750D01*
X71270368Y-41095745D01*
X71210788Y-40925476D01*
X71207771Y-40919212D01*
X71208964Y-40918637D01*
X71191983Y-40858564D01*
X71212345Y-40791726D01*
X71241663Y-40760552D01*
X71352546Y-40677546D01*
X71438796Y-40562331D01*
X71489091Y-40427483D01*
X71495500Y-40367873D01*
X71495499Y-38272128D01*
X71489091Y-38212517D01*
X71469016Y-38158694D01*
X71438797Y-38077671D01*
X71438793Y-38077664D01*
X71352547Y-37962455D01*
X71352544Y-37962452D01*
X71237335Y-37876206D01*
X71237328Y-37876202D01*
X71102479Y-37825907D01*
X71094983Y-37824136D01*
X71034267Y-37789562D01*
X71001883Y-37727651D01*
X70999500Y-37703460D01*
X70999500Y-37638885D01*
X71019185Y-37571846D01*
X71035814Y-37551209D01*
X72980205Y-35606817D01*
X73041528Y-35573333D01*
X73067886Y-35570499D01*
X73725002Y-35570499D01*
X73725008Y-35570499D01*
X73827797Y-35559999D01*
X73994334Y-35504814D01*
X74143656Y-35412712D01*
X74267712Y-35288656D01*
X74359814Y-35139334D01*
X74402507Y-35010493D01*
X74442278Y-34953051D01*
X74506794Y-34926228D01*
X74520212Y-34925500D01*
X74988575Y-34925500D01*
X75055614Y-34945185D01*
G37*
%TD.AperFunction*%
%TA.AperFunction,Conductor*%
G36*
X56868373Y-41260185D02*
G01*
X56914128Y-41312989D01*
X56924072Y-41382147D01*
X56913716Y-41416904D01*
X56901235Y-41443668D01*
X56901230Y-41443682D01*
X56842360Y-41663389D01*
X56842358Y-41663399D01*
X56825979Y-41850613D01*
X56800526Y-41915681D01*
X56743935Y-41956660D01*
X56679925Y-41960218D01*
X56679820Y-41961017D01*
X56675585Y-41960459D01*
X56674173Y-41960538D01*
X56671958Y-41959981D01*
X56554361Y-41944500D01*
X56515000Y-41939318D01*
X56479670Y-41943969D01*
X56471572Y-41944500D01*
X55734500Y-41944500D01*
X55667461Y-41924815D01*
X55621706Y-41872011D01*
X55610500Y-41820500D01*
X55610500Y-41364500D01*
X55630185Y-41297461D01*
X55682989Y-41251706D01*
X55734500Y-41240500D01*
X56801334Y-41240500D01*
X56868373Y-41260185D01*
G37*
%TD.AperFunction*%
%TA.AperFunction,Conductor*%
G36*
X76652255Y-28560185D02*
G01*
X76698010Y-28612989D01*
X76707954Y-28682147D01*
X76678929Y-28745703D01*
X76656339Y-28766075D01*
X76598596Y-28806506D01*
X76431505Y-28973597D01*
X76295965Y-29167169D01*
X76295964Y-29167171D01*
X76196098Y-29381335D01*
X76196094Y-29381344D01*
X76134938Y-29609586D01*
X76134936Y-29609596D01*
X76114341Y-29844999D01*
X76114341Y-29845000D01*
X76134936Y-30080403D01*
X76134938Y-30080413D01*
X76196094Y-30308655D01*
X76196096Y-30308659D01*
X76196097Y-30308663D01*
X76276223Y-30480493D01*
X76295965Y-30522830D01*
X76295967Y-30522834D01*
X76404281Y-30677521D01*
X76431505Y-30716401D01*
X76598599Y-30883495D01*
X76695384Y-30951265D01*
X76792165Y-31019032D01*
X76792167Y-31019033D01*
X76792170Y-31019035D01*
X77006337Y-31118903D01*
X77234592Y-31180063D01*
X77411034Y-31195500D01*
X77469999Y-31200659D01*
X77470000Y-31200659D01*
X77470001Y-31200659D01*
X77528966Y-31195500D01*
X77705408Y-31180063D01*
X77933663Y-31118903D01*
X78147830Y-31019035D01*
X78341401Y-30883495D01*
X78463329Y-30761566D01*
X78524648Y-30728084D01*
X78594340Y-30733068D01*
X78650274Y-30774939D01*
X78667189Y-30805917D01*
X78716202Y-30937328D01*
X78716206Y-30937335D01*
X78802452Y-31052544D01*
X78802455Y-31052547D01*
X78917664Y-31138793D01*
X78917671Y-31138797D01*
X79052517Y-31189091D01*
X79052516Y-31189091D01*
X79059444Y-31189835D01*
X79112127Y-31195500D01*
X80907872Y-31195499D01*
X80967483Y-31189091D01*
X81102331Y-31138796D01*
X81217546Y-31052546D01*
X81303796Y-30937331D01*
X81354091Y-30802483D01*
X81360500Y-30742873D01*
X81360499Y-28947128D01*
X81354091Y-28887517D01*
X81352810Y-28884083D01*
X81303797Y-28752671D01*
X81303795Y-28752668D01*
X81293422Y-28738811D01*
X81269005Y-28673346D01*
X81283857Y-28605073D01*
X81333262Y-28555668D01*
X81392689Y-28540500D01*
X88175500Y-28540500D01*
X88242539Y-28560185D01*
X88288294Y-28612989D01*
X88299500Y-28664500D01*
X88299500Y-36133113D01*
X88279815Y-36200152D01*
X88227011Y-36245907D01*
X88157853Y-36255851D01*
X88094297Y-36226826D01*
X88087819Y-36220794D01*
X85549766Y-33682742D01*
X85537984Y-33669109D01*
X85529759Y-33658061D01*
X85523539Y-33649706D01*
X85523537Y-33649704D01*
X85523538Y-33649704D01*
X85495932Y-33626541D01*
X85483285Y-33615928D01*
X85479310Y-33612286D01*
X85473441Y-33606417D01*
X85473440Y-33606416D01*
X85473438Y-33606414D01*
X85447584Y-33585972D01*
X85388427Y-33536333D01*
X85382394Y-33532365D01*
X85382422Y-33532321D01*
X85375961Y-33528204D01*
X85375934Y-33528250D01*
X85369790Y-33524460D01*
X85299808Y-33491827D01*
X85230815Y-33457177D01*
X85224031Y-33454708D01*
X85224049Y-33454658D01*
X85216807Y-33452141D01*
X85216791Y-33452191D01*
X85209938Y-33449920D01*
X85134311Y-33434304D01*
X85059181Y-33416498D01*
X85052014Y-33415661D01*
X85052020Y-33415607D01*
X85044405Y-33414829D01*
X85044401Y-33414883D01*
X85037210Y-33414253D01*
X84960018Y-33416500D01*
X78194753Y-33416500D01*
X78178405Y-33414829D01*
X78178401Y-33414883D01*
X78171210Y-33414253D01*
X78094018Y-33416500D01*
X73412992Y-33416500D01*
X73395023Y-33415191D01*
X73371089Y-33411685D01*
X73327927Y-33415462D01*
X73318758Y-33416264D01*
X73313359Y-33416500D01*
X73305053Y-33416500D01*
X73282976Y-33419080D01*
X73275773Y-33419500D01*
X72324998Y-33419500D01*
X72324980Y-33419501D01*
X72222203Y-33430000D01*
X72222200Y-33430001D01*
X72055668Y-33485185D01*
X72055663Y-33485187D01*
X71906342Y-33577289D01*
X71782289Y-33701342D01*
X71690187Y-33850663D01*
X71690185Y-33850666D01*
X71690186Y-33850666D01*
X71635001Y-34017203D01*
X71635001Y-34017204D01*
X71635000Y-34017204D01*
X71624500Y-34119983D01*
X71624500Y-34777112D01*
X71604815Y-34844151D01*
X71588181Y-34864793D01*
X69756742Y-36696232D01*
X69743113Y-36708011D01*
X69723706Y-36722459D01*
X69689939Y-36762700D01*
X69686295Y-36766678D01*
X69680419Y-36772555D01*
X69659972Y-36798414D01*
X69610334Y-36857570D01*
X69606366Y-36863605D01*
X69606322Y-36863576D01*
X69602209Y-36870031D01*
X69602254Y-36870059D01*
X69598459Y-36876211D01*
X69565827Y-36946191D01*
X69531176Y-37015188D01*
X69528704Y-37021979D01*
X69528655Y-37021961D01*
X69526141Y-37029193D01*
X69526191Y-37029210D01*
X69523918Y-37036066D01*
X69521875Y-37045964D01*
X69489039Y-37107637D01*
X69428072Y-37141767D01*
X69375364Y-37142323D01*
X69337989Y-37134606D01*
X69312310Y-37129304D01*
X69246191Y-37113633D01*
X69237180Y-37111498D01*
X69230014Y-37110661D01*
X69230020Y-37110607D01*
X69222405Y-37109829D01*
X69222401Y-37109883D01*
X69215210Y-37109253D01*
X69138018Y-37111500D01*
X68308886Y-37111500D01*
X68241847Y-37091815D01*
X68221205Y-37075181D01*
X65874676Y-34728652D01*
X65841191Y-34667329D01*
X65846175Y-34597637D01*
X65888047Y-34541704D01*
X65953511Y-34517287D01*
X65975617Y-34517682D01*
X65997165Y-34519999D01*
X65997172Y-34520000D01*
X67695000Y-34520000D01*
X67695000Y-33270000D01*
X68195000Y-33270000D01*
X68195000Y-34520000D01*
X69892828Y-34520000D01*
X69892844Y-34519999D01*
X69952372Y-34513598D01*
X69952379Y-34513596D01*
X70087086Y-34463354D01*
X70087093Y-34463350D01*
X70202187Y-34377190D01*
X70202190Y-34377187D01*
X70288350Y-34262093D01*
X70288354Y-34262086D01*
X70338596Y-34127379D01*
X70338598Y-34127372D01*
X70344999Y-34067844D01*
X70345000Y-34067827D01*
X70345000Y-33270000D01*
X68195000Y-33270000D01*
X67695000Y-33270000D01*
X65545000Y-33270000D01*
X65545000Y-34067844D01*
X65547317Y-34089386D01*
X65534912Y-34158146D01*
X65487302Y-34209283D01*
X65419603Y-34226563D01*
X65353309Y-34204499D01*
X65336347Y-34190323D01*
X63916024Y-32770000D01*
X65545000Y-32770000D01*
X67695000Y-32770000D01*
X67695000Y-31520000D01*
X68195000Y-31520000D01*
X68195000Y-32770000D01*
X70345000Y-32770000D01*
X70345000Y-31972172D01*
X70344999Y-31972155D01*
X70338598Y-31912627D01*
X70338596Y-31912620D01*
X70294727Y-31795000D01*
X71625001Y-31795000D01*
X71625001Y-31919986D01*
X71635494Y-32022697D01*
X71690641Y-32189119D01*
X71690643Y-32189124D01*
X71782684Y-32338345D01*
X71906654Y-32462315D01*
X72055875Y-32554356D01*
X72055880Y-32554358D01*
X72222302Y-32609505D01*
X72222309Y-32609506D01*
X72325019Y-32619999D01*
X72774999Y-32619999D01*
X72775000Y-32619998D01*
X72775000Y-31795000D01*
X73275000Y-31795000D01*
X73275000Y-32619999D01*
X73724972Y-32619999D01*
X73724986Y-32619998D01*
X73827697Y-32609505D01*
X73994119Y-32554358D01*
X73994124Y-32554356D01*
X74143345Y-32462315D01*
X74267315Y-32338345D01*
X74359356Y-32189124D01*
X74359358Y-32189119D01*
X74414505Y-32022697D01*
X74414506Y-32022690D01*
X74424999Y-31919986D01*
X74425000Y-31919973D01*
X74425000Y-31795000D01*
X73275000Y-31795000D01*
X72775000Y-31795000D01*
X71625001Y-31795000D01*
X70294727Y-31795000D01*
X70288354Y-31777913D01*
X70288350Y-31777906D01*
X70202190Y-31662812D01*
X70202187Y-31662809D01*
X70087093Y-31576649D01*
X70087086Y-31576645D01*
X69952379Y-31526403D01*
X69952372Y-31526401D01*
X69892844Y-31520000D01*
X68195000Y-31520000D01*
X67695000Y-31520000D01*
X65997155Y-31520000D01*
X65937627Y-31526401D01*
X65937620Y-31526403D01*
X65802913Y-31576645D01*
X65802906Y-31576649D01*
X65687812Y-31662809D01*
X65687809Y-31662812D01*
X65601649Y-31777906D01*
X65601645Y-31777913D01*
X65551403Y-31912620D01*
X65551401Y-31912627D01*
X65545000Y-31972155D01*
X65545000Y-32770000D01*
X63916024Y-32770000D01*
X62441024Y-31295000D01*
X71625000Y-31295000D01*
X72775000Y-31295000D01*
X72775000Y-30470000D01*
X73275000Y-30470000D01*
X73275000Y-31295000D01*
X74424999Y-31295000D01*
X74424999Y-31170028D01*
X74424998Y-31170013D01*
X74414505Y-31067302D01*
X74359358Y-30900880D01*
X74359356Y-30900875D01*
X74267315Y-30751654D01*
X74143345Y-30627684D01*
X73994124Y-30535643D01*
X73994119Y-30535641D01*
X73827697Y-30480494D01*
X73827690Y-30480493D01*
X73724986Y-30470000D01*
X73275000Y-30470000D01*
X72775000Y-30470000D01*
X72325028Y-30470000D01*
X72325012Y-30470001D01*
X72222302Y-30480494D01*
X72055880Y-30535641D01*
X72055875Y-30535643D01*
X71906654Y-30627684D01*
X71782684Y-30751654D01*
X71690643Y-30900875D01*
X71690641Y-30900880D01*
X71635494Y-31067302D01*
X71635493Y-31067309D01*
X71625000Y-31170013D01*
X71625000Y-31295000D01*
X62441024Y-31295000D01*
X62385818Y-31239794D01*
X62352333Y-31178471D01*
X62349500Y-31152121D01*
X62349500Y-31029899D01*
X62369185Y-30962860D01*
X62402377Y-30928325D01*
X62466401Y-30883495D01*
X62633495Y-30716401D01*
X62763730Y-30530405D01*
X62818307Y-30486781D01*
X62887805Y-30479587D01*
X62950160Y-30511110D01*
X62966879Y-30530405D01*
X63096890Y-30716078D01*
X63263917Y-30883105D01*
X63457421Y-31018600D01*
X63671507Y-31118429D01*
X63671516Y-31118433D01*
X63885000Y-31175634D01*
X63885000Y-30457301D01*
X63904685Y-30390262D01*
X63957489Y-30344507D01*
X64026647Y-30334563D01*
X64099237Y-30345000D01*
X64099238Y-30345000D01*
X64170762Y-30345000D01*
X64170763Y-30345000D01*
X64243353Y-30334563D01*
X64312512Y-30344507D01*
X64365315Y-30390262D01*
X64385000Y-30457301D01*
X64384999Y-31175633D01*
X64598483Y-31118433D01*
X64598492Y-31118429D01*
X64812578Y-31018600D01*
X65006082Y-30883105D01*
X65173105Y-30716082D01*
X65308600Y-30522578D01*
X65408429Y-30308492D01*
X65408432Y-30308486D01*
X65465636Y-30095000D01*
X64748347Y-30095000D01*
X64681308Y-30075315D01*
X64635553Y-30022511D01*
X64625609Y-29953353D01*
X64629369Y-29936067D01*
X64635000Y-29916888D01*
X64635000Y-29773111D01*
X64629369Y-29753933D01*
X64629370Y-29684064D01*
X64667145Y-29625286D01*
X64730701Y-29596262D01*
X64748347Y-29595000D01*
X65465636Y-29595000D01*
X65465635Y-29594999D01*
X65408432Y-29381513D01*
X65408429Y-29381507D01*
X65308600Y-29167422D01*
X65308599Y-29167420D01*
X65173113Y-28973926D01*
X65173108Y-28973920D01*
X65006078Y-28806890D01*
X64947787Y-28766074D01*
X64904162Y-28711497D01*
X64896970Y-28641999D01*
X64928492Y-28579644D01*
X64988722Y-28544231D01*
X65018911Y-28540500D01*
X76585216Y-28540500D01*
X76652255Y-28560185D01*
G37*
%TD.AperFunction*%
%TD*%
M02*
