%TF.GenerationSoftware,KiCad,Pcbnew,7.0.7*%
%TF.CreationDate,2023-12-11T18:46:51+01:00*%
%TF.ProjectId,projekt,70726f6a-656b-4742-9e6b-696361645f70,rev?*%
%TF.SameCoordinates,Original*%
%TF.FileFunction,Legend,Top*%
%TF.FilePolarity,Positive*%
%FSLAX46Y46*%
G04 Gerber Fmt 4.6, Leading zero omitted, Abs format (unit mm)*
G04 Created by KiCad (PCBNEW 7.0.7) date 2023-12-11 18:46:51*
%MOMM*%
%LPD*%
G01*
G04 APERTURE LIST*
%ADD10C,0.150000*%
%ADD11C,0.254000*%
%ADD12C,0.120000*%
%ADD13C,0.250000*%
%ADD14C,0.152400*%
%ADD15C,0.200000*%
G04 APERTURE END LIST*
D10*
X81794819Y-30178333D02*
X82509104Y-30178333D01*
X82509104Y-30178333D02*
X82651961Y-30225952D01*
X82651961Y-30225952D02*
X82747200Y-30321190D01*
X82747200Y-30321190D02*
X82794819Y-30464047D01*
X82794819Y-30464047D02*
X82794819Y-30559285D01*
X81794819Y-29797380D02*
X81794819Y-29178333D01*
X81794819Y-29178333D02*
X82175771Y-29511666D01*
X82175771Y-29511666D02*
X82175771Y-29368809D01*
X82175771Y-29368809D02*
X82223390Y-29273571D01*
X82223390Y-29273571D02*
X82271009Y-29225952D01*
X82271009Y-29225952D02*
X82366247Y-29178333D01*
X82366247Y-29178333D02*
X82604342Y-29178333D01*
X82604342Y-29178333D02*
X82699580Y-29225952D01*
X82699580Y-29225952D02*
X82747200Y-29273571D01*
X82747200Y-29273571D02*
X82794819Y-29368809D01*
X82794819Y-29368809D02*
X82794819Y-29654523D01*
X82794819Y-29654523D02*
X82747200Y-29749761D01*
X82747200Y-29749761D02*
X82699580Y-29797380D01*
X56179819Y-30178333D02*
X56894104Y-30178333D01*
X56894104Y-30178333D02*
X57036961Y-30225952D01*
X57036961Y-30225952D02*
X57132200Y-30321190D01*
X57132200Y-30321190D02*
X57179819Y-30464047D01*
X57179819Y-30464047D02*
X57179819Y-30559285D01*
X56275057Y-29749761D02*
X56227438Y-29702142D01*
X56227438Y-29702142D02*
X56179819Y-29606904D01*
X56179819Y-29606904D02*
X56179819Y-29368809D01*
X56179819Y-29368809D02*
X56227438Y-29273571D01*
X56227438Y-29273571D02*
X56275057Y-29225952D01*
X56275057Y-29225952D02*
X56370295Y-29178333D01*
X56370295Y-29178333D02*
X56465533Y-29178333D01*
X56465533Y-29178333D02*
X56608390Y-29225952D01*
X56608390Y-29225952D02*
X57179819Y-29797380D01*
X57179819Y-29797380D02*
X57179819Y-29178333D01*
X80478333Y-36649819D02*
X80145000Y-36173628D01*
X79906905Y-36649819D02*
X79906905Y-35649819D01*
X79906905Y-35649819D02*
X80287857Y-35649819D01*
X80287857Y-35649819D02*
X80383095Y-35697438D01*
X80383095Y-35697438D02*
X80430714Y-35745057D01*
X80430714Y-35745057D02*
X80478333Y-35840295D01*
X80478333Y-35840295D02*
X80478333Y-35983152D01*
X80478333Y-35983152D02*
X80430714Y-36078390D01*
X80430714Y-36078390D02*
X80383095Y-36126009D01*
X80383095Y-36126009D02*
X80287857Y-36173628D01*
X80287857Y-36173628D02*
X79906905Y-36173628D01*
X80859286Y-35745057D02*
X80906905Y-35697438D01*
X80906905Y-35697438D02*
X81002143Y-35649819D01*
X81002143Y-35649819D02*
X81240238Y-35649819D01*
X81240238Y-35649819D02*
X81335476Y-35697438D01*
X81335476Y-35697438D02*
X81383095Y-35745057D01*
X81383095Y-35745057D02*
X81430714Y-35840295D01*
X81430714Y-35840295D02*
X81430714Y-35935533D01*
X81430714Y-35935533D02*
X81383095Y-36078390D01*
X81383095Y-36078390D02*
X80811667Y-36649819D01*
X80811667Y-36649819D02*
X81430714Y-36649819D01*
X82575833Y-74749819D02*
X82242500Y-74273628D01*
X82004405Y-74749819D02*
X82004405Y-73749819D01*
X82004405Y-73749819D02*
X82385357Y-73749819D01*
X82385357Y-73749819D02*
X82480595Y-73797438D01*
X82480595Y-73797438D02*
X82528214Y-73845057D01*
X82528214Y-73845057D02*
X82575833Y-73940295D01*
X82575833Y-73940295D02*
X82575833Y-74083152D01*
X82575833Y-74083152D02*
X82528214Y-74178390D01*
X82528214Y-74178390D02*
X82480595Y-74226009D01*
X82480595Y-74226009D02*
X82385357Y-74273628D01*
X82385357Y-74273628D02*
X82004405Y-74273628D01*
X83147262Y-74178390D02*
X83052024Y-74130771D01*
X83052024Y-74130771D02*
X83004405Y-74083152D01*
X83004405Y-74083152D02*
X82956786Y-73987914D01*
X82956786Y-73987914D02*
X82956786Y-73940295D01*
X82956786Y-73940295D02*
X83004405Y-73845057D01*
X83004405Y-73845057D02*
X83052024Y-73797438D01*
X83052024Y-73797438D02*
X83147262Y-73749819D01*
X83147262Y-73749819D02*
X83337738Y-73749819D01*
X83337738Y-73749819D02*
X83432976Y-73797438D01*
X83432976Y-73797438D02*
X83480595Y-73845057D01*
X83480595Y-73845057D02*
X83528214Y-73940295D01*
X83528214Y-73940295D02*
X83528214Y-73987914D01*
X83528214Y-73987914D02*
X83480595Y-74083152D01*
X83480595Y-74083152D02*
X83432976Y-74130771D01*
X83432976Y-74130771D02*
X83337738Y-74178390D01*
X83337738Y-74178390D02*
X83147262Y-74178390D01*
X83147262Y-74178390D02*
X83052024Y-74226009D01*
X83052024Y-74226009D02*
X83004405Y-74273628D01*
X83004405Y-74273628D02*
X82956786Y-74368866D01*
X82956786Y-74368866D02*
X82956786Y-74559342D01*
X82956786Y-74559342D02*
X83004405Y-74654580D01*
X83004405Y-74654580D02*
X83052024Y-74702200D01*
X83052024Y-74702200D02*
X83147262Y-74749819D01*
X83147262Y-74749819D02*
X83337738Y-74749819D01*
X83337738Y-74749819D02*
X83432976Y-74702200D01*
X83432976Y-74702200D02*
X83480595Y-74654580D01*
X83480595Y-74654580D02*
X83528214Y-74559342D01*
X83528214Y-74559342D02*
X83528214Y-74368866D01*
X83528214Y-74368866D02*
X83480595Y-74273628D01*
X83480595Y-74273628D02*
X83432976Y-74226009D01*
X83432976Y-74226009D02*
X83337738Y-74178390D01*
X74763333Y-64549580D02*
X74715714Y-64597200D01*
X74715714Y-64597200D02*
X74572857Y-64644819D01*
X74572857Y-64644819D02*
X74477619Y-64644819D01*
X74477619Y-64644819D02*
X74334762Y-64597200D01*
X74334762Y-64597200D02*
X74239524Y-64501961D01*
X74239524Y-64501961D02*
X74191905Y-64406723D01*
X74191905Y-64406723D02*
X74144286Y-64216247D01*
X74144286Y-64216247D02*
X74144286Y-64073390D01*
X74144286Y-64073390D02*
X74191905Y-63882914D01*
X74191905Y-63882914D02*
X74239524Y-63787676D01*
X74239524Y-63787676D02*
X74334762Y-63692438D01*
X74334762Y-63692438D02*
X74477619Y-63644819D01*
X74477619Y-63644819D02*
X74572857Y-63644819D01*
X74572857Y-63644819D02*
X74715714Y-63692438D01*
X74715714Y-63692438D02*
X74763333Y-63740057D01*
X75096667Y-63644819D02*
X75715714Y-63644819D01*
X75715714Y-63644819D02*
X75382381Y-64025771D01*
X75382381Y-64025771D02*
X75525238Y-64025771D01*
X75525238Y-64025771D02*
X75620476Y-64073390D01*
X75620476Y-64073390D02*
X75668095Y-64121009D01*
X75668095Y-64121009D02*
X75715714Y-64216247D01*
X75715714Y-64216247D02*
X75715714Y-64454342D01*
X75715714Y-64454342D02*
X75668095Y-64549580D01*
X75668095Y-64549580D02*
X75620476Y-64597200D01*
X75620476Y-64597200D02*
X75525238Y-64644819D01*
X75525238Y-64644819D02*
X75239524Y-64644819D01*
X75239524Y-64644819D02*
X75144286Y-64597200D01*
X75144286Y-64597200D02*
X75096667Y-64549580D01*
X48386667Y-63472200D02*
X48529524Y-63519819D01*
X48529524Y-63519819D02*
X48767619Y-63519819D01*
X48767619Y-63519819D02*
X48862857Y-63472200D01*
X48862857Y-63472200D02*
X48910476Y-63424580D01*
X48910476Y-63424580D02*
X48958095Y-63329342D01*
X48958095Y-63329342D02*
X48958095Y-63234104D01*
X48958095Y-63234104D02*
X48910476Y-63138866D01*
X48910476Y-63138866D02*
X48862857Y-63091247D01*
X48862857Y-63091247D02*
X48767619Y-63043628D01*
X48767619Y-63043628D02*
X48577143Y-62996009D01*
X48577143Y-62996009D02*
X48481905Y-62948390D01*
X48481905Y-62948390D02*
X48434286Y-62900771D01*
X48434286Y-62900771D02*
X48386667Y-62805533D01*
X48386667Y-62805533D02*
X48386667Y-62710295D01*
X48386667Y-62710295D02*
X48434286Y-62615057D01*
X48434286Y-62615057D02*
X48481905Y-62567438D01*
X48481905Y-62567438D02*
X48577143Y-62519819D01*
X48577143Y-62519819D02*
X48815238Y-62519819D01*
X48815238Y-62519819D02*
X48958095Y-62567438D01*
X49291429Y-62519819D02*
X49529524Y-63519819D01*
X49529524Y-63519819D02*
X49720000Y-62805533D01*
X49720000Y-62805533D02*
X49910476Y-63519819D01*
X49910476Y-63519819D02*
X50148572Y-62519819D01*
X51053333Y-63519819D02*
X50481905Y-63519819D01*
X50767619Y-63519819D02*
X50767619Y-62519819D01*
X50767619Y-62519819D02*
X50672381Y-62662676D01*
X50672381Y-62662676D02*
X50577143Y-62757914D01*
X50577143Y-62757914D02*
X50481905Y-62805533D01*
X69939819Y-42671904D02*
X70749342Y-42671904D01*
X70749342Y-42671904D02*
X70844580Y-42624285D01*
X70844580Y-42624285D02*
X70892200Y-42576666D01*
X70892200Y-42576666D02*
X70939819Y-42481428D01*
X70939819Y-42481428D02*
X70939819Y-42290952D01*
X70939819Y-42290952D02*
X70892200Y-42195714D01*
X70892200Y-42195714D02*
X70844580Y-42148095D01*
X70844580Y-42148095D02*
X70749342Y-42100476D01*
X70749342Y-42100476D02*
X69939819Y-42100476D01*
X70939819Y-41100476D02*
X70939819Y-41671904D01*
X70939819Y-41386190D02*
X69939819Y-41386190D01*
X69939819Y-41386190D02*
X70082676Y-41481428D01*
X70082676Y-41481428D02*
X70177914Y-41576666D01*
X70177914Y-41576666D02*
X70225533Y-41671904D01*
D11*
X69015237Y-62804318D02*
X69015237Y-61534318D01*
X70345714Y-62683365D02*
X70285238Y-62743842D01*
X70285238Y-62743842D02*
X70103809Y-62804318D01*
X70103809Y-62804318D02*
X69982857Y-62804318D01*
X69982857Y-62804318D02*
X69801428Y-62743842D01*
X69801428Y-62743842D02*
X69680476Y-62622889D01*
X69680476Y-62622889D02*
X69619999Y-62501937D01*
X69619999Y-62501937D02*
X69559523Y-62260032D01*
X69559523Y-62260032D02*
X69559523Y-62078603D01*
X69559523Y-62078603D02*
X69619999Y-61836699D01*
X69619999Y-61836699D02*
X69680476Y-61715746D01*
X69680476Y-61715746D02*
X69801428Y-61594794D01*
X69801428Y-61594794D02*
X69982857Y-61534318D01*
X69982857Y-61534318D02*
X70103809Y-61534318D01*
X70103809Y-61534318D02*
X70285238Y-61594794D01*
X70285238Y-61594794D02*
X70345714Y-61655270D01*
X71555238Y-62804318D02*
X70829523Y-62804318D01*
X71192380Y-62804318D02*
X71192380Y-61534318D01*
X71192380Y-61534318D02*
X71071428Y-61715746D01*
X71071428Y-61715746D02*
X70950476Y-61836699D01*
X70950476Y-61836699D02*
X70829523Y-61897175D01*
D10*
X87449819Y-41282857D02*
X86973628Y-41616190D01*
X87449819Y-41854285D02*
X86449819Y-41854285D01*
X86449819Y-41854285D02*
X86449819Y-41473333D01*
X86449819Y-41473333D02*
X86497438Y-41378095D01*
X86497438Y-41378095D02*
X86545057Y-41330476D01*
X86545057Y-41330476D02*
X86640295Y-41282857D01*
X86640295Y-41282857D02*
X86783152Y-41282857D01*
X86783152Y-41282857D02*
X86878390Y-41330476D01*
X86878390Y-41330476D02*
X86926009Y-41378095D01*
X86926009Y-41378095D02*
X86973628Y-41473333D01*
X86973628Y-41473333D02*
X86973628Y-41854285D01*
X87449819Y-40330476D02*
X87449819Y-40901904D01*
X87449819Y-40616190D02*
X86449819Y-40616190D01*
X86449819Y-40616190D02*
X86592676Y-40711428D01*
X86592676Y-40711428D02*
X86687914Y-40806666D01*
X86687914Y-40806666D02*
X86735533Y-40901904D01*
X86449819Y-39425714D02*
X86449819Y-39901904D01*
X86449819Y-39901904D02*
X86926009Y-39949523D01*
X86926009Y-39949523D02*
X86878390Y-39901904D01*
X86878390Y-39901904D02*
X86830771Y-39806666D01*
X86830771Y-39806666D02*
X86830771Y-39568571D01*
X86830771Y-39568571D02*
X86878390Y-39473333D01*
X86878390Y-39473333D02*
X86926009Y-39425714D01*
X86926009Y-39425714D02*
X87021247Y-39378095D01*
X87021247Y-39378095D02*
X87259342Y-39378095D01*
X87259342Y-39378095D02*
X87354580Y-39425714D01*
X87354580Y-39425714D02*
X87402200Y-39473333D01*
X87402200Y-39473333D02*
X87449819Y-39568571D01*
X87449819Y-39568571D02*
X87449819Y-39806666D01*
X87449819Y-39806666D02*
X87402200Y-39901904D01*
X87402200Y-39901904D02*
X87354580Y-39949523D01*
X62899819Y-36931904D02*
X63709342Y-36931904D01*
X63709342Y-36931904D02*
X63804580Y-36884285D01*
X63804580Y-36884285D02*
X63852200Y-36836666D01*
X63852200Y-36836666D02*
X63899819Y-36741428D01*
X63899819Y-36741428D02*
X63899819Y-36550952D01*
X63899819Y-36550952D02*
X63852200Y-36455714D01*
X63852200Y-36455714D02*
X63804580Y-36408095D01*
X63804580Y-36408095D02*
X63709342Y-36360476D01*
X63709342Y-36360476D02*
X62899819Y-36360476D01*
X63233152Y-35455714D02*
X63899819Y-35455714D01*
X62852200Y-35693809D02*
X63566485Y-35931904D01*
X63566485Y-35931904D02*
X63566485Y-35312857D01*
X54602142Y-78559819D02*
X54268809Y-78083628D01*
X54030714Y-78559819D02*
X54030714Y-77559819D01*
X54030714Y-77559819D02*
X54411666Y-77559819D01*
X54411666Y-77559819D02*
X54506904Y-77607438D01*
X54506904Y-77607438D02*
X54554523Y-77655057D01*
X54554523Y-77655057D02*
X54602142Y-77750295D01*
X54602142Y-77750295D02*
X54602142Y-77893152D01*
X54602142Y-77893152D02*
X54554523Y-77988390D01*
X54554523Y-77988390D02*
X54506904Y-78036009D01*
X54506904Y-78036009D02*
X54411666Y-78083628D01*
X54411666Y-78083628D02*
X54030714Y-78083628D01*
X55554523Y-78559819D02*
X54983095Y-78559819D01*
X55268809Y-78559819D02*
X55268809Y-77559819D01*
X55268809Y-77559819D02*
X55173571Y-77702676D01*
X55173571Y-77702676D02*
X55078333Y-77797914D01*
X55078333Y-77797914D02*
X54983095Y-77845533D01*
X56411666Y-77893152D02*
X56411666Y-78559819D01*
X56173571Y-77512200D02*
X55935476Y-78226485D01*
X55935476Y-78226485D02*
X56554523Y-78226485D01*
X78573333Y-56249819D02*
X78240000Y-55773628D01*
X78001905Y-56249819D02*
X78001905Y-55249819D01*
X78001905Y-55249819D02*
X78382857Y-55249819D01*
X78382857Y-55249819D02*
X78478095Y-55297438D01*
X78478095Y-55297438D02*
X78525714Y-55345057D01*
X78525714Y-55345057D02*
X78573333Y-55440295D01*
X78573333Y-55440295D02*
X78573333Y-55583152D01*
X78573333Y-55583152D02*
X78525714Y-55678390D01*
X78525714Y-55678390D02*
X78478095Y-55726009D01*
X78478095Y-55726009D02*
X78382857Y-55773628D01*
X78382857Y-55773628D02*
X78001905Y-55773628D01*
X79430476Y-55249819D02*
X79240000Y-55249819D01*
X79240000Y-55249819D02*
X79144762Y-55297438D01*
X79144762Y-55297438D02*
X79097143Y-55345057D01*
X79097143Y-55345057D02*
X79001905Y-55487914D01*
X79001905Y-55487914D02*
X78954286Y-55678390D01*
X78954286Y-55678390D02*
X78954286Y-56059342D01*
X78954286Y-56059342D02*
X79001905Y-56154580D01*
X79001905Y-56154580D02*
X79049524Y-56202200D01*
X79049524Y-56202200D02*
X79144762Y-56249819D01*
X79144762Y-56249819D02*
X79335238Y-56249819D01*
X79335238Y-56249819D02*
X79430476Y-56202200D01*
X79430476Y-56202200D02*
X79478095Y-56154580D01*
X79478095Y-56154580D02*
X79525714Y-56059342D01*
X79525714Y-56059342D02*
X79525714Y-55821247D01*
X79525714Y-55821247D02*
X79478095Y-55726009D01*
X79478095Y-55726009D02*
X79430476Y-55678390D01*
X79430476Y-55678390D02*
X79335238Y-55630771D01*
X79335238Y-55630771D02*
X79144762Y-55630771D01*
X79144762Y-55630771D02*
X79049524Y-55678390D01*
X79049524Y-55678390D02*
X79001905Y-55726009D01*
X79001905Y-55726009D02*
X78954286Y-55821247D01*
X72059580Y-49696666D02*
X72107200Y-49744285D01*
X72107200Y-49744285D02*
X72154819Y-49887142D01*
X72154819Y-49887142D02*
X72154819Y-49982380D01*
X72154819Y-49982380D02*
X72107200Y-50125237D01*
X72107200Y-50125237D02*
X72011961Y-50220475D01*
X72011961Y-50220475D02*
X71916723Y-50268094D01*
X71916723Y-50268094D02*
X71726247Y-50315713D01*
X71726247Y-50315713D02*
X71583390Y-50315713D01*
X71583390Y-50315713D02*
X71392914Y-50268094D01*
X71392914Y-50268094D02*
X71297676Y-50220475D01*
X71297676Y-50220475D02*
X71202438Y-50125237D01*
X71202438Y-50125237D02*
X71154819Y-49982380D01*
X71154819Y-49982380D02*
X71154819Y-49887142D01*
X71154819Y-49887142D02*
X71202438Y-49744285D01*
X71202438Y-49744285D02*
X71250057Y-49696666D01*
X72154819Y-48744285D02*
X72154819Y-49315713D01*
X72154819Y-49029999D02*
X71154819Y-49029999D01*
X71154819Y-49029999D02*
X71297676Y-49125237D01*
X71297676Y-49125237D02*
X71392914Y-49220475D01*
X71392914Y-49220475D02*
X71440533Y-49315713D01*
X52294166Y-48994819D02*
X52294166Y-49709104D01*
X52294166Y-49709104D02*
X52246547Y-49851961D01*
X52246547Y-49851961D02*
X52151309Y-49947200D01*
X52151309Y-49947200D02*
X52008452Y-49994819D01*
X52008452Y-49994819D02*
X51913214Y-49994819D01*
X53294166Y-49994819D02*
X52722738Y-49994819D01*
X53008452Y-49994819D02*
X53008452Y-48994819D01*
X53008452Y-48994819D02*
X52913214Y-49137676D01*
X52913214Y-49137676D02*
X52817976Y-49232914D01*
X52817976Y-49232914D02*
X52722738Y-49280533D01*
X64992142Y-58959819D02*
X64658809Y-58483628D01*
X64420714Y-58959819D02*
X64420714Y-57959819D01*
X64420714Y-57959819D02*
X64801666Y-57959819D01*
X64801666Y-57959819D02*
X64896904Y-58007438D01*
X64896904Y-58007438D02*
X64944523Y-58055057D01*
X64944523Y-58055057D02*
X64992142Y-58150295D01*
X64992142Y-58150295D02*
X64992142Y-58293152D01*
X64992142Y-58293152D02*
X64944523Y-58388390D01*
X64944523Y-58388390D02*
X64896904Y-58436009D01*
X64896904Y-58436009D02*
X64801666Y-58483628D01*
X64801666Y-58483628D02*
X64420714Y-58483628D01*
X65944523Y-58959819D02*
X65373095Y-58959819D01*
X65658809Y-58959819D02*
X65658809Y-57959819D01*
X65658809Y-57959819D02*
X65563571Y-58102676D01*
X65563571Y-58102676D02*
X65468333Y-58197914D01*
X65468333Y-58197914D02*
X65373095Y-58245533D01*
X66896904Y-58959819D02*
X66325476Y-58959819D01*
X66611190Y-58959819D02*
X66611190Y-57959819D01*
X66611190Y-57959819D02*
X66515952Y-58102676D01*
X66515952Y-58102676D02*
X66420714Y-58197914D01*
X66420714Y-58197914D02*
X66325476Y-58245533D01*
X73493333Y-56249819D02*
X73160000Y-55773628D01*
X72921905Y-56249819D02*
X72921905Y-55249819D01*
X72921905Y-55249819D02*
X73302857Y-55249819D01*
X73302857Y-55249819D02*
X73398095Y-55297438D01*
X73398095Y-55297438D02*
X73445714Y-55345057D01*
X73445714Y-55345057D02*
X73493333Y-55440295D01*
X73493333Y-55440295D02*
X73493333Y-55583152D01*
X73493333Y-55583152D02*
X73445714Y-55678390D01*
X73445714Y-55678390D02*
X73398095Y-55726009D01*
X73398095Y-55726009D02*
X73302857Y-55773628D01*
X73302857Y-55773628D02*
X72921905Y-55773628D01*
X73826667Y-55249819D02*
X74493333Y-55249819D01*
X74493333Y-55249819D02*
X74064762Y-56249819D01*
X86449819Y-52831904D02*
X87259342Y-52831904D01*
X87259342Y-52831904D02*
X87354580Y-52784285D01*
X87354580Y-52784285D02*
X87402200Y-52736666D01*
X87402200Y-52736666D02*
X87449819Y-52641428D01*
X87449819Y-52641428D02*
X87449819Y-52450952D01*
X87449819Y-52450952D02*
X87402200Y-52355714D01*
X87402200Y-52355714D02*
X87354580Y-52308095D01*
X87354580Y-52308095D02*
X87259342Y-52260476D01*
X87259342Y-52260476D02*
X86449819Y-52260476D01*
X86449819Y-51879523D02*
X86449819Y-51260476D01*
X86449819Y-51260476D02*
X86830771Y-51593809D01*
X86830771Y-51593809D02*
X86830771Y-51450952D01*
X86830771Y-51450952D02*
X86878390Y-51355714D01*
X86878390Y-51355714D02*
X86926009Y-51308095D01*
X86926009Y-51308095D02*
X87021247Y-51260476D01*
X87021247Y-51260476D02*
X87259342Y-51260476D01*
X87259342Y-51260476D02*
X87354580Y-51308095D01*
X87354580Y-51308095D02*
X87402200Y-51355714D01*
X87402200Y-51355714D02*
X87449819Y-51450952D01*
X87449819Y-51450952D02*
X87449819Y-51736666D01*
X87449819Y-51736666D02*
X87402200Y-51831904D01*
X87402200Y-51831904D02*
X87354580Y-51879523D01*
X54602142Y-74749819D02*
X54268809Y-74273628D01*
X54030714Y-74749819D02*
X54030714Y-73749819D01*
X54030714Y-73749819D02*
X54411666Y-73749819D01*
X54411666Y-73749819D02*
X54506904Y-73797438D01*
X54506904Y-73797438D02*
X54554523Y-73845057D01*
X54554523Y-73845057D02*
X54602142Y-73940295D01*
X54602142Y-73940295D02*
X54602142Y-74083152D01*
X54602142Y-74083152D02*
X54554523Y-74178390D01*
X54554523Y-74178390D02*
X54506904Y-74226009D01*
X54506904Y-74226009D02*
X54411666Y-74273628D01*
X54411666Y-74273628D02*
X54030714Y-74273628D01*
X55554523Y-74749819D02*
X54983095Y-74749819D01*
X55268809Y-74749819D02*
X55268809Y-73749819D01*
X55268809Y-73749819D02*
X55173571Y-73892676D01*
X55173571Y-73892676D02*
X55078333Y-73987914D01*
X55078333Y-73987914D02*
X54983095Y-74035533D01*
X55887857Y-73749819D02*
X56506904Y-73749819D01*
X56506904Y-73749819D02*
X56173571Y-74130771D01*
X56173571Y-74130771D02*
X56316428Y-74130771D01*
X56316428Y-74130771D02*
X56411666Y-74178390D01*
X56411666Y-74178390D02*
X56459285Y-74226009D01*
X56459285Y-74226009D02*
X56506904Y-74321247D01*
X56506904Y-74321247D02*
X56506904Y-74559342D01*
X56506904Y-74559342D02*
X56459285Y-74654580D01*
X56459285Y-74654580D02*
X56411666Y-74702200D01*
X56411666Y-74702200D02*
X56316428Y-74749819D01*
X56316428Y-74749819D02*
X56030714Y-74749819D01*
X56030714Y-74749819D02*
X55935476Y-74702200D01*
X55935476Y-74702200D02*
X55887857Y-74654580D01*
X59912142Y-58959819D02*
X59578809Y-58483628D01*
X59340714Y-58959819D02*
X59340714Y-57959819D01*
X59340714Y-57959819D02*
X59721666Y-57959819D01*
X59721666Y-57959819D02*
X59816904Y-58007438D01*
X59816904Y-58007438D02*
X59864523Y-58055057D01*
X59864523Y-58055057D02*
X59912142Y-58150295D01*
X59912142Y-58150295D02*
X59912142Y-58293152D01*
X59912142Y-58293152D02*
X59864523Y-58388390D01*
X59864523Y-58388390D02*
X59816904Y-58436009D01*
X59816904Y-58436009D02*
X59721666Y-58483628D01*
X59721666Y-58483628D02*
X59340714Y-58483628D01*
X60864523Y-58959819D02*
X60293095Y-58959819D01*
X60578809Y-58959819D02*
X60578809Y-57959819D01*
X60578809Y-57959819D02*
X60483571Y-58102676D01*
X60483571Y-58102676D02*
X60388333Y-58197914D01*
X60388333Y-58197914D02*
X60293095Y-58245533D01*
X61245476Y-58055057D02*
X61293095Y-58007438D01*
X61293095Y-58007438D02*
X61388333Y-57959819D01*
X61388333Y-57959819D02*
X61626428Y-57959819D01*
X61626428Y-57959819D02*
X61721666Y-58007438D01*
X61721666Y-58007438D02*
X61769285Y-58055057D01*
X61769285Y-58055057D02*
X61816904Y-58150295D01*
X61816904Y-58150295D02*
X61816904Y-58245533D01*
X61816904Y-58245533D02*
X61769285Y-58388390D01*
X61769285Y-58388390D02*
X61197857Y-58959819D01*
X61197857Y-58959819D02*
X61816904Y-58959819D01*
X70072142Y-58874819D02*
X69738809Y-58398628D01*
X69500714Y-58874819D02*
X69500714Y-57874819D01*
X69500714Y-57874819D02*
X69881666Y-57874819D01*
X69881666Y-57874819D02*
X69976904Y-57922438D01*
X69976904Y-57922438D02*
X70024523Y-57970057D01*
X70024523Y-57970057D02*
X70072142Y-58065295D01*
X70072142Y-58065295D02*
X70072142Y-58208152D01*
X70072142Y-58208152D02*
X70024523Y-58303390D01*
X70024523Y-58303390D02*
X69976904Y-58351009D01*
X69976904Y-58351009D02*
X69881666Y-58398628D01*
X69881666Y-58398628D02*
X69500714Y-58398628D01*
X71024523Y-58874819D02*
X70453095Y-58874819D01*
X70738809Y-58874819D02*
X70738809Y-57874819D01*
X70738809Y-57874819D02*
X70643571Y-58017676D01*
X70643571Y-58017676D02*
X70548333Y-58112914D01*
X70548333Y-58112914D02*
X70453095Y-58160533D01*
X71643571Y-57874819D02*
X71738809Y-57874819D01*
X71738809Y-57874819D02*
X71834047Y-57922438D01*
X71834047Y-57922438D02*
X71881666Y-57970057D01*
X71881666Y-57970057D02*
X71929285Y-58065295D01*
X71929285Y-58065295D02*
X71976904Y-58255771D01*
X71976904Y-58255771D02*
X71976904Y-58493866D01*
X71976904Y-58493866D02*
X71929285Y-58684342D01*
X71929285Y-58684342D02*
X71881666Y-58779580D01*
X71881666Y-58779580D02*
X71834047Y-58827200D01*
X71834047Y-58827200D02*
X71738809Y-58874819D01*
X71738809Y-58874819D02*
X71643571Y-58874819D01*
X71643571Y-58874819D02*
X71548333Y-58827200D01*
X71548333Y-58827200D02*
X71500714Y-58779580D01*
X71500714Y-58779580D02*
X71453095Y-58684342D01*
X71453095Y-58684342D02*
X71405476Y-58493866D01*
X71405476Y-58493866D02*
X71405476Y-58255771D01*
X71405476Y-58255771D02*
X71453095Y-58065295D01*
X71453095Y-58065295D02*
X71500714Y-57970057D01*
X71500714Y-57970057D02*
X71548333Y-57922438D01*
X71548333Y-57922438D02*
X71643571Y-57874819D01*
X56334819Y-54141666D02*
X55858628Y-54474999D01*
X56334819Y-54713094D02*
X55334819Y-54713094D01*
X55334819Y-54713094D02*
X55334819Y-54332142D01*
X55334819Y-54332142D02*
X55382438Y-54236904D01*
X55382438Y-54236904D02*
X55430057Y-54189285D01*
X55430057Y-54189285D02*
X55525295Y-54141666D01*
X55525295Y-54141666D02*
X55668152Y-54141666D01*
X55668152Y-54141666D02*
X55763390Y-54189285D01*
X55763390Y-54189285D02*
X55811009Y-54236904D01*
X55811009Y-54236904D02*
X55858628Y-54332142D01*
X55858628Y-54332142D02*
X55858628Y-54713094D01*
X55334819Y-53808332D02*
X55334819Y-53189285D01*
X55334819Y-53189285D02*
X55715771Y-53522618D01*
X55715771Y-53522618D02*
X55715771Y-53379761D01*
X55715771Y-53379761D02*
X55763390Y-53284523D01*
X55763390Y-53284523D02*
X55811009Y-53236904D01*
X55811009Y-53236904D02*
X55906247Y-53189285D01*
X55906247Y-53189285D02*
X56144342Y-53189285D01*
X56144342Y-53189285D02*
X56239580Y-53236904D01*
X56239580Y-53236904D02*
X56287200Y-53284523D01*
X56287200Y-53284523D02*
X56334819Y-53379761D01*
X56334819Y-53379761D02*
X56334819Y-53665475D01*
X56334819Y-53665475D02*
X56287200Y-53760713D01*
X56287200Y-53760713D02*
X56239580Y-53808332D01*
X75628333Y-58959819D02*
X75295000Y-58483628D01*
X75056905Y-58959819D02*
X75056905Y-57959819D01*
X75056905Y-57959819D02*
X75437857Y-57959819D01*
X75437857Y-57959819D02*
X75533095Y-58007438D01*
X75533095Y-58007438D02*
X75580714Y-58055057D01*
X75580714Y-58055057D02*
X75628333Y-58150295D01*
X75628333Y-58150295D02*
X75628333Y-58293152D01*
X75628333Y-58293152D02*
X75580714Y-58388390D01*
X75580714Y-58388390D02*
X75533095Y-58436009D01*
X75533095Y-58436009D02*
X75437857Y-58483628D01*
X75437857Y-58483628D02*
X75056905Y-58483628D01*
X76104524Y-58959819D02*
X76295000Y-58959819D01*
X76295000Y-58959819D02*
X76390238Y-58912200D01*
X76390238Y-58912200D02*
X76437857Y-58864580D01*
X76437857Y-58864580D02*
X76533095Y-58721723D01*
X76533095Y-58721723D02*
X76580714Y-58531247D01*
X76580714Y-58531247D02*
X76580714Y-58150295D01*
X76580714Y-58150295D02*
X76533095Y-58055057D01*
X76533095Y-58055057D02*
X76485476Y-58007438D01*
X76485476Y-58007438D02*
X76390238Y-57959819D01*
X76390238Y-57959819D02*
X76199762Y-57959819D01*
X76199762Y-57959819D02*
X76104524Y-58007438D01*
X76104524Y-58007438D02*
X76056905Y-58055057D01*
X76056905Y-58055057D02*
X76009286Y-58150295D01*
X76009286Y-58150295D02*
X76009286Y-58388390D01*
X76009286Y-58388390D02*
X76056905Y-58483628D01*
X76056905Y-58483628D02*
X76104524Y-58531247D01*
X76104524Y-58531247D02*
X76199762Y-58578866D01*
X76199762Y-58578866D02*
X76390238Y-58578866D01*
X76390238Y-58578866D02*
X76485476Y-58531247D01*
X76485476Y-58531247D02*
X76533095Y-58483628D01*
X76533095Y-58483628D02*
X76580714Y-58388390D01*
X64008095Y-48984819D02*
X64008095Y-49794342D01*
X64008095Y-49794342D02*
X64055714Y-49889580D01*
X64055714Y-49889580D02*
X64103333Y-49937200D01*
X64103333Y-49937200D02*
X64198571Y-49984819D01*
X64198571Y-49984819D02*
X64389047Y-49984819D01*
X64389047Y-49984819D02*
X64484285Y-49937200D01*
X64484285Y-49937200D02*
X64531904Y-49889580D01*
X64531904Y-49889580D02*
X64579523Y-49794342D01*
X64579523Y-49794342D02*
X64579523Y-48984819D01*
X65008095Y-49080057D02*
X65055714Y-49032438D01*
X65055714Y-49032438D02*
X65150952Y-48984819D01*
X65150952Y-48984819D02*
X65389047Y-48984819D01*
X65389047Y-48984819D02*
X65484285Y-49032438D01*
X65484285Y-49032438D02*
X65531904Y-49080057D01*
X65531904Y-49080057D02*
X65579523Y-49175295D01*
X65579523Y-49175295D02*
X65579523Y-49270533D01*
X65579523Y-49270533D02*
X65531904Y-49413390D01*
X65531904Y-49413390D02*
X64960476Y-49984819D01*
X64960476Y-49984819D02*
X65579523Y-49984819D01*
X80478333Y-39189819D02*
X80145000Y-38713628D01*
X79906905Y-39189819D02*
X79906905Y-38189819D01*
X79906905Y-38189819D02*
X80287857Y-38189819D01*
X80287857Y-38189819D02*
X80383095Y-38237438D01*
X80383095Y-38237438D02*
X80430714Y-38285057D01*
X80430714Y-38285057D02*
X80478333Y-38380295D01*
X80478333Y-38380295D02*
X80478333Y-38523152D01*
X80478333Y-38523152D02*
X80430714Y-38618390D01*
X80430714Y-38618390D02*
X80383095Y-38666009D01*
X80383095Y-38666009D02*
X80287857Y-38713628D01*
X80287857Y-38713628D02*
X79906905Y-38713628D01*
X81430714Y-39189819D02*
X80859286Y-39189819D01*
X81145000Y-39189819D02*
X81145000Y-38189819D01*
X81145000Y-38189819D02*
X81049762Y-38332676D01*
X81049762Y-38332676D02*
X80954524Y-38427914D01*
X80954524Y-38427914D02*
X80859286Y-38475533D01*
X82575833Y-78474819D02*
X82242500Y-77998628D01*
X82004405Y-78474819D02*
X82004405Y-77474819D01*
X82004405Y-77474819D02*
X82385357Y-77474819D01*
X82385357Y-77474819D02*
X82480595Y-77522438D01*
X82480595Y-77522438D02*
X82528214Y-77570057D01*
X82528214Y-77570057D02*
X82575833Y-77665295D01*
X82575833Y-77665295D02*
X82575833Y-77808152D01*
X82575833Y-77808152D02*
X82528214Y-77903390D01*
X82528214Y-77903390D02*
X82480595Y-77951009D01*
X82480595Y-77951009D02*
X82385357Y-77998628D01*
X82385357Y-77998628D02*
X82004405Y-77998628D01*
X83432976Y-77808152D02*
X83432976Y-78474819D01*
X83194881Y-77427200D02*
X82956786Y-78141485D01*
X82956786Y-78141485D02*
X83575833Y-78141485D01*
X86094819Y-54969166D02*
X85618628Y-55302499D01*
X86094819Y-55540594D02*
X85094819Y-55540594D01*
X85094819Y-55540594D02*
X85094819Y-55159642D01*
X85094819Y-55159642D02*
X85142438Y-55064404D01*
X85142438Y-55064404D02*
X85190057Y-55016785D01*
X85190057Y-55016785D02*
X85285295Y-54969166D01*
X85285295Y-54969166D02*
X85428152Y-54969166D01*
X85428152Y-54969166D02*
X85523390Y-55016785D01*
X85523390Y-55016785D02*
X85571009Y-55064404D01*
X85571009Y-55064404D02*
X85618628Y-55159642D01*
X85618628Y-55159642D02*
X85618628Y-55540594D01*
X85094819Y-54064404D02*
X85094819Y-54540594D01*
X85094819Y-54540594D02*
X85571009Y-54588213D01*
X85571009Y-54588213D02*
X85523390Y-54540594D01*
X85523390Y-54540594D02*
X85475771Y-54445356D01*
X85475771Y-54445356D02*
X85475771Y-54207261D01*
X85475771Y-54207261D02*
X85523390Y-54112023D01*
X85523390Y-54112023D02*
X85571009Y-54064404D01*
X85571009Y-54064404D02*
X85666247Y-54016785D01*
X85666247Y-54016785D02*
X85904342Y-54016785D01*
X85904342Y-54016785D02*
X85999580Y-54064404D01*
X85999580Y-54064404D02*
X86047200Y-54112023D01*
X86047200Y-54112023D02*
X86094819Y-54207261D01*
X86094819Y-54207261D02*
X86094819Y-54445356D01*
X86094819Y-54445356D02*
X86047200Y-54540594D01*
X86047200Y-54540594D02*
X85999580Y-54588213D01*
X75289580Y-33186666D02*
X75337200Y-33234285D01*
X75337200Y-33234285D02*
X75384819Y-33377142D01*
X75384819Y-33377142D02*
X75384819Y-33472380D01*
X75384819Y-33472380D02*
X75337200Y-33615237D01*
X75337200Y-33615237D02*
X75241961Y-33710475D01*
X75241961Y-33710475D02*
X75146723Y-33758094D01*
X75146723Y-33758094D02*
X74956247Y-33805713D01*
X74956247Y-33805713D02*
X74813390Y-33805713D01*
X74813390Y-33805713D02*
X74622914Y-33758094D01*
X74622914Y-33758094D02*
X74527676Y-33710475D01*
X74527676Y-33710475D02*
X74432438Y-33615237D01*
X74432438Y-33615237D02*
X74384819Y-33472380D01*
X74384819Y-33472380D02*
X74384819Y-33377142D01*
X74384819Y-33377142D02*
X74432438Y-33234285D01*
X74432438Y-33234285D02*
X74480057Y-33186666D01*
X74718152Y-32329523D02*
X75384819Y-32329523D01*
X74337200Y-32567618D02*
X75051485Y-32805713D01*
X75051485Y-32805713D02*
X75051485Y-32186666D01*
D11*
X69384318Y-75081190D02*
X69384318Y-75685952D01*
X69384318Y-75685952D02*
X68114318Y-75685952D01*
X68719080Y-74657857D02*
X68719080Y-74234523D01*
X69384318Y-74053095D02*
X69384318Y-74657857D01*
X69384318Y-74657857D02*
X68114318Y-74657857D01*
X68114318Y-74657857D02*
X68114318Y-74053095D01*
X69384318Y-73508809D02*
X68114318Y-73508809D01*
X68114318Y-73508809D02*
X68114318Y-73206428D01*
X68114318Y-73206428D02*
X68174794Y-73024999D01*
X68174794Y-73024999D02*
X68295746Y-72904047D01*
X68295746Y-72904047D02*
X68416699Y-72843570D01*
X68416699Y-72843570D02*
X68658603Y-72783094D01*
X68658603Y-72783094D02*
X68840032Y-72783094D01*
X68840032Y-72783094D02*
X69081937Y-72843570D01*
X69081937Y-72843570D02*
X69202889Y-72904047D01*
X69202889Y-72904047D02*
X69323842Y-73024999D01*
X69323842Y-73024999D02*
X69384318Y-73206428D01*
X69384318Y-73206428D02*
X69384318Y-73508809D01*
X69384318Y-71573570D02*
X69384318Y-72299285D01*
X69384318Y-71936428D02*
X68114318Y-71936428D01*
X68114318Y-71936428D02*
X68295746Y-72057380D01*
X68295746Y-72057380D02*
X68416699Y-72178332D01*
X68416699Y-72178332D02*
X68477175Y-72299285D01*
D10*
X79501904Y-46900180D02*
X79501904Y-46090657D01*
X79501904Y-46090657D02*
X79454285Y-45995419D01*
X79454285Y-45995419D02*
X79406666Y-45947800D01*
X79406666Y-45947800D02*
X79311428Y-45900180D01*
X79311428Y-45900180D02*
X79120952Y-45900180D01*
X79120952Y-45900180D02*
X79025714Y-45947800D01*
X79025714Y-45947800D02*
X78978095Y-45995419D01*
X78978095Y-45995419D02*
X78930476Y-46090657D01*
X78930476Y-46090657D02*
X78930476Y-46900180D01*
X78311428Y-46471609D02*
X78406666Y-46519228D01*
X78406666Y-46519228D02*
X78454285Y-46566847D01*
X78454285Y-46566847D02*
X78501904Y-46662085D01*
X78501904Y-46662085D02*
X78501904Y-46709704D01*
X78501904Y-46709704D02*
X78454285Y-46804942D01*
X78454285Y-46804942D02*
X78406666Y-46852561D01*
X78406666Y-46852561D02*
X78311428Y-46900180D01*
X78311428Y-46900180D02*
X78120952Y-46900180D01*
X78120952Y-46900180D02*
X78025714Y-46852561D01*
X78025714Y-46852561D02*
X77978095Y-46804942D01*
X77978095Y-46804942D02*
X77930476Y-46709704D01*
X77930476Y-46709704D02*
X77930476Y-46662085D01*
X77930476Y-46662085D02*
X77978095Y-46566847D01*
X77978095Y-46566847D02*
X78025714Y-46519228D01*
X78025714Y-46519228D02*
X78120952Y-46471609D01*
X78120952Y-46471609D02*
X78311428Y-46471609D01*
X78311428Y-46471609D02*
X78406666Y-46423990D01*
X78406666Y-46423990D02*
X78454285Y-46376371D01*
X78454285Y-46376371D02*
X78501904Y-46281133D01*
X78501904Y-46281133D02*
X78501904Y-46090657D01*
X78501904Y-46090657D02*
X78454285Y-45995419D01*
X78454285Y-45995419D02*
X78406666Y-45947800D01*
X78406666Y-45947800D02*
X78311428Y-45900180D01*
X78311428Y-45900180D02*
X78120952Y-45900180D01*
X78120952Y-45900180D02*
X78025714Y-45947800D01*
X78025714Y-45947800D02*
X77978095Y-45995419D01*
X77978095Y-45995419D02*
X77930476Y-46090657D01*
X77930476Y-46090657D02*
X77930476Y-46281133D01*
X77930476Y-46281133D02*
X77978095Y-46376371D01*
X77978095Y-46376371D02*
X78025714Y-46423990D01*
X78025714Y-46423990D02*
X78120952Y-46471609D01*
X56239580Y-50966666D02*
X56287200Y-51014285D01*
X56287200Y-51014285D02*
X56334819Y-51157142D01*
X56334819Y-51157142D02*
X56334819Y-51252380D01*
X56334819Y-51252380D02*
X56287200Y-51395237D01*
X56287200Y-51395237D02*
X56191961Y-51490475D01*
X56191961Y-51490475D02*
X56096723Y-51538094D01*
X56096723Y-51538094D02*
X55906247Y-51585713D01*
X55906247Y-51585713D02*
X55763390Y-51585713D01*
X55763390Y-51585713D02*
X55572914Y-51538094D01*
X55572914Y-51538094D02*
X55477676Y-51490475D01*
X55477676Y-51490475D02*
X55382438Y-51395237D01*
X55382438Y-51395237D02*
X55334819Y-51252380D01*
X55334819Y-51252380D02*
X55334819Y-51157142D01*
X55334819Y-51157142D02*
X55382438Y-51014285D01*
X55382438Y-51014285D02*
X55430057Y-50966666D01*
X55430057Y-50585713D02*
X55382438Y-50538094D01*
X55382438Y-50538094D02*
X55334819Y-50442856D01*
X55334819Y-50442856D02*
X55334819Y-50204761D01*
X55334819Y-50204761D02*
X55382438Y-50109523D01*
X55382438Y-50109523D02*
X55430057Y-50061904D01*
X55430057Y-50061904D02*
X55525295Y-50014285D01*
X55525295Y-50014285D02*
X55620533Y-50014285D01*
X55620533Y-50014285D02*
X55763390Y-50061904D01*
X55763390Y-50061904D02*
X56334819Y-50633332D01*
X56334819Y-50633332D02*
X56334819Y-50014285D01*
X67034580Y-46521666D02*
X67082200Y-46569285D01*
X67082200Y-46569285D02*
X67129819Y-46712142D01*
X67129819Y-46712142D02*
X67129819Y-46807380D01*
X67129819Y-46807380D02*
X67082200Y-46950237D01*
X67082200Y-46950237D02*
X66986961Y-47045475D01*
X66986961Y-47045475D02*
X66891723Y-47093094D01*
X66891723Y-47093094D02*
X66701247Y-47140713D01*
X66701247Y-47140713D02*
X66558390Y-47140713D01*
X66558390Y-47140713D02*
X66367914Y-47093094D01*
X66367914Y-47093094D02*
X66272676Y-47045475D01*
X66272676Y-47045475D02*
X66177438Y-46950237D01*
X66177438Y-46950237D02*
X66129819Y-46807380D01*
X66129819Y-46807380D02*
X66129819Y-46712142D01*
X66129819Y-46712142D02*
X66177438Y-46569285D01*
X66177438Y-46569285D02*
X66225057Y-46521666D01*
X66129819Y-45616904D02*
X66129819Y-46093094D01*
X66129819Y-46093094D02*
X66606009Y-46140713D01*
X66606009Y-46140713D02*
X66558390Y-46093094D01*
X66558390Y-46093094D02*
X66510771Y-45997856D01*
X66510771Y-45997856D02*
X66510771Y-45759761D01*
X66510771Y-45759761D02*
X66558390Y-45664523D01*
X66558390Y-45664523D02*
X66606009Y-45616904D01*
X66606009Y-45616904D02*
X66701247Y-45569285D01*
X66701247Y-45569285D02*
X66939342Y-45569285D01*
X66939342Y-45569285D02*
X67034580Y-45616904D01*
X67034580Y-45616904D02*
X67082200Y-45664523D01*
X67082200Y-45664523D02*
X67129819Y-45759761D01*
X67129819Y-45759761D02*
X67129819Y-45997856D01*
X67129819Y-45997856D02*
X67082200Y-46093094D01*
X67082200Y-46093094D02*
X67034580Y-46140713D01*
D12*
%TO.C,J3*%
X80010000Y-28515000D02*
X81340000Y-28515000D01*
X76140000Y-28515000D02*
X76140000Y-31175000D01*
X78740000Y-28515000D02*
X76140000Y-28515000D01*
X78740000Y-28515000D02*
X78740000Y-31175000D01*
X81340000Y-28515000D02*
X81340000Y-29845000D01*
X78740000Y-31175000D02*
X76140000Y-31175000D01*
%TO.C,J2*%
X65465000Y-31175000D02*
X65465000Y-28515000D01*
X60325000Y-31175000D02*
X65465000Y-31175000D01*
X59055000Y-31175000D02*
X57725000Y-31175000D01*
X60325000Y-28515000D02*
X65465000Y-28515000D01*
X57725000Y-31175000D02*
X57725000Y-29845000D01*
X60325000Y-31175000D02*
X60325000Y-28515000D01*
%TO.C,R2*%
X78197064Y-37105000D02*
X76742936Y-37105000D01*
X78197064Y-35285000D02*
X76742936Y-35285000D01*
%TO.C,R8*%
X83469564Y-73300000D02*
X82015436Y-73300000D01*
X83469564Y-71480000D02*
X82015436Y-71480000D01*
%TO.C,C3*%
X74853748Y-65130000D02*
X76276252Y-65130000D01*
X74853748Y-66950000D02*
X76276252Y-66950000D01*
%TO.C,SW1*%
X54820000Y-62065000D02*
X53820000Y-62065000D01*
X54820000Y-61065000D02*
X54820000Y-62065000D01*
X52820000Y-60065000D02*
X52820000Y-57465000D01*
X46820000Y-62015000D02*
X52620000Y-62015000D01*
X46720000Y-55515000D02*
X52720000Y-55515000D01*
X46620000Y-60065000D02*
X46620000Y-57465000D01*
%TO.C,U1*%
X70485000Y-46010000D02*
X72285000Y-46010000D01*
X70485000Y-46010000D02*
X69685000Y-46010000D01*
X70485000Y-42890000D02*
X71285000Y-42890000D01*
X70485000Y-42890000D02*
X69685000Y-42890000D01*
D13*
%TO.C,IC1*%
X69970000Y-65750000D02*
G75*
G03*
X69970000Y-65750000I-125000J0D01*
G01*
D12*
%TO.C,R15*%
X84180000Y-41367064D02*
X84180000Y-39912936D01*
X86000000Y-41367064D02*
X86000000Y-39912936D01*
%TO.C,U4*%
X64535000Y-40270000D02*
X64535000Y-34260000D01*
X71355000Y-38020000D02*
X71355000Y-34260000D01*
X64535000Y-34260000D02*
X65795000Y-34260000D01*
X71355000Y-34260000D02*
X70095000Y-34260000D01*
%TO.C,R14*%
X54517936Y-75290000D02*
X55972064Y-75290000D01*
X54517936Y-77110000D02*
X55972064Y-77110000D01*
%TO.C,R6*%
X79467064Y-54885000D02*
X78012936Y-54885000D01*
X79467064Y-53065000D02*
X78012936Y-53065000D01*
%TO.C,C1*%
X70760000Y-48818748D02*
X70760000Y-50241252D01*
X68940000Y-48818748D02*
X68940000Y-50241252D01*
%TO.C,J1*%
X62177500Y-42390000D02*
X62177500Y-41390000D01*
X62177500Y-41390000D02*
X61677500Y-41890000D01*
X61677500Y-41890000D02*
X62177500Y-42390000D01*
X61477500Y-46750000D02*
X57727500Y-46750000D01*
X61477500Y-34530000D02*
X61477500Y-46750000D01*
X61477500Y-34530000D02*
X57727500Y-34530000D01*
X44857500Y-46750000D02*
X52827500Y-46750000D01*
X44857500Y-34530000D02*
X52827500Y-34530000D01*
X44857500Y-34530000D02*
X44857500Y-46750000D01*
%TO.C,R11*%
X64907936Y-59415000D02*
X66362064Y-59415000D01*
X64907936Y-61235000D02*
X66362064Y-61235000D01*
%TO.C,R7*%
X74387064Y-54885000D02*
X72932936Y-54885000D01*
X74387064Y-53065000D02*
X72932936Y-53065000D01*
D14*
%TO.C,U3*%
X84988400Y-50622200D02*
X87731600Y-50622200D01*
X87731600Y-50622200D02*
X87731600Y-43357800D01*
X84988400Y-43357800D02*
X84988400Y-50622200D01*
X87731600Y-43357800D02*
X84988400Y-43357800D01*
D12*
%TO.C,R13*%
X54517936Y-71480000D02*
X55972064Y-71480000D01*
X54517936Y-73300000D02*
X55972064Y-73300000D01*
%TO.C,R12*%
X59827936Y-59415000D02*
X61282064Y-59415000D01*
X59827936Y-61235000D02*
X61282064Y-61235000D01*
%TO.C,R10*%
X69987936Y-59415000D02*
X71442064Y-59415000D01*
X69987936Y-61235000D02*
X71442064Y-61235000D01*
%TO.C,R3*%
X59782064Y-54885000D02*
X58327936Y-54885000D01*
X59782064Y-53065000D02*
X58327936Y-53065000D01*
%TO.C,R9*%
X75067936Y-59415000D02*
X76522064Y-59415000D01*
X75067936Y-61235000D02*
X76522064Y-61235000D01*
%TO.C,U2*%
X66880000Y-54847500D02*
X66155000Y-54847500D01*
X62660000Y-54122500D02*
X62660000Y-54847500D01*
X66880000Y-54122500D02*
X66880000Y-54847500D01*
X62660000Y-51352500D02*
X62660000Y-50627500D01*
X66880000Y-51352500D02*
X66880000Y-50627500D01*
X62660000Y-50627500D02*
X63385000Y-50627500D01*
X66880000Y-50627500D02*
X66155000Y-50627500D01*
%TO.C,R1*%
X78197064Y-39645000D02*
X76742936Y-39645000D01*
X78197064Y-37825000D02*
X76742936Y-37825000D01*
%TO.C,R4*%
X83469564Y-77110000D02*
X82015436Y-77110000D01*
X83469564Y-75290000D02*
X82015436Y-75290000D01*
%TO.C,R5*%
X84730000Y-54075436D02*
X84730000Y-55529564D01*
X82910000Y-54075436D02*
X82910000Y-55529564D01*
%TO.C,C4*%
X72115000Y-33731252D02*
X72115000Y-32308748D01*
X73935000Y-33731252D02*
X73935000Y-32308748D01*
D15*
%TO.C,LED1*%
X58525000Y-68455000D02*
X58525000Y-78865000D01*
X79095000Y-69271000D02*
X79095000Y-78865000D01*
D14*
%TO.C,U8*%
X81661000Y-52197000D02*
X81661000Y-51234550D01*
X81661000Y-49095450D02*
X81661000Y-48263854D01*
X81661000Y-46986146D02*
X81661000Y-45723854D01*
X81661000Y-44446146D02*
X81661000Y-43183854D01*
X81661000Y-41906146D02*
X81661000Y-40513000D01*
X81661000Y-40513000D02*
X75819000Y-40513000D01*
X75819000Y-52197000D02*
X81661000Y-52197000D01*
X75819000Y-50803854D02*
X75819000Y-52197000D01*
X75819000Y-48263854D02*
X75819000Y-49526146D01*
X75819000Y-45723854D02*
X75819000Y-46986146D01*
X75819000Y-43183854D02*
X75819000Y-44446146D01*
X75819000Y-40513000D02*
X75819000Y-41906146D01*
D12*
%TO.C,C2*%
X59766252Y-51710000D02*
X58343748Y-51710000D01*
X59766252Y-49890000D02*
X58343748Y-49890000D01*
%TO.C,C5*%
X63860000Y-47066252D02*
X63860000Y-45643748D01*
X65680000Y-47066252D02*
X65680000Y-45643748D01*
%TD*%
M02*
