M48
; DRILL file {KiCad 7.0.7} date Mon Dec 11 18:45:50 2023
; FORMAT={-:-/ absolute / inch / decimal}
; #@! TF.CreationDate,2023-12-11T18:45:50+01:00
; #@! TF.GenerationSoftware,Kicad,Pcbnew,7.0.7
; #@! TF.FileFunction,Plated,1,2,PTH
FMAT,2
INCH
; #@! TA.AperFunction,Plated,PTH,ViaDrill
T1C0.0118
; #@! TA.AperFunction,Plated,PTH,ViaDrill
T2C0.0157
; #@! TA.AperFunction,Plated,PTH,ComponentDrill
T3C0.0200
; #@! TA.AperFunction,Plated,PTH,ComponentDrill
T4C0.0298
; #@! TA.AperFunction,Plated,PTH,ComponentDrill
T5C0.0320
; #@! TA.AperFunction,Plated,PTH,ComponentDrill
T6C0.0374
; #@! TA.AperFunction,Plated,PTH,ComponentDrill
T7C0.0394
; #@! TA.AperFunction,Plated,PTH,ComponentDrill
T8C0.0906
%
G90
G05
T1
X2.275Y-2.925
X2.55Y-2.6
X2.575Y-2.525
X2.6Y-2.45
X2.625Y-1.675
X2.675Y-1.375
X2.675Y-1.8
X2.675Y-2.675
X2.725Y-1.675
X2.775Y-1.625
X2.775Y-2.1
X2.825Y-1.675
X2.8419Y-1.8919
X2.9202Y-1.4452
X2.925Y-1.55
X3.1Y-2.6
X3.15Y-2.925
X3.225Y-2.225
T2
X2.225Y-1.6275
X2.4375Y-1.8625
X3.0Y-2.5
T3
X3.3902Y-1.75
X3.3902Y-1.8
X3.3902Y-1.9
X3.3902Y-1.95
T4
X2.3591Y-2.75
X2.3591Y-3.05
X2.4591Y-2.75
X2.4591Y-3.05
X2.5591Y-2.75
X2.5591Y-3.05
X2.6591Y-2.75
X2.6591Y-3.05
X2.7591Y-2.75
X2.7591Y-3.05
X2.8591Y-2.75
X2.8591Y-3.05
X2.9591Y-2.75
X2.9591Y-3.05
X3.0591Y-2.75
X3.0591Y-3.05
T5
X2.95Y-1.675
X2.95Y-1.775
X2.95Y-1.875
X2.95Y-1.975
X3.25Y-1.675
X3.25Y-1.775
X3.25Y-1.875
X3.25Y-1.975
T6
X2.2885Y-1.5508
X2.2885Y-1.6492
X2.3672Y-1.5508
X2.3672Y-1.6492
T7
X2.325Y-1.175
X2.425Y-1.175
X2.525Y-1.175
X3.05Y-1.175
X3.15Y-1.175
T8
X2.1759Y-1.3638
X2.1759Y-1.8362
T0
M30
