%TF.GenerationSoftware,KiCad,Pcbnew,7.0.7*%
%TF.CreationDate,2023-12-11T18:46:51+01:00*%
%TF.ProjectId,projekt,70726f6a-656b-4742-9e6b-696361645f70,rev?*%
%TF.SameCoordinates,Original*%
%TF.FileFunction,Soldermask,Top*%
%TF.FilePolarity,Negative*%
%FSLAX46Y46*%
G04 Gerber Fmt 4.6, Leading zero omitted, Abs format (unit mm)*
G04 Created by KiCad (PCBNEW 7.0.7) date 2023-12-11 18:46:51*
%MOMM*%
%LPD*%
G01*
G04 APERTURE LIST*
G04 Aperture macros list*
%AMRoundRect*
0 Rectangle with rounded corners*
0 $1 Rounding radius*
0 $2 $3 $4 $5 $6 $7 $8 $9 X,Y pos of 4 corners*
0 Add a 4 corners polygon primitive as box body*
4,1,4,$2,$3,$4,$5,$6,$7,$8,$9,$2,$3,0*
0 Add four circle primitives for the rounded corners*
1,1,$1+$1,$2,$3*
1,1,$1+$1,$4,$5*
1,1,$1+$1,$6,$7*
1,1,$1+$1,$8,$9*
0 Add four rect primitives between the rounded corners*
20,1,$1+$1,$2,$3,$4,$5,0*
20,1,$1+$1,$4,$5,$6,$7,0*
20,1,$1+$1,$6,$7,$8,$9,0*
20,1,$1+$1,$8,$9,$2,$3,0*%
G04 Aperture macros list end*
%ADD10R,1.700000X1.700000*%
%ADD11O,1.700000X1.700000*%
%ADD12RoundRect,0.250000X0.312500X0.625000X-0.312500X0.625000X-0.312500X-0.625000X0.312500X-0.625000X0*%
%ADD13RoundRect,0.250000X-0.325000X-0.650000X0.325000X-0.650000X0.325000X0.650000X-0.325000X0.650000X0*%
%ADD14R,1.600000X1.400000*%
%ADD15RoundRect,0.150000X0.512500X0.150000X-0.512500X0.150000X-0.512500X-0.150000X0.512500X-0.150000X0*%
%ADD16R,0.800000X0.300000*%
%ADD17R,0.300000X0.800000*%
%ADD18R,1.760000X1.760000*%
%ADD19RoundRect,0.250000X0.625000X-0.312500X0.625000X0.312500X-0.625000X0.312500X-0.625000X-0.312500X0*%
%ADD20R,1.500000X2.000000*%
%ADD21R,3.800000X2.000000*%
%ADD22RoundRect,0.250000X-0.312500X-0.625000X0.312500X-0.625000X0.312500X0.625000X-0.312500X0.625000X0*%
%ADD23RoundRect,0.250000X-0.650000X0.325000X-0.650000X-0.325000X0.650000X-0.325000X0.650000X0.325000X0*%
%ADD24R,1.600000X1.600000*%
%ADD25C,1.600000*%
%ADD26C,4.000000*%
%ADD27R,1.016000X1.016000*%
%ADD28C,1.016000*%
%ADD29RoundRect,0.075000X0.075000X-0.337500X0.075000X0.337500X-0.075000X0.337500X-0.075000X-0.337500X0*%
%ADD30RoundRect,0.075000X0.337500X-0.075000X0.337500X0.075000X-0.337500X0.075000X-0.337500X-0.075000X0*%
%ADD31R,2.500000X2.500000*%
%ADD32RoundRect,0.250000X-0.625000X0.312500X-0.625000X-0.312500X0.625000X-0.312500X0.625000X0.312500X0*%
%ADD33RoundRect,0.250000X0.650000X-0.325000X0.650000X0.325000X-0.650000X0.325000X-0.650000X-0.325000X0*%
%ADD34R,1.158000X1.158000*%
%ADD35C,1.158000*%
%ADD36R,1.524000X1.524000*%
%ADD37C,1.524000*%
%ADD38RoundRect,0.250000X0.325000X0.650000X-0.325000X0.650000X-0.325000X-0.650000X0.325000X-0.650000X0*%
G04 APERTURE END LIST*
D10*
%TO.C,J3*%
X80010000Y-29845000D03*
D11*
X77470000Y-29845000D03*
%TD*%
D10*
%TO.C,J2*%
X59055000Y-29845000D03*
D11*
X61595000Y-29845000D03*
X64135000Y-29845000D03*
%TD*%
D12*
%TO.C,R2*%
X78932500Y-36195000D03*
X76007500Y-36195000D03*
%TD*%
%TO.C,R8*%
X84205000Y-72390000D03*
X81280000Y-72390000D03*
%TD*%
D13*
%TO.C,C3*%
X74090000Y-66040000D03*
X77040000Y-66040000D03*
%TD*%
D14*
%TO.C,SW1*%
X53720000Y-61015000D03*
X45720000Y-61015000D03*
X53720000Y-56515000D03*
X45720000Y-56515000D03*
%TD*%
D15*
%TO.C,U1*%
X71622500Y-45400000D03*
X71622500Y-44450000D03*
X71622500Y-43500000D03*
X69347500Y-43500000D03*
X69347500Y-44450000D03*
X69347500Y-45400000D03*
%TD*%
D16*
%TO.C,IC1*%
X69445000Y-65000000D03*
X69445000Y-64500000D03*
X69445000Y-64000000D03*
X69445000Y-63500000D03*
D17*
X68695000Y-62750000D03*
X68195000Y-62750000D03*
X67695000Y-62750000D03*
X67195000Y-62750000D03*
D16*
X66445000Y-63500000D03*
X66445000Y-64000000D03*
X66445000Y-64500000D03*
X66445000Y-65000000D03*
D17*
X67195000Y-65750000D03*
X67695000Y-65750000D03*
X68195000Y-65750000D03*
X68695000Y-65750000D03*
D18*
X67945000Y-64250000D03*
%TD*%
D19*
%TO.C,R15*%
X85090000Y-42102500D03*
X85090000Y-39177500D03*
%TD*%
D20*
%TO.C,U4*%
X65645000Y-39320000D03*
X67945000Y-39320000D03*
D21*
X67945000Y-33020000D03*
D20*
X70245000Y-39320000D03*
%TD*%
D22*
%TO.C,R14*%
X53782500Y-76200000D03*
X56707500Y-76200000D03*
%TD*%
D12*
%TO.C,R6*%
X80202500Y-53975000D03*
X77277500Y-53975000D03*
%TD*%
D23*
%TO.C,C1*%
X69850000Y-48055000D03*
X69850000Y-51005000D03*
%TD*%
D24*
%TO.C,J1*%
X60127500Y-41890000D03*
D25*
X60127500Y-39390000D03*
X58127500Y-39390000D03*
X58127500Y-41890000D03*
D26*
X55267500Y-46640000D03*
X55267500Y-34640000D03*
%TD*%
D22*
%TO.C,R11*%
X64172500Y-60325000D03*
X67097500Y-60325000D03*
%TD*%
D12*
%TO.C,R7*%
X75122500Y-53975000D03*
X72197500Y-53975000D03*
%TD*%
D27*
%TO.C,U3*%
X86110001Y-49530000D03*
D28*
X86110001Y-48260000D03*
X86110001Y-45720000D03*
X86110001Y-44450000D03*
%TD*%
D22*
%TO.C,R13*%
X53782500Y-72390000D03*
X56707500Y-72390000D03*
%TD*%
%TO.C,R12*%
X59092500Y-60325000D03*
X62017500Y-60325000D03*
%TD*%
%TO.C,R10*%
X69252500Y-60325000D03*
X72177500Y-60325000D03*
%TD*%
D12*
%TO.C,R3*%
X60517500Y-53975000D03*
X57592500Y-53975000D03*
%TD*%
D22*
%TO.C,R9*%
X74332500Y-60325000D03*
X77257500Y-60325000D03*
%TD*%
D29*
%TO.C,U2*%
X63795000Y-54675000D03*
X64445000Y-54675000D03*
X65095000Y-54675000D03*
X65745000Y-54675000D03*
D30*
X66707500Y-53712500D03*
X66707500Y-53062500D03*
X66707500Y-52412500D03*
X66707500Y-51762500D03*
D29*
X65745000Y-50800000D03*
X65095000Y-50800000D03*
X64445000Y-50800000D03*
X63795000Y-50800000D03*
D30*
X62832500Y-51762500D03*
X62832500Y-52412500D03*
X62832500Y-53062500D03*
X62832500Y-53712500D03*
D31*
X64770000Y-52737500D03*
%TD*%
D12*
%TO.C,R1*%
X78932500Y-38735000D03*
X76007500Y-38735000D03*
%TD*%
%TO.C,R4*%
X84205000Y-76200000D03*
X81280000Y-76200000D03*
%TD*%
D32*
%TO.C,R5*%
X83820000Y-53340000D03*
X83820000Y-56265000D03*
%TD*%
D33*
%TO.C,C4*%
X73025000Y-34495000D03*
X73025000Y-31545000D03*
%TD*%
D34*
%TO.C,LED1*%
X77700000Y-69850000D03*
D35*
X75160000Y-69850000D03*
X72620000Y-69850000D03*
X70080000Y-69850000D03*
X67540000Y-69850000D03*
X65000000Y-69850000D03*
X62460000Y-69850000D03*
X59920000Y-69850000D03*
X59920000Y-77470000D03*
X62460000Y-77470000D03*
X65000000Y-77470000D03*
X67540000Y-77470000D03*
X70080000Y-77470000D03*
X72620000Y-77470000D03*
X75160000Y-77470000D03*
X77700000Y-77470000D03*
%TD*%
D36*
%TO.C,U8*%
X82550000Y-50165000D03*
D37*
X82550000Y-47625000D03*
X82550000Y-45085000D03*
X82550000Y-42545000D03*
X74930000Y-42545000D03*
X74930000Y-45085000D03*
X74930000Y-47625000D03*
X74930000Y-50165000D03*
%TD*%
D38*
%TO.C,C2*%
X60530000Y-50800000D03*
X57580000Y-50800000D03*
%TD*%
D33*
%TO.C,C5*%
X64770000Y-47830000D03*
X64770000Y-44880000D03*
%TD*%
M02*
